%TF.GenerationSoftware,KiCad,Pcbnew,9.0.4*%
%TF.CreationDate,2026-03-30T09:23:41-07:00*%
%TF.ProjectId,robo_crawler_board,726f626f-5f63-4726-9177-6c65725f626f,rev?*%
%TF.SameCoordinates,Original*%
%TF.FileFunction,Copper,L2,Bot*%
%TF.FilePolarity,Positive*%
%FSLAX46Y46*%
G04 Gerber Fmt 4.6, Leading zero omitted, Abs format (unit mm)*
G04 Created by KiCad (PCBNEW 9.0.4) date 2026-03-30 09:23:41*
%MOMM*%
%LPD*%
G01*
G04 APERTURE LIST*
%TA.AperFunction,ComponentPad*%
%ADD10C,4.400000*%
%TD*%
%TA.AperFunction,ComponentPad*%
%ADD11R,3.000000X3.000000*%
%TD*%
%TA.AperFunction,ComponentPad*%
%ADD12C,3.000000*%
%TD*%
%TA.AperFunction,ComponentPad*%
%ADD13C,0.630000*%
%TD*%
%TA.AperFunction,SMDPad,CuDef*%
%ADD14R,2.600000X3.300000*%
%TD*%
%TA.AperFunction,ComponentPad*%
%ADD15C,1.524000*%
%TD*%
%TA.AperFunction,ViaPad*%
%ADD16C,1.000000*%
%TD*%
%TA.AperFunction,Conductor*%
%ADD17C,1.000000*%
%TD*%
%TA.AperFunction,Conductor*%
%ADD18C,0.750000*%
%TD*%
%TA.AperFunction,Conductor*%
%ADD19C,0.200000*%
%TD*%
G04 APERTURE END LIST*
D10*
%TO.P,H1,1,1*%
%TO.N,GND*%
X89620000Y-54540000D03*
%TD*%
D11*
%TO.P,J5,1,Pin_1*%
%TO.N,Net-(J5-Pin_1)*%
X97790000Y-122500000D03*
D12*
%TO.P,J5,2,Pin_2*%
%TO.N,Net-(J5-Pin_2)*%
X102870000Y-122500000D03*
%TD*%
D11*
%TO.P,J3,1,Pin_1*%
%TO.N,Net-(J3-Pin_1)*%
X92710000Y-74930000D03*
D12*
%TO.P,J3,2,Pin_2*%
%TO.N,Net-(J3-Pin_2)*%
X92710000Y-80010000D03*
%TD*%
D13*
%TO.P,U4,9,GND*%
%TO.N,GND*%
X100485000Y-68640000D03*
X100485000Y-67340000D03*
X100485000Y-66040000D03*
D14*
X99835000Y-67340000D03*
D13*
X99185000Y-68640000D03*
X99185000Y-67340000D03*
X99185000Y-66040000D03*
%TD*%
%TO.P,U7,9,GND*%
%TO.N,GND*%
X100645000Y-113695000D03*
X100645000Y-112395000D03*
X100645000Y-111095000D03*
D14*
X99995000Y-112395000D03*
D13*
X99345000Y-113695000D03*
X99345000Y-112395000D03*
X99345000Y-111095000D03*
%TD*%
D15*
%TO.P,U3,1,IN-*%
%TO.N,Net-(J1-Pin_1)*%
X177890000Y-107782000D03*
%TO.P,U3,2,IN+*%
%TO.N,Net-(J1-Pin_2)*%
X177890000Y-125562000D03*
%TO.P,U3,3,OUT-*%
%TO.N,GND*%
X137250000Y-107782000D03*
%TO.P,U3,4,OUT+*%
%TO.N,+5V*%
X137250000Y-125562000D03*
%TD*%
D11*
%TO.P,J2,1,Pin_1*%
%TO.N,Net-(J2-Pin_1)*%
X102540000Y-57150000D03*
D12*
%TO.P,J2,2,Pin_2*%
%TO.N,Net-(J2-Pin_2)*%
X97460000Y-57150000D03*
%TD*%
D13*
%TO.P,U9,9,GND*%
%TO.N,GND*%
X123775000Y-68950000D03*
X123775000Y-67650000D03*
X123775000Y-66350000D03*
D14*
X123125000Y-67650000D03*
D13*
X122475000Y-68950000D03*
X122475000Y-67650000D03*
X122475000Y-66350000D03*
%TD*%
D11*
%TO.P,J7,1,Pin_1*%
%TO.N,Net-(J7-Pin_1)*%
X125500000Y-57150000D03*
D12*
%TO.P,J7,2,Pin_2*%
%TO.N,Net-(J7-Pin_2)*%
X120420000Y-57150000D03*
%TD*%
D11*
%TO.P,J6,1,Pin_1*%
%TO.N,Net-(J6-Pin_1)*%
X120650000Y-122500000D03*
D12*
%TO.P,J6,2,Pin_2*%
%TO.N,Net-(J6-Pin_2)*%
X125730000Y-122500000D03*
%TD*%
D11*
%TO.P,J4,1,Pin_1*%
%TO.N,Net-(J4-Pin_1)*%
X92710000Y-100330000D03*
D12*
%TO.P,J4,2,Pin_2*%
%TO.N,Net-(J4-Pin_2)*%
X92710000Y-105410000D03*
%TD*%
D13*
%TO.P,U6,9,GND*%
%TO.N,GND*%
X104705000Y-100705000D03*
X104705000Y-99405000D03*
X104705000Y-98105000D03*
D14*
X104055000Y-99405000D03*
D13*
X103405000Y-100705000D03*
X103405000Y-99405000D03*
X103405000Y-98105000D03*
%TD*%
D15*
%TO.P,U2,1,IN-*%
%TO.N,Net-(J1-Pin_1)*%
X177890000Y-54442000D03*
%TO.P,U2,2,IN+*%
%TO.N,Net-(J1-Pin_2)*%
X177890000Y-72222000D03*
%TO.P,U2,3,OUT-*%
%TO.N,GND*%
X137250000Y-54442000D03*
%TO.P,U2,4,OUT+*%
%TO.N,+12V*%
X137250000Y-72222000D03*
%TD*%
D11*
%TO.P,J1,1,Pin_1*%
%TO.N,Net-(J1-Pin_1)*%
X180000000Y-92540000D03*
D12*
%TO.P,J1,2,Pin_2*%
%TO.N,Net-(J1-Pin_2)*%
X180000000Y-87460000D03*
%TD*%
D10*
%TO.P,H3,1,1*%
%TO.N,GND*%
X182620000Y-125040000D03*
%TD*%
D15*
%TO.P,U1,1,5v*%
%TO.N,+5V*%
X124363000Y-77567000D03*
%TO.P,U1,2,VDD33*%
%TO.N,unconnected-(U1-VDD33-Pad2)*%
X170083000Y-77567000D03*
%TO.P,U1,3,EN*%
%TO.N,unconnected-(U1-EN-Pad3)*%
X167543000Y-77567000D03*
%TO.P,U1,4,VP*%
%TO.N,unconnected-(U1-VP-Pad4)*%
X165003000Y-77567000D03*
%TO.P,U1,5,VN*%
%TO.N,unconnected-(U1-VN-Pad5)*%
X162463000Y-77567000D03*
%TO.P,U1,6,IO34*%
%TO.N,unconnected-(U1-IO34-Pad6)*%
X159923000Y-77567000D03*
%TO.P,U1,7,IO35*%
%TO.N,unconnected-(U1-IO35-Pad7)*%
X157383000Y-77567000D03*
%TO.P,U1,8,IO32*%
%TO.N,unconnected-(U1-IO32-Pad8)*%
X154843000Y-77567000D03*
%TO.P,U1,9,IO33*%
%TO.N,unconnected-(U1-IO33-Pad9)*%
X152303000Y-77567000D03*
%TO.P,U1,10,IO25*%
%TO.N,unconnected-(U1-IO25-Pad10)*%
X149763000Y-77567000D03*
%TO.P,U1,11,IO26*%
%TO.N,MOTOR6_CH1*%
X147223000Y-77567000D03*
%TO.P,U1,12,IO27*%
%TO.N,MOTOR6_CH2*%
X144683000Y-77567000D03*
%TO.P,U1,13,IO14*%
%TO.N,MOTOR2_CH1*%
X142143000Y-77567000D03*
%TO.P,U1,14,IO12*%
%TO.N,MOTOR1_CH1*%
X139603000Y-77567000D03*
%TO.P,U1,15,GND*%
%TO.N,unconnected-(U1-GND-Pad15)*%
X137063000Y-77567000D03*
%TO.P,U1,16,IO13*%
%TO.N,MOTOR1_CH2*%
X134523000Y-77567000D03*
%TO.P,U1,17,SD2*%
%TO.N,unconnected-(U1-SD2-Pad17)*%
X131983000Y-77567000D03*
%TO.P,U1,18,SD3*%
%TO.N,unconnected-(U1-SD3-Pad18)*%
X129443000Y-77567000D03*
%TO.P,U1,19,CMD*%
%TO.N,unconnected-(U1-CMD-Pad19)*%
X126903000Y-77567000D03*
%TO.P,U1,20,CLK*%
%TO.N,unconnected-(U1-CLK-Pad20)*%
X124363000Y-103094000D03*
%TO.P,U1,21,SD0*%
%TO.N,unconnected-(U1-SD0-Pad21)*%
X126903000Y-103094000D03*
%TO.P,U1,22,SD1*%
%TO.N,unconnected-(U1-SD1-Pad22)*%
X129443000Y-103094000D03*
%TO.P,U1,23,IO15*%
%TO.N,unconnected-(U1-IO15-Pad23)*%
X131983000Y-103094000D03*
%TO.P,U1,24,IO2*%
%TO.N,unconnected-(U1-IO2-Pad24)*%
X134523000Y-103094000D03*
%TO.P,U1,25,IO0*%
%TO.N,MOTOR2_CH2*%
X137063000Y-103094000D03*
%TO.P,U1,26,IO4*%
%TO.N,unconnected-(U1-IO4-Pad26)*%
X139603000Y-103094000D03*
%TO.P,U1,27,IO16*%
%TO.N,MOTOR3_CH1*%
X142143000Y-103094000D03*
%TO.P,U1,28,IO17*%
%TO.N,MOTOR3_CH2*%
X144683000Y-103094000D03*
%TO.P,U1,29,IO5*%
%TO.N,unconnected-(U1-IO5-Pad29)*%
X147223000Y-103094000D03*
%TO.P,U1,30,IO18*%
%TO.N,MOTOR4_CH1*%
X149763000Y-103094000D03*
%TO.P,U1,31,IO19*%
%TO.N,MOTOR4_CH2*%
X152303000Y-103094000D03*
%TO.P,U1,32,NC*%
%TO.N,unconnected-(U1-NC-Pad32)*%
X154843000Y-103094000D03*
%TO.P,U1,33,IO21*%
%TO.N,unconnected-(U1-IO21-Pad33)*%
X157383000Y-103094000D03*
%TO.P,U1,34,RXD0*%
%TO.N,unconnected-(U1-RXD0-Pad34)*%
X159923000Y-103094000D03*
%TO.P,U1,35,TXD0*%
%TO.N,unconnected-(U1-TXD0-Pad35)*%
X162463000Y-103094000D03*
%TO.P,U1,36,IO22*%
%TO.N,MOTOR5_CH1*%
X165003000Y-103094000D03*
%TO.P,U1,37,IO23*%
%TO.N,MOTOR5_CH2*%
X167543000Y-103094000D03*
%TO.P,U1,38,GND*%
%TO.N,GND*%
X170083000Y-103094000D03*
%TD*%
D13*
%TO.P,U8,9,GND*%
%TO.N,GND*%
X123505000Y-114965000D03*
X123505000Y-113665000D03*
X123505000Y-112365000D03*
D14*
X122855000Y-113665000D03*
D13*
X122205000Y-114965000D03*
X122205000Y-113665000D03*
X122205000Y-112365000D03*
%TD*%
D10*
%TO.P,H4,1,1*%
%TO.N,GND*%
X89620000Y-125040000D03*
%TD*%
%TO.P,H2,1,1*%
%TO.N,GND*%
X182620000Y-54540000D03*
%TD*%
D13*
%TO.P,U5,9,GND*%
%TO.N,GND*%
X104455000Y-81705000D03*
X104455000Y-80405000D03*
X104455000Y-79105000D03*
D14*
X103805000Y-80405000D03*
D13*
X103155000Y-81705000D03*
X103155000Y-80405000D03*
X103155000Y-79105000D03*
%TD*%
D16*
%TO.N,Net-(J2-Pin_2)*%
X91250000Y-59250000D03*
%TO.N,Net-(J2-Pin_1)*%
X96580000Y-60600000D03*
%TO.N,Net-(J3-Pin_2)*%
X93750000Y-88750000D03*
%TO.N,Net-(J3-Pin_1)*%
X96000000Y-85250000D03*
%TO.N,Net-(J4-Pin_1)*%
X95000000Y-95750000D03*
%TO.N,Net-(J4-Pin_2)*%
X98000000Y-105000000D03*
%TO.N,Net-(J5-Pin_1)*%
X91500000Y-115750000D03*
%TO.N,Net-(J5-Pin_2)*%
X101250000Y-117000000D03*
%TO.N,Net-(J6-Pin_2)*%
X121500000Y-117500000D03*
%TO.N,Net-(J6-Pin_1)*%
X114000000Y-120500000D03*
%TO.N,Net-(J7-Pin_1)*%
X119500000Y-60500000D03*
%TO.N,Net-(J7-Pin_2)*%
X115000000Y-58500000D03*
%TO.N,GND*%
X125250000Y-91750000D03*
X157750000Y-62500000D03*
X146000000Y-114500000D03*
%TO.N,MOTOR6_CH2*%
X140750000Y-70000000D03*
%TO.N,MOTOR5_CH2*%
X162500000Y-118250000D03*
%TO.N,MOTOR2_CH2*%
X132750000Y-88250000D03*
%TO.N,MOTOR1_CH1*%
X132000000Y-72000000D03*
%TO.N,MOTOR1_CH2*%
X133250000Y-75250000D03*
%TO.N,MOTOR3_CH1*%
X138750000Y-100000000D03*
%TO.N,MOTOR2_CH1*%
X137250000Y-82500000D03*
%TO.N,MOTOR6_CH1*%
X147223000Y-71473000D03*
%TO.N,MOTOR4_CH1*%
X133750000Y-105250000D03*
%TO.N,MOTOR4_CH2*%
X150250000Y-109250000D03*
%TO.N,MOTOR3_CH2*%
X143250000Y-101000000D03*
%TO.N,MOTOR5_CH1*%
X155000000Y-119750000D03*
%TO.N,+12V*%
X99000000Y-97500000D03*
X97250000Y-109000000D03*
X119750000Y-109000000D03*
X99000000Y-78500000D03*
X120250000Y-63500000D03*
X94000000Y-65250000D03*
%TD*%
D17*
%TO.N,Net-(J1-Pin_1)*%
X175500000Y-88040000D02*
X175500000Y-56832000D01*
X180000000Y-92540000D02*
X175500000Y-88040000D01*
X180000000Y-92540000D02*
X180000000Y-105672000D01*
X175500000Y-56832000D02*
X177890000Y-54442000D01*
X180000000Y-105672000D02*
X177890000Y-107782000D01*
%TO.N,Net-(J1-Pin_2)*%
X180000000Y-87460000D02*
X180000000Y-74332000D01*
X177890000Y-123110000D02*
X177890000Y-125562000D01*
X180000000Y-87460000D02*
X183250000Y-90710000D01*
X180000000Y-74332000D02*
X177890000Y-72222000D01*
X183250000Y-90710000D02*
X183250000Y-117750000D01*
X183250000Y-117750000D02*
X177890000Y-123110000D01*
D18*
%TO.N,Net-(J2-Pin_2)*%
X93430000Y-57250000D02*
X97500000Y-57250000D01*
X91430000Y-59250000D02*
X93430000Y-57250000D01*
X91250000Y-59250000D02*
X91430000Y-59250000D01*
%TO.N,Net-(J2-Pin_1)*%
X96580000Y-60600000D02*
X99230000Y-60600000D01*
X99230000Y-60600000D02*
X102580000Y-57250000D01*
%TO.N,Net-(J3-Pin_2)*%
X92710000Y-80010000D02*
X92710000Y-87710000D01*
X92710000Y-87710000D02*
X93750000Y-88750000D01*
%TO.N,Net-(J3-Pin_1)*%
X95250000Y-75500000D02*
X95250000Y-84500000D01*
X92710000Y-74930000D02*
X94680000Y-74930000D01*
X95250000Y-84500000D02*
X96000000Y-85250000D01*
X94680000Y-74930000D02*
X95250000Y-75500000D01*
%TO.N,Net-(J4-Pin_1)*%
X92710000Y-98040000D02*
X95000000Y-95750000D01*
X92710000Y-100330000D02*
X92710000Y-98040000D01*
%TO.N,Net-(J4-Pin_2)*%
X97590000Y-105410000D02*
X98000000Y-105000000D01*
X92710000Y-105410000D02*
X97590000Y-105410000D01*
%TO.N,Net-(J5-Pin_1)*%
X91500000Y-119500000D02*
X91500000Y-115750000D01*
X97790000Y-122500000D02*
X94500000Y-122500000D01*
X94500000Y-122500000D02*
X91500000Y-119500000D01*
%TO.N,Net-(J5-Pin_2)*%
X102870000Y-122500000D02*
X102870000Y-118620000D01*
X102870000Y-118620000D02*
X101250000Y-117000000D01*
%TO.N,Net-(J6-Pin_2)*%
X121500000Y-117500000D02*
X123750000Y-117500000D01*
X125730000Y-119480000D02*
X125730000Y-122500000D01*
X123750000Y-117500000D02*
X125730000Y-119480000D01*
%TO.N,Net-(J6-Pin_1)*%
X120650000Y-122500000D02*
X116000000Y-122500000D01*
X116000000Y-122500000D02*
X114000000Y-120500000D01*
%TO.N,Net-(J7-Pin_1)*%
X119500000Y-60500000D02*
X122150000Y-60500000D01*
X122150000Y-60500000D02*
X125500000Y-57150000D01*
%TO.N,Net-(J7-Pin_2)*%
X116350000Y-57150000D02*
X115000000Y-58500000D01*
X120420000Y-57150000D02*
X116350000Y-57150000D01*
D19*
%TO.N,GND*%
X137250000Y-118750000D02*
X141000000Y-122500000D01*
X137250000Y-107782000D02*
X137250000Y-118750000D01*
X170083000Y-113167000D02*
X170083000Y-103094000D01*
X141000000Y-122500000D02*
X160750000Y-122500000D01*
X160750000Y-122500000D02*
X170083000Y-113167000D01*
%TO.N,MOTOR6_CH2*%
X144683000Y-71933000D02*
X144683000Y-77567000D01*
X140750000Y-70000000D02*
X142750000Y-70000000D01*
X142750000Y-70000000D02*
X144683000Y-71933000D01*
%TO.N,MOTOR5_CH2*%
X165250000Y-115500000D02*
X162500000Y-118250000D01*
X167543000Y-113207000D02*
X165250000Y-115500000D01*
X167543000Y-103094000D02*
X167543000Y-113207000D01*
%TO.N,MOTOR2_CH2*%
X137063000Y-92563000D02*
X137063000Y-103094000D01*
X132750000Y-88250000D02*
X137063000Y-92563000D01*
%TO.N,+5V*%
X174000000Y-112250000D02*
X174000000Y-94000000D01*
X160688000Y-125562000D02*
X174000000Y-112250000D01*
X174000000Y-94000000D02*
X168250000Y-88250000D01*
X137250000Y-125562000D02*
X160688000Y-125562000D01*
X168250000Y-88250000D02*
X135046000Y-88250000D01*
X135046000Y-88250000D02*
X124363000Y-77567000D01*
%TO.N,MOTOR1_CH1*%
X134036000Y-72000000D02*
X132000000Y-72000000D01*
X139603000Y-77567000D02*
X134036000Y-72000000D01*
%TO.N,MOTOR1_CH2*%
X133250000Y-76294000D02*
X134523000Y-77567000D01*
X133250000Y-75250000D02*
X133250000Y-76294000D01*
%TO.N,MOTOR3_CH1*%
X142143000Y-103094000D02*
X139049000Y-100000000D01*
X139049000Y-100000000D02*
X138750000Y-100000000D01*
%TO.N,MOTOR2_CH1*%
X142143000Y-77567000D02*
X137250000Y-82460000D01*
X137250000Y-82460000D02*
X137250000Y-82500000D01*
%TO.N,MOTOR6_CH1*%
X147223000Y-71473000D02*
X147223000Y-77567000D01*
%TO.N,MOTOR4_CH1*%
X149763000Y-103094000D02*
X147607000Y-105250000D01*
X147607000Y-105250000D02*
X133750000Y-105250000D01*
%TO.N,MOTOR4_CH2*%
X152303000Y-107197000D02*
X150250000Y-109250000D01*
X152303000Y-103094000D02*
X152303000Y-107197000D01*
%TO.N,MOTOR3_CH2*%
X143250000Y-101000000D02*
X144250000Y-101000000D01*
X144683000Y-101433000D02*
X144683000Y-103094000D01*
X144250000Y-101000000D02*
X144683000Y-101433000D01*
%TO.N,MOTOR5_CH1*%
X165003000Y-109747000D02*
X165003000Y-103094000D01*
X155000000Y-119750000D02*
X165003000Y-109747000D01*
D18*
%TO.N,+12V*%
X117750000Y-107000000D02*
X119750000Y-109000000D01*
X120250000Y-63500000D02*
X95750000Y-63500000D01*
X137250000Y-65250000D02*
X135500000Y-63500000D01*
X137250000Y-72222000D02*
X137250000Y-65250000D01*
X99000000Y-75250000D02*
X99000000Y-78500000D01*
X103750000Y-107000000D02*
X115500000Y-107000000D01*
X99000000Y-102250000D02*
X99750000Y-103000000D01*
X115500000Y-107000000D02*
X117750000Y-107000000D01*
X99000000Y-97500000D02*
X99000000Y-102250000D01*
X99000000Y-78500000D02*
X99000000Y-81250000D01*
X94000000Y-65250000D02*
X94000000Y-70250000D01*
X103750000Y-107000000D02*
X101750000Y-109000000D01*
X101750000Y-109000000D02*
X97250000Y-109000000D01*
X135500000Y-63500000D02*
X120250000Y-63500000D01*
X95750000Y-63500000D02*
X94000000Y-65250000D01*
X99750000Y-103000000D02*
X103750000Y-107000000D01*
X99000000Y-81250000D02*
X99000000Y-97500000D01*
X97000000Y-73250000D02*
X99000000Y-75250000D01*
X94000000Y-70250000D02*
X97000000Y-73250000D01*
%TD*%
%TA.AperFunction,Conductor*%
%TO.N,GND*%
G36*
X185562539Y-51560185D02*
G01*
X185608294Y-51612989D01*
X185619500Y-51664500D01*
X185619500Y-127915500D01*
X185599815Y-127982539D01*
X185547011Y-128028294D01*
X185495500Y-128039500D01*
X86744500Y-128039500D01*
X86677461Y-128019815D01*
X86631706Y-127967011D01*
X86620500Y-127915500D01*
X86620500Y-115848543D01*
X90499499Y-115848543D01*
X90537947Y-116041829D01*
X90537950Y-116041839D01*
X90615061Y-116228002D01*
X90624500Y-116275454D01*
X90624500Y-119586233D01*
X90658143Y-119755366D01*
X90658146Y-119755378D01*
X90724138Y-119914698D01*
X90724145Y-119914711D01*
X90819954Y-120058098D01*
X90819957Y-120058102D01*
X93819955Y-123058099D01*
X93906274Y-123144418D01*
X93941902Y-123180046D01*
X94085288Y-123275854D01*
X94085301Y-123275861D01*
X94244621Y-123341853D01*
X94244626Y-123341855D01*
X94413766Y-123375499D01*
X94413769Y-123375500D01*
X94413771Y-123375500D01*
X94586229Y-123375500D01*
X95665501Y-123375500D01*
X95732540Y-123395185D01*
X95778295Y-123447989D01*
X95789501Y-123499500D01*
X95789501Y-124047876D01*
X95795908Y-124107483D01*
X95846202Y-124242328D01*
X95846206Y-124242335D01*
X95932452Y-124357544D01*
X95932455Y-124357547D01*
X96047664Y-124443793D01*
X96047671Y-124443797D01*
X96182517Y-124494091D01*
X96182516Y-124494091D01*
X96189444Y-124494835D01*
X96242127Y-124500500D01*
X99337872Y-124500499D01*
X99397483Y-124494091D01*
X99532331Y-124443796D01*
X99647546Y-124357546D01*
X99733796Y-124242331D01*
X99784091Y-124107483D01*
X99790500Y-124047873D01*
X99790499Y-120952128D01*
X99784091Y-120892517D01*
X99733796Y-120757669D01*
X99733795Y-120757668D01*
X99733793Y-120757664D01*
X99647547Y-120642455D01*
X99647544Y-120642452D01*
X99532335Y-120556206D01*
X99532328Y-120556202D01*
X99397482Y-120505908D01*
X99397483Y-120505908D01*
X99337883Y-120499501D01*
X99337881Y-120499500D01*
X99337873Y-120499500D01*
X99337864Y-120499500D01*
X96242129Y-120499500D01*
X96242123Y-120499501D01*
X96182516Y-120505908D01*
X96047671Y-120556202D01*
X96047664Y-120556206D01*
X95932455Y-120642452D01*
X95932452Y-120642455D01*
X95846206Y-120757664D01*
X95846202Y-120757671D01*
X95795908Y-120892517D01*
X95789501Y-120952116D01*
X95789501Y-120952123D01*
X95789500Y-120952135D01*
X95789500Y-121500500D01*
X95769815Y-121567539D01*
X95717011Y-121613294D01*
X95665500Y-121624500D01*
X94914006Y-121624500D01*
X94846967Y-121604815D01*
X94826325Y-121588181D01*
X92411819Y-119173675D01*
X92378334Y-119112352D01*
X92375500Y-119085994D01*
X92375500Y-117098543D01*
X100249499Y-117098543D01*
X100287947Y-117291829D01*
X100287950Y-117291839D01*
X100363364Y-117473907D01*
X100363371Y-117473920D01*
X100472860Y-117637781D01*
X100472863Y-117637785D01*
X100612214Y-117777136D01*
X100612218Y-117777139D01*
X100776079Y-117886628D01*
X100776092Y-117886635D01*
X100962251Y-117963744D01*
X101002480Y-117990624D01*
X101958181Y-118946325D01*
X101991666Y-119007648D01*
X101994500Y-119034006D01*
X101994500Y-120623900D01*
X101974815Y-120690939D01*
X101932500Y-120731287D01*
X101756196Y-120833075D01*
X101548148Y-120992718D01*
X101362718Y-121178148D01*
X101203075Y-121386196D01*
X101071962Y-121613294D01*
X101071953Y-121613309D01*
X100971605Y-121855571D01*
X100971602Y-121855581D01*
X100903730Y-122108885D01*
X100869500Y-122368872D01*
X100869500Y-122631127D01*
X100891098Y-122795168D01*
X100903730Y-122891116D01*
X100935975Y-123011456D01*
X100971602Y-123144418D01*
X100971605Y-123144428D01*
X101071953Y-123386690D01*
X101071958Y-123386700D01*
X101203075Y-123613803D01*
X101362718Y-123821851D01*
X101362726Y-123821860D01*
X101548140Y-124007274D01*
X101548148Y-124007281D01*
X101756196Y-124166924D01*
X101983299Y-124298041D01*
X101983309Y-124298046D01*
X102225571Y-124398394D01*
X102225581Y-124398398D01*
X102478884Y-124466270D01*
X102727188Y-124498960D01*
X102738864Y-124500498D01*
X102738880Y-124500500D01*
X102738887Y-124500500D01*
X103001113Y-124500500D01*
X103001120Y-124500500D01*
X103261116Y-124466270D01*
X103514419Y-124398398D01*
X103691340Y-124325114D01*
X103756690Y-124298046D01*
X103756691Y-124298045D01*
X103756697Y-124298043D01*
X103983803Y-124166924D01*
X104191851Y-124007282D01*
X104191855Y-124007277D01*
X104191860Y-124007274D01*
X104377274Y-123821860D01*
X104377277Y-123821855D01*
X104377282Y-123821851D01*
X104536924Y-123613803D01*
X104668043Y-123386697D01*
X104768398Y-123144419D01*
X104836270Y-122891116D01*
X104870500Y-122631120D01*
X104870500Y-122368880D01*
X104836270Y-122108884D01*
X104768398Y-121855581D01*
X104672681Y-121624500D01*
X104668046Y-121613309D01*
X104668038Y-121613294D01*
X104536924Y-121386196D01*
X104377281Y-121178148D01*
X104377274Y-121178140D01*
X104191860Y-120992726D01*
X104191851Y-120992718D01*
X103983803Y-120833075D01*
X103807500Y-120731287D01*
X103799216Y-120722599D01*
X103788297Y-120717613D01*
X103775552Y-120697781D01*
X103759284Y-120680720D01*
X103756068Y-120667463D01*
X103750523Y-120658835D01*
X103745500Y-120623900D01*
X103745500Y-120598543D01*
X112999499Y-120598543D01*
X113037947Y-120791829D01*
X113037950Y-120791839D01*
X113113364Y-120973907D01*
X113113371Y-120973920D01*
X113222860Y-121137781D01*
X113222863Y-121137785D01*
X113362214Y-121277136D01*
X113362218Y-121277139D01*
X113526079Y-121386628D01*
X113526092Y-121386635D01*
X113712251Y-121463744D01*
X113752480Y-121490624D01*
X115441897Y-123180042D01*
X115441901Y-123180045D01*
X115585288Y-123275854D01*
X115585301Y-123275861D01*
X115744621Y-123341853D01*
X115744626Y-123341855D01*
X115913766Y-123375499D01*
X115913769Y-123375500D01*
X115913771Y-123375500D01*
X116086229Y-123375500D01*
X118525501Y-123375500D01*
X118592540Y-123395185D01*
X118638295Y-123447989D01*
X118649501Y-123499500D01*
X118649501Y-124047876D01*
X118655908Y-124107483D01*
X118706202Y-124242328D01*
X118706206Y-124242335D01*
X118792452Y-124357544D01*
X118792455Y-124357547D01*
X118907664Y-124443793D01*
X118907671Y-124443797D01*
X119042517Y-124494091D01*
X119042516Y-124494091D01*
X119049444Y-124494835D01*
X119102127Y-124500500D01*
X122197872Y-124500499D01*
X122257483Y-124494091D01*
X122392331Y-124443796D01*
X122507546Y-124357546D01*
X122593796Y-124242331D01*
X122644091Y-124107483D01*
X122650500Y-124047873D01*
X122650499Y-120952128D01*
X122644091Y-120892517D01*
X122593796Y-120757669D01*
X122593795Y-120757668D01*
X122593793Y-120757664D01*
X122507547Y-120642455D01*
X122507544Y-120642452D01*
X122392335Y-120556206D01*
X122392328Y-120556202D01*
X122257482Y-120505908D01*
X122257483Y-120505908D01*
X122197883Y-120499501D01*
X122197881Y-120499500D01*
X122197873Y-120499500D01*
X122197864Y-120499500D01*
X119102129Y-120499500D01*
X119102123Y-120499501D01*
X119042516Y-120505908D01*
X118907671Y-120556202D01*
X118907664Y-120556206D01*
X118792455Y-120642452D01*
X118792452Y-120642455D01*
X118706206Y-120757664D01*
X118706202Y-120757671D01*
X118655908Y-120892517D01*
X118649501Y-120952116D01*
X118649501Y-120952123D01*
X118649500Y-120952135D01*
X118649500Y-121500500D01*
X118629815Y-121567539D01*
X118577011Y-121613294D01*
X118525500Y-121624500D01*
X116414006Y-121624500D01*
X116346967Y-121604815D01*
X116326325Y-121588181D01*
X114990624Y-120252480D01*
X114963744Y-120212251D01*
X114886635Y-120026092D01*
X114886628Y-120026079D01*
X114777139Y-119862218D01*
X114777136Y-119862214D01*
X114637785Y-119722863D01*
X114637781Y-119722860D01*
X114473920Y-119613371D01*
X114473907Y-119613364D01*
X114291839Y-119537950D01*
X114291829Y-119537947D01*
X114098543Y-119499500D01*
X114098541Y-119499500D01*
X113901459Y-119499500D01*
X113901457Y-119499500D01*
X113708170Y-119537947D01*
X113708160Y-119537950D01*
X113526092Y-119613364D01*
X113526079Y-119613371D01*
X113362218Y-119722860D01*
X113362214Y-119722863D01*
X113222863Y-119862214D01*
X113222860Y-119862218D01*
X113113371Y-120026079D01*
X113113364Y-120026092D01*
X113037950Y-120208160D01*
X113037947Y-120208170D01*
X112999500Y-120401456D01*
X112999500Y-120401459D01*
X112999500Y-120598541D01*
X112999500Y-120598543D01*
X112999499Y-120598543D01*
X103745500Y-120598543D01*
X103745500Y-118533768D01*
X103745499Y-118533766D01*
X103731234Y-118462051D01*
X103711855Y-118364626D01*
X103675617Y-118277139D01*
X103645861Y-118205301D01*
X103645854Y-118205288D01*
X103550046Y-118061902D01*
X103529971Y-118041827D01*
X103428099Y-117939955D01*
X103086687Y-117598543D01*
X120499499Y-117598543D01*
X120537947Y-117791829D01*
X120537950Y-117791839D01*
X120613364Y-117973907D01*
X120613371Y-117973920D01*
X120722860Y-118137781D01*
X120722863Y-118137785D01*
X120862214Y-118277136D01*
X120862218Y-118277139D01*
X121026079Y-118386628D01*
X121026092Y-118386635D01*
X121208160Y-118462049D01*
X121208165Y-118462051D01*
X121208169Y-118462051D01*
X121208170Y-118462052D01*
X121401456Y-118500500D01*
X121401459Y-118500500D01*
X121598543Y-118500500D01*
X121728582Y-118474632D01*
X121791835Y-118462051D01*
X121852730Y-118436827D01*
X121978003Y-118384939D01*
X122025455Y-118375500D01*
X123335994Y-118375500D01*
X123403033Y-118395185D01*
X123423675Y-118411819D01*
X124818181Y-119806325D01*
X124851666Y-119867648D01*
X124854500Y-119894006D01*
X124854500Y-120623900D01*
X124834815Y-120690939D01*
X124792500Y-120731287D01*
X124616196Y-120833075D01*
X124408148Y-120992718D01*
X124222718Y-121178148D01*
X124063075Y-121386196D01*
X123931962Y-121613294D01*
X123931953Y-121613309D01*
X123831605Y-121855571D01*
X123831602Y-121855581D01*
X123763730Y-122108885D01*
X123729500Y-122368872D01*
X123729500Y-122631127D01*
X123751098Y-122795168D01*
X123763730Y-122891116D01*
X123795975Y-123011456D01*
X123831602Y-123144418D01*
X123831605Y-123144428D01*
X123931953Y-123386690D01*
X123931958Y-123386700D01*
X124063075Y-123613803D01*
X124222718Y-123821851D01*
X124222726Y-123821860D01*
X124408140Y-124007274D01*
X124408148Y-124007281D01*
X124616196Y-124166924D01*
X124843299Y-124298041D01*
X124843309Y-124298046D01*
X125085571Y-124398394D01*
X125085581Y-124398398D01*
X125338884Y-124466270D01*
X125587188Y-124498960D01*
X125598864Y-124500498D01*
X125598880Y-124500500D01*
X125598887Y-124500500D01*
X125861113Y-124500500D01*
X125861120Y-124500500D01*
X126121116Y-124466270D01*
X126374419Y-124398398D01*
X126551340Y-124325114D01*
X126616690Y-124298046D01*
X126616691Y-124298045D01*
X126616697Y-124298043D01*
X126843803Y-124166924D01*
X127051851Y-124007282D01*
X127051855Y-124007277D01*
X127051860Y-124007274D01*
X127237274Y-123821860D01*
X127237277Y-123821855D01*
X127237282Y-123821851D01*
X127396924Y-123613803D01*
X127528043Y-123386697D01*
X127628398Y-123144419D01*
X127696270Y-122891116D01*
X127730500Y-122631120D01*
X127730500Y-122368880D01*
X127696270Y-122108884D01*
X127628398Y-121855581D01*
X127532681Y-121624500D01*
X127528046Y-121613309D01*
X127528038Y-121613294D01*
X127396924Y-121386196D01*
X127237281Y-121178148D01*
X127237274Y-121178140D01*
X127051860Y-120992726D01*
X127051851Y-120992718D01*
X126843803Y-120833075D01*
X126667500Y-120731287D01*
X126619284Y-120680720D01*
X126605500Y-120623900D01*
X126605500Y-119393768D01*
X126605499Y-119393766D01*
X126582091Y-119276086D01*
X126571855Y-119224626D01*
X126566646Y-119212051D01*
X126505861Y-119065301D01*
X126505854Y-119065288D01*
X126410046Y-118921902D01*
X126351508Y-118863364D01*
X126288099Y-118799955D01*
X125336684Y-117848540D01*
X124308102Y-116819957D01*
X124308098Y-116819954D01*
X124164711Y-116724145D01*
X124164698Y-116724138D01*
X124005378Y-116658146D01*
X124005366Y-116658143D01*
X123836232Y-116624500D01*
X123836229Y-116624500D01*
X122025455Y-116624500D01*
X121978003Y-116615061D01*
X121791839Y-116537950D01*
X121791829Y-116537947D01*
X121598543Y-116499500D01*
X121598541Y-116499500D01*
X121401459Y-116499500D01*
X121401457Y-116499500D01*
X121208170Y-116537947D01*
X121208160Y-116537950D01*
X121026092Y-116613364D01*
X121026079Y-116613371D01*
X120862218Y-116722860D01*
X120862214Y-116722863D01*
X120722863Y-116862214D01*
X120722860Y-116862218D01*
X120613371Y-117026079D01*
X120613364Y-117026092D01*
X120537950Y-117208160D01*
X120537947Y-117208170D01*
X120499500Y-117401456D01*
X120499500Y-117401459D01*
X120499500Y-117598541D01*
X120499500Y-117598543D01*
X120499499Y-117598543D01*
X103086687Y-117598543D01*
X102240624Y-116752480D01*
X102213744Y-116712251D01*
X102136635Y-116526092D01*
X102136628Y-116526079D01*
X102027139Y-116362218D01*
X102027136Y-116362214D01*
X101887785Y-116222863D01*
X101887781Y-116222860D01*
X101723920Y-116113371D01*
X101723907Y-116113364D01*
X101541839Y-116037950D01*
X101541829Y-116037947D01*
X101348543Y-115999500D01*
X101348541Y-115999500D01*
X101151459Y-115999500D01*
X101151457Y-115999500D01*
X100958170Y-116037947D01*
X100958160Y-116037950D01*
X100776092Y-116113364D01*
X100776079Y-116113371D01*
X100612218Y-116222860D01*
X100612214Y-116222863D01*
X100472863Y-116362214D01*
X100472860Y-116362218D01*
X100363371Y-116526079D01*
X100363364Y-116526092D01*
X100287950Y-116708160D01*
X100287947Y-116708170D01*
X100249500Y-116901456D01*
X100249500Y-116901459D01*
X100249500Y-117098541D01*
X100249500Y-117098543D01*
X100249499Y-117098543D01*
X92375500Y-117098543D01*
X92375500Y-116275454D01*
X92384939Y-116228002D01*
X92462049Y-116041839D01*
X92462051Y-116041835D01*
X92500500Y-115848541D01*
X92500500Y-115651459D01*
X92500500Y-115651456D01*
X92462052Y-115458170D01*
X92462051Y-115458169D01*
X92462051Y-115458165D01*
X92422568Y-115362844D01*
X121055000Y-115362844D01*
X121061401Y-115422372D01*
X121061403Y-115422379D01*
X121111645Y-115557086D01*
X121111649Y-115557093D01*
X121197809Y-115672187D01*
X121197812Y-115672190D01*
X121312906Y-115758350D01*
X121312913Y-115758354D01*
X121447620Y-115808596D01*
X121447627Y-115808598D01*
X121507155Y-115814999D01*
X121507172Y-115815000D01*
X122605000Y-115815000D01*
X122605000Y-115718554D01*
X122604999Y-115718553D01*
X123105000Y-115718553D01*
X123105000Y-115815000D01*
X124202828Y-115815000D01*
X124202844Y-115814999D01*
X124262372Y-115808598D01*
X124262379Y-115808596D01*
X124397086Y-115758354D01*
X124397093Y-115758350D01*
X124512187Y-115672190D01*
X124512190Y-115672187D01*
X124598350Y-115557093D01*
X124598354Y-115557086D01*
X124648596Y-115422379D01*
X124648598Y-115422372D01*
X124654999Y-115362844D01*
X124655000Y-115362827D01*
X124655000Y-113915000D01*
X124108553Y-113915000D01*
X124262311Y-114068758D01*
X124295796Y-114130081D01*
X124290812Y-114199773D01*
X124262312Y-114244120D01*
X124191432Y-114315000D01*
X124262312Y-114385880D01*
X124295797Y-114447203D01*
X124290813Y-114516895D01*
X124262312Y-114561242D01*
X123105000Y-115718553D01*
X122604999Y-115718553D01*
X121818625Y-114932179D01*
X122040000Y-114932179D01*
X122040000Y-114997821D01*
X122065119Y-115058465D01*
X122111535Y-115104881D01*
X122172179Y-115130000D01*
X122237821Y-115130000D01*
X122298465Y-115104881D01*
X122344881Y-115058465D01*
X122370000Y-114997821D01*
X122370000Y-114965000D01*
X122558554Y-114965000D01*
X122605000Y-115011445D01*
X122605000Y-115011444D01*
X123105000Y-115011444D01*
X123151445Y-114965000D01*
X123118624Y-114932179D01*
X123340000Y-114932179D01*
X123340000Y-114997821D01*
X123365119Y-115058465D01*
X123411535Y-115104881D01*
X123472179Y-115130000D01*
X123537821Y-115130000D01*
X123598465Y-115104881D01*
X123644881Y-115058465D01*
X123670000Y-114997821D01*
X123670000Y-114932179D01*
X123644881Y-114871535D01*
X123598465Y-114825119D01*
X123537821Y-114800000D01*
X123472179Y-114800000D01*
X123411535Y-114825119D01*
X123365119Y-114871535D01*
X123340000Y-114932179D01*
X123118624Y-114932179D01*
X123105000Y-114918555D01*
X123105000Y-115011444D01*
X122605000Y-115011444D01*
X122605000Y-114918554D01*
X122558554Y-114965000D01*
X122370000Y-114965000D01*
X122370000Y-114932179D01*
X122344881Y-114871535D01*
X122298465Y-114825119D01*
X122237821Y-114800000D01*
X122172179Y-114800000D01*
X122111535Y-114825119D01*
X122065119Y-114871535D01*
X122040000Y-114932179D01*
X121818625Y-114932179D01*
X121447688Y-114561242D01*
X121414203Y-114499919D01*
X121419187Y-114430227D01*
X121424935Y-114417167D01*
X121477107Y-114315000D01*
X121908554Y-114315000D01*
X122205000Y-114611446D01*
X122501446Y-114315000D01*
X123208554Y-114315000D01*
X123505000Y-114611446D01*
X123801446Y-114315000D01*
X123505000Y-114018554D01*
X123208554Y-114315000D01*
X122501446Y-114315000D01*
X122205000Y-114018554D01*
X121908554Y-114315000D01*
X121477107Y-114315000D01*
X121491122Y-114287554D01*
X121447688Y-114244120D01*
X121414203Y-114182797D01*
X121419187Y-114113105D01*
X121447688Y-114068758D01*
X121601446Y-113915000D01*
X121055000Y-113915000D01*
X121055000Y-115362844D01*
X92422568Y-115362844D01*
X92422561Y-115362827D01*
X92386635Y-115276092D01*
X92386628Y-115276079D01*
X92277139Y-115112218D01*
X92277136Y-115112214D01*
X92137785Y-114972863D01*
X92137781Y-114972860D01*
X91973920Y-114863371D01*
X91973907Y-114863364D01*
X91791839Y-114787950D01*
X91791829Y-114787947D01*
X91598543Y-114749500D01*
X91598541Y-114749500D01*
X91401459Y-114749500D01*
X91401457Y-114749500D01*
X91208170Y-114787947D01*
X91208160Y-114787950D01*
X91026092Y-114863364D01*
X91026079Y-114863371D01*
X90862218Y-114972860D01*
X90862214Y-114972863D01*
X90722863Y-115112214D01*
X90722860Y-115112218D01*
X90613371Y-115276079D01*
X90613364Y-115276092D01*
X90537950Y-115458160D01*
X90537947Y-115458170D01*
X90499500Y-115651456D01*
X90499500Y-115651459D01*
X90499500Y-115848541D01*
X90499500Y-115848543D01*
X90499499Y-115848543D01*
X86620500Y-115848543D01*
X86620500Y-114092844D01*
X98195000Y-114092844D01*
X98201401Y-114152372D01*
X98201403Y-114152379D01*
X98251645Y-114287086D01*
X98251649Y-114287093D01*
X98337809Y-114402187D01*
X98337812Y-114402190D01*
X98452906Y-114488350D01*
X98452913Y-114488354D01*
X98587620Y-114538596D01*
X98587627Y-114538598D01*
X98647155Y-114544999D01*
X98647172Y-114545000D01*
X99745000Y-114545000D01*
X99745000Y-114448554D01*
X99744999Y-114448553D01*
X100245000Y-114448553D01*
X100245000Y-114545000D01*
X101342828Y-114545000D01*
X101342844Y-114544999D01*
X101402372Y-114538598D01*
X101402379Y-114538596D01*
X101537086Y-114488354D01*
X101537093Y-114488350D01*
X101652187Y-114402190D01*
X101652190Y-114402187D01*
X101738350Y-114287093D01*
X101738354Y-114287086D01*
X101788596Y-114152379D01*
X101788598Y-114152372D01*
X101794999Y-114092844D01*
X101795000Y-114092827D01*
X101795000Y-113632179D01*
X122040000Y-113632179D01*
X122040000Y-113697821D01*
X122065119Y-113758465D01*
X122111535Y-113804881D01*
X122172179Y-113830000D01*
X122237821Y-113830000D01*
X122298465Y-113804881D01*
X122344881Y-113758465D01*
X122370000Y-113697821D01*
X122370000Y-113632179D01*
X123340000Y-113632179D01*
X123340000Y-113697821D01*
X123365119Y-113758465D01*
X123411535Y-113804881D01*
X123472179Y-113830000D01*
X123537821Y-113830000D01*
X123598465Y-113804881D01*
X123644881Y-113758465D01*
X123670000Y-113697821D01*
X123670000Y-113632179D01*
X123644881Y-113571535D01*
X123598465Y-113525119D01*
X123537821Y-113500000D01*
X123472179Y-113500000D01*
X123411535Y-113525119D01*
X123365119Y-113571535D01*
X123340000Y-113632179D01*
X122370000Y-113632179D01*
X122344881Y-113571535D01*
X122298465Y-113525119D01*
X122237821Y-113500000D01*
X122172179Y-113500000D01*
X122111535Y-113525119D01*
X122065119Y-113571535D01*
X122040000Y-113632179D01*
X101795000Y-113632179D01*
X101795000Y-112645000D01*
X101248553Y-112645000D01*
X101402311Y-112798758D01*
X101435796Y-112860081D01*
X101430812Y-112929773D01*
X101402312Y-112974120D01*
X101331432Y-113045000D01*
X101402312Y-113115880D01*
X101435797Y-113177203D01*
X101430813Y-113246895D01*
X101402312Y-113291242D01*
X100245000Y-114448553D01*
X99744999Y-114448553D01*
X98958625Y-113662179D01*
X99180000Y-113662179D01*
X99180000Y-113727821D01*
X99205119Y-113788465D01*
X99251535Y-113834881D01*
X99312179Y-113860000D01*
X99377821Y-113860000D01*
X99438465Y-113834881D01*
X99484881Y-113788465D01*
X99510000Y-113727821D01*
X99510000Y-113695000D01*
X99698554Y-113695000D01*
X99745000Y-113741445D01*
X99745000Y-113741444D01*
X100245000Y-113741444D01*
X100291445Y-113695000D01*
X100258624Y-113662179D01*
X100480000Y-113662179D01*
X100480000Y-113727821D01*
X100505119Y-113788465D01*
X100551535Y-113834881D01*
X100612179Y-113860000D01*
X100677821Y-113860000D01*
X100738465Y-113834881D01*
X100784881Y-113788465D01*
X100810000Y-113727821D01*
X100810000Y-113662179D01*
X100784881Y-113601535D01*
X100738465Y-113555119D01*
X100677821Y-113530000D01*
X100612179Y-113530000D01*
X100551535Y-113555119D01*
X100505119Y-113601535D01*
X100480000Y-113662179D01*
X100258624Y-113662179D01*
X100245000Y-113648555D01*
X100245000Y-113741444D01*
X99745000Y-113741444D01*
X99745000Y-113648554D01*
X99698554Y-113695000D01*
X99510000Y-113695000D01*
X99510000Y-113662179D01*
X99484881Y-113601535D01*
X99438465Y-113555119D01*
X99377821Y-113530000D01*
X99312179Y-113530000D01*
X99251535Y-113555119D01*
X99205119Y-113601535D01*
X99180000Y-113662179D01*
X98958625Y-113662179D01*
X98587688Y-113291242D01*
X98554203Y-113229919D01*
X98559187Y-113160227D01*
X98564935Y-113147167D01*
X98617107Y-113045000D01*
X99048554Y-113045000D01*
X99345000Y-113341446D01*
X99641446Y-113045000D01*
X100348554Y-113045000D01*
X100645000Y-113341446D01*
X100941446Y-113045000D01*
X100645000Y-112748554D01*
X100348554Y-113045000D01*
X99641446Y-113045000D01*
X99345000Y-112748554D01*
X99048554Y-113045000D01*
X98617107Y-113045000D01*
X98631122Y-113017554D01*
X98587688Y-112974120D01*
X98554203Y-112912797D01*
X98559187Y-112843105D01*
X98587688Y-112798758D01*
X98741446Y-112645000D01*
X98195000Y-112645000D01*
X98195000Y-114092844D01*
X86620500Y-114092844D01*
X86620500Y-112362179D01*
X99180000Y-112362179D01*
X99180000Y-112427821D01*
X99205119Y-112488465D01*
X99251535Y-112534881D01*
X99312179Y-112560000D01*
X99377821Y-112560000D01*
X99438465Y-112534881D01*
X99484881Y-112488465D01*
X99510000Y-112427821D01*
X99510000Y-112362179D01*
X100480000Y-112362179D01*
X100480000Y-112427821D01*
X100505119Y-112488465D01*
X100551535Y-112534881D01*
X100612179Y-112560000D01*
X100677821Y-112560000D01*
X100738465Y-112534881D01*
X100784881Y-112488465D01*
X100810000Y-112427821D01*
X100810000Y-112362179D01*
X100784881Y-112301535D01*
X100738465Y-112255119D01*
X100677821Y-112230000D01*
X100612179Y-112230000D01*
X100551535Y-112255119D01*
X100505119Y-112301535D01*
X100480000Y-112362179D01*
X99510000Y-112362179D01*
X99484881Y-112301535D01*
X99438465Y-112255119D01*
X99377821Y-112230000D01*
X99312179Y-112230000D01*
X99251535Y-112255119D01*
X99205119Y-112301535D01*
X99180000Y-112362179D01*
X86620500Y-112362179D01*
X86620500Y-110697155D01*
X98195000Y-110697155D01*
X98195000Y-112145000D01*
X98741446Y-112145000D01*
X98741446Y-112144999D01*
X98587688Y-111991241D01*
X98554203Y-111929918D01*
X98559187Y-111860226D01*
X98564935Y-111847166D01*
X98617107Y-111745000D01*
X99048554Y-111745000D01*
X99345000Y-112041446D01*
X99641446Y-111745000D01*
X100348554Y-111745000D01*
X100645000Y-112041446D01*
X100941446Y-111745000D01*
X100645000Y-111448554D01*
X100348554Y-111745000D01*
X99641446Y-111745000D01*
X99345000Y-111448554D01*
X99048554Y-111745000D01*
X98617107Y-111745000D01*
X98631122Y-111717554D01*
X98587688Y-111674120D01*
X98554203Y-111612797D01*
X98559187Y-111543105D01*
X98587688Y-111498758D01*
X99024267Y-111062179D01*
X99180000Y-111062179D01*
X99180000Y-111127821D01*
X99205119Y-111188465D01*
X99251535Y-111234881D01*
X99312179Y-111260000D01*
X99377821Y-111260000D01*
X99438465Y-111234881D01*
X99484881Y-111188465D01*
X99510000Y-111127821D01*
X99510000Y-111095000D01*
X99698554Y-111095000D01*
X99745000Y-111141445D01*
X99745000Y-111141444D01*
X100245000Y-111141444D01*
X100291445Y-111095000D01*
X100258624Y-111062179D01*
X100480000Y-111062179D01*
X100480000Y-111127821D01*
X100505119Y-111188465D01*
X100551535Y-111234881D01*
X100612179Y-111260000D01*
X100677821Y-111260000D01*
X100738465Y-111234881D01*
X100784881Y-111188465D01*
X100810000Y-111127821D01*
X100810000Y-111062179D01*
X100784881Y-111001535D01*
X100738465Y-110955119D01*
X100677821Y-110930000D01*
X100612179Y-110930000D01*
X100551535Y-110955119D01*
X100505119Y-111001535D01*
X100480000Y-111062179D01*
X100258624Y-111062179D01*
X100245000Y-111048555D01*
X100245000Y-111141444D01*
X99745000Y-111141444D01*
X99745000Y-111048554D01*
X99698554Y-111095000D01*
X99510000Y-111095000D01*
X99510000Y-111062179D01*
X99484881Y-111001535D01*
X99438465Y-110955119D01*
X99377821Y-110930000D01*
X99312179Y-110930000D01*
X99251535Y-110955119D01*
X99205119Y-111001535D01*
X99180000Y-111062179D01*
X99024267Y-111062179D01*
X99130489Y-110955957D01*
X99744999Y-110341446D01*
X100245000Y-110341446D01*
X101402312Y-111498758D01*
X101435797Y-111560081D01*
X101430813Y-111629773D01*
X101402312Y-111674120D01*
X101331432Y-111745000D01*
X101402311Y-111815879D01*
X101435796Y-111877202D01*
X101430812Y-111946894D01*
X101402311Y-111991241D01*
X101248553Y-112144998D01*
X101248554Y-112145000D01*
X101795000Y-112145000D01*
X101795000Y-111967155D01*
X121055000Y-111967155D01*
X121055000Y-113415000D01*
X121601446Y-113415000D01*
X121601446Y-113414999D01*
X121447688Y-113261241D01*
X121414203Y-113199918D01*
X121419187Y-113130226D01*
X121424935Y-113117166D01*
X121477107Y-113015000D01*
X121908554Y-113015000D01*
X122205000Y-113311446D01*
X122501446Y-113015000D01*
X123208554Y-113015000D01*
X123505000Y-113311446D01*
X123801446Y-113015000D01*
X123505000Y-112718554D01*
X123208554Y-113015000D01*
X122501446Y-113015000D01*
X122205000Y-112718554D01*
X121908554Y-113015000D01*
X121477107Y-113015000D01*
X121491122Y-112987554D01*
X121447688Y-112944120D01*
X121414203Y-112882797D01*
X121419187Y-112813105D01*
X121447688Y-112768758D01*
X121884267Y-112332179D01*
X122040000Y-112332179D01*
X122040000Y-112397821D01*
X122065119Y-112458465D01*
X122111535Y-112504881D01*
X122172179Y-112530000D01*
X122237821Y-112530000D01*
X122298465Y-112504881D01*
X122344881Y-112458465D01*
X122370000Y-112397821D01*
X122370000Y-112365000D01*
X122558554Y-112365000D01*
X122605000Y-112411445D01*
X122605000Y-112411444D01*
X123105000Y-112411444D01*
X123151445Y-112365000D01*
X123118624Y-112332179D01*
X123340000Y-112332179D01*
X123340000Y-112397821D01*
X123365119Y-112458465D01*
X123411535Y-112504881D01*
X123472179Y-112530000D01*
X123537821Y-112530000D01*
X123598465Y-112504881D01*
X123644881Y-112458465D01*
X123670000Y-112397821D01*
X123670000Y-112332179D01*
X123644881Y-112271535D01*
X123598465Y-112225119D01*
X123537821Y-112200000D01*
X123472179Y-112200000D01*
X123411535Y-112225119D01*
X123365119Y-112271535D01*
X123340000Y-112332179D01*
X123118624Y-112332179D01*
X123105000Y-112318555D01*
X123105000Y-112411444D01*
X122605000Y-112411444D01*
X122605000Y-112318554D01*
X122558554Y-112365000D01*
X122370000Y-112365000D01*
X122370000Y-112332179D01*
X122344881Y-112271535D01*
X122298465Y-112225119D01*
X122237821Y-112200000D01*
X122172179Y-112200000D01*
X122111535Y-112225119D01*
X122065119Y-112271535D01*
X122040000Y-112332179D01*
X121884267Y-112332179D01*
X121990489Y-112225957D01*
X122604999Y-111611446D01*
X123105000Y-111611446D01*
X124262312Y-112768758D01*
X124295797Y-112830081D01*
X124290813Y-112899773D01*
X124262312Y-112944120D01*
X124191432Y-113015000D01*
X124262311Y-113085879D01*
X124295796Y-113147202D01*
X124290812Y-113216894D01*
X124262311Y-113261241D01*
X124108553Y-113414998D01*
X124108554Y-113415000D01*
X124655000Y-113415000D01*
X124655000Y-111967172D01*
X124654999Y-111967155D01*
X124648598Y-111907627D01*
X124648596Y-111907620D01*
X124598354Y-111772913D01*
X124598350Y-111772906D01*
X124512190Y-111657812D01*
X124512187Y-111657809D01*
X124397093Y-111571649D01*
X124397086Y-111571645D01*
X124262379Y-111521403D01*
X124262372Y-111521401D01*
X124202844Y-111515000D01*
X123105000Y-111515000D01*
X123105000Y-111611446D01*
X122604999Y-111611446D01*
X122605000Y-111611445D01*
X122605000Y-111515000D01*
X121507155Y-111515000D01*
X121447627Y-111521401D01*
X121447620Y-111521403D01*
X121312913Y-111571645D01*
X121312906Y-111571649D01*
X121197812Y-111657809D01*
X121197809Y-111657812D01*
X121111649Y-111772906D01*
X121111645Y-111772913D01*
X121061403Y-111907620D01*
X121061401Y-111907627D01*
X121055000Y-111967155D01*
X101795000Y-111967155D01*
X101795000Y-110697172D01*
X101794999Y-110697155D01*
X101788598Y-110637627D01*
X101788596Y-110637620D01*
X101738354Y-110502913D01*
X101738350Y-110502906D01*
X101652190Y-110387812D01*
X101652187Y-110387809D01*
X101537093Y-110301649D01*
X101537086Y-110301645D01*
X101402379Y-110251403D01*
X101402372Y-110251401D01*
X101342844Y-110245000D01*
X100245000Y-110245000D01*
X100245000Y-110341446D01*
X99744999Y-110341446D01*
X99745000Y-110341445D01*
X99745000Y-110245000D01*
X98647155Y-110245000D01*
X98587627Y-110251401D01*
X98587620Y-110251403D01*
X98452913Y-110301645D01*
X98452906Y-110301649D01*
X98337812Y-110387809D01*
X98337809Y-110387812D01*
X98251649Y-110502906D01*
X98251645Y-110502913D01*
X98201403Y-110637620D01*
X98201401Y-110637627D01*
X98195000Y-110697155D01*
X86620500Y-110697155D01*
X86620500Y-105278872D01*
X90709500Y-105278872D01*
X90709500Y-105541127D01*
X90733565Y-105723907D01*
X90743730Y-105801116D01*
X90811602Y-106054418D01*
X90811605Y-106054428D01*
X90911953Y-106296690D01*
X90911958Y-106296700D01*
X91043075Y-106523803D01*
X91202718Y-106731851D01*
X91202726Y-106731860D01*
X91388140Y-106917274D01*
X91388148Y-106917281D01*
X91596196Y-107076924D01*
X91823299Y-107208041D01*
X91823309Y-107208046D01*
X92038952Y-107297368D01*
X92065581Y-107308398D01*
X92318884Y-107376270D01*
X92578880Y-107410500D01*
X92578887Y-107410500D01*
X92841113Y-107410500D01*
X92841120Y-107410500D01*
X93101116Y-107376270D01*
X93354419Y-107308398D01*
X93596697Y-107208043D01*
X93823803Y-107076924D01*
X94031851Y-106917282D01*
X94031855Y-106917277D01*
X94031860Y-106917274D01*
X94217274Y-106731860D01*
X94217277Y-106731855D01*
X94217282Y-106731851D01*
X94376924Y-106523803D01*
X94478712Y-106347499D01*
X94529278Y-106299285D01*
X94586099Y-106285500D01*
X97676231Y-106285500D01*
X97676232Y-106285499D01*
X97845374Y-106251855D01*
X98004705Y-106185858D01*
X98148099Y-106090045D01*
X98247522Y-105990620D01*
X98287749Y-105963743D01*
X98291832Y-105962051D01*
X98291835Y-105962051D01*
X98440718Y-105900381D01*
X98473907Y-105886635D01*
X98473907Y-105886634D01*
X98473914Y-105886632D01*
X98637782Y-105777139D01*
X98777139Y-105637782D01*
X98886632Y-105473914D01*
X98962051Y-105291835D01*
X98989974Y-105151459D01*
X99000500Y-105098543D01*
X99000500Y-104901456D01*
X98962052Y-104708170D01*
X98962051Y-104708169D01*
X98962051Y-104708165D01*
X98962049Y-104708160D01*
X98886635Y-104526092D01*
X98886628Y-104526079D01*
X98777139Y-104362218D01*
X98777136Y-104362214D01*
X98637785Y-104222863D01*
X98637781Y-104222860D01*
X98473920Y-104113371D01*
X98473907Y-104113364D01*
X98291839Y-104037950D01*
X98291829Y-104037947D01*
X98098543Y-103999500D01*
X98098541Y-103999500D01*
X97901459Y-103999500D01*
X97901457Y-103999500D01*
X97708170Y-104037947D01*
X97708160Y-104037950D01*
X97526092Y-104113364D01*
X97526079Y-104113371D01*
X97362218Y-104222860D01*
X97362214Y-104222863D01*
X97222863Y-104362214D01*
X97222860Y-104362218D01*
X97144568Y-104479391D01*
X97090956Y-104524196D01*
X97041466Y-104534500D01*
X94586099Y-104534500D01*
X94519060Y-104514815D01*
X94478712Y-104472500D01*
X94376924Y-104296196D01*
X94217281Y-104088148D01*
X94217274Y-104088140D01*
X94031860Y-103902726D01*
X94031851Y-103902718D01*
X93823803Y-103743075D01*
X93596700Y-103611958D01*
X93596690Y-103611953D01*
X93354428Y-103511605D01*
X93354421Y-103511603D01*
X93354419Y-103511602D01*
X93101116Y-103443730D01*
X93043339Y-103436123D01*
X92841127Y-103409500D01*
X92841120Y-103409500D01*
X92578880Y-103409500D01*
X92578872Y-103409500D01*
X92347772Y-103439926D01*
X92318884Y-103443730D01*
X92065581Y-103511602D01*
X92065571Y-103511605D01*
X91823309Y-103611953D01*
X91823299Y-103611958D01*
X91596196Y-103743075D01*
X91388148Y-103902718D01*
X91202718Y-104088148D01*
X91043075Y-104296196D01*
X90911958Y-104523299D01*
X90911953Y-104523309D01*
X90811605Y-104765571D01*
X90811602Y-104765581D01*
X90743730Y-105018885D01*
X90709500Y-105278872D01*
X86620500Y-105278872D01*
X86620500Y-98782135D01*
X90709500Y-98782135D01*
X90709500Y-101877870D01*
X90709501Y-101877876D01*
X90715908Y-101937483D01*
X90766202Y-102072328D01*
X90766206Y-102072335D01*
X90852452Y-102187544D01*
X90852455Y-102187547D01*
X90967664Y-102273793D01*
X90967671Y-102273797D01*
X91102517Y-102324091D01*
X91102516Y-102324091D01*
X91109444Y-102324835D01*
X91162127Y-102330500D01*
X94257872Y-102330499D01*
X94317483Y-102324091D01*
X94452331Y-102273796D01*
X94567546Y-102187546D01*
X94653796Y-102072331D01*
X94704091Y-101937483D01*
X94710500Y-101877873D01*
X94710499Y-98782128D01*
X94705299Y-98733757D01*
X94704091Y-98722516D01*
X94653797Y-98587671D01*
X94653793Y-98587664D01*
X94567547Y-98472455D01*
X94567544Y-98472452D01*
X94452335Y-98386206D01*
X94452328Y-98386202D01*
X94317482Y-98335908D01*
X94317483Y-98335908D01*
X94257883Y-98329501D01*
X94257881Y-98329500D01*
X94257873Y-98329500D01*
X94257865Y-98329500D01*
X93958005Y-98329500D01*
X93890966Y-98309815D01*
X93845211Y-98257011D01*
X93835267Y-98187853D01*
X93864292Y-98124297D01*
X93870324Y-98117819D01*
X94506242Y-97481901D01*
X95247521Y-96740621D01*
X95287747Y-96713744D01*
X95291833Y-96712051D01*
X95291835Y-96712051D01*
X95473914Y-96636632D01*
X95637782Y-96527139D01*
X95777139Y-96387782D01*
X95886632Y-96223914D01*
X95962051Y-96041835D01*
X96000500Y-95848541D01*
X96000500Y-95651459D01*
X96000500Y-95651456D01*
X95962052Y-95458170D01*
X95962051Y-95458169D01*
X95962051Y-95458165D01*
X95962049Y-95458160D01*
X95886635Y-95276092D01*
X95886628Y-95276079D01*
X95777139Y-95112218D01*
X95777136Y-95112214D01*
X95637785Y-94972863D01*
X95637781Y-94972860D01*
X95473920Y-94863371D01*
X95473907Y-94863364D01*
X95291839Y-94787950D01*
X95291829Y-94787947D01*
X95098543Y-94749500D01*
X95098541Y-94749500D01*
X94901459Y-94749500D01*
X94901457Y-94749500D01*
X94708170Y-94787947D01*
X94708160Y-94787950D01*
X94526092Y-94863364D01*
X94526079Y-94863371D01*
X94362218Y-94972860D01*
X94362214Y-94972863D01*
X94222863Y-95112214D01*
X94222860Y-95112218D01*
X94113371Y-95276079D01*
X94113366Y-95276088D01*
X94036257Y-95462249D01*
X94009377Y-95502477D01*
X92537310Y-96974546D01*
X92151901Y-97359955D01*
X92114047Y-97397809D01*
X92029953Y-97481902D01*
X91934145Y-97625288D01*
X91934138Y-97625301D01*
X91868146Y-97784621D01*
X91868143Y-97784633D01*
X91834500Y-97953766D01*
X91834500Y-98205500D01*
X91814815Y-98272539D01*
X91762011Y-98318294D01*
X91710500Y-98329500D01*
X91162129Y-98329500D01*
X91162123Y-98329501D01*
X91102516Y-98335908D01*
X90967671Y-98386202D01*
X90967664Y-98386206D01*
X90852455Y-98472452D01*
X90852452Y-98472455D01*
X90766206Y-98587664D01*
X90766202Y-98587671D01*
X90715908Y-98722517D01*
X90709501Y-98782116D01*
X90709501Y-98782123D01*
X90709500Y-98782135D01*
X86620500Y-98782135D01*
X86620500Y-73382135D01*
X90709500Y-73382135D01*
X90709500Y-76477870D01*
X90709501Y-76477876D01*
X90715908Y-76537483D01*
X90766202Y-76672328D01*
X90766206Y-76672335D01*
X90852452Y-76787544D01*
X90852455Y-76787547D01*
X90967664Y-76873793D01*
X90967671Y-76873797D01*
X91102517Y-76924091D01*
X91102516Y-76924091D01*
X91109444Y-76924835D01*
X91162127Y-76930500D01*
X94250500Y-76930499D01*
X94317539Y-76950184D01*
X94363294Y-77002988D01*
X94374500Y-77054499D01*
X94374500Y-78546004D01*
X94354815Y-78613043D01*
X94302011Y-78658798D01*
X94232853Y-78668742D01*
X94169297Y-78639717D01*
X94162819Y-78633685D01*
X94031860Y-78502726D01*
X94031851Y-78502718D01*
X93823803Y-78343075D01*
X93596700Y-78211958D01*
X93596690Y-78211953D01*
X93354428Y-78111605D01*
X93354421Y-78111603D01*
X93354419Y-78111602D01*
X93101116Y-78043730D01*
X93043339Y-78036123D01*
X92841127Y-78009500D01*
X92841120Y-78009500D01*
X92578880Y-78009500D01*
X92578872Y-78009500D01*
X92347772Y-78039926D01*
X92318884Y-78043730D01*
X92065581Y-78111602D01*
X92065571Y-78111605D01*
X91823309Y-78211953D01*
X91823299Y-78211958D01*
X91596196Y-78343075D01*
X91388148Y-78502718D01*
X91202718Y-78688148D01*
X91043075Y-78896196D01*
X90911958Y-79123299D01*
X90911953Y-79123309D01*
X90811605Y-79365571D01*
X90811602Y-79365581D01*
X90761356Y-79553105D01*
X90743730Y-79618885D01*
X90709500Y-79878872D01*
X90709500Y-80141127D01*
X90711327Y-80155000D01*
X90743730Y-80401116D01*
X90782252Y-80544881D01*
X90811602Y-80654418D01*
X90811605Y-80654428D01*
X90911953Y-80896690D01*
X90911958Y-80896700D01*
X91043075Y-81123803D01*
X91202718Y-81331851D01*
X91202726Y-81331860D01*
X91388140Y-81517274D01*
X91388148Y-81517281D01*
X91388149Y-81517282D01*
X91436554Y-81554424D01*
X91596196Y-81676924D01*
X91772500Y-81778712D01*
X91820715Y-81829278D01*
X91834500Y-81886099D01*
X91834500Y-87796233D01*
X91868143Y-87965366D01*
X91868146Y-87965378D01*
X91934138Y-88124698D01*
X91934145Y-88124711D01*
X92029954Y-88268098D01*
X92029957Y-88268102D01*
X92759376Y-88997520D01*
X92786256Y-89037749D01*
X92863364Y-89223907D01*
X92863371Y-89223920D01*
X92972860Y-89387781D01*
X92972863Y-89387785D01*
X93112214Y-89527136D01*
X93112218Y-89527139D01*
X93276079Y-89636628D01*
X93276092Y-89636635D01*
X93458160Y-89712049D01*
X93458165Y-89712051D01*
X93458169Y-89712051D01*
X93458170Y-89712052D01*
X93651456Y-89750500D01*
X93651459Y-89750500D01*
X93848543Y-89750500D01*
X93978582Y-89724632D01*
X94041835Y-89712051D01*
X94223914Y-89636632D01*
X94387782Y-89527139D01*
X94527139Y-89387782D01*
X94636632Y-89223914D01*
X94712051Y-89041835D01*
X94742694Y-88887785D01*
X94750500Y-88848543D01*
X94750500Y-88651456D01*
X94712052Y-88458170D01*
X94712051Y-88458169D01*
X94712051Y-88458165D01*
X94667208Y-88349903D01*
X94636635Y-88276092D01*
X94636628Y-88276079D01*
X94527139Y-88112218D01*
X94527136Y-88112214D01*
X94387785Y-87972863D01*
X94387781Y-87972860D01*
X94223920Y-87863371D01*
X94223907Y-87863364D01*
X94037749Y-87786256D01*
X93997520Y-87759376D01*
X93621819Y-87383675D01*
X93588334Y-87322352D01*
X93585500Y-87295994D01*
X93585500Y-81886099D01*
X93605185Y-81819060D01*
X93647500Y-81778712D01*
X93823803Y-81676924D01*
X93906635Y-81613364D01*
X94031851Y-81517282D01*
X94031855Y-81517277D01*
X94031860Y-81517274D01*
X94162819Y-81386315D01*
X94224142Y-81352830D01*
X94293834Y-81357814D01*
X94349767Y-81399686D01*
X94374184Y-81465150D01*
X94374500Y-81473996D01*
X94374500Y-84586233D01*
X94408143Y-84755366D01*
X94408146Y-84755378D01*
X94474138Y-84914698D01*
X94474145Y-84914711D01*
X94569954Y-85058098D01*
X94569957Y-85058102D01*
X95009376Y-85497520D01*
X95036256Y-85537749D01*
X95113364Y-85723907D01*
X95113371Y-85723920D01*
X95222860Y-85887781D01*
X95222863Y-85887785D01*
X95362214Y-86027136D01*
X95362218Y-86027139D01*
X95526079Y-86136628D01*
X95526092Y-86136635D01*
X95708160Y-86212049D01*
X95708165Y-86212051D01*
X95708169Y-86212051D01*
X95708170Y-86212052D01*
X95901456Y-86250500D01*
X95901459Y-86250500D01*
X96098543Y-86250500D01*
X96228582Y-86224632D01*
X96291835Y-86212051D01*
X96470254Y-86138148D01*
X96473907Y-86136635D01*
X96473907Y-86136634D01*
X96473914Y-86136632D01*
X96637782Y-86027139D01*
X96777139Y-85887782D01*
X96886632Y-85723914D01*
X96962051Y-85541835D01*
X97000500Y-85348541D01*
X97000500Y-85151459D01*
X97000500Y-85151456D01*
X96962052Y-84958170D01*
X96962051Y-84958169D01*
X96962051Y-84958165D01*
X96944052Y-84914711D01*
X96886635Y-84776092D01*
X96886628Y-84776079D01*
X96777139Y-84612218D01*
X96777136Y-84612214D01*
X96637785Y-84472863D01*
X96637781Y-84472860D01*
X96473920Y-84363371D01*
X96473907Y-84363364D01*
X96287749Y-84286256D01*
X96280816Y-84281623D01*
X96275774Y-84280527D01*
X96247520Y-84259376D01*
X96161819Y-84173675D01*
X96128334Y-84112352D01*
X96125500Y-84085994D01*
X96125500Y-75413768D01*
X96125499Y-75413766D01*
X96091856Y-75244633D01*
X96091855Y-75244626D01*
X96053263Y-75151456D01*
X96025861Y-75085301D01*
X96025854Y-75085288D01*
X95930046Y-74941902D01*
X95930045Y-74941901D01*
X95808099Y-74819955D01*
X95558099Y-74569955D01*
X95238102Y-74249957D01*
X95238098Y-74249954D01*
X95094711Y-74154145D01*
X95094698Y-74154138D01*
X94935378Y-74088146D01*
X94935366Y-74088143D01*
X94810308Y-74063267D01*
X94748397Y-74030882D01*
X94713822Y-73970166D01*
X94710499Y-73941650D01*
X94710499Y-73382129D01*
X94710498Y-73382123D01*
X94710497Y-73382116D01*
X94704091Y-73322517D01*
X94696359Y-73301787D01*
X94653797Y-73187671D01*
X94653793Y-73187664D01*
X94567547Y-73072455D01*
X94567544Y-73072452D01*
X94452335Y-72986206D01*
X94452328Y-72986202D01*
X94317482Y-72935908D01*
X94317483Y-72935908D01*
X94257883Y-72929501D01*
X94257881Y-72929500D01*
X94257873Y-72929500D01*
X94257864Y-72929500D01*
X91162129Y-72929500D01*
X91162123Y-72929501D01*
X91102516Y-72935908D01*
X90967671Y-72986202D01*
X90967664Y-72986206D01*
X90852455Y-73072452D01*
X90852452Y-73072455D01*
X90766206Y-73187664D01*
X90766202Y-73187671D01*
X90715908Y-73322517D01*
X90709501Y-73382116D01*
X90709501Y-73382123D01*
X90709500Y-73382135D01*
X86620500Y-73382135D01*
X86620500Y-65348543D01*
X92999499Y-65348543D01*
X93037947Y-65541829D01*
X93037950Y-65541839D01*
X93115061Y-65728002D01*
X93124500Y-65775454D01*
X93124500Y-70336233D01*
X93158143Y-70505366D01*
X93158146Y-70505378D01*
X93224138Y-70664698D01*
X93224145Y-70664711D01*
X93319954Y-70808098D01*
X93319957Y-70808102D01*
X96319955Y-73808099D01*
X98088181Y-75576325D01*
X98121666Y-75637648D01*
X98124500Y-75664006D01*
X98124500Y-77974546D01*
X98115061Y-78021998D01*
X98037950Y-78208160D01*
X98037947Y-78208170D01*
X97999500Y-78401456D01*
X97999500Y-78401459D01*
X97999500Y-78598541D01*
X97999500Y-78598543D01*
X97999499Y-78598543D01*
X98037947Y-78791829D01*
X98037950Y-78791839D01*
X98115061Y-78978002D01*
X98124500Y-79025454D01*
X98124500Y-96974546D01*
X98115061Y-97021998D01*
X98037950Y-97208160D01*
X98037947Y-97208170D01*
X97999500Y-97401456D01*
X97999500Y-97401459D01*
X97999500Y-97598541D01*
X97999500Y-97598543D01*
X97999499Y-97598543D01*
X98037947Y-97791829D01*
X98037950Y-97791839D01*
X98115061Y-97978002D01*
X98124500Y-98025454D01*
X98124500Y-102336233D01*
X98158143Y-102505366D01*
X98158146Y-102505378D01*
X98224138Y-102664698D01*
X98224145Y-102664711D01*
X98319954Y-102808098D01*
X98319957Y-102808102D01*
X99069955Y-103558099D01*
X102424175Y-106912319D01*
X102457660Y-106973642D01*
X102452676Y-107043334D01*
X102424175Y-107087681D01*
X101423675Y-108088181D01*
X101362352Y-108121666D01*
X101335994Y-108124500D01*
X97775455Y-108124500D01*
X97728003Y-108115061D01*
X97541839Y-108037950D01*
X97541829Y-108037947D01*
X97348543Y-107999500D01*
X97348541Y-107999500D01*
X97151459Y-107999500D01*
X97151457Y-107999500D01*
X96958170Y-108037947D01*
X96958160Y-108037950D01*
X96776092Y-108113364D01*
X96776079Y-108113371D01*
X96612218Y-108222860D01*
X96612214Y-108222863D01*
X96472863Y-108362214D01*
X96472860Y-108362218D01*
X96363371Y-108526079D01*
X96363364Y-108526092D01*
X96287950Y-108708160D01*
X96287947Y-108708170D01*
X96249500Y-108901456D01*
X96249500Y-108901459D01*
X96249500Y-109098541D01*
X96249500Y-109098543D01*
X96249499Y-109098543D01*
X96287947Y-109291829D01*
X96287950Y-109291839D01*
X96363364Y-109473907D01*
X96363371Y-109473920D01*
X96472860Y-109637781D01*
X96472863Y-109637785D01*
X96612214Y-109777136D01*
X96612218Y-109777139D01*
X96776079Y-109886628D01*
X96776092Y-109886635D01*
X96958160Y-109962049D01*
X96958165Y-109962051D01*
X96958169Y-109962051D01*
X96958170Y-109962052D01*
X97151456Y-110000500D01*
X97151459Y-110000500D01*
X97348543Y-110000500D01*
X97478582Y-109974632D01*
X97541835Y-109962051D01*
X97602730Y-109936827D01*
X97728003Y-109884939D01*
X97775455Y-109875500D01*
X101836231Y-109875500D01*
X101836232Y-109875499D01*
X102005374Y-109841855D01*
X102128604Y-109790811D01*
X102164698Y-109775861D01*
X102164698Y-109775860D01*
X102164705Y-109775858D01*
X102308099Y-109680045D01*
X104076325Y-107911819D01*
X104137648Y-107878334D01*
X104164006Y-107875500D01*
X115413771Y-107875500D01*
X117335994Y-107875500D01*
X117403033Y-107895185D01*
X117423675Y-107911819D01*
X118759376Y-109247520D01*
X118786256Y-109287749D01*
X118863364Y-109473907D01*
X118863371Y-109473920D01*
X118972860Y-109637781D01*
X118972863Y-109637785D01*
X119112214Y-109777136D01*
X119112218Y-109777139D01*
X119276079Y-109886628D01*
X119276092Y-109886635D01*
X119458160Y-109962049D01*
X119458165Y-109962051D01*
X119458169Y-109962051D01*
X119458170Y-109962052D01*
X119651456Y-110000500D01*
X119651459Y-110000500D01*
X119848543Y-110000500D01*
X119978582Y-109974632D01*
X120041835Y-109962051D01*
X120182655Y-109903721D01*
X120223907Y-109886635D01*
X120223907Y-109886634D01*
X120223914Y-109886632D01*
X120387782Y-109777139D01*
X120527139Y-109637782D01*
X120636632Y-109473914D01*
X120712051Y-109291835D01*
X120739974Y-109151459D01*
X120750500Y-109098543D01*
X120750500Y-108901456D01*
X120712052Y-108708170D01*
X120712051Y-108708169D01*
X120712051Y-108708165D01*
X120668963Y-108604140D01*
X120636635Y-108526092D01*
X120636628Y-108526079D01*
X120527139Y-108362218D01*
X120527136Y-108362214D01*
X120387785Y-108222863D01*
X120387781Y-108222860D01*
X120223920Y-108113371D01*
X120223910Y-108113366D01*
X120214574Y-108109499D01*
X120214574Y-108109498D01*
X120037749Y-108036256D01*
X119997520Y-108009376D01*
X119644887Y-107656743D01*
X119520143Y-107531999D01*
X136011865Y-107531999D01*
X136011865Y-107532000D01*
X136866351Y-107532000D01*
X136823910Y-107605508D01*
X136792750Y-107721802D01*
X136792750Y-107842198D01*
X136823910Y-107958492D01*
X136866351Y-108032000D01*
X136011865Y-108032000D01*
X136019074Y-108077517D01*
X136080456Y-108266435D01*
X136170641Y-108443432D01*
X136287403Y-108604139D01*
X136287403Y-108604140D01*
X136427859Y-108744596D01*
X136588567Y-108861358D01*
X136765562Y-108951542D01*
X136954473Y-109012922D01*
X137000000Y-109020133D01*
X137000000Y-108165649D01*
X137073508Y-108208090D01*
X137189802Y-108239250D01*
X137310198Y-108239250D01*
X137426492Y-108208090D01*
X137500000Y-108165649D01*
X137500000Y-109020132D01*
X137545526Y-109012922D01*
X137734437Y-108951542D01*
X137911432Y-108861358D01*
X138072139Y-108744596D01*
X138072140Y-108744596D01*
X138212596Y-108604140D01*
X138212596Y-108604139D01*
X138329358Y-108443432D01*
X138419543Y-108266435D01*
X138480925Y-108077517D01*
X138488134Y-108032000D01*
X137633649Y-108032000D01*
X137676090Y-107958492D01*
X137707250Y-107842198D01*
X137707250Y-107721802D01*
X137676090Y-107605508D01*
X137633649Y-107532000D01*
X138488135Y-107532000D01*
X138488134Y-107531999D01*
X138480925Y-107486482D01*
X138419543Y-107297564D01*
X138329358Y-107120567D01*
X138212596Y-106959860D01*
X138212596Y-106959859D01*
X138072140Y-106819403D01*
X137911432Y-106702641D01*
X137734434Y-106612456D01*
X137734436Y-106612456D01*
X137545517Y-106551074D01*
X137500000Y-106543865D01*
X137500000Y-107398350D01*
X137426492Y-107355910D01*
X137310198Y-107324750D01*
X137189802Y-107324750D01*
X137073508Y-107355910D01*
X137000000Y-107398350D01*
X137000000Y-106543865D01*
X136999999Y-106543865D01*
X136954482Y-106551074D01*
X136765564Y-106612456D01*
X136588567Y-106702641D01*
X136427860Y-106819403D01*
X136427859Y-106819403D01*
X136287403Y-106959859D01*
X136287403Y-106959860D01*
X136170641Y-107120567D01*
X136080456Y-107297564D01*
X136019074Y-107486482D01*
X136011865Y-107531999D01*
X119520143Y-107531999D01*
X118308102Y-106319957D01*
X118308098Y-106319954D01*
X118164711Y-106224145D01*
X118164698Y-106224138D01*
X118005378Y-106158146D01*
X118005366Y-106158143D01*
X117836232Y-106124500D01*
X117836229Y-106124500D01*
X115586229Y-106124500D01*
X104164006Y-106124500D01*
X104096967Y-106104815D01*
X104076325Y-106088181D01*
X99911819Y-101923675D01*
X99878334Y-101862352D01*
X99875500Y-101835994D01*
X99875500Y-101102844D01*
X102255000Y-101102844D01*
X102261401Y-101162372D01*
X102261403Y-101162379D01*
X102311645Y-101297086D01*
X102311649Y-101297093D01*
X102397809Y-101412187D01*
X102397812Y-101412190D01*
X102512906Y-101498350D01*
X102512913Y-101498354D01*
X102647620Y-101548596D01*
X102647627Y-101548598D01*
X102707155Y-101554999D01*
X102707172Y-101555000D01*
X103805000Y-101555000D01*
X103805000Y-101458554D01*
X103804999Y-101458553D01*
X104305000Y-101458553D01*
X104305000Y-101555000D01*
X105402828Y-101555000D01*
X105402844Y-101554999D01*
X105462372Y-101548598D01*
X105462379Y-101548596D01*
X105597086Y-101498354D01*
X105597093Y-101498350D01*
X105712187Y-101412190D01*
X105712190Y-101412187D01*
X105798350Y-101297093D01*
X105798354Y-101297086D01*
X105848596Y-101162379D01*
X105848598Y-101162372D01*
X105854999Y-101102844D01*
X105855000Y-101102827D01*
X105855000Y-99655000D01*
X105308553Y-99655000D01*
X105462311Y-99808758D01*
X105495796Y-99870081D01*
X105490812Y-99939773D01*
X105462312Y-99984120D01*
X105391432Y-100055000D01*
X105462312Y-100125880D01*
X105495797Y-100187203D01*
X105490813Y-100256895D01*
X105462312Y-100301242D01*
X104305000Y-101458553D01*
X103804999Y-101458553D01*
X103018625Y-100672179D01*
X103240000Y-100672179D01*
X103240000Y-100737821D01*
X103265119Y-100798465D01*
X103311535Y-100844881D01*
X103372179Y-100870000D01*
X103437821Y-100870000D01*
X103498465Y-100844881D01*
X103544881Y-100798465D01*
X103570000Y-100737821D01*
X103570000Y-100705000D01*
X103758554Y-100705000D01*
X103805000Y-100751445D01*
X103805000Y-100751444D01*
X104305000Y-100751444D01*
X104351445Y-100705000D01*
X104318624Y-100672179D01*
X104540000Y-100672179D01*
X104540000Y-100737821D01*
X104565119Y-100798465D01*
X104611535Y-100844881D01*
X104672179Y-100870000D01*
X104737821Y-100870000D01*
X104798465Y-100844881D01*
X104844881Y-100798465D01*
X104870000Y-100737821D01*
X104870000Y-100672179D01*
X104844881Y-100611535D01*
X104798465Y-100565119D01*
X104737821Y-100540000D01*
X104672179Y-100540000D01*
X104611535Y-100565119D01*
X104565119Y-100611535D01*
X104540000Y-100672179D01*
X104318624Y-100672179D01*
X104305000Y-100658555D01*
X104305000Y-100751444D01*
X103805000Y-100751444D01*
X103805000Y-100658554D01*
X103758554Y-100705000D01*
X103570000Y-100705000D01*
X103570000Y-100672179D01*
X103544881Y-100611535D01*
X103498465Y-100565119D01*
X103437821Y-100540000D01*
X103372179Y-100540000D01*
X103311535Y-100565119D01*
X103265119Y-100611535D01*
X103240000Y-100672179D01*
X103018625Y-100672179D01*
X102647688Y-100301242D01*
X102614203Y-100239919D01*
X102619187Y-100170227D01*
X102624935Y-100157167D01*
X102677107Y-100055000D01*
X103108554Y-100055000D01*
X103405000Y-100351446D01*
X103701446Y-100055000D01*
X104408554Y-100055000D01*
X104705000Y-100351446D01*
X105001446Y-100055000D01*
X104705000Y-99758554D01*
X104408554Y-100055000D01*
X103701446Y-100055000D01*
X103405000Y-99758554D01*
X103108554Y-100055000D01*
X102677107Y-100055000D01*
X102691122Y-100027554D01*
X102647688Y-99984120D01*
X102614203Y-99922797D01*
X102619187Y-99853105D01*
X102647688Y-99808758D01*
X102801446Y-99655000D01*
X102255000Y-99655000D01*
X102255000Y-101102844D01*
X99875500Y-101102844D01*
X99875500Y-99372179D01*
X103240000Y-99372179D01*
X103240000Y-99437821D01*
X103265119Y-99498465D01*
X103311535Y-99544881D01*
X103372179Y-99570000D01*
X103437821Y-99570000D01*
X103498465Y-99544881D01*
X103544881Y-99498465D01*
X103570000Y-99437821D01*
X103570000Y-99372179D01*
X104540000Y-99372179D01*
X104540000Y-99437821D01*
X104565119Y-99498465D01*
X104611535Y-99544881D01*
X104672179Y-99570000D01*
X104737821Y-99570000D01*
X104798465Y-99544881D01*
X104844881Y-99498465D01*
X104870000Y-99437821D01*
X104870000Y-99372179D01*
X104844881Y-99311535D01*
X104798465Y-99265119D01*
X104737821Y-99240000D01*
X104672179Y-99240000D01*
X104611535Y-99265119D01*
X104565119Y-99311535D01*
X104540000Y-99372179D01*
X103570000Y-99372179D01*
X103544881Y-99311535D01*
X103498465Y-99265119D01*
X103437821Y-99240000D01*
X103372179Y-99240000D01*
X103311535Y-99265119D01*
X103265119Y-99311535D01*
X103240000Y-99372179D01*
X99875500Y-99372179D01*
X99875500Y-98025454D01*
X99884939Y-97978002D01*
X99962049Y-97791839D01*
X99962051Y-97791835D01*
X99978895Y-97707155D01*
X102255000Y-97707155D01*
X102255000Y-99155000D01*
X102801446Y-99155000D01*
X102801446Y-99154999D01*
X102647688Y-99001241D01*
X102614203Y-98939918D01*
X102619187Y-98870226D01*
X102624935Y-98857166D01*
X102677107Y-98755000D01*
X103108554Y-98755000D01*
X103405000Y-99051446D01*
X103701446Y-98755000D01*
X104408554Y-98755000D01*
X104705000Y-99051446D01*
X105001446Y-98755000D01*
X104705000Y-98458554D01*
X104408554Y-98755000D01*
X103701446Y-98755000D01*
X103405000Y-98458554D01*
X103108554Y-98755000D01*
X102677107Y-98755000D01*
X102691122Y-98727554D01*
X102647688Y-98684120D01*
X102614203Y-98622797D01*
X102619187Y-98553105D01*
X102647688Y-98508758D01*
X103084267Y-98072179D01*
X103240000Y-98072179D01*
X103240000Y-98137821D01*
X103265119Y-98198465D01*
X103311535Y-98244881D01*
X103372179Y-98270000D01*
X103437821Y-98270000D01*
X103498465Y-98244881D01*
X103544881Y-98198465D01*
X103570000Y-98137821D01*
X103570000Y-98105000D01*
X103758554Y-98105000D01*
X103805000Y-98151445D01*
X103805000Y-98151444D01*
X104305000Y-98151444D01*
X104351445Y-98105000D01*
X104318624Y-98072179D01*
X104540000Y-98072179D01*
X104540000Y-98137821D01*
X104565119Y-98198465D01*
X104611535Y-98244881D01*
X104672179Y-98270000D01*
X104737821Y-98270000D01*
X104798465Y-98244881D01*
X104844881Y-98198465D01*
X104870000Y-98137821D01*
X104870000Y-98072179D01*
X104844881Y-98011535D01*
X104798465Y-97965119D01*
X104737821Y-97940000D01*
X104672179Y-97940000D01*
X104611535Y-97965119D01*
X104565119Y-98011535D01*
X104540000Y-98072179D01*
X104318624Y-98072179D01*
X104305000Y-98058555D01*
X104305000Y-98151444D01*
X103805000Y-98151444D01*
X103805000Y-98058554D01*
X103758554Y-98105000D01*
X103570000Y-98105000D01*
X103570000Y-98072179D01*
X103544881Y-98011535D01*
X103498465Y-97965119D01*
X103437821Y-97940000D01*
X103372179Y-97940000D01*
X103311535Y-97965119D01*
X103265119Y-98011535D01*
X103240000Y-98072179D01*
X103084267Y-98072179D01*
X103190489Y-97965957D01*
X103804999Y-97351446D01*
X104305000Y-97351446D01*
X105462312Y-98508758D01*
X105495797Y-98570081D01*
X105490813Y-98639773D01*
X105462312Y-98684120D01*
X105391432Y-98755000D01*
X105462311Y-98825879D01*
X105495796Y-98887202D01*
X105490812Y-98956894D01*
X105462311Y-99001241D01*
X105308553Y-99154998D01*
X105308554Y-99155000D01*
X105855000Y-99155000D01*
X105855000Y-97707172D01*
X105854999Y-97707155D01*
X105848598Y-97647627D01*
X105848596Y-97647620D01*
X105798354Y-97512913D01*
X105798350Y-97512906D01*
X105712190Y-97397812D01*
X105712187Y-97397809D01*
X105597093Y-97311649D01*
X105597086Y-97311645D01*
X105462379Y-97261403D01*
X105462372Y-97261401D01*
X105402844Y-97255000D01*
X104305000Y-97255000D01*
X104305000Y-97351446D01*
X103804999Y-97351446D01*
X103805000Y-97351445D01*
X103805000Y-97255000D01*
X102707155Y-97255000D01*
X102647627Y-97261401D01*
X102647620Y-97261403D01*
X102512913Y-97311645D01*
X102512906Y-97311649D01*
X102397812Y-97397809D01*
X102397809Y-97397812D01*
X102311649Y-97512906D01*
X102311645Y-97512913D01*
X102261403Y-97647620D01*
X102261401Y-97647627D01*
X102255000Y-97707155D01*
X99978895Y-97707155D01*
X99984365Y-97679659D01*
X99984365Y-97679658D01*
X100000499Y-97598545D01*
X100000500Y-97598543D01*
X100000500Y-97401456D01*
X99962052Y-97208170D01*
X99962051Y-97208169D01*
X99962051Y-97208165D01*
X99886632Y-97026086D01*
X99884939Y-97021998D01*
X99875500Y-96974546D01*
X99875500Y-82102844D01*
X102005000Y-82102844D01*
X102011401Y-82162372D01*
X102011403Y-82162379D01*
X102061645Y-82297086D01*
X102061649Y-82297093D01*
X102147809Y-82412187D01*
X102147812Y-82412190D01*
X102262906Y-82498350D01*
X102262913Y-82498354D01*
X102397620Y-82548596D01*
X102397627Y-82548598D01*
X102457155Y-82554999D01*
X102457172Y-82555000D01*
X103555000Y-82555000D01*
X103555000Y-82458554D01*
X103554999Y-82458553D01*
X104055000Y-82458553D01*
X104055000Y-82555000D01*
X105152828Y-82555000D01*
X105152844Y-82554999D01*
X105212372Y-82548598D01*
X105212379Y-82548596D01*
X105347086Y-82498354D01*
X105347093Y-82498350D01*
X105462187Y-82412190D01*
X105462190Y-82412187D01*
X105548350Y-82297093D01*
X105548354Y-82297086D01*
X105598596Y-82162379D01*
X105598598Y-82162372D01*
X105604999Y-82102844D01*
X105605000Y-82102827D01*
X105605000Y-80655000D01*
X105058553Y-80655000D01*
X105212311Y-80808758D01*
X105245796Y-80870081D01*
X105240812Y-80939773D01*
X105212312Y-80984120D01*
X105141432Y-81055000D01*
X105212312Y-81125880D01*
X105245797Y-81187203D01*
X105240813Y-81256895D01*
X105212312Y-81301242D01*
X104055000Y-82458553D01*
X103554999Y-82458553D01*
X102768625Y-81672179D01*
X102990000Y-81672179D01*
X102990000Y-81737821D01*
X103015119Y-81798465D01*
X103061535Y-81844881D01*
X103122179Y-81870000D01*
X103187821Y-81870000D01*
X103248465Y-81844881D01*
X103294881Y-81798465D01*
X103320000Y-81737821D01*
X103320000Y-81705000D01*
X103508554Y-81705000D01*
X103555000Y-81751445D01*
X103555000Y-81751444D01*
X104055000Y-81751444D01*
X104101445Y-81705000D01*
X104068624Y-81672179D01*
X104290000Y-81672179D01*
X104290000Y-81737821D01*
X104315119Y-81798465D01*
X104361535Y-81844881D01*
X104422179Y-81870000D01*
X104487821Y-81870000D01*
X104548465Y-81844881D01*
X104594881Y-81798465D01*
X104620000Y-81737821D01*
X104620000Y-81672179D01*
X104594881Y-81611535D01*
X104548465Y-81565119D01*
X104487821Y-81540000D01*
X104422179Y-81540000D01*
X104361535Y-81565119D01*
X104315119Y-81611535D01*
X104290000Y-81672179D01*
X104068624Y-81672179D01*
X104055000Y-81658555D01*
X104055000Y-81751444D01*
X103555000Y-81751444D01*
X103555000Y-81658554D01*
X103508554Y-81705000D01*
X103320000Y-81705000D01*
X103320000Y-81672179D01*
X103294881Y-81611535D01*
X103248465Y-81565119D01*
X103187821Y-81540000D01*
X103122179Y-81540000D01*
X103061535Y-81565119D01*
X103015119Y-81611535D01*
X102990000Y-81672179D01*
X102768625Y-81672179D01*
X102397688Y-81301242D01*
X102364203Y-81239919D01*
X102369187Y-81170227D01*
X102374935Y-81157167D01*
X102427107Y-81055000D01*
X102858554Y-81055000D01*
X103155000Y-81351446D01*
X103451446Y-81055000D01*
X104158554Y-81055000D01*
X104455000Y-81351446D01*
X104751446Y-81055000D01*
X104455000Y-80758554D01*
X104158554Y-81055000D01*
X103451446Y-81055000D01*
X103155000Y-80758554D01*
X102858554Y-81055000D01*
X102427107Y-81055000D01*
X102441122Y-81027554D01*
X102397688Y-80984120D01*
X102364203Y-80922797D01*
X102369187Y-80853105D01*
X102397688Y-80808758D01*
X102551446Y-80655000D01*
X102005000Y-80655000D01*
X102005000Y-82102844D01*
X99875500Y-82102844D01*
X99875500Y-80372179D01*
X102990000Y-80372179D01*
X102990000Y-80437821D01*
X103015119Y-80498465D01*
X103061535Y-80544881D01*
X103122179Y-80570000D01*
X103187821Y-80570000D01*
X103248465Y-80544881D01*
X103294881Y-80498465D01*
X103320000Y-80437821D01*
X103320000Y-80372179D01*
X104290000Y-80372179D01*
X104290000Y-80437821D01*
X104315119Y-80498465D01*
X104361535Y-80544881D01*
X104422179Y-80570000D01*
X104487821Y-80570000D01*
X104548465Y-80544881D01*
X104594881Y-80498465D01*
X104620000Y-80437821D01*
X104620000Y-80372179D01*
X104594881Y-80311535D01*
X104548465Y-80265119D01*
X104487821Y-80240000D01*
X104422179Y-80240000D01*
X104361535Y-80265119D01*
X104315119Y-80311535D01*
X104290000Y-80372179D01*
X103320000Y-80372179D01*
X103294881Y-80311535D01*
X103248465Y-80265119D01*
X103187821Y-80240000D01*
X103122179Y-80240000D01*
X103061535Y-80265119D01*
X103015119Y-80311535D01*
X102990000Y-80372179D01*
X99875500Y-80372179D01*
X99875500Y-79025454D01*
X99884939Y-78978002D01*
X99925014Y-78881250D01*
X99962051Y-78791835D01*
X99972957Y-78737006D01*
X99978895Y-78707155D01*
X102005000Y-78707155D01*
X102005000Y-80155000D01*
X102551446Y-80155000D01*
X102551446Y-80154999D01*
X102397688Y-80001241D01*
X102364203Y-79939918D01*
X102369187Y-79870226D01*
X102374935Y-79857166D01*
X102427107Y-79755000D01*
X102858554Y-79755000D01*
X103155000Y-80051446D01*
X103451446Y-79755000D01*
X104158554Y-79755000D01*
X104455000Y-80051446D01*
X104751446Y-79755000D01*
X104455000Y-79458554D01*
X104158554Y-79755000D01*
X103451446Y-79755000D01*
X103155000Y-79458554D01*
X102858554Y-79755000D01*
X102427107Y-79755000D01*
X102441122Y-79727554D01*
X102397688Y-79684120D01*
X102364203Y-79622797D01*
X102369187Y-79553105D01*
X102397688Y-79508758D01*
X102834267Y-79072179D01*
X102990000Y-79072179D01*
X102990000Y-79137821D01*
X103015119Y-79198465D01*
X103061535Y-79244881D01*
X103122179Y-79270000D01*
X103187821Y-79270000D01*
X103248465Y-79244881D01*
X103294881Y-79198465D01*
X103320000Y-79137821D01*
X103320000Y-79105000D01*
X103508554Y-79105000D01*
X103555000Y-79151445D01*
X103555000Y-79151444D01*
X104055000Y-79151444D01*
X104101445Y-79105000D01*
X104068624Y-79072179D01*
X104290000Y-79072179D01*
X104290000Y-79137821D01*
X104315119Y-79198465D01*
X104361535Y-79244881D01*
X104422179Y-79270000D01*
X104487821Y-79270000D01*
X104548465Y-79244881D01*
X104594881Y-79198465D01*
X104620000Y-79137821D01*
X104620000Y-79072179D01*
X104594881Y-79011535D01*
X104548465Y-78965119D01*
X104487821Y-78940000D01*
X104422179Y-78940000D01*
X104361535Y-78965119D01*
X104315119Y-79011535D01*
X104290000Y-79072179D01*
X104068624Y-79072179D01*
X104055000Y-79058555D01*
X104055000Y-79151444D01*
X103555000Y-79151444D01*
X103555000Y-79058554D01*
X103508554Y-79105000D01*
X103320000Y-79105000D01*
X103320000Y-79072179D01*
X103294881Y-79011535D01*
X103248465Y-78965119D01*
X103187821Y-78940000D01*
X103122179Y-78940000D01*
X103061535Y-78965119D01*
X103015119Y-79011535D01*
X102990000Y-79072179D01*
X102834267Y-79072179D01*
X102940489Y-78965957D01*
X103554999Y-78351446D01*
X104055000Y-78351446D01*
X105212312Y-79508758D01*
X105245797Y-79570081D01*
X105240813Y-79639773D01*
X105212312Y-79684120D01*
X105141432Y-79755000D01*
X105212311Y-79825879D01*
X105245796Y-79887202D01*
X105240812Y-79956894D01*
X105212311Y-80001241D01*
X105058553Y-80154998D01*
X105058554Y-80155000D01*
X105605000Y-80155000D01*
X105605000Y-78707172D01*
X105604999Y-78707155D01*
X105598598Y-78647627D01*
X105598596Y-78647620D01*
X105548354Y-78512913D01*
X105548350Y-78512906D01*
X105462190Y-78397812D01*
X105462187Y-78397809D01*
X105347093Y-78311649D01*
X105347086Y-78311645D01*
X105212379Y-78261403D01*
X105212372Y-78261401D01*
X105152844Y-78255000D01*
X104055000Y-78255000D01*
X104055000Y-78351446D01*
X103554999Y-78351446D01*
X103555000Y-78351445D01*
X103555000Y-78255000D01*
X102457155Y-78255000D01*
X102397627Y-78261401D01*
X102397620Y-78261403D01*
X102262913Y-78311645D01*
X102262906Y-78311649D01*
X102147812Y-78397809D01*
X102147809Y-78397812D01*
X102061649Y-78512906D01*
X102061645Y-78512913D01*
X102011403Y-78647620D01*
X102011401Y-78647627D01*
X102005000Y-78707155D01*
X99978895Y-78707155D01*
X99984365Y-78679659D01*
X99984365Y-78679658D01*
X100000499Y-78598545D01*
X100000500Y-78598543D01*
X100000500Y-78401456D01*
X99962052Y-78208170D01*
X99962051Y-78208169D01*
X99962051Y-78208165D01*
X99905741Y-78072219D01*
X99884939Y-78021998D01*
X99875500Y-77974546D01*
X99875500Y-77467639D01*
X123100500Y-77467639D01*
X123100500Y-77666360D01*
X123131587Y-77862637D01*
X123192993Y-78051629D01*
X123192994Y-78051632D01*
X123283213Y-78228694D01*
X123400019Y-78389464D01*
X123540536Y-78529981D01*
X123701306Y-78646787D01*
X123744395Y-78668742D01*
X123878367Y-78737005D01*
X123878370Y-78737006D01*
X123972866Y-78767709D01*
X124067364Y-78798413D01*
X124263639Y-78829500D01*
X124263640Y-78829500D01*
X124462360Y-78829500D01*
X124462361Y-78829500D01*
X124658636Y-78798413D01*
X124658646Y-78798409D01*
X124660891Y-78797871D01*
X124661778Y-78797915D01*
X124663448Y-78797651D01*
X124663503Y-78798001D01*
X124730674Y-78801357D01*
X124777527Y-78830762D01*
X132993559Y-87046794D01*
X133027044Y-87108117D01*
X133022060Y-87177809D01*
X132980188Y-87233742D01*
X132914724Y-87258159D01*
X132881688Y-87256093D01*
X132848541Y-87249500D01*
X132651459Y-87249500D01*
X132651457Y-87249500D01*
X132458170Y-87287947D01*
X132458160Y-87287950D01*
X132276092Y-87363364D01*
X132276079Y-87363371D01*
X132112218Y-87472860D01*
X132112214Y-87472863D01*
X131972863Y-87612214D01*
X131972860Y-87612218D01*
X131863371Y-87776079D01*
X131863364Y-87776092D01*
X131787950Y-87958160D01*
X131787947Y-87958170D01*
X131749500Y-88151456D01*
X131749500Y-88151459D01*
X131749500Y-88348541D01*
X131749500Y-88348543D01*
X131749499Y-88348543D01*
X131787947Y-88541829D01*
X131787950Y-88541839D01*
X131863364Y-88723907D01*
X131863371Y-88723920D01*
X131972860Y-88887781D01*
X131972863Y-88887785D01*
X132112214Y-89027136D01*
X132112218Y-89027139D01*
X132276079Y-89136628D01*
X132276092Y-89136635D01*
X132458160Y-89212049D01*
X132458165Y-89212051D01*
X132458169Y-89212051D01*
X132458170Y-89212052D01*
X132651456Y-89250500D01*
X132849903Y-89250500D01*
X132916942Y-89270185D01*
X132937584Y-89286819D01*
X136426181Y-92775416D01*
X136459666Y-92836739D01*
X136462500Y-92863097D01*
X136462500Y-101907270D01*
X136442815Y-101974309D01*
X136405133Y-102011191D01*
X136405248Y-102011349D01*
X136404176Y-102012127D01*
X136403285Y-102013000D01*
X136401309Y-102014210D01*
X136240533Y-102131021D01*
X136100021Y-102271533D01*
X135983213Y-102432305D01*
X135903485Y-102588780D01*
X135855510Y-102639576D01*
X135787689Y-102656371D01*
X135721554Y-102633833D01*
X135682515Y-102588780D01*
X135602921Y-102432569D01*
X135602787Y-102432306D01*
X135485981Y-102271536D01*
X135345464Y-102131019D01*
X135184694Y-102014213D01*
X135155993Y-101999589D01*
X135007632Y-101923994D01*
X135007629Y-101923993D01*
X134818637Y-101862587D01*
X134701819Y-101844085D01*
X134622361Y-101831500D01*
X134423639Y-101831500D01*
X134358214Y-101841862D01*
X134227362Y-101862587D01*
X134038370Y-101923993D01*
X134038367Y-101923994D01*
X133861305Y-102014213D01*
X133700533Y-102131021D01*
X133560021Y-102271533D01*
X133443213Y-102432305D01*
X133363485Y-102588780D01*
X133315510Y-102639576D01*
X133247689Y-102656371D01*
X133181554Y-102633833D01*
X133142515Y-102588780D01*
X133062921Y-102432569D01*
X133062787Y-102432306D01*
X132945981Y-102271536D01*
X132805464Y-102131019D01*
X132644694Y-102014213D01*
X132615993Y-101999589D01*
X132467632Y-101923994D01*
X132467629Y-101923993D01*
X132278637Y-101862587D01*
X132161819Y-101844085D01*
X132082361Y-101831500D01*
X131883639Y-101831500D01*
X131818214Y-101841862D01*
X131687362Y-101862587D01*
X131498370Y-101923993D01*
X131498367Y-101923994D01*
X131321305Y-102014213D01*
X131160533Y-102131021D01*
X131020021Y-102271533D01*
X130903213Y-102432305D01*
X130823485Y-102588780D01*
X130775510Y-102639576D01*
X130707689Y-102656371D01*
X130641554Y-102633833D01*
X130602515Y-102588780D01*
X130522921Y-102432569D01*
X130522787Y-102432306D01*
X130405981Y-102271536D01*
X130265464Y-102131019D01*
X130104694Y-102014213D01*
X130075993Y-101999589D01*
X129927632Y-101923994D01*
X129927629Y-101923993D01*
X129738637Y-101862587D01*
X129621819Y-101844085D01*
X129542361Y-101831500D01*
X129343639Y-101831500D01*
X129278214Y-101841862D01*
X129147362Y-101862587D01*
X128958370Y-101923993D01*
X128958367Y-101923994D01*
X128781305Y-102014213D01*
X128620533Y-102131021D01*
X128480021Y-102271533D01*
X128363213Y-102432305D01*
X128283485Y-102588780D01*
X128235510Y-102639576D01*
X128167689Y-102656371D01*
X128101554Y-102633833D01*
X128062515Y-102588780D01*
X127982921Y-102432569D01*
X127982787Y-102432306D01*
X127865981Y-102271536D01*
X127725464Y-102131019D01*
X127564694Y-102014213D01*
X127535993Y-101999589D01*
X127387632Y-101923994D01*
X127387629Y-101923993D01*
X127198637Y-101862587D01*
X127081819Y-101844085D01*
X127002361Y-101831500D01*
X126803639Y-101831500D01*
X126738214Y-101841862D01*
X126607362Y-101862587D01*
X126418370Y-101923993D01*
X126418367Y-101923994D01*
X126241305Y-102014213D01*
X126080533Y-102131021D01*
X125940021Y-102271533D01*
X125823213Y-102432305D01*
X125743485Y-102588780D01*
X125695510Y-102639576D01*
X125627689Y-102656371D01*
X125561554Y-102633833D01*
X125522515Y-102588780D01*
X125442921Y-102432569D01*
X125442787Y-102432306D01*
X125325981Y-102271536D01*
X125185464Y-102131019D01*
X125024694Y-102014213D01*
X124995993Y-101999589D01*
X124847632Y-101923994D01*
X124847629Y-101923993D01*
X124658637Y-101862587D01*
X124541819Y-101844085D01*
X124462361Y-101831500D01*
X124263639Y-101831500D01*
X124198214Y-101841862D01*
X124067362Y-101862587D01*
X123878370Y-101923993D01*
X123878367Y-101923994D01*
X123701305Y-102014213D01*
X123540533Y-102131021D01*
X123400021Y-102271533D01*
X123283213Y-102432305D01*
X123192994Y-102609367D01*
X123192993Y-102609370D01*
X123131587Y-102798362D01*
X123100500Y-102994639D01*
X123100500Y-103193360D01*
X123131587Y-103389637D01*
X123192993Y-103578629D01*
X123192994Y-103578632D01*
X123230526Y-103652291D01*
X123283213Y-103755694D01*
X123400019Y-103916464D01*
X123540536Y-104056981D01*
X123701306Y-104173787D01*
X123762500Y-104204967D01*
X123878367Y-104264005D01*
X123878370Y-104264006D01*
X123952064Y-104287950D01*
X124067364Y-104325413D01*
X124263639Y-104356500D01*
X124263640Y-104356500D01*
X124462360Y-104356500D01*
X124462361Y-104356500D01*
X124658636Y-104325413D01*
X124847632Y-104264005D01*
X125024694Y-104173787D01*
X125185464Y-104056981D01*
X125325981Y-103916464D01*
X125442787Y-103755694D01*
X125522515Y-103599218D01*
X125570490Y-103548423D01*
X125638311Y-103531628D01*
X125704446Y-103554165D01*
X125743484Y-103599218D01*
X125823213Y-103755694D01*
X125940019Y-103916464D01*
X126080536Y-104056981D01*
X126241306Y-104173787D01*
X126302500Y-104204967D01*
X126418367Y-104264005D01*
X126418370Y-104264006D01*
X126492064Y-104287950D01*
X126607364Y-104325413D01*
X126803639Y-104356500D01*
X126803640Y-104356500D01*
X127002360Y-104356500D01*
X127002361Y-104356500D01*
X127198636Y-104325413D01*
X127387632Y-104264005D01*
X127564694Y-104173787D01*
X127725464Y-104056981D01*
X127865981Y-103916464D01*
X127982787Y-103755694D01*
X128062515Y-103599218D01*
X128110490Y-103548423D01*
X128178311Y-103531628D01*
X128244446Y-103554165D01*
X128283484Y-103599218D01*
X128363213Y-103755694D01*
X128480019Y-103916464D01*
X128620536Y-104056981D01*
X128781306Y-104173787D01*
X128842500Y-104204967D01*
X128958367Y-104264005D01*
X128958370Y-104264006D01*
X129032064Y-104287950D01*
X129147364Y-104325413D01*
X129343639Y-104356500D01*
X129343640Y-104356500D01*
X129542360Y-104356500D01*
X129542361Y-104356500D01*
X129738636Y-104325413D01*
X129927632Y-104264005D01*
X130104694Y-104173787D01*
X130265464Y-104056981D01*
X130405981Y-103916464D01*
X130522787Y-103755694D01*
X130602515Y-103599218D01*
X130650490Y-103548423D01*
X130718311Y-103531628D01*
X130784446Y-103554165D01*
X130823484Y-103599218D01*
X130903213Y-103755694D01*
X131020019Y-103916464D01*
X131160536Y-104056981D01*
X131321306Y-104173787D01*
X131382500Y-104204967D01*
X131498367Y-104264005D01*
X131498370Y-104264006D01*
X131572064Y-104287950D01*
X131687364Y-104325413D01*
X131883639Y-104356500D01*
X131883640Y-104356500D01*
X132082360Y-104356500D01*
X132082361Y-104356500D01*
X132278636Y-104325413D01*
X132467632Y-104264005D01*
X132644694Y-104173787D01*
X132805464Y-104056981D01*
X132945981Y-103916464D01*
X133062787Y-103755694D01*
X133142515Y-103599218D01*
X133190490Y-103548423D01*
X133258311Y-103531628D01*
X133324446Y-103554165D01*
X133363484Y-103599218D01*
X133443213Y-103755694D01*
X133560019Y-103916464D01*
X133560021Y-103916466D01*
X133688931Y-104045376D01*
X133722416Y-104106699D01*
X133717432Y-104176391D01*
X133675560Y-104232324D01*
X133625442Y-104254674D01*
X133458170Y-104287947D01*
X133458160Y-104287950D01*
X133276092Y-104363364D01*
X133276079Y-104363371D01*
X133112218Y-104472860D01*
X133112214Y-104472863D01*
X132972863Y-104612214D01*
X132972860Y-104612218D01*
X132863371Y-104776079D01*
X132863364Y-104776092D01*
X132787950Y-104958160D01*
X132787947Y-104958170D01*
X132749500Y-105151456D01*
X132749500Y-105348539D01*
X132749499Y-105348543D01*
X132787947Y-105541829D01*
X132787950Y-105541839D01*
X132863364Y-105723907D01*
X132863371Y-105723920D01*
X132972860Y-105887781D01*
X132972863Y-105887785D01*
X133112214Y-106027136D01*
X133112218Y-106027139D01*
X133276079Y-106136628D01*
X133276092Y-106136635D01*
X133394936Y-106185861D01*
X133458165Y-106212051D01*
X133458169Y-106212051D01*
X133458170Y-106212052D01*
X133651456Y-106250500D01*
X133651459Y-106250500D01*
X133848543Y-106250500D01*
X133981070Y-106224138D01*
X134041835Y-106212051D01*
X134223914Y-106136632D01*
X134387782Y-106027139D01*
X134452870Y-105962051D01*
X134528103Y-105886819D01*
X134589426Y-105853334D01*
X134615784Y-105850500D01*
X147520331Y-105850500D01*
X147520347Y-105850501D01*
X147527943Y-105850501D01*
X147686054Y-105850501D01*
X147686057Y-105850501D01*
X147838785Y-105809577D01*
X147906397Y-105770541D01*
X147975716Y-105730520D01*
X148087520Y-105618716D01*
X148087520Y-105618714D01*
X148097724Y-105608511D01*
X148097728Y-105608506D01*
X149348473Y-104357760D01*
X149409794Y-104324277D01*
X149462521Y-104324841D01*
X149462552Y-104324651D01*
X149463843Y-104324855D01*
X149465099Y-104324869D01*
X149467352Y-104325409D01*
X149467364Y-104325413D01*
X149663639Y-104356500D01*
X149663640Y-104356500D01*
X149862360Y-104356500D01*
X149862361Y-104356500D01*
X150058636Y-104325413D01*
X150247632Y-104264005D01*
X150424694Y-104173787D01*
X150585464Y-104056981D01*
X150725981Y-103916464D01*
X150842787Y-103755694D01*
X150922515Y-103599218D01*
X150970490Y-103548423D01*
X151038311Y-103531628D01*
X151104446Y-103554165D01*
X151143484Y-103599218D01*
X151223213Y-103755694D01*
X151340019Y-103916464D01*
X151480536Y-104056981D01*
X151640716Y-104173358D01*
X151641309Y-104173789D01*
X151643285Y-104175000D01*
X151643878Y-104175656D01*
X151645248Y-104176651D01*
X151645039Y-104176938D01*
X151690163Y-104226810D01*
X151702500Y-104280730D01*
X151702500Y-106896902D01*
X151682815Y-106963941D01*
X151666181Y-106984583D01*
X150437583Y-108213181D01*
X150376260Y-108246666D01*
X150349902Y-108249500D01*
X150151457Y-108249500D01*
X149958170Y-108287947D01*
X149958160Y-108287950D01*
X149776092Y-108363364D01*
X149776079Y-108363371D01*
X149612218Y-108472860D01*
X149612214Y-108472863D01*
X149472863Y-108612214D01*
X149472860Y-108612218D01*
X149363371Y-108776079D01*
X149363364Y-108776092D01*
X149287950Y-108958160D01*
X149287947Y-108958170D01*
X149249500Y-109151456D01*
X149249500Y-109151459D01*
X149249500Y-109348541D01*
X149249500Y-109348543D01*
X149249499Y-109348543D01*
X149287947Y-109541829D01*
X149287950Y-109541839D01*
X149363364Y-109723907D01*
X149363371Y-109723920D01*
X149472860Y-109887781D01*
X149472863Y-109887785D01*
X149612214Y-110027136D01*
X149612218Y-110027139D01*
X149776079Y-110136628D01*
X149776092Y-110136635D01*
X149958160Y-110212049D01*
X149958165Y-110212051D01*
X149958169Y-110212051D01*
X149958170Y-110212052D01*
X150151456Y-110250500D01*
X150151459Y-110250500D01*
X150348543Y-110250500D01*
X150478582Y-110224632D01*
X150541835Y-110212051D01*
X150723914Y-110136632D01*
X150887782Y-110027139D01*
X151027139Y-109887782D01*
X151136632Y-109723914D01*
X151212051Y-109541835D01*
X151250500Y-109348541D01*
X151250500Y-109151459D01*
X151250500Y-109150096D01*
X151270185Y-109083057D01*
X151286819Y-109062415D01*
X151905802Y-108443432D01*
X152661506Y-107687728D01*
X152661511Y-107687724D01*
X152671714Y-107677520D01*
X152671716Y-107677520D01*
X152783520Y-107565716D01*
X152862577Y-107428784D01*
X152903500Y-107276057D01*
X152903500Y-104280730D01*
X152923185Y-104213691D01*
X152960866Y-104176808D01*
X152960752Y-104176651D01*
X152961823Y-104175872D01*
X152962715Y-104175000D01*
X152964690Y-104173789D01*
X152964689Y-104173789D01*
X152964694Y-104173787D01*
X153125464Y-104056981D01*
X153265981Y-103916464D01*
X153382787Y-103755694D01*
X153462515Y-103599218D01*
X153510490Y-103548423D01*
X153578311Y-103531628D01*
X153644446Y-103554165D01*
X153683484Y-103599218D01*
X153763213Y-103755694D01*
X153880019Y-103916464D01*
X154020536Y-104056981D01*
X154181306Y-104173787D01*
X154242500Y-104204967D01*
X154358367Y-104264005D01*
X154358370Y-104264006D01*
X154432064Y-104287950D01*
X154547364Y-104325413D01*
X154743639Y-104356500D01*
X154743640Y-104356500D01*
X154942360Y-104356500D01*
X154942361Y-104356500D01*
X155138636Y-104325413D01*
X155327632Y-104264005D01*
X155504694Y-104173787D01*
X155665464Y-104056981D01*
X155805981Y-103916464D01*
X155922787Y-103755694D01*
X156002515Y-103599218D01*
X156050490Y-103548423D01*
X156118311Y-103531628D01*
X156184446Y-103554165D01*
X156223484Y-103599218D01*
X156303213Y-103755694D01*
X156420019Y-103916464D01*
X156560536Y-104056981D01*
X156721306Y-104173787D01*
X156782500Y-104204967D01*
X156898367Y-104264005D01*
X156898370Y-104264006D01*
X156972064Y-104287950D01*
X157087364Y-104325413D01*
X157283639Y-104356500D01*
X157283640Y-104356500D01*
X157482360Y-104356500D01*
X157482361Y-104356500D01*
X157678636Y-104325413D01*
X157867632Y-104264005D01*
X158044694Y-104173787D01*
X158205464Y-104056981D01*
X158345981Y-103916464D01*
X158462787Y-103755694D01*
X158542515Y-103599218D01*
X158590490Y-103548423D01*
X158658311Y-103531628D01*
X158724446Y-103554165D01*
X158763484Y-103599218D01*
X158843213Y-103755694D01*
X158960019Y-103916464D01*
X159100536Y-104056981D01*
X159261306Y-104173787D01*
X159322500Y-104204967D01*
X159438367Y-104264005D01*
X159438370Y-104264006D01*
X159512064Y-104287950D01*
X159627364Y-104325413D01*
X159823639Y-104356500D01*
X159823640Y-104356500D01*
X160022360Y-104356500D01*
X160022361Y-104356500D01*
X160218636Y-104325413D01*
X160407632Y-104264005D01*
X160584694Y-104173787D01*
X160745464Y-104056981D01*
X160885981Y-103916464D01*
X161002787Y-103755694D01*
X161082515Y-103599218D01*
X161130490Y-103548423D01*
X161198311Y-103531628D01*
X161264446Y-103554165D01*
X161303484Y-103599218D01*
X161383213Y-103755694D01*
X161500019Y-103916464D01*
X161640536Y-104056981D01*
X161801306Y-104173787D01*
X161862500Y-104204967D01*
X161978367Y-104264005D01*
X161978370Y-104264006D01*
X162052064Y-104287950D01*
X162167364Y-104325413D01*
X162363639Y-104356500D01*
X162363640Y-104356500D01*
X162562360Y-104356500D01*
X162562361Y-104356500D01*
X162758636Y-104325413D01*
X162947632Y-104264005D01*
X163124694Y-104173787D01*
X163285464Y-104056981D01*
X163425981Y-103916464D01*
X163542787Y-103755694D01*
X163622515Y-103599218D01*
X163670490Y-103548423D01*
X163738311Y-103531628D01*
X163804446Y-103554165D01*
X163843484Y-103599218D01*
X163923213Y-103755694D01*
X164040019Y-103916464D01*
X164180536Y-104056981D01*
X164340716Y-104173358D01*
X164341309Y-104173789D01*
X164343285Y-104175000D01*
X164343878Y-104175656D01*
X164345248Y-104176651D01*
X164345039Y-104176938D01*
X164390163Y-104226810D01*
X164402500Y-104280730D01*
X164402500Y-109446902D01*
X164382815Y-109513941D01*
X164366181Y-109534583D01*
X155187583Y-118713181D01*
X155126260Y-118746666D01*
X155099902Y-118749500D01*
X154901457Y-118749500D01*
X154708170Y-118787947D01*
X154708160Y-118787950D01*
X154526092Y-118863364D01*
X154526079Y-118863371D01*
X154362218Y-118972860D01*
X154362214Y-118972863D01*
X154222863Y-119112214D01*
X154222860Y-119112218D01*
X154113371Y-119276079D01*
X154113364Y-119276092D01*
X154037950Y-119458160D01*
X154037947Y-119458170D01*
X153999500Y-119651456D01*
X153999500Y-119651459D01*
X153999500Y-119848541D01*
X153999500Y-119848543D01*
X153999499Y-119848543D01*
X154037947Y-120041829D01*
X154037950Y-120041839D01*
X154113364Y-120223907D01*
X154113371Y-120223920D01*
X154222860Y-120387781D01*
X154222863Y-120387785D01*
X154362214Y-120527136D01*
X154362218Y-120527139D01*
X154526079Y-120636628D01*
X154526092Y-120636635D01*
X154708160Y-120712049D01*
X154708165Y-120712051D01*
X154708169Y-120712051D01*
X154708170Y-120712052D01*
X154901456Y-120750500D01*
X154901459Y-120750500D01*
X155098543Y-120750500D01*
X155263873Y-120717613D01*
X155291835Y-120712051D01*
X155473914Y-120636632D01*
X155637782Y-120527139D01*
X155777139Y-120387782D01*
X155886632Y-120223914D01*
X155893158Y-120208160D01*
X155955314Y-120058099D01*
X155962051Y-120041835D01*
X155987339Y-119914705D01*
X156000500Y-119848543D01*
X156000500Y-119650096D01*
X156020185Y-119583057D01*
X156036819Y-119562415D01*
X160680680Y-114918554D01*
X165371713Y-110227521D01*
X165371716Y-110227520D01*
X165483520Y-110115716D01*
X165533639Y-110028904D01*
X165562577Y-109978785D01*
X165603500Y-109826058D01*
X165603500Y-109667943D01*
X165603500Y-104280730D01*
X165623185Y-104213691D01*
X165660866Y-104176808D01*
X165660752Y-104176651D01*
X165661823Y-104175872D01*
X165662715Y-104175000D01*
X165664690Y-104173789D01*
X165664689Y-104173789D01*
X165664694Y-104173787D01*
X165825464Y-104056981D01*
X165965981Y-103916464D01*
X166082787Y-103755694D01*
X166162515Y-103599218D01*
X166210490Y-103548423D01*
X166278311Y-103531628D01*
X166344446Y-103554165D01*
X166383484Y-103599218D01*
X166463213Y-103755694D01*
X166580019Y-103916464D01*
X166720536Y-104056981D01*
X166880716Y-104173358D01*
X166881309Y-104173789D01*
X166883285Y-104175000D01*
X166883878Y-104175656D01*
X166885248Y-104176651D01*
X166885039Y-104176938D01*
X166930163Y-104226810D01*
X166942500Y-104280730D01*
X166942500Y-112906902D01*
X166922815Y-112973941D01*
X166906181Y-112994583D01*
X164881284Y-115019481D01*
X162687583Y-117213181D01*
X162626260Y-117246666D01*
X162599902Y-117249500D01*
X162401457Y-117249500D01*
X162208170Y-117287947D01*
X162208160Y-117287950D01*
X162026092Y-117363364D01*
X162026079Y-117363371D01*
X161862218Y-117472860D01*
X161862214Y-117472863D01*
X161722863Y-117612214D01*
X161722860Y-117612218D01*
X161613371Y-117776079D01*
X161613364Y-117776092D01*
X161537950Y-117958160D01*
X161537947Y-117958170D01*
X161499500Y-118151456D01*
X161499500Y-118151459D01*
X161499500Y-118348541D01*
X161499500Y-118348543D01*
X161499499Y-118348543D01*
X161537947Y-118541829D01*
X161537950Y-118541839D01*
X161613364Y-118723907D01*
X161613371Y-118723920D01*
X161722860Y-118887781D01*
X161722863Y-118887785D01*
X161862214Y-119027136D01*
X161862218Y-119027139D01*
X162026079Y-119136628D01*
X162026092Y-119136635D01*
X162115516Y-119173675D01*
X162208165Y-119212051D01*
X162208169Y-119212051D01*
X162208170Y-119212052D01*
X162401456Y-119250500D01*
X162401459Y-119250500D01*
X162598543Y-119250500D01*
X162728642Y-119224621D01*
X162791835Y-119212051D01*
X162973914Y-119136632D01*
X163137782Y-119027139D01*
X163277139Y-118887782D01*
X163386632Y-118723914D01*
X163462051Y-118541835D01*
X163493260Y-118384939D01*
X163500500Y-118348543D01*
X163500500Y-118150096D01*
X163520185Y-118083057D01*
X163536819Y-118062415D01*
X165789078Y-115810157D01*
X165789090Y-115810143D01*
X168023520Y-113575716D01*
X168102577Y-113438784D01*
X168143501Y-113286057D01*
X168143501Y-113127942D01*
X168143501Y-113120347D01*
X168143500Y-113120329D01*
X168143500Y-104280730D01*
X168163185Y-104213691D01*
X168200866Y-104176808D01*
X168200752Y-104176651D01*
X168201823Y-104175872D01*
X168202715Y-104175000D01*
X168204690Y-104173789D01*
X168204689Y-104173789D01*
X168204694Y-104173787D01*
X168365464Y-104056981D01*
X168505981Y-103916464D01*
X168622787Y-103755694D01*
X168702796Y-103598667D01*
X168750769Y-103547872D01*
X168818590Y-103531077D01*
X168884725Y-103553614D01*
X168923765Y-103598668D01*
X169003641Y-103755432D01*
X169120403Y-103916139D01*
X169120403Y-103916140D01*
X169260859Y-104056596D01*
X169421567Y-104173358D01*
X169598562Y-104263542D01*
X169787473Y-104324922D01*
X169833000Y-104332133D01*
X169833000Y-103477649D01*
X169906508Y-103520090D01*
X170022802Y-103551250D01*
X170143198Y-103551250D01*
X170259492Y-103520090D01*
X170333000Y-103477649D01*
X170333000Y-104332132D01*
X170378526Y-104324922D01*
X170567437Y-104263542D01*
X170744432Y-104173358D01*
X170905139Y-104056596D01*
X170905140Y-104056596D01*
X171045596Y-103916140D01*
X171045596Y-103916139D01*
X171162358Y-103755432D01*
X171252543Y-103578435D01*
X171313925Y-103389517D01*
X171321134Y-103344000D01*
X170466649Y-103344000D01*
X170509090Y-103270492D01*
X170540250Y-103154198D01*
X170540250Y-103033802D01*
X170509090Y-102917508D01*
X170466649Y-102844000D01*
X171321135Y-102844000D01*
X171321134Y-102843999D01*
X171313925Y-102798482D01*
X171252543Y-102609564D01*
X171162358Y-102432567D01*
X171045596Y-102271860D01*
X171045596Y-102271859D01*
X170905140Y-102131403D01*
X170744432Y-102014641D01*
X170567434Y-101924456D01*
X170567436Y-101924456D01*
X170378517Y-101863074D01*
X170333000Y-101855865D01*
X170333000Y-102710350D01*
X170259492Y-102667910D01*
X170143198Y-102636750D01*
X170022802Y-102636750D01*
X169906508Y-102667910D01*
X169833000Y-102710350D01*
X169833000Y-101855865D01*
X169832999Y-101855865D01*
X169787482Y-101863074D01*
X169598564Y-101924456D01*
X169421567Y-102014641D01*
X169260860Y-102131403D01*
X169260859Y-102131403D01*
X169120403Y-102271859D01*
X169120403Y-102271860D01*
X169003639Y-102432569D01*
X168923764Y-102589332D01*
X168875790Y-102640127D01*
X168807969Y-102656922D01*
X168741834Y-102634384D01*
X168702796Y-102589332D01*
X168622787Y-102432306D01*
X168505981Y-102271536D01*
X168365464Y-102131019D01*
X168204694Y-102014213D01*
X168175993Y-101999589D01*
X168027632Y-101923994D01*
X168027629Y-101923993D01*
X167838637Y-101862587D01*
X167721819Y-101844085D01*
X167642361Y-101831500D01*
X167443639Y-101831500D01*
X167378214Y-101841862D01*
X167247362Y-101862587D01*
X167058370Y-101923993D01*
X167058367Y-101923994D01*
X166881305Y-102014213D01*
X166720533Y-102131021D01*
X166580021Y-102271533D01*
X166463213Y-102432305D01*
X166383485Y-102588780D01*
X166335510Y-102639576D01*
X166267689Y-102656371D01*
X166201554Y-102633833D01*
X166162515Y-102588780D01*
X166082921Y-102432569D01*
X166082787Y-102432306D01*
X165965981Y-102271536D01*
X165825464Y-102131019D01*
X165664694Y-102014213D01*
X165635993Y-101999589D01*
X165487632Y-101923994D01*
X165487629Y-101923993D01*
X165298637Y-101862587D01*
X165181819Y-101844085D01*
X165102361Y-101831500D01*
X164903639Y-101831500D01*
X164838214Y-101841862D01*
X164707362Y-101862587D01*
X164518370Y-101923993D01*
X164518367Y-101923994D01*
X164341305Y-102014213D01*
X164180533Y-102131021D01*
X164040021Y-102271533D01*
X163923213Y-102432305D01*
X163843485Y-102588780D01*
X163795510Y-102639576D01*
X163727689Y-102656371D01*
X163661554Y-102633833D01*
X163622515Y-102588780D01*
X163542921Y-102432569D01*
X163542787Y-102432306D01*
X163425981Y-102271536D01*
X163285464Y-102131019D01*
X163124694Y-102014213D01*
X163095993Y-101999589D01*
X162947632Y-101923994D01*
X162947629Y-101923993D01*
X162758637Y-101862587D01*
X162641819Y-101844085D01*
X162562361Y-101831500D01*
X162363639Y-101831500D01*
X162298214Y-101841862D01*
X162167362Y-101862587D01*
X161978370Y-101923993D01*
X161978367Y-101923994D01*
X161801305Y-102014213D01*
X161640533Y-102131021D01*
X161500021Y-102271533D01*
X161383213Y-102432305D01*
X161303485Y-102588780D01*
X161255510Y-102639576D01*
X161187689Y-102656371D01*
X161121554Y-102633833D01*
X161082515Y-102588780D01*
X161002921Y-102432569D01*
X161002787Y-102432306D01*
X160885981Y-102271536D01*
X160745464Y-102131019D01*
X160584694Y-102014213D01*
X160555993Y-101999589D01*
X160407632Y-101923994D01*
X160407629Y-101923993D01*
X160218637Y-101862587D01*
X160101819Y-101844085D01*
X160022361Y-101831500D01*
X159823639Y-101831500D01*
X159758214Y-101841862D01*
X159627362Y-101862587D01*
X159438370Y-101923993D01*
X159438367Y-101923994D01*
X159261305Y-102014213D01*
X159100533Y-102131021D01*
X158960021Y-102271533D01*
X158843213Y-102432305D01*
X158763485Y-102588780D01*
X158715510Y-102639576D01*
X158647689Y-102656371D01*
X158581554Y-102633833D01*
X158542515Y-102588780D01*
X158462921Y-102432569D01*
X158462787Y-102432306D01*
X158345981Y-102271536D01*
X158205464Y-102131019D01*
X158044694Y-102014213D01*
X158015993Y-101999589D01*
X157867632Y-101923994D01*
X157867629Y-101923993D01*
X157678637Y-101862587D01*
X157561819Y-101844085D01*
X157482361Y-101831500D01*
X157283639Y-101831500D01*
X157218214Y-101841862D01*
X157087362Y-101862587D01*
X156898370Y-101923993D01*
X156898367Y-101923994D01*
X156721305Y-102014213D01*
X156560533Y-102131021D01*
X156420021Y-102271533D01*
X156303213Y-102432305D01*
X156223485Y-102588780D01*
X156175510Y-102639576D01*
X156107689Y-102656371D01*
X156041554Y-102633833D01*
X156002515Y-102588780D01*
X155922921Y-102432569D01*
X155922787Y-102432306D01*
X155805981Y-102271536D01*
X155665464Y-102131019D01*
X155504694Y-102014213D01*
X155475993Y-101999589D01*
X155327632Y-101923994D01*
X155327629Y-101923993D01*
X155138637Y-101862587D01*
X155021819Y-101844085D01*
X154942361Y-101831500D01*
X154743639Y-101831500D01*
X154678214Y-101841862D01*
X154547362Y-101862587D01*
X154358370Y-101923993D01*
X154358367Y-101923994D01*
X154181305Y-102014213D01*
X154020533Y-102131021D01*
X153880021Y-102271533D01*
X153763213Y-102432305D01*
X153683485Y-102588780D01*
X153635510Y-102639576D01*
X153567689Y-102656371D01*
X153501554Y-102633833D01*
X153462515Y-102588780D01*
X153382921Y-102432569D01*
X153382787Y-102432306D01*
X153265981Y-102271536D01*
X153125464Y-102131019D01*
X152964694Y-102014213D01*
X152935993Y-101999589D01*
X152787632Y-101923994D01*
X152787629Y-101923993D01*
X152598637Y-101862587D01*
X152481819Y-101844085D01*
X152402361Y-101831500D01*
X152203639Y-101831500D01*
X152138214Y-101841862D01*
X152007362Y-101862587D01*
X151818370Y-101923993D01*
X151818367Y-101923994D01*
X151641305Y-102014213D01*
X151480533Y-102131021D01*
X151340021Y-102271533D01*
X151223213Y-102432305D01*
X151143485Y-102588780D01*
X151095510Y-102639576D01*
X151027689Y-102656371D01*
X150961554Y-102633833D01*
X150922515Y-102588780D01*
X150842921Y-102432569D01*
X150842787Y-102432306D01*
X150725981Y-102271536D01*
X150585464Y-102131019D01*
X150424694Y-102014213D01*
X150395993Y-101999589D01*
X150247632Y-101923994D01*
X150247629Y-101923993D01*
X150058637Y-101862587D01*
X149941819Y-101844085D01*
X149862361Y-101831500D01*
X149663639Y-101831500D01*
X149598214Y-101841862D01*
X149467362Y-101862587D01*
X149278370Y-101923993D01*
X149278367Y-101923994D01*
X149101305Y-102014213D01*
X148940533Y-102131021D01*
X148800021Y-102271533D01*
X148683213Y-102432305D01*
X148603485Y-102588780D01*
X148555510Y-102639576D01*
X148487689Y-102656371D01*
X148421554Y-102633833D01*
X148382515Y-102588780D01*
X148302921Y-102432569D01*
X148302787Y-102432306D01*
X148185981Y-102271536D01*
X148045464Y-102131019D01*
X147884694Y-102014213D01*
X147855993Y-101999589D01*
X147707632Y-101923994D01*
X147707629Y-101923993D01*
X147518637Y-101862587D01*
X147401819Y-101844085D01*
X147322361Y-101831500D01*
X147123639Y-101831500D01*
X147058214Y-101841862D01*
X146927362Y-101862587D01*
X146738370Y-101923993D01*
X146738367Y-101923994D01*
X146561305Y-102014213D01*
X146400533Y-102131021D01*
X146260021Y-102271533D01*
X146143213Y-102432305D01*
X146063485Y-102588780D01*
X146015510Y-102639576D01*
X145947689Y-102656371D01*
X145881554Y-102633833D01*
X145842515Y-102588780D01*
X145762921Y-102432569D01*
X145762787Y-102432306D01*
X145645981Y-102271536D01*
X145505464Y-102131019D01*
X145344694Y-102014213D01*
X145344690Y-102014210D01*
X145342715Y-102013000D01*
X145342121Y-102012343D01*
X145340752Y-102011349D01*
X145340960Y-102011061D01*
X145295837Y-101961190D01*
X145283500Y-101907270D01*
X145283500Y-101353945D01*
X145283500Y-101353943D01*
X145242577Y-101201216D01*
X145220151Y-101162372D01*
X145163524Y-101064290D01*
X145163521Y-101064286D01*
X145163520Y-101064284D01*
X145051716Y-100952480D01*
X145051715Y-100952479D01*
X145047385Y-100948149D01*
X145047374Y-100948139D01*
X144737590Y-100638355D01*
X144737588Y-100638352D01*
X144618717Y-100519481D01*
X144618716Y-100519480D01*
X144531904Y-100469360D01*
X144531904Y-100469359D01*
X144531900Y-100469358D01*
X144481785Y-100440423D01*
X144329057Y-100399499D01*
X144170943Y-100399499D01*
X144163347Y-100399499D01*
X144163331Y-100399500D01*
X144115784Y-100399500D01*
X144048745Y-100379815D01*
X144028103Y-100363181D01*
X143887785Y-100222863D01*
X143887781Y-100222860D01*
X143723920Y-100113371D01*
X143723907Y-100113364D01*
X143541839Y-100037950D01*
X143541829Y-100037947D01*
X143348543Y-99999500D01*
X143348541Y-99999500D01*
X143151459Y-99999500D01*
X143151457Y-99999500D01*
X142958170Y-100037947D01*
X142958160Y-100037950D01*
X142776092Y-100113364D01*
X142776079Y-100113371D01*
X142612218Y-100222860D01*
X142612214Y-100222863D01*
X142472863Y-100362214D01*
X142472860Y-100362218D01*
X142363371Y-100526079D01*
X142363364Y-100526092D01*
X142287950Y-100708160D01*
X142287947Y-100708170D01*
X142249500Y-100901456D01*
X142249500Y-100901459D01*
X142249500Y-101098541D01*
X142249500Y-101098543D01*
X142249499Y-101098543D01*
X142287947Y-101291829D01*
X142287950Y-101291839D01*
X142363364Y-101473907D01*
X142363371Y-101473920D01*
X142472860Y-101637781D01*
X142472863Y-101637785D01*
X142476557Y-101641479D01*
X142510042Y-101702802D01*
X142505058Y-101772494D01*
X142463186Y-101828427D01*
X142397722Y-101852844D01*
X142369479Y-101851633D01*
X142242361Y-101831500D01*
X142043639Y-101831500D01*
X142015265Y-101835994D01*
X141847360Y-101862587D01*
X141845087Y-101863133D01*
X141844197Y-101863088D01*
X141842552Y-101863349D01*
X141842497Y-101863003D01*
X141775305Y-101859635D01*
X141728472Y-101830237D01*
X139764881Y-99866646D01*
X139731396Y-99805323D01*
X139730975Y-99803304D01*
X139712051Y-99708165D01*
X139654822Y-99570000D01*
X139636635Y-99526092D01*
X139636628Y-99526079D01*
X139527139Y-99362218D01*
X139527136Y-99362214D01*
X139387785Y-99222863D01*
X139387781Y-99222860D01*
X139223920Y-99113371D01*
X139223907Y-99113364D01*
X139041839Y-99037950D01*
X139041829Y-99037947D01*
X138848543Y-98999500D01*
X138848541Y-98999500D01*
X138651459Y-98999500D01*
X138651457Y-98999500D01*
X138458170Y-99037947D01*
X138458160Y-99037950D01*
X138276092Y-99113364D01*
X138276079Y-99113371D01*
X138112218Y-99222860D01*
X138112214Y-99222863D01*
X137972863Y-99362214D01*
X137972860Y-99362218D01*
X137890602Y-99485326D01*
X137836990Y-99530131D01*
X137767665Y-99538838D01*
X137704637Y-99508683D01*
X137667918Y-99449240D01*
X137663500Y-99416435D01*
X137663500Y-92483945D01*
X137663499Y-92483941D01*
X137652117Y-92441460D01*
X137622577Y-92331215D01*
X137574627Y-92248164D01*
X137543520Y-92194284D01*
X137431716Y-92082480D01*
X137431715Y-92082479D01*
X137427385Y-92078149D01*
X137427374Y-92078139D01*
X133786819Y-88437584D01*
X133753334Y-88376261D01*
X133750500Y-88349903D01*
X133750500Y-88151456D01*
X133743907Y-88118313D01*
X133750134Y-88048722D01*
X133792996Y-87993544D01*
X133858886Y-87970299D01*
X133926883Y-87986366D01*
X133953205Y-88006440D01*
X134561139Y-88614374D01*
X134561149Y-88614385D01*
X134565479Y-88618715D01*
X134565480Y-88618716D01*
X134677284Y-88730520D01*
X134677286Y-88730521D01*
X134677290Y-88730524D01*
X134766208Y-88781860D01*
X134814216Y-88809577D01*
X134913683Y-88836229D01*
X134966942Y-88850500D01*
X134966943Y-88850500D01*
X167949903Y-88850500D01*
X168016942Y-88870185D01*
X168037584Y-88886819D01*
X173363181Y-94212416D01*
X173396666Y-94273739D01*
X173399500Y-94300097D01*
X173399500Y-111949903D01*
X173379815Y-112016942D01*
X173363181Y-112037584D01*
X160475584Y-124925181D01*
X160414261Y-124958666D01*
X160387903Y-124961500D01*
X138436730Y-124961500D01*
X138369691Y-124941815D01*
X138332808Y-124904133D01*
X138332651Y-124904248D01*
X138331872Y-124903176D01*
X138331000Y-124902285D01*
X138329789Y-124900309D01*
X138274181Y-124823771D01*
X138212981Y-124739536D01*
X138072464Y-124599019D01*
X137911694Y-124482213D01*
X137734632Y-124391994D01*
X137734629Y-124391993D01*
X137545637Y-124330587D01*
X137447498Y-124315043D01*
X137349361Y-124299500D01*
X137150639Y-124299500D01*
X137085214Y-124309862D01*
X136954362Y-124330587D01*
X136765370Y-124391993D01*
X136765367Y-124391994D01*
X136588305Y-124482213D01*
X136427533Y-124599021D01*
X136287021Y-124739533D01*
X136170213Y-124900305D01*
X136079994Y-125077367D01*
X136079993Y-125077370D01*
X136018587Y-125266362D01*
X135987500Y-125462639D01*
X135987500Y-125661360D01*
X136018587Y-125857637D01*
X136079993Y-126046629D01*
X136079994Y-126046632D01*
X136139033Y-126162500D01*
X136170213Y-126223694D01*
X136287019Y-126384464D01*
X136427536Y-126524981D01*
X136588306Y-126641787D01*
X136675149Y-126686035D01*
X136765367Y-126732005D01*
X136765370Y-126732006D01*
X136859866Y-126762709D01*
X136954364Y-126793413D01*
X137150639Y-126824500D01*
X137150640Y-126824500D01*
X137349360Y-126824500D01*
X137349361Y-126824500D01*
X137545636Y-126793413D01*
X137734632Y-126732005D01*
X137911694Y-126641787D01*
X138072464Y-126524981D01*
X138212981Y-126384464D01*
X138329787Y-126223694D01*
X138329789Y-126223689D01*
X138331000Y-126221715D01*
X138331656Y-126221121D01*
X138332651Y-126219752D01*
X138332938Y-126219960D01*
X138382810Y-126174837D01*
X138436730Y-126162500D01*
X160601331Y-126162500D01*
X160601347Y-126162501D01*
X160608943Y-126162501D01*
X160767054Y-126162501D01*
X160767057Y-126162501D01*
X160919785Y-126121577D01*
X160969904Y-126092639D01*
X161056716Y-126042520D01*
X161168520Y-125930716D01*
X161168520Y-125930714D01*
X161178728Y-125920507D01*
X161178730Y-125920504D01*
X174368713Y-112730521D01*
X174368716Y-112730520D01*
X174480520Y-112618716D01*
X174530639Y-112531904D01*
X174559577Y-112481785D01*
X174600501Y-112329057D01*
X174600501Y-112170943D01*
X174600501Y-112163348D01*
X174600500Y-112163330D01*
X174600500Y-94089059D01*
X174600501Y-94089046D01*
X174600501Y-93920945D01*
X174600501Y-93920943D01*
X174559577Y-93768215D01*
X174524899Y-93708151D01*
X174524899Y-93708150D01*
X174480524Y-93631290D01*
X174480521Y-93631286D01*
X174480520Y-93631284D01*
X174368716Y-93519480D01*
X174368715Y-93519479D01*
X174364385Y-93515149D01*
X174364374Y-93515139D01*
X168737590Y-87888355D01*
X168737588Y-87888352D01*
X168618717Y-87769481D01*
X168618716Y-87769480D01*
X168531904Y-87719360D01*
X168531904Y-87719359D01*
X168531900Y-87719358D01*
X168481785Y-87690423D01*
X168329057Y-87649499D01*
X168170943Y-87649499D01*
X168163347Y-87649499D01*
X168163331Y-87649500D01*
X135346097Y-87649500D01*
X135279058Y-87629815D01*
X135258416Y-87613181D01*
X126682692Y-79037457D01*
X126649207Y-78976134D01*
X126654191Y-78906442D01*
X126696063Y-78850509D01*
X126761527Y-78826092D01*
X126789765Y-78827302D01*
X126803639Y-78829500D01*
X126803643Y-78829500D01*
X127002360Y-78829500D01*
X127002361Y-78829500D01*
X127198636Y-78798413D01*
X127387632Y-78737005D01*
X127564694Y-78646787D01*
X127725464Y-78529981D01*
X127865981Y-78389464D01*
X127982787Y-78228694D01*
X128062515Y-78072218D01*
X128110490Y-78021423D01*
X128178311Y-78004628D01*
X128244446Y-78027165D01*
X128283484Y-78072218D01*
X128363213Y-78228694D01*
X128480019Y-78389464D01*
X128620536Y-78529981D01*
X128781306Y-78646787D01*
X128824395Y-78668742D01*
X128958367Y-78737005D01*
X128958370Y-78737006D01*
X129052866Y-78767709D01*
X129147364Y-78798413D01*
X129343639Y-78829500D01*
X129343640Y-78829500D01*
X129542360Y-78829500D01*
X129542361Y-78829500D01*
X129738636Y-78798413D01*
X129927632Y-78737005D01*
X130104694Y-78646787D01*
X130265464Y-78529981D01*
X130405981Y-78389464D01*
X130522787Y-78228694D01*
X130602515Y-78072218D01*
X130650490Y-78021423D01*
X130718311Y-78004628D01*
X130784446Y-78027165D01*
X130823484Y-78072218D01*
X130903213Y-78228694D01*
X131020019Y-78389464D01*
X131160536Y-78529981D01*
X131321306Y-78646787D01*
X131364395Y-78668742D01*
X131498367Y-78737005D01*
X131498370Y-78737006D01*
X131592866Y-78767709D01*
X131687364Y-78798413D01*
X131883639Y-78829500D01*
X131883640Y-78829500D01*
X132082360Y-78829500D01*
X132082361Y-78829500D01*
X132278636Y-78798413D01*
X132467632Y-78737005D01*
X132644694Y-78646787D01*
X132805464Y-78529981D01*
X132945981Y-78389464D01*
X133062787Y-78228694D01*
X133142515Y-78072218D01*
X133190490Y-78021423D01*
X133258311Y-78004628D01*
X133324446Y-78027165D01*
X133363484Y-78072218D01*
X133443213Y-78228694D01*
X133560019Y-78389464D01*
X133700536Y-78529981D01*
X133861306Y-78646787D01*
X133904395Y-78668742D01*
X134038367Y-78737005D01*
X134038370Y-78737006D01*
X134132866Y-78767709D01*
X134227364Y-78798413D01*
X134423639Y-78829500D01*
X134423640Y-78829500D01*
X134622360Y-78829500D01*
X134622361Y-78829500D01*
X134818636Y-78798413D01*
X135007632Y-78737005D01*
X135184694Y-78646787D01*
X135345464Y-78529981D01*
X135485981Y-78389464D01*
X135602787Y-78228694D01*
X135682515Y-78072218D01*
X135730490Y-78021423D01*
X135798311Y-78004628D01*
X135864446Y-78027165D01*
X135903484Y-78072218D01*
X135983213Y-78228694D01*
X136100019Y-78389464D01*
X136240536Y-78529981D01*
X136401306Y-78646787D01*
X136444395Y-78668742D01*
X136578367Y-78737005D01*
X136578370Y-78737006D01*
X136672866Y-78767709D01*
X136767364Y-78798413D01*
X136963639Y-78829500D01*
X136963640Y-78829500D01*
X137162360Y-78829500D01*
X137162361Y-78829500D01*
X137358636Y-78798413D01*
X137547632Y-78737005D01*
X137724694Y-78646787D01*
X137885464Y-78529981D01*
X138025981Y-78389464D01*
X138142787Y-78228694D01*
X138222515Y-78072218D01*
X138270490Y-78021423D01*
X138338311Y-78004628D01*
X138404446Y-78027165D01*
X138443484Y-78072218D01*
X138523213Y-78228694D01*
X138640019Y-78389464D01*
X138780536Y-78529981D01*
X138941306Y-78646787D01*
X138984395Y-78668742D01*
X139118367Y-78737005D01*
X139118370Y-78737006D01*
X139212866Y-78767709D01*
X139307364Y-78798413D01*
X139503639Y-78829500D01*
X139503640Y-78829500D01*
X139702355Y-78829500D01*
X139702361Y-78829500D01*
X139716228Y-78827303D01*
X139785516Y-78836256D01*
X139838970Y-78881250D01*
X139859612Y-78948001D01*
X139840889Y-79015315D01*
X139823306Y-79037457D01*
X137397583Y-81463181D01*
X137336260Y-81496666D01*
X137309902Y-81499500D01*
X137151457Y-81499500D01*
X136958170Y-81537947D01*
X136958160Y-81537950D01*
X136776092Y-81613364D01*
X136776079Y-81613371D01*
X136612218Y-81722860D01*
X136612214Y-81722863D01*
X136472863Y-81862214D01*
X136472860Y-81862218D01*
X136363371Y-82026079D01*
X136363364Y-82026092D01*
X136287950Y-82208160D01*
X136287947Y-82208170D01*
X136249500Y-82401456D01*
X136249500Y-82401458D01*
X136249500Y-82401459D01*
X136249500Y-82598541D01*
X136249500Y-82598543D01*
X136249499Y-82598543D01*
X136287947Y-82791829D01*
X136287950Y-82791839D01*
X136363364Y-82973907D01*
X136363371Y-82973920D01*
X136472860Y-83137781D01*
X136472863Y-83137785D01*
X136612214Y-83277136D01*
X136612218Y-83277139D01*
X136776079Y-83386628D01*
X136776092Y-83386635D01*
X136958160Y-83462049D01*
X136958165Y-83462051D01*
X136958169Y-83462051D01*
X136958170Y-83462052D01*
X137151456Y-83500500D01*
X137151459Y-83500500D01*
X137348543Y-83500500D01*
X137478582Y-83474632D01*
X137541835Y-83462051D01*
X137723914Y-83386632D01*
X137887782Y-83277139D01*
X138027139Y-83137782D01*
X138136632Y-82973914D01*
X138212051Y-82791835D01*
X138250500Y-82598541D01*
X138250500Y-82401459D01*
X138250499Y-82401456D01*
X138248047Y-82389130D01*
X138254271Y-82319538D01*
X138281980Y-82277253D01*
X141728473Y-78830760D01*
X141789794Y-78797277D01*
X141842521Y-78797841D01*
X141842552Y-78797651D01*
X141843843Y-78797855D01*
X141845099Y-78797869D01*
X141847352Y-78798409D01*
X141847364Y-78798413D01*
X142043639Y-78829500D01*
X142043640Y-78829500D01*
X142242360Y-78829500D01*
X142242361Y-78829500D01*
X142438636Y-78798413D01*
X142627632Y-78737005D01*
X142804694Y-78646787D01*
X142965464Y-78529981D01*
X143105981Y-78389464D01*
X143222787Y-78228694D01*
X143302515Y-78072218D01*
X143350490Y-78021423D01*
X143418311Y-78004628D01*
X143484446Y-78027165D01*
X143523484Y-78072218D01*
X143603213Y-78228694D01*
X143720019Y-78389464D01*
X143860536Y-78529981D01*
X144021306Y-78646787D01*
X144064395Y-78668742D01*
X144198367Y-78737005D01*
X144198370Y-78737006D01*
X144292866Y-78767709D01*
X144387364Y-78798413D01*
X144583639Y-78829500D01*
X144583640Y-78829500D01*
X144782360Y-78829500D01*
X144782361Y-78829500D01*
X144978636Y-78798413D01*
X145167632Y-78737005D01*
X145344694Y-78646787D01*
X145505464Y-78529981D01*
X145645981Y-78389464D01*
X145762787Y-78228694D01*
X145842515Y-78072218D01*
X145890490Y-78021423D01*
X145958311Y-78004628D01*
X146024446Y-78027165D01*
X146063484Y-78072218D01*
X146143213Y-78228694D01*
X146260019Y-78389464D01*
X146400536Y-78529981D01*
X146561306Y-78646787D01*
X146604395Y-78668742D01*
X146738367Y-78737005D01*
X146738370Y-78737006D01*
X146832866Y-78767709D01*
X146927364Y-78798413D01*
X147123639Y-78829500D01*
X147123640Y-78829500D01*
X147322360Y-78829500D01*
X147322361Y-78829500D01*
X147518636Y-78798413D01*
X147707632Y-78737005D01*
X147884694Y-78646787D01*
X148045464Y-78529981D01*
X148185981Y-78389464D01*
X148302787Y-78228694D01*
X148382515Y-78072218D01*
X148430490Y-78021423D01*
X148498311Y-78004628D01*
X148564446Y-78027165D01*
X148603484Y-78072218D01*
X148683213Y-78228694D01*
X148800019Y-78389464D01*
X148940536Y-78529981D01*
X149101306Y-78646787D01*
X149144395Y-78668742D01*
X149278367Y-78737005D01*
X149278370Y-78737006D01*
X149372866Y-78767709D01*
X149467364Y-78798413D01*
X149663639Y-78829500D01*
X149663640Y-78829500D01*
X149862360Y-78829500D01*
X149862361Y-78829500D01*
X150058636Y-78798413D01*
X150247632Y-78737005D01*
X150424694Y-78646787D01*
X150585464Y-78529981D01*
X150725981Y-78389464D01*
X150842787Y-78228694D01*
X150922515Y-78072218D01*
X150970490Y-78021423D01*
X151038311Y-78004628D01*
X151104446Y-78027165D01*
X151143484Y-78072218D01*
X151223213Y-78228694D01*
X151340019Y-78389464D01*
X151480536Y-78529981D01*
X151641306Y-78646787D01*
X151684395Y-78668742D01*
X151818367Y-78737005D01*
X151818370Y-78737006D01*
X151912866Y-78767709D01*
X152007364Y-78798413D01*
X152203639Y-78829500D01*
X152203640Y-78829500D01*
X152402360Y-78829500D01*
X152402361Y-78829500D01*
X152598636Y-78798413D01*
X152787632Y-78737005D01*
X152964694Y-78646787D01*
X153125464Y-78529981D01*
X153265981Y-78389464D01*
X153382787Y-78228694D01*
X153462515Y-78072218D01*
X153510490Y-78021423D01*
X153578311Y-78004628D01*
X153644446Y-78027165D01*
X153683484Y-78072218D01*
X153763213Y-78228694D01*
X153880019Y-78389464D01*
X154020536Y-78529981D01*
X154181306Y-78646787D01*
X154224395Y-78668742D01*
X154358367Y-78737005D01*
X154358370Y-78737006D01*
X154452866Y-78767709D01*
X154547364Y-78798413D01*
X154743639Y-78829500D01*
X154743640Y-78829500D01*
X154942360Y-78829500D01*
X154942361Y-78829500D01*
X155138636Y-78798413D01*
X155327632Y-78737005D01*
X155504694Y-78646787D01*
X155665464Y-78529981D01*
X155805981Y-78389464D01*
X155922787Y-78228694D01*
X156002515Y-78072218D01*
X156050490Y-78021423D01*
X156118311Y-78004628D01*
X156184446Y-78027165D01*
X156223484Y-78072218D01*
X156303213Y-78228694D01*
X156420019Y-78389464D01*
X156560536Y-78529981D01*
X156721306Y-78646787D01*
X156764395Y-78668742D01*
X156898367Y-78737005D01*
X156898370Y-78737006D01*
X156992866Y-78767709D01*
X157087364Y-78798413D01*
X157283639Y-78829500D01*
X157283640Y-78829500D01*
X157482360Y-78829500D01*
X157482361Y-78829500D01*
X157678636Y-78798413D01*
X157867632Y-78737005D01*
X158044694Y-78646787D01*
X158205464Y-78529981D01*
X158345981Y-78389464D01*
X158462787Y-78228694D01*
X158542515Y-78072218D01*
X158590490Y-78021423D01*
X158658311Y-78004628D01*
X158724446Y-78027165D01*
X158763484Y-78072218D01*
X158843213Y-78228694D01*
X158960019Y-78389464D01*
X159100536Y-78529981D01*
X159261306Y-78646787D01*
X159304395Y-78668742D01*
X159438367Y-78737005D01*
X159438370Y-78737006D01*
X159532866Y-78767709D01*
X159627364Y-78798413D01*
X159823639Y-78829500D01*
X159823640Y-78829500D01*
X160022360Y-78829500D01*
X160022361Y-78829500D01*
X160218636Y-78798413D01*
X160407632Y-78737005D01*
X160584694Y-78646787D01*
X160745464Y-78529981D01*
X160885981Y-78389464D01*
X161002787Y-78228694D01*
X161082515Y-78072218D01*
X161130490Y-78021423D01*
X161198311Y-78004628D01*
X161264446Y-78027165D01*
X161303484Y-78072218D01*
X161383213Y-78228694D01*
X161500019Y-78389464D01*
X161640536Y-78529981D01*
X161801306Y-78646787D01*
X161844395Y-78668742D01*
X161978367Y-78737005D01*
X161978370Y-78737006D01*
X162072866Y-78767709D01*
X162167364Y-78798413D01*
X162363639Y-78829500D01*
X162363640Y-78829500D01*
X162562360Y-78829500D01*
X162562361Y-78829500D01*
X162758636Y-78798413D01*
X162947632Y-78737005D01*
X163124694Y-78646787D01*
X163285464Y-78529981D01*
X163425981Y-78389464D01*
X163542787Y-78228694D01*
X163622515Y-78072218D01*
X163670490Y-78021423D01*
X163738311Y-78004628D01*
X163804446Y-78027165D01*
X163843484Y-78072218D01*
X163923213Y-78228694D01*
X164040019Y-78389464D01*
X164180536Y-78529981D01*
X164341306Y-78646787D01*
X164384395Y-78668742D01*
X164518367Y-78737005D01*
X164518370Y-78737006D01*
X164612866Y-78767709D01*
X164707364Y-78798413D01*
X164903639Y-78829500D01*
X164903640Y-78829500D01*
X165102360Y-78829500D01*
X165102361Y-78829500D01*
X165298636Y-78798413D01*
X165487632Y-78737005D01*
X165664694Y-78646787D01*
X165825464Y-78529981D01*
X165965981Y-78389464D01*
X166082787Y-78228694D01*
X166162515Y-78072218D01*
X166210490Y-78021423D01*
X166278311Y-78004628D01*
X166344446Y-78027165D01*
X166383484Y-78072218D01*
X166463213Y-78228694D01*
X166580019Y-78389464D01*
X166720536Y-78529981D01*
X166881306Y-78646787D01*
X166924395Y-78668742D01*
X167058367Y-78737005D01*
X167058370Y-78737006D01*
X167152866Y-78767709D01*
X167247364Y-78798413D01*
X167443639Y-78829500D01*
X167443640Y-78829500D01*
X167642360Y-78829500D01*
X167642361Y-78829500D01*
X167838636Y-78798413D01*
X168027632Y-78737005D01*
X168204694Y-78646787D01*
X168365464Y-78529981D01*
X168505981Y-78389464D01*
X168622787Y-78228694D01*
X168702515Y-78072218D01*
X168750490Y-78021423D01*
X168818311Y-78004628D01*
X168884446Y-78027165D01*
X168923484Y-78072218D01*
X169003213Y-78228694D01*
X169120019Y-78389464D01*
X169260536Y-78529981D01*
X169421306Y-78646787D01*
X169464395Y-78668742D01*
X169598367Y-78737005D01*
X169598370Y-78737006D01*
X169692866Y-78767709D01*
X169787364Y-78798413D01*
X169983639Y-78829500D01*
X169983640Y-78829500D01*
X170182360Y-78829500D01*
X170182361Y-78829500D01*
X170378636Y-78798413D01*
X170567632Y-78737005D01*
X170744694Y-78646787D01*
X170905464Y-78529981D01*
X171045981Y-78389464D01*
X171162787Y-78228694D01*
X171253005Y-78051632D01*
X171314413Y-77862636D01*
X171345500Y-77666361D01*
X171345500Y-77467639D01*
X171314413Y-77271364D01*
X171253005Y-77082368D01*
X171253005Y-77082367D01*
X171207035Y-76992149D01*
X171162787Y-76905306D01*
X171045981Y-76744536D01*
X170905464Y-76604019D01*
X170744694Y-76487213D01*
X170726369Y-76477876D01*
X170567632Y-76396994D01*
X170567629Y-76396993D01*
X170378637Y-76335587D01*
X170280498Y-76320043D01*
X170182361Y-76304500D01*
X169983639Y-76304500D01*
X169918214Y-76314862D01*
X169787362Y-76335587D01*
X169598370Y-76396993D01*
X169598367Y-76396994D01*
X169421305Y-76487213D01*
X169260533Y-76604021D01*
X169120021Y-76744533D01*
X169003213Y-76905305D01*
X168923485Y-77061780D01*
X168875510Y-77112576D01*
X168807689Y-77129371D01*
X168741554Y-77106833D01*
X168702515Y-77061780D01*
X168672559Y-77002988D01*
X168622787Y-76905306D01*
X168505981Y-76744536D01*
X168365464Y-76604019D01*
X168204694Y-76487213D01*
X168186369Y-76477876D01*
X168027632Y-76396994D01*
X168027629Y-76396993D01*
X167838637Y-76335587D01*
X167740498Y-76320043D01*
X167642361Y-76304500D01*
X167443639Y-76304500D01*
X167378214Y-76314862D01*
X167247362Y-76335587D01*
X167058370Y-76396993D01*
X167058367Y-76396994D01*
X166881305Y-76487213D01*
X166720533Y-76604021D01*
X166580021Y-76744533D01*
X166463213Y-76905305D01*
X166383485Y-77061780D01*
X166335510Y-77112576D01*
X166267689Y-77129371D01*
X166201554Y-77106833D01*
X166162515Y-77061780D01*
X166132559Y-77002988D01*
X166082787Y-76905306D01*
X165965981Y-76744536D01*
X165825464Y-76604019D01*
X165664694Y-76487213D01*
X165646369Y-76477876D01*
X165487632Y-76396994D01*
X165487629Y-76396993D01*
X165298637Y-76335587D01*
X165200498Y-76320043D01*
X165102361Y-76304500D01*
X164903639Y-76304500D01*
X164838214Y-76314862D01*
X164707362Y-76335587D01*
X164518370Y-76396993D01*
X164518367Y-76396994D01*
X164341305Y-76487213D01*
X164180533Y-76604021D01*
X164040021Y-76744533D01*
X163923213Y-76905305D01*
X163843485Y-77061780D01*
X163795510Y-77112576D01*
X163727689Y-77129371D01*
X163661554Y-77106833D01*
X163622515Y-77061780D01*
X163592559Y-77002988D01*
X163542787Y-76905306D01*
X163425981Y-76744536D01*
X163285464Y-76604019D01*
X163124694Y-76487213D01*
X163106369Y-76477876D01*
X162947632Y-76396994D01*
X162947629Y-76396993D01*
X162758637Y-76335587D01*
X162660498Y-76320043D01*
X162562361Y-76304500D01*
X162363639Y-76304500D01*
X162298214Y-76314862D01*
X162167362Y-76335587D01*
X161978370Y-76396993D01*
X161978367Y-76396994D01*
X161801305Y-76487213D01*
X161640533Y-76604021D01*
X161500021Y-76744533D01*
X161383213Y-76905305D01*
X161303485Y-77061780D01*
X161255510Y-77112576D01*
X161187689Y-77129371D01*
X161121554Y-77106833D01*
X161082515Y-77061780D01*
X161052559Y-77002988D01*
X161002787Y-76905306D01*
X160885981Y-76744536D01*
X160745464Y-76604019D01*
X160584694Y-76487213D01*
X160566369Y-76477876D01*
X160407632Y-76396994D01*
X160407629Y-76396993D01*
X160218637Y-76335587D01*
X160120498Y-76320043D01*
X160022361Y-76304500D01*
X159823639Y-76304500D01*
X159758214Y-76314862D01*
X159627362Y-76335587D01*
X159438370Y-76396993D01*
X159438367Y-76396994D01*
X159261305Y-76487213D01*
X159100533Y-76604021D01*
X158960021Y-76744533D01*
X158843213Y-76905305D01*
X158763485Y-77061780D01*
X158715510Y-77112576D01*
X158647689Y-77129371D01*
X158581554Y-77106833D01*
X158542515Y-77061780D01*
X158512559Y-77002988D01*
X158462787Y-76905306D01*
X158345981Y-76744536D01*
X158205464Y-76604019D01*
X158044694Y-76487213D01*
X158026369Y-76477876D01*
X157867632Y-76396994D01*
X157867629Y-76396993D01*
X157678637Y-76335587D01*
X157580498Y-76320043D01*
X157482361Y-76304500D01*
X157283639Y-76304500D01*
X157218214Y-76314862D01*
X157087362Y-76335587D01*
X156898370Y-76396993D01*
X156898367Y-76396994D01*
X156721305Y-76487213D01*
X156560533Y-76604021D01*
X156420021Y-76744533D01*
X156303213Y-76905305D01*
X156223485Y-77061780D01*
X156175510Y-77112576D01*
X156107689Y-77129371D01*
X156041554Y-77106833D01*
X156002515Y-77061780D01*
X155972559Y-77002988D01*
X155922787Y-76905306D01*
X155805981Y-76744536D01*
X155665464Y-76604019D01*
X155504694Y-76487213D01*
X155486369Y-76477876D01*
X155327632Y-76396994D01*
X155327629Y-76396993D01*
X155138637Y-76335587D01*
X155040498Y-76320043D01*
X154942361Y-76304500D01*
X154743639Y-76304500D01*
X154678214Y-76314862D01*
X154547362Y-76335587D01*
X154358370Y-76396993D01*
X154358367Y-76396994D01*
X154181305Y-76487213D01*
X154020533Y-76604021D01*
X153880021Y-76744533D01*
X153763213Y-76905305D01*
X153683485Y-77061780D01*
X153635510Y-77112576D01*
X153567689Y-77129371D01*
X153501554Y-77106833D01*
X153462515Y-77061780D01*
X153432559Y-77002988D01*
X153382787Y-76905306D01*
X153265981Y-76744536D01*
X153125464Y-76604019D01*
X152964694Y-76487213D01*
X152946369Y-76477876D01*
X152787632Y-76396994D01*
X152787629Y-76396993D01*
X152598637Y-76335587D01*
X152500498Y-76320043D01*
X152402361Y-76304500D01*
X152203639Y-76304500D01*
X152138214Y-76314862D01*
X152007362Y-76335587D01*
X151818370Y-76396993D01*
X151818367Y-76396994D01*
X151641305Y-76487213D01*
X151480533Y-76604021D01*
X151340021Y-76744533D01*
X151223213Y-76905305D01*
X151143485Y-77061780D01*
X151095510Y-77112576D01*
X151027689Y-77129371D01*
X150961554Y-77106833D01*
X150922515Y-77061780D01*
X150892559Y-77002988D01*
X150842787Y-76905306D01*
X150725981Y-76744536D01*
X150585464Y-76604019D01*
X150424694Y-76487213D01*
X150406369Y-76477876D01*
X150247632Y-76396994D01*
X150247629Y-76396993D01*
X150058637Y-76335587D01*
X149960498Y-76320043D01*
X149862361Y-76304500D01*
X149663639Y-76304500D01*
X149598214Y-76314862D01*
X149467362Y-76335587D01*
X149278370Y-76396993D01*
X149278367Y-76396994D01*
X149101305Y-76487213D01*
X148940533Y-76604021D01*
X148800021Y-76744533D01*
X148683213Y-76905305D01*
X148603485Y-77061780D01*
X148555510Y-77112576D01*
X148487689Y-77129371D01*
X148421554Y-77106833D01*
X148382515Y-77061780D01*
X148352559Y-77002988D01*
X148302787Y-76905306D01*
X148185981Y-76744536D01*
X148045464Y-76604019D01*
X147884694Y-76487213D01*
X147884690Y-76487210D01*
X147882715Y-76486000D01*
X147882121Y-76485343D01*
X147880752Y-76484349D01*
X147880960Y-76484061D01*
X147835837Y-76434190D01*
X147823500Y-76380270D01*
X147823500Y-72338784D01*
X147843185Y-72271745D01*
X147859819Y-72251103D01*
X148000136Y-72110785D01*
X148000139Y-72110782D01*
X148109632Y-71946914D01*
X148185051Y-71764835D01*
X148210210Y-71638355D01*
X148223500Y-71571543D01*
X148223500Y-71374456D01*
X148185052Y-71181170D01*
X148185051Y-71181169D01*
X148185051Y-71181165D01*
X148156967Y-71113364D01*
X148109635Y-70999092D01*
X148109628Y-70999079D01*
X148000139Y-70835218D01*
X148000136Y-70835214D01*
X147860785Y-70695863D01*
X147860781Y-70695860D01*
X147696920Y-70586371D01*
X147696907Y-70586364D01*
X147514839Y-70510950D01*
X147514829Y-70510947D01*
X147321543Y-70472500D01*
X147321541Y-70472500D01*
X147124459Y-70472500D01*
X147124457Y-70472500D01*
X146931170Y-70510947D01*
X146931160Y-70510950D01*
X146749092Y-70586364D01*
X146749079Y-70586371D01*
X146585218Y-70695860D01*
X146585214Y-70695863D01*
X146445863Y-70835214D01*
X146445860Y-70835218D01*
X146336371Y-70999079D01*
X146336364Y-70999092D01*
X146260950Y-71181160D01*
X146260947Y-71181170D01*
X146222500Y-71374456D01*
X146222500Y-71374459D01*
X146222500Y-71571541D01*
X146222500Y-71571543D01*
X146222499Y-71571543D01*
X146260947Y-71764829D01*
X146260950Y-71764839D01*
X146336364Y-71946907D01*
X146336371Y-71946920D01*
X146445860Y-72110781D01*
X146445863Y-72110785D01*
X146586181Y-72251103D01*
X146619666Y-72312426D01*
X146622500Y-72338784D01*
X146622500Y-76380270D01*
X146602815Y-76447309D01*
X146565133Y-76484191D01*
X146565248Y-76484349D01*
X146564176Y-76485127D01*
X146563285Y-76486000D01*
X146561309Y-76487210D01*
X146400533Y-76604021D01*
X146260021Y-76744533D01*
X146143213Y-76905305D01*
X146063485Y-77061780D01*
X146015510Y-77112576D01*
X145947689Y-77129371D01*
X145881554Y-77106833D01*
X145842515Y-77061780D01*
X145812559Y-77002988D01*
X145762787Y-76905306D01*
X145645981Y-76744536D01*
X145505464Y-76604019D01*
X145344694Y-76487213D01*
X145344690Y-76487210D01*
X145342715Y-76486000D01*
X145342121Y-76485343D01*
X145340752Y-76484349D01*
X145340960Y-76484061D01*
X145295837Y-76434190D01*
X145283500Y-76380270D01*
X145283500Y-72022059D01*
X145283501Y-72022046D01*
X145283501Y-71853945D01*
X145283501Y-71853943D01*
X145242577Y-71701215D01*
X145242576Y-71701214D01*
X145242576Y-71701212D01*
X145242575Y-71701211D01*
X145196161Y-71620820D01*
X145196161Y-71620819D01*
X145163524Y-71564290D01*
X145163521Y-71564286D01*
X145163520Y-71564284D01*
X145051716Y-71452480D01*
X145051715Y-71452479D01*
X145047385Y-71448149D01*
X145047374Y-71448139D01*
X143237590Y-69638355D01*
X143237588Y-69638352D01*
X143118717Y-69519481D01*
X143118716Y-69519480D01*
X143031904Y-69469360D01*
X143031904Y-69469359D01*
X143031900Y-69469358D01*
X142981785Y-69440423D01*
X142829057Y-69399499D01*
X142670943Y-69399499D01*
X142663347Y-69399499D01*
X142663331Y-69399500D01*
X141615784Y-69399500D01*
X141548745Y-69379815D01*
X141528103Y-69363181D01*
X141387785Y-69222863D01*
X141387781Y-69222860D01*
X141223920Y-69113371D01*
X141223907Y-69113364D01*
X141041839Y-69037950D01*
X141041829Y-69037947D01*
X140848543Y-68999500D01*
X140848541Y-68999500D01*
X140651459Y-68999500D01*
X140651457Y-68999500D01*
X140458170Y-69037947D01*
X140458160Y-69037950D01*
X140276092Y-69113364D01*
X140276079Y-69113371D01*
X140112218Y-69222860D01*
X140112214Y-69222863D01*
X139972863Y-69362214D01*
X139972860Y-69362218D01*
X139863371Y-69526079D01*
X139863364Y-69526092D01*
X139787950Y-69708160D01*
X139787947Y-69708170D01*
X139749500Y-69901456D01*
X139749500Y-69901459D01*
X139749500Y-70098541D01*
X139749500Y-70098543D01*
X139749499Y-70098543D01*
X139787947Y-70291829D01*
X139787950Y-70291839D01*
X139863364Y-70473907D01*
X139863371Y-70473920D01*
X139972860Y-70637781D01*
X139972863Y-70637785D01*
X140112214Y-70777136D01*
X140112218Y-70777139D01*
X140276079Y-70886628D01*
X140276092Y-70886635D01*
X140452006Y-70959500D01*
X140458165Y-70962051D01*
X140458169Y-70962051D01*
X140458170Y-70962052D01*
X140651456Y-71000500D01*
X140651459Y-71000500D01*
X140848543Y-71000500D01*
X140978582Y-70974632D01*
X141041835Y-70962051D01*
X141223914Y-70886632D01*
X141387782Y-70777139D01*
X141387785Y-70777136D01*
X141528103Y-70636819D01*
X141589426Y-70603334D01*
X141615784Y-70600500D01*
X142449903Y-70600500D01*
X142516942Y-70620185D01*
X142537584Y-70636819D01*
X144046181Y-72145416D01*
X144079666Y-72206739D01*
X144082500Y-72233097D01*
X144082500Y-76380270D01*
X144062815Y-76447309D01*
X144025133Y-76484191D01*
X144025248Y-76484349D01*
X144024176Y-76485127D01*
X144023285Y-76486000D01*
X144021309Y-76487210D01*
X143860533Y-76604021D01*
X143720021Y-76744533D01*
X143603213Y-76905305D01*
X143523485Y-77061780D01*
X143475510Y-77112576D01*
X143407689Y-77129371D01*
X143341554Y-77106833D01*
X143302515Y-77061780D01*
X143272559Y-77002988D01*
X143222787Y-76905306D01*
X143105981Y-76744536D01*
X142965464Y-76604019D01*
X142804694Y-76487213D01*
X142786369Y-76477876D01*
X142627632Y-76396994D01*
X142627629Y-76396993D01*
X142438637Y-76335587D01*
X142340498Y-76320043D01*
X142242361Y-76304500D01*
X142043639Y-76304500D01*
X141978214Y-76314862D01*
X141847362Y-76335587D01*
X141658370Y-76396993D01*
X141658367Y-76396994D01*
X141481305Y-76487213D01*
X141320533Y-76604021D01*
X141180021Y-76744533D01*
X141063213Y-76905305D01*
X140983485Y-77061780D01*
X140935510Y-77112576D01*
X140867689Y-77129371D01*
X140801554Y-77106833D01*
X140762515Y-77061780D01*
X140732559Y-77002988D01*
X140682787Y-76905306D01*
X140565981Y-76744536D01*
X140425464Y-76604019D01*
X140264694Y-76487213D01*
X140246369Y-76477876D01*
X140087632Y-76396994D01*
X140087629Y-76396993D01*
X139898637Y-76335587D01*
X139800498Y-76320043D01*
X139702361Y-76304500D01*
X139503639Y-76304500D01*
X139464384Y-76310717D01*
X139307360Y-76335587D01*
X139305087Y-76336133D01*
X139304197Y-76336088D01*
X139302552Y-76336349D01*
X139302497Y-76336003D01*
X139235305Y-76332635D01*
X139188472Y-76303237D01*
X134523590Y-71638355D01*
X134523588Y-71638352D01*
X134404717Y-71519481D01*
X134404712Y-71519477D01*
X134288668Y-71452480D01*
X134267785Y-71440423D01*
X134115057Y-71399499D01*
X133956943Y-71399499D01*
X133949347Y-71399499D01*
X133949331Y-71399500D01*
X132865784Y-71399500D01*
X132798745Y-71379815D01*
X132778103Y-71363181D01*
X132637785Y-71222863D01*
X132637781Y-71222860D01*
X132473920Y-71113371D01*
X132473907Y-71113364D01*
X132291839Y-71037950D01*
X132291829Y-71037947D01*
X132098543Y-70999500D01*
X132098541Y-70999500D01*
X131901459Y-70999500D01*
X131901457Y-70999500D01*
X131708170Y-71037947D01*
X131708160Y-71037950D01*
X131526092Y-71113364D01*
X131526079Y-71113371D01*
X131362218Y-71222860D01*
X131362214Y-71222863D01*
X131222863Y-71362214D01*
X131222860Y-71362218D01*
X131113371Y-71526079D01*
X131113364Y-71526092D01*
X131037950Y-71708160D01*
X131037947Y-71708170D01*
X130999500Y-71901456D01*
X130999500Y-71901459D01*
X130999500Y-72098541D01*
X130999500Y-72098543D01*
X130999499Y-72098543D01*
X131037947Y-72291829D01*
X131037950Y-72291839D01*
X131113364Y-72473907D01*
X131113371Y-72473920D01*
X131222860Y-72637781D01*
X131222863Y-72637785D01*
X131362214Y-72777136D01*
X131362218Y-72777139D01*
X131526079Y-72886628D01*
X131526092Y-72886635D01*
X131645052Y-72935909D01*
X131708165Y-72962051D01*
X131708169Y-72962051D01*
X131708170Y-72962052D01*
X131901456Y-73000500D01*
X131901459Y-73000500D01*
X132098543Y-73000500D01*
X132228582Y-72974632D01*
X132291835Y-72962051D01*
X132473914Y-72886632D01*
X132637782Y-72777139D01*
X132689614Y-72725307D01*
X132778103Y-72636819D01*
X132839426Y-72603334D01*
X132865784Y-72600500D01*
X133735903Y-72600500D01*
X133802942Y-72620185D01*
X133823584Y-72636819D01*
X137283307Y-76096542D01*
X137316792Y-76157865D01*
X137311808Y-76227557D01*
X137269936Y-76283490D01*
X137204472Y-76307907D01*
X137176232Y-76306697D01*
X137162361Y-76304500D01*
X136963639Y-76304500D01*
X136898214Y-76314862D01*
X136767362Y-76335587D01*
X136578370Y-76396993D01*
X136578367Y-76396994D01*
X136401305Y-76487213D01*
X136240533Y-76604021D01*
X136100021Y-76744533D01*
X135983213Y-76905305D01*
X135903485Y-77061780D01*
X135855510Y-77112576D01*
X135787689Y-77129371D01*
X135721554Y-77106833D01*
X135682515Y-77061780D01*
X135652559Y-77002988D01*
X135602787Y-76905306D01*
X135485981Y-76744536D01*
X135345464Y-76604019D01*
X135184694Y-76487213D01*
X135166369Y-76477876D01*
X135007632Y-76396994D01*
X135007629Y-76396993D01*
X134818637Y-76335587D01*
X134720498Y-76320043D01*
X134622361Y-76304500D01*
X134423639Y-76304500D01*
X134384384Y-76310717D01*
X134227360Y-76335587D01*
X134225087Y-76336133D01*
X134224197Y-76336088D01*
X134222552Y-76336349D01*
X134222497Y-76336003D01*
X134214722Y-76335613D01*
X134204999Y-76339240D01*
X134180424Y-76333894D01*
X134155305Y-76332635D01*
X134145052Y-76326199D01*
X134136726Y-76324388D01*
X134108472Y-76303237D01*
X133947759Y-76142524D01*
X133914274Y-76081201D01*
X133919258Y-76011509D01*
X133947757Y-75967163D01*
X134027139Y-75887782D01*
X134136632Y-75723914D01*
X134212051Y-75541835D01*
X134237525Y-75413771D01*
X134250500Y-75348543D01*
X134250500Y-75151456D01*
X134212052Y-74958170D01*
X134212051Y-74958169D01*
X134212051Y-74958165D01*
X134205314Y-74941901D01*
X134136635Y-74776092D01*
X134136628Y-74776079D01*
X134027139Y-74612218D01*
X134027136Y-74612214D01*
X133887785Y-74472863D01*
X133887781Y-74472860D01*
X133723920Y-74363371D01*
X133723907Y-74363364D01*
X133541839Y-74287950D01*
X133541829Y-74287947D01*
X133348543Y-74249500D01*
X133348541Y-74249500D01*
X133151459Y-74249500D01*
X133151457Y-74249500D01*
X132958170Y-74287947D01*
X132958160Y-74287950D01*
X132776092Y-74363364D01*
X132776079Y-74363371D01*
X132612218Y-74472860D01*
X132612214Y-74472863D01*
X132472863Y-74612214D01*
X132472860Y-74612218D01*
X132363371Y-74776079D01*
X132363364Y-74776092D01*
X132287950Y-74958160D01*
X132287947Y-74958170D01*
X132249500Y-75151456D01*
X132249500Y-75151459D01*
X132249500Y-75348541D01*
X132249500Y-75348543D01*
X132249499Y-75348543D01*
X132287947Y-75541829D01*
X132287950Y-75541839D01*
X132363364Y-75723907D01*
X132363371Y-75723920D01*
X132472860Y-75887781D01*
X132472863Y-75887785D01*
X132613181Y-76028103D01*
X132627884Y-76055030D01*
X132644477Y-76080849D01*
X132645368Y-76087049D01*
X132646666Y-76089426D01*
X132649500Y-76115784D01*
X132649500Y-76207330D01*
X132649499Y-76207348D01*
X132649499Y-76287310D01*
X132629814Y-76354349D01*
X132577010Y-76400104D01*
X132507852Y-76410048D01*
X132472183Y-76398741D01*
X132472135Y-76398860D01*
X132470759Y-76398290D01*
X132469216Y-76397801D01*
X132467639Y-76396998D01*
X132467629Y-76396993D01*
X132278637Y-76335587D01*
X132180498Y-76320043D01*
X132082361Y-76304500D01*
X131883639Y-76304500D01*
X131818214Y-76314862D01*
X131687362Y-76335587D01*
X131498370Y-76396993D01*
X131498367Y-76396994D01*
X131321305Y-76487213D01*
X131160533Y-76604021D01*
X131020021Y-76744533D01*
X130903213Y-76905305D01*
X130823485Y-77061780D01*
X130775510Y-77112576D01*
X130707689Y-77129371D01*
X130641554Y-77106833D01*
X130602515Y-77061780D01*
X130572559Y-77002988D01*
X130522787Y-76905306D01*
X130405981Y-76744536D01*
X130265464Y-76604019D01*
X130104694Y-76487213D01*
X130086369Y-76477876D01*
X129927632Y-76396994D01*
X129927629Y-76396993D01*
X129738637Y-76335587D01*
X129640498Y-76320043D01*
X129542361Y-76304500D01*
X129343639Y-76304500D01*
X129278214Y-76314862D01*
X129147362Y-76335587D01*
X128958370Y-76396993D01*
X128958367Y-76396994D01*
X128781305Y-76487213D01*
X128620533Y-76604021D01*
X128480021Y-76744533D01*
X128363213Y-76905305D01*
X128283485Y-77061780D01*
X128235510Y-77112576D01*
X128167689Y-77129371D01*
X128101554Y-77106833D01*
X128062515Y-77061780D01*
X128032559Y-77002988D01*
X127982787Y-76905306D01*
X127865981Y-76744536D01*
X127725464Y-76604019D01*
X127564694Y-76487213D01*
X127546369Y-76477876D01*
X127387632Y-76396994D01*
X127387629Y-76396993D01*
X127198637Y-76335587D01*
X127100498Y-76320043D01*
X127002361Y-76304500D01*
X126803639Y-76304500D01*
X126738214Y-76314862D01*
X126607362Y-76335587D01*
X126418370Y-76396993D01*
X126418367Y-76396994D01*
X126241305Y-76487213D01*
X126080533Y-76604021D01*
X125940021Y-76744533D01*
X125823213Y-76905305D01*
X125743485Y-77061780D01*
X125695510Y-77112576D01*
X125627689Y-77129371D01*
X125561554Y-77106833D01*
X125522515Y-77061780D01*
X125492559Y-77002988D01*
X125442787Y-76905306D01*
X125325981Y-76744536D01*
X125185464Y-76604019D01*
X125024694Y-76487213D01*
X125006369Y-76477876D01*
X124847632Y-76396994D01*
X124847629Y-76396993D01*
X124658637Y-76335587D01*
X124560498Y-76320043D01*
X124462361Y-76304500D01*
X124263639Y-76304500D01*
X124198214Y-76314862D01*
X124067362Y-76335587D01*
X123878370Y-76396993D01*
X123878367Y-76396994D01*
X123701305Y-76487213D01*
X123540533Y-76604021D01*
X123400021Y-76744533D01*
X123283213Y-76905305D01*
X123192994Y-77082367D01*
X123192993Y-77082370D01*
X123131587Y-77271362D01*
X123100500Y-77467639D01*
X99875500Y-77467639D01*
X99875500Y-75163768D01*
X99875499Y-75163766D01*
X99841856Y-74994633D01*
X99841855Y-74994626D01*
X99841853Y-74994621D01*
X99775861Y-74835301D01*
X99775854Y-74835288D01*
X99680046Y-74691902D01*
X99680045Y-74691901D01*
X99558099Y-74569955D01*
X97558099Y-72569955D01*
X94911819Y-69923675D01*
X94878334Y-69862352D01*
X94875500Y-69835994D01*
X94875500Y-69037844D01*
X98035000Y-69037844D01*
X98041401Y-69097372D01*
X98041403Y-69097379D01*
X98091645Y-69232086D01*
X98091649Y-69232093D01*
X98177809Y-69347187D01*
X98177812Y-69347190D01*
X98292906Y-69433350D01*
X98292913Y-69433354D01*
X98427620Y-69483596D01*
X98427627Y-69483598D01*
X98487155Y-69489999D01*
X98487172Y-69490000D01*
X99585000Y-69490000D01*
X99585000Y-69393554D01*
X99584999Y-69393553D01*
X100085000Y-69393553D01*
X100085000Y-69490000D01*
X101182828Y-69490000D01*
X101182844Y-69489999D01*
X101242372Y-69483598D01*
X101242379Y-69483596D01*
X101377086Y-69433354D01*
X101377093Y-69433350D01*
X101491313Y-69347844D01*
X121325000Y-69347844D01*
X121331401Y-69407372D01*
X121331403Y-69407379D01*
X121381645Y-69542086D01*
X121381649Y-69542093D01*
X121467809Y-69657187D01*
X121467812Y-69657190D01*
X121582906Y-69743350D01*
X121582913Y-69743354D01*
X121717620Y-69793596D01*
X121717627Y-69793598D01*
X121777155Y-69799999D01*
X121777172Y-69800000D01*
X122875000Y-69800000D01*
X122875000Y-69703554D01*
X122874999Y-69703553D01*
X123375000Y-69703553D01*
X123375000Y-69800000D01*
X124472828Y-69800000D01*
X124472844Y-69799999D01*
X124532372Y-69793598D01*
X124532379Y-69793596D01*
X124667086Y-69743354D01*
X124667093Y-69743350D01*
X124782187Y-69657190D01*
X124782190Y-69657187D01*
X124868350Y-69542093D01*
X124868354Y-69542086D01*
X124918596Y-69407379D01*
X124918598Y-69407372D01*
X124924999Y-69347844D01*
X124925000Y-69347827D01*
X124925000Y-67900000D01*
X124378553Y-67900000D01*
X124532311Y-68053758D01*
X124565796Y-68115081D01*
X124560812Y-68184773D01*
X124532312Y-68229120D01*
X124461432Y-68300000D01*
X124532312Y-68370880D01*
X124565797Y-68432203D01*
X124560813Y-68501895D01*
X124532312Y-68546242D01*
X123375000Y-69703553D01*
X122874999Y-69703553D01*
X122088625Y-68917179D01*
X122310000Y-68917179D01*
X122310000Y-68982821D01*
X122335119Y-69043465D01*
X122381535Y-69089881D01*
X122442179Y-69115000D01*
X122507821Y-69115000D01*
X122568465Y-69089881D01*
X122614881Y-69043465D01*
X122640000Y-68982821D01*
X122640000Y-68950000D01*
X122828554Y-68950000D01*
X122875000Y-68996445D01*
X122875000Y-68996444D01*
X123375000Y-68996444D01*
X123421445Y-68950000D01*
X123388624Y-68917179D01*
X123610000Y-68917179D01*
X123610000Y-68982821D01*
X123635119Y-69043465D01*
X123681535Y-69089881D01*
X123742179Y-69115000D01*
X123807821Y-69115000D01*
X123868465Y-69089881D01*
X123914881Y-69043465D01*
X123940000Y-68982821D01*
X123940000Y-68917179D01*
X123914881Y-68856535D01*
X123868465Y-68810119D01*
X123807821Y-68785000D01*
X123742179Y-68785000D01*
X123681535Y-68810119D01*
X123635119Y-68856535D01*
X123610000Y-68917179D01*
X123388624Y-68917179D01*
X123375000Y-68903555D01*
X123375000Y-68996444D01*
X122875000Y-68996444D01*
X122875000Y-68903554D01*
X122828554Y-68950000D01*
X122640000Y-68950000D01*
X122640000Y-68917179D01*
X122614881Y-68856535D01*
X122568465Y-68810119D01*
X122507821Y-68785000D01*
X122442179Y-68785000D01*
X122381535Y-68810119D01*
X122335119Y-68856535D01*
X122310000Y-68917179D01*
X122088625Y-68917179D01*
X121717688Y-68546242D01*
X121684203Y-68484919D01*
X121689187Y-68415227D01*
X121694935Y-68402167D01*
X121747107Y-68300000D01*
X122178554Y-68300000D01*
X122475000Y-68596446D01*
X122771446Y-68300000D01*
X123478554Y-68300000D01*
X123775000Y-68596446D01*
X124071446Y-68300000D01*
X123775000Y-68003554D01*
X123478554Y-68300000D01*
X122771446Y-68300000D01*
X122475000Y-68003554D01*
X122178554Y-68300000D01*
X121747107Y-68300000D01*
X121761122Y-68272554D01*
X121717688Y-68229120D01*
X121684203Y-68167797D01*
X121689187Y-68098105D01*
X121717688Y-68053758D01*
X121871446Y-67900000D01*
X121325000Y-67900000D01*
X121325000Y-69347844D01*
X101491313Y-69347844D01*
X101492187Y-69347190D01*
X101492190Y-69347187D01*
X101578350Y-69232093D01*
X101578354Y-69232086D01*
X101628596Y-69097379D01*
X101628598Y-69097372D01*
X101634999Y-69037844D01*
X101635000Y-69037827D01*
X101635000Y-67617179D01*
X122310000Y-67617179D01*
X122310000Y-67682821D01*
X122335119Y-67743465D01*
X122381535Y-67789881D01*
X122442179Y-67815000D01*
X122507821Y-67815000D01*
X122568465Y-67789881D01*
X122614881Y-67743465D01*
X122640000Y-67682821D01*
X122640000Y-67617179D01*
X123610000Y-67617179D01*
X123610000Y-67682821D01*
X123635119Y-67743465D01*
X123681535Y-67789881D01*
X123742179Y-67815000D01*
X123807821Y-67815000D01*
X123868465Y-67789881D01*
X123914881Y-67743465D01*
X123940000Y-67682821D01*
X123940000Y-67617179D01*
X123914881Y-67556535D01*
X123868465Y-67510119D01*
X123807821Y-67485000D01*
X123742179Y-67485000D01*
X123681535Y-67510119D01*
X123635119Y-67556535D01*
X123610000Y-67617179D01*
X122640000Y-67617179D01*
X122614881Y-67556535D01*
X122568465Y-67510119D01*
X122507821Y-67485000D01*
X122442179Y-67485000D01*
X122381535Y-67510119D01*
X122335119Y-67556535D01*
X122310000Y-67617179D01*
X101635000Y-67617179D01*
X101635000Y-67590000D01*
X101088553Y-67590000D01*
X101242311Y-67743758D01*
X101275796Y-67805081D01*
X101270812Y-67874773D01*
X101242312Y-67919120D01*
X101171432Y-67990000D01*
X101242312Y-68060880D01*
X101275797Y-68122203D01*
X101270813Y-68191895D01*
X101242312Y-68236242D01*
X100085000Y-69393553D01*
X99584999Y-69393553D01*
X98798625Y-68607179D01*
X99020000Y-68607179D01*
X99020000Y-68672821D01*
X99045119Y-68733465D01*
X99091535Y-68779881D01*
X99152179Y-68805000D01*
X99217821Y-68805000D01*
X99278465Y-68779881D01*
X99324881Y-68733465D01*
X99350000Y-68672821D01*
X99350000Y-68640000D01*
X99538554Y-68640000D01*
X99585000Y-68686445D01*
X99585000Y-68686444D01*
X100085000Y-68686444D01*
X100131445Y-68640000D01*
X100098624Y-68607179D01*
X100320000Y-68607179D01*
X100320000Y-68672821D01*
X100345119Y-68733465D01*
X100391535Y-68779881D01*
X100452179Y-68805000D01*
X100517821Y-68805000D01*
X100578465Y-68779881D01*
X100624881Y-68733465D01*
X100650000Y-68672821D01*
X100650000Y-68607179D01*
X100624881Y-68546535D01*
X100578465Y-68500119D01*
X100517821Y-68475000D01*
X100452179Y-68475000D01*
X100391535Y-68500119D01*
X100345119Y-68546535D01*
X100320000Y-68607179D01*
X100098624Y-68607179D01*
X100085000Y-68593555D01*
X100085000Y-68686444D01*
X99585000Y-68686444D01*
X99585000Y-68593554D01*
X99538554Y-68640000D01*
X99350000Y-68640000D01*
X99350000Y-68607179D01*
X99324881Y-68546535D01*
X99278465Y-68500119D01*
X99217821Y-68475000D01*
X99152179Y-68475000D01*
X99091535Y-68500119D01*
X99045119Y-68546535D01*
X99020000Y-68607179D01*
X98798625Y-68607179D01*
X98427688Y-68236242D01*
X98394203Y-68174919D01*
X98399187Y-68105227D01*
X98404935Y-68092167D01*
X98457107Y-67990000D01*
X98888554Y-67990000D01*
X99185000Y-68286446D01*
X99481446Y-67990000D01*
X100188554Y-67990000D01*
X100485000Y-68286446D01*
X100781446Y-67990000D01*
X100485000Y-67693554D01*
X100188554Y-67990000D01*
X99481446Y-67990000D01*
X99185000Y-67693554D01*
X98888554Y-67990000D01*
X98457107Y-67990000D01*
X98471122Y-67962554D01*
X98427688Y-67919120D01*
X98394203Y-67857797D01*
X98399187Y-67788105D01*
X98427688Y-67743758D01*
X98581446Y-67590000D01*
X98035000Y-67590000D01*
X98035000Y-69037844D01*
X94875500Y-69037844D01*
X94875500Y-67307179D01*
X99020000Y-67307179D01*
X99020000Y-67372821D01*
X99045119Y-67433465D01*
X99091535Y-67479881D01*
X99152179Y-67505000D01*
X99217821Y-67505000D01*
X99278465Y-67479881D01*
X99324881Y-67433465D01*
X99350000Y-67372821D01*
X99350000Y-67307179D01*
X100320000Y-67307179D01*
X100320000Y-67372821D01*
X100345119Y-67433465D01*
X100391535Y-67479881D01*
X100452179Y-67505000D01*
X100517821Y-67505000D01*
X100578465Y-67479881D01*
X100624881Y-67433465D01*
X100650000Y-67372821D01*
X100650000Y-67307179D01*
X100624881Y-67246535D01*
X100578465Y-67200119D01*
X100517821Y-67175000D01*
X100452179Y-67175000D01*
X100391535Y-67200119D01*
X100345119Y-67246535D01*
X100320000Y-67307179D01*
X99350000Y-67307179D01*
X99324881Y-67246535D01*
X99278465Y-67200119D01*
X99217821Y-67175000D01*
X99152179Y-67175000D01*
X99091535Y-67200119D01*
X99045119Y-67246535D01*
X99020000Y-67307179D01*
X94875500Y-67307179D01*
X94875500Y-65775454D01*
X94877126Y-65767278D01*
X94876210Y-65762200D01*
X94884939Y-65728002D01*
X94920497Y-65642155D01*
X98035000Y-65642155D01*
X98035000Y-67090000D01*
X98581446Y-67090000D01*
X98581446Y-67089999D01*
X98427688Y-66936241D01*
X98394203Y-66874918D01*
X98399187Y-66805226D01*
X98404935Y-66792166D01*
X98457107Y-66690000D01*
X98888554Y-66690000D01*
X99185000Y-66986446D01*
X99481446Y-66690000D01*
X100188554Y-66690000D01*
X100485000Y-66986446D01*
X100781446Y-66690000D01*
X100485000Y-66393554D01*
X100188554Y-66690000D01*
X99481446Y-66690000D01*
X99185000Y-66393554D01*
X98888554Y-66690000D01*
X98457107Y-66690000D01*
X98471122Y-66662554D01*
X98427688Y-66619120D01*
X98394203Y-66557797D01*
X98399187Y-66488105D01*
X98427688Y-66443758D01*
X98864267Y-66007179D01*
X99020000Y-66007179D01*
X99020000Y-66072821D01*
X99045119Y-66133465D01*
X99091535Y-66179881D01*
X99152179Y-66205000D01*
X99217821Y-66205000D01*
X99278465Y-66179881D01*
X99324881Y-66133465D01*
X99350000Y-66072821D01*
X99350000Y-66040000D01*
X99538554Y-66040000D01*
X99585000Y-66086445D01*
X99585000Y-66086444D01*
X100085000Y-66086444D01*
X100131445Y-66040000D01*
X100098624Y-66007179D01*
X100320000Y-66007179D01*
X100320000Y-66072821D01*
X100345119Y-66133465D01*
X100391535Y-66179881D01*
X100452179Y-66205000D01*
X100517821Y-66205000D01*
X100578465Y-66179881D01*
X100624881Y-66133465D01*
X100650000Y-66072821D01*
X100650000Y-66007179D01*
X100624881Y-65946535D01*
X100578465Y-65900119D01*
X100517821Y-65875000D01*
X100452179Y-65875000D01*
X100391535Y-65900119D01*
X100345119Y-65946535D01*
X100320000Y-66007179D01*
X100098624Y-66007179D01*
X100085000Y-65993555D01*
X100085000Y-66086444D01*
X99585000Y-66086444D01*
X99585000Y-65993554D01*
X99538554Y-66040000D01*
X99350000Y-66040000D01*
X99350000Y-66007179D01*
X99324881Y-65946535D01*
X99278465Y-65900119D01*
X99217821Y-65875000D01*
X99152179Y-65875000D01*
X99091535Y-65900119D01*
X99045119Y-65946535D01*
X99020000Y-66007179D01*
X98864267Y-66007179D01*
X98970489Y-65900957D01*
X99584999Y-65286446D01*
X100085000Y-65286446D01*
X101242312Y-66443758D01*
X101275797Y-66505081D01*
X101270813Y-66574773D01*
X101242312Y-66619120D01*
X101171432Y-66690000D01*
X101242311Y-66760879D01*
X101275796Y-66822202D01*
X101270812Y-66891894D01*
X101242311Y-66936241D01*
X101088553Y-67089998D01*
X101088554Y-67090000D01*
X101635000Y-67090000D01*
X101635000Y-65952155D01*
X121325000Y-65952155D01*
X121325000Y-67400000D01*
X121871446Y-67400000D01*
X121871446Y-67399999D01*
X121717688Y-67246241D01*
X121684203Y-67184918D01*
X121689187Y-67115226D01*
X121694935Y-67102166D01*
X121747107Y-67000000D01*
X122178554Y-67000000D01*
X122475000Y-67296446D01*
X122771446Y-67000000D01*
X123478554Y-67000000D01*
X123775000Y-67296446D01*
X124071446Y-67000000D01*
X123775000Y-66703554D01*
X123478554Y-67000000D01*
X122771446Y-67000000D01*
X122475000Y-66703554D01*
X122178554Y-67000000D01*
X121747107Y-67000000D01*
X121761122Y-66972554D01*
X121717688Y-66929120D01*
X121684203Y-66867797D01*
X121689187Y-66798105D01*
X121717688Y-66753758D01*
X122154267Y-66317179D01*
X122310000Y-66317179D01*
X122310000Y-66382821D01*
X122335119Y-66443465D01*
X122381535Y-66489881D01*
X122442179Y-66515000D01*
X122507821Y-66515000D01*
X122568465Y-66489881D01*
X122614881Y-66443465D01*
X122640000Y-66382821D01*
X122640000Y-66350000D01*
X122828554Y-66350000D01*
X122875000Y-66396445D01*
X122875000Y-66396444D01*
X123375000Y-66396444D01*
X123421445Y-66350000D01*
X123388624Y-66317179D01*
X123610000Y-66317179D01*
X123610000Y-66382821D01*
X123635119Y-66443465D01*
X123681535Y-66489881D01*
X123742179Y-66515000D01*
X123807821Y-66515000D01*
X123868465Y-66489881D01*
X123914881Y-66443465D01*
X123940000Y-66382821D01*
X123940000Y-66317179D01*
X123914881Y-66256535D01*
X123868465Y-66210119D01*
X123807821Y-66185000D01*
X123742179Y-66185000D01*
X123681535Y-66210119D01*
X123635119Y-66256535D01*
X123610000Y-66317179D01*
X123388624Y-66317179D01*
X123375000Y-66303555D01*
X123375000Y-66396444D01*
X122875000Y-66396444D01*
X122875000Y-66303554D01*
X122828554Y-66350000D01*
X122640000Y-66350000D01*
X122640000Y-66317179D01*
X122614881Y-66256535D01*
X122568465Y-66210119D01*
X122507821Y-66185000D01*
X122442179Y-66185000D01*
X122381535Y-66210119D01*
X122335119Y-66256535D01*
X122310000Y-66317179D01*
X122154267Y-66317179D01*
X122260489Y-66210957D01*
X122874999Y-65596446D01*
X123375000Y-65596446D01*
X124532312Y-66753758D01*
X124565797Y-66815081D01*
X124560813Y-66884773D01*
X124532312Y-66929120D01*
X124461432Y-67000000D01*
X124532311Y-67070879D01*
X124565796Y-67132202D01*
X124560812Y-67201894D01*
X124532311Y-67246241D01*
X124378553Y-67399998D01*
X124378554Y-67400000D01*
X124925000Y-67400000D01*
X124925000Y-65952172D01*
X124924999Y-65952155D01*
X124918598Y-65892627D01*
X124918596Y-65892620D01*
X124868354Y-65757913D01*
X124868350Y-65757906D01*
X124782190Y-65642812D01*
X124782187Y-65642809D01*
X124667093Y-65556649D01*
X124667086Y-65556645D01*
X124532379Y-65506403D01*
X124532372Y-65506401D01*
X124472844Y-65500000D01*
X123375000Y-65500000D01*
X123375000Y-65596446D01*
X122874999Y-65596446D01*
X122875000Y-65596445D01*
X122875000Y-65500000D01*
X121777155Y-65500000D01*
X121717627Y-65506401D01*
X121717620Y-65506403D01*
X121582913Y-65556645D01*
X121582906Y-65556649D01*
X121467812Y-65642809D01*
X121467809Y-65642812D01*
X121381649Y-65757906D01*
X121381645Y-65757913D01*
X121331403Y-65892620D01*
X121331401Y-65892627D01*
X121325000Y-65952155D01*
X101635000Y-65952155D01*
X101635000Y-65642172D01*
X101634999Y-65642155D01*
X101628598Y-65582627D01*
X101628596Y-65582620D01*
X101578354Y-65447913D01*
X101578350Y-65447906D01*
X101492190Y-65332812D01*
X101492187Y-65332809D01*
X101377093Y-65246649D01*
X101377086Y-65246645D01*
X101242379Y-65196403D01*
X101242372Y-65196401D01*
X101182844Y-65190000D01*
X100085000Y-65190000D01*
X100085000Y-65286446D01*
X99584999Y-65286446D01*
X99585000Y-65286445D01*
X99585000Y-65190000D01*
X98487155Y-65190000D01*
X98427627Y-65196401D01*
X98427620Y-65196403D01*
X98292913Y-65246645D01*
X98292906Y-65246649D01*
X98177812Y-65332809D01*
X98177809Y-65332812D01*
X98091649Y-65447906D01*
X98091645Y-65447913D01*
X98041403Y-65582620D01*
X98041401Y-65582627D01*
X98035000Y-65642155D01*
X94920497Y-65642155D01*
X94932721Y-65612644D01*
X94962051Y-65541835D01*
X94962051Y-65541833D01*
X94963744Y-65537747D01*
X94990621Y-65497521D01*
X96076325Y-64411819D01*
X96137648Y-64378334D01*
X96164006Y-64375500D01*
X119724545Y-64375500D01*
X119771997Y-64384939D01*
X119958160Y-64462049D01*
X119958165Y-64462051D01*
X119958169Y-64462051D01*
X119958170Y-64462052D01*
X120151456Y-64500500D01*
X120151459Y-64500500D01*
X120348543Y-64500500D01*
X120487495Y-64472860D01*
X120541835Y-64462051D01*
X120602730Y-64436827D01*
X120728003Y-64384939D01*
X120775455Y-64375500D01*
X135085994Y-64375500D01*
X135153033Y-64395185D01*
X135173675Y-64411819D01*
X136338181Y-65576325D01*
X136371666Y-65637648D01*
X136374500Y-65664006D01*
X136374500Y-71260693D01*
X136354815Y-71327732D01*
X136338181Y-71348374D01*
X136287021Y-71399533D01*
X136170213Y-71560305D01*
X136079994Y-71737367D01*
X136079993Y-71737370D01*
X136018587Y-71926362D01*
X135987500Y-72122639D01*
X135987500Y-72321360D01*
X136018587Y-72517637D01*
X136079993Y-72706629D01*
X136079994Y-72706632D01*
X136170213Y-72883694D01*
X136287019Y-73044464D01*
X136427536Y-73184981D01*
X136588306Y-73301787D01*
X136628989Y-73322516D01*
X136765367Y-73392005D01*
X136765370Y-73392006D01*
X136859866Y-73422709D01*
X136954364Y-73453413D01*
X137150639Y-73484500D01*
X137150640Y-73484500D01*
X137349360Y-73484500D01*
X137349361Y-73484500D01*
X137545636Y-73453413D01*
X137734632Y-73392005D01*
X137911694Y-73301787D01*
X138072464Y-73184981D01*
X138212981Y-73044464D01*
X138329787Y-72883694D01*
X138420005Y-72706632D01*
X138481413Y-72517636D01*
X138512500Y-72321361D01*
X138512500Y-72122639D01*
X138481413Y-71926364D01*
X138450709Y-71831866D01*
X138420006Y-71737370D01*
X138420005Y-71737367D01*
X138360621Y-71620821D01*
X138329787Y-71560306D01*
X138212981Y-71399536D01*
X138161819Y-71348374D01*
X138128334Y-71287051D01*
X138125500Y-71260693D01*
X138125500Y-65163768D01*
X138125499Y-65163766D01*
X138091856Y-64994633D01*
X138091855Y-64994626D01*
X138091853Y-64994621D01*
X138025861Y-64835301D01*
X138025854Y-64835288D01*
X137930046Y-64691902D01*
X137930045Y-64691901D01*
X137808099Y-64569955D01*
X137497521Y-64259377D01*
X136058102Y-62819957D01*
X136058098Y-62819954D01*
X135914711Y-62724145D01*
X135914698Y-62724138D01*
X135755378Y-62658146D01*
X135755366Y-62658143D01*
X135586232Y-62624500D01*
X135586229Y-62624500D01*
X120775455Y-62624500D01*
X120728003Y-62615061D01*
X120541839Y-62537950D01*
X120541829Y-62537947D01*
X120348543Y-62499500D01*
X120348541Y-62499500D01*
X120151459Y-62499500D01*
X120151457Y-62499500D01*
X119958170Y-62537947D01*
X119958160Y-62537950D01*
X119771997Y-62615061D01*
X119724545Y-62624500D01*
X95663768Y-62624500D01*
X95494633Y-62658143D01*
X95494621Y-62658146D01*
X95335301Y-62724138D01*
X95335288Y-62724145D01*
X95191901Y-62819954D01*
X95191897Y-62819957D01*
X93752477Y-64259377D01*
X93712249Y-64286257D01*
X93526088Y-64363366D01*
X93526079Y-64363371D01*
X93362218Y-64472860D01*
X93362214Y-64472863D01*
X93222863Y-64612214D01*
X93222860Y-64612218D01*
X93113371Y-64776079D01*
X93113364Y-64776092D01*
X93037950Y-64958160D01*
X93037947Y-64958170D01*
X92999500Y-65151456D01*
X92999500Y-65151459D01*
X92999500Y-65348541D01*
X92999500Y-65348543D01*
X92999499Y-65348543D01*
X86620500Y-65348543D01*
X86620500Y-60698543D01*
X95579499Y-60698543D01*
X95617947Y-60891829D01*
X95617950Y-60891839D01*
X95693364Y-61073907D01*
X95693371Y-61073920D01*
X95802860Y-61237781D01*
X95802863Y-61237785D01*
X95942214Y-61377136D01*
X95942218Y-61377139D01*
X96106079Y-61486628D01*
X96106092Y-61486635D01*
X96288160Y-61562049D01*
X96288165Y-61562051D01*
X96288169Y-61562051D01*
X96288170Y-61562052D01*
X96481456Y-61600500D01*
X96481459Y-61600500D01*
X96678543Y-61600500D01*
X96808582Y-61574632D01*
X96871835Y-61562051D01*
X96932730Y-61536827D01*
X97058003Y-61484939D01*
X97105455Y-61475500D01*
X99316231Y-61475500D01*
X99316232Y-61475499D01*
X99485374Y-61441855D01*
X99622782Y-61384939D01*
X99644698Y-61375861D01*
X99644698Y-61375860D01*
X99644705Y-61375858D01*
X99788099Y-61280045D01*
X100469601Y-60598543D01*
X118499499Y-60598543D01*
X118537947Y-60791829D01*
X118537950Y-60791839D01*
X118613364Y-60973907D01*
X118613371Y-60973920D01*
X118722860Y-61137781D01*
X118722863Y-61137785D01*
X118862214Y-61277136D01*
X118862218Y-61277139D01*
X119026079Y-61386628D01*
X119026092Y-61386635D01*
X119208160Y-61462049D01*
X119208165Y-61462051D01*
X119208169Y-61462051D01*
X119208170Y-61462052D01*
X119401456Y-61500500D01*
X119401459Y-61500500D01*
X119598543Y-61500500D01*
X119728582Y-61474632D01*
X119791835Y-61462051D01*
X119852730Y-61436827D01*
X119978003Y-61384939D01*
X120025455Y-61375500D01*
X122236231Y-61375500D01*
X122236232Y-61375499D01*
X122405374Y-61341855D01*
X122554604Y-61280042D01*
X122564698Y-61275861D01*
X122564698Y-61275860D01*
X122564705Y-61275858D01*
X122708099Y-61180045D01*
X124701325Y-59186817D01*
X124762648Y-59153333D01*
X124789006Y-59150499D01*
X127047871Y-59150499D01*
X127047872Y-59150499D01*
X127107483Y-59144091D01*
X127242331Y-59093796D01*
X127357546Y-59007546D01*
X127443796Y-58892331D01*
X127494091Y-58757483D01*
X127500500Y-58697873D01*
X127500499Y-56733456D01*
X174499500Y-56733456D01*
X174499500Y-88138544D01*
X174537350Y-88328829D01*
X174537948Y-88331833D01*
X174537949Y-88331838D01*
X174613364Y-88513907D01*
X174613371Y-88513920D01*
X174722860Y-88677781D01*
X174722863Y-88677785D01*
X174866537Y-88821459D01*
X174866559Y-88821479D01*
X177963181Y-91918101D01*
X177996666Y-91979424D01*
X177999500Y-92005782D01*
X177999500Y-94087870D01*
X177999501Y-94087876D01*
X178005908Y-94147483D01*
X178056202Y-94282328D01*
X178056206Y-94282335D01*
X178142452Y-94397544D01*
X178142455Y-94397547D01*
X178257664Y-94483793D01*
X178257671Y-94483797D01*
X178302618Y-94500561D01*
X178392517Y-94534091D01*
X178452127Y-94540500D01*
X178875500Y-94540499D01*
X178942539Y-94560183D01*
X178988294Y-94612987D01*
X178999500Y-94664499D01*
X178999500Y-105206217D01*
X178979815Y-105273256D01*
X178963181Y-105293898D01*
X177756083Y-106500995D01*
X177694760Y-106534480D01*
X177687801Y-106535787D01*
X177594362Y-106550587D01*
X177405370Y-106611993D01*
X177405367Y-106611994D01*
X177228305Y-106702213D01*
X177067533Y-106819021D01*
X176927021Y-106959533D01*
X176810213Y-107120305D01*
X176719994Y-107297367D01*
X176719993Y-107297370D01*
X176658587Y-107486362D01*
X176627500Y-107682639D01*
X176627500Y-107881360D01*
X176658587Y-108077637D01*
X176719993Y-108266629D01*
X176719994Y-108266632D01*
X176769286Y-108363371D01*
X176810213Y-108443694D01*
X176927019Y-108604464D01*
X177067536Y-108744981D01*
X177228306Y-108861787D01*
X177306166Y-108901459D01*
X177405367Y-108952005D01*
X177405370Y-108952006D01*
X177499866Y-108982709D01*
X177594364Y-109013413D01*
X177790639Y-109044500D01*
X177790640Y-109044500D01*
X177989360Y-109044500D01*
X177989361Y-109044500D01*
X178185636Y-109013413D01*
X178374632Y-108952005D01*
X178551694Y-108861787D01*
X178712464Y-108744981D01*
X178852981Y-108604464D01*
X178969787Y-108443694D01*
X179060005Y-108266632D01*
X179121413Y-108077636D01*
X179136212Y-107984194D01*
X179166139Y-107921064D01*
X179170985Y-107915933D01*
X180777140Y-106309781D01*
X180886632Y-106145914D01*
X180962052Y-105963835D01*
X180994419Y-105801114D01*
X181000501Y-105770541D01*
X181000501Y-105568349D01*
X181000500Y-105568323D01*
X181000500Y-94664499D01*
X181020185Y-94597460D01*
X181072989Y-94551705D01*
X181124500Y-94540499D01*
X181547871Y-94540499D01*
X181547872Y-94540499D01*
X181607483Y-94534091D01*
X181742331Y-94483796D01*
X181857546Y-94397546D01*
X181943796Y-94282331D01*
X181994091Y-94147483D01*
X182000500Y-94087873D01*
X182000499Y-91174780D01*
X182006737Y-91153535D01*
X182008317Y-91131447D01*
X182016389Y-91120663D01*
X182020184Y-91107742D01*
X182036917Y-91093241D01*
X182050189Y-91075514D01*
X182062808Y-91070807D01*
X182072987Y-91061987D01*
X182094905Y-91058835D01*
X182115653Y-91051097D01*
X182128813Y-91053959D01*
X182142146Y-91052043D01*
X182162289Y-91061242D01*
X182183926Y-91065949D01*
X182201651Y-91079217D01*
X182205702Y-91081068D01*
X182212180Y-91087100D01*
X182213181Y-91088101D01*
X182246666Y-91149424D01*
X182249500Y-91175782D01*
X182249500Y-117284217D01*
X182229815Y-117351256D01*
X182213181Y-117371898D01*
X177252220Y-122332859D01*
X177252218Y-122332861D01*
X177216207Y-122368872D01*
X177112859Y-122472219D01*
X177003371Y-122636080D01*
X177003364Y-122636093D01*
X176953958Y-122755374D01*
X176937476Y-122795166D01*
X176937474Y-122795171D01*
X176927950Y-122818160D01*
X176927947Y-122818169D01*
X176889500Y-123011456D01*
X176889500Y-124750886D01*
X176869815Y-124817925D01*
X176865818Y-124823771D01*
X176810215Y-124900302D01*
X176719994Y-125077367D01*
X176719993Y-125077370D01*
X176658587Y-125266362D01*
X176627500Y-125462639D01*
X176627500Y-125661360D01*
X176658587Y-125857637D01*
X176719993Y-126046629D01*
X176719994Y-126046632D01*
X176779033Y-126162500D01*
X176810213Y-126223694D01*
X176927019Y-126384464D01*
X177067536Y-126524981D01*
X177228306Y-126641787D01*
X177315149Y-126686035D01*
X177405367Y-126732005D01*
X177405370Y-126732006D01*
X177499866Y-126762709D01*
X177594364Y-126793413D01*
X177790639Y-126824500D01*
X177790640Y-126824500D01*
X177989360Y-126824500D01*
X177989361Y-126824500D01*
X178185636Y-126793413D01*
X178374632Y-126732005D01*
X178551694Y-126641787D01*
X178712464Y-126524981D01*
X178852981Y-126384464D01*
X178969787Y-126223694D01*
X179060005Y-126046632D01*
X179121413Y-125857636D01*
X179152500Y-125661361D01*
X179152500Y-125462639D01*
X179121413Y-125266364D01*
X179060005Y-125077368D01*
X179060005Y-125077367D01*
X178999523Y-124958666D01*
X178969787Y-124900306D01*
X178961301Y-124888626D01*
X178914182Y-124823771D01*
X178890702Y-124757965D01*
X178890500Y-124750886D01*
X178890500Y-123575782D01*
X178910185Y-123508743D01*
X178926819Y-123488101D01*
X181462786Y-120952135D01*
X184027140Y-118387781D01*
X184136632Y-118223914D01*
X184212052Y-118041835D01*
X184250500Y-117848540D01*
X184250500Y-117651460D01*
X184250500Y-90611459D01*
X184250500Y-90611456D01*
X184212052Y-90418170D01*
X184212051Y-90418169D01*
X184212051Y-90418165D01*
X184212049Y-90418160D01*
X184136635Y-90236092D01*
X184136628Y-90236079D01*
X184027139Y-90072218D01*
X184027136Y-90072214D01*
X183884686Y-89929764D01*
X183884655Y-89929735D01*
X181983031Y-88028111D01*
X181949546Y-87966788D01*
X181950936Y-87908338D01*
X181966270Y-87851116D01*
X182000500Y-87591120D01*
X182000500Y-87328880D01*
X181966270Y-87068884D01*
X181898398Y-86815581D01*
X181898394Y-86815571D01*
X181798046Y-86573309D01*
X181798041Y-86573299D01*
X181666924Y-86346196D01*
X181507281Y-86138148D01*
X181507274Y-86138140D01*
X181321860Y-85952726D01*
X181321851Y-85952718D01*
X181113813Y-85793083D01*
X181113807Y-85793079D01*
X181113803Y-85793076D01*
X181111342Y-85791655D01*
X181062498Y-85763454D01*
X181014283Y-85712886D01*
X181000500Y-85656068D01*
X181000500Y-74436675D01*
X181000501Y-74436654D01*
X181000501Y-74233457D01*
X181000500Y-74233455D01*
X180984724Y-74154145D01*
X180962052Y-74040165D01*
X180886632Y-73858086D01*
X180886631Y-73858085D01*
X180886628Y-73858079D01*
X180777140Y-73694219D01*
X180777137Y-73694215D01*
X179171003Y-72088083D01*
X179137518Y-72026760D01*
X179136218Y-72019841D01*
X179121413Y-71926364D01*
X179088643Y-71825507D01*
X179060006Y-71737370D01*
X179060005Y-71737367D01*
X179000621Y-71620821D01*
X178969787Y-71560306D01*
X178852981Y-71399536D01*
X178712464Y-71259019D01*
X178551694Y-71142213D01*
X178495083Y-71113368D01*
X178374632Y-71051994D01*
X178374629Y-71051993D01*
X178185637Y-70990587D01*
X178087498Y-70975043D01*
X177989361Y-70959500D01*
X177790639Y-70959500D01*
X177725214Y-70969862D01*
X177594362Y-70990587D01*
X177405370Y-71051993D01*
X177405367Y-71051994D01*
X177228305Y-71142213D01*
X177067533Y-71259021D01*
X176927021Y-71399533D01*
X176810213Y-71560305D01*
X176734985Y-71707948D01*
X176687010Y-71758744D01*
X176619189Y-71775539D01*
X176553054Y-71753001D01*
X176509603Y-71698286D01*
X176500500Y-71651653D01*
X176500500Y-57297782D01*
X176520185Y-57230743D01*
X176536819Y-57210101D01*
X177276966Y-56469954D01*
X178023918Y-55723001D01*
X178085239Y-55689518D01*
X178092152Y-55688219D01*
X178185636Y-55673413D01*
X178374632Y-55612005D01*
X178551694Y-55521787D01*
X178712464Y-55404981D01*
X178852981Y-55264464D01*
X178969787Y-55103694D01*
X179060005Y-54926632D01*
X179121413Y-54737636D01*
X179152500Y-54541361D01*
X179152500Y-54342639D01*
X179121413Y-54146364D01*
X179060005Y-53957368D01*
X179060005Y-53957367D01*
X179014035Y-53867149D01*
X178969787Y-53780306D01*
X178852981Y-53619536D01*
X178712464Y-53479019D01*
X178551694Y-53362213D01*
X178374632Y-53271994D01*
X178374629Y-53271993D01*
X178185637Y-53210587D01*
X178087498Y-53195043D01*
X177989361Y-53179500D01*
X177790639Y-53179500D01*
X177725214Y-53189862D01*
X177594362Y-53210587D01*
X177405370Y-53271993D01*
X177405367Y-53271994D01*
X177228305Y-53362213D01*
X177067533Y-53479021D01*
X176927021Y-53619533D01*
X176810213Y-53780305D01*
X176719994Y-53957367D01*
X176719993Y-53957370D01*
X176658587Y-54146362D01*
X176643787Y-54239800D01*
X176613857Y-54302935D01*
X176608995Y-54308082D01*
X175274361Y-55642718D01*
X174862220Y-56054859D01*
X174862218Y-56054861D01*
X174792538Y-56124540D01*
X174722859Y-56194219D01*
X174613371Y-56358079D01*
X174613364Y-56358092D01*
X174537950Y-56540160D01*
X174537947Y-56540170D01*
X174499500Y-56733456D01*
X127500499Y-56733456D01*
X127500499Y-55602128D01*
X127494091Y-55542517D01*
X127486359Y-55521787D01*
X127443797Y-55407671D01*
X127443793Y-55407664D01*
X127357547Y-55292455D01*
X127357544Y-55292452D01*
X127242335Y-55206206D01*
X127242328Y-55206202D01*
X127107482Y-55155908D01*
X127107483Y-55155908D01*
X127047883Y-55149501D01*
X127047881Y-55149500D01*
X127047873Y-55149500D01*
X127047864Y-55149500D01*
X123952129Y-55149500D01*
X123952123Y-55149501D01*
X123892516Y-55155908D01*
X123757671Y-55206202D01*
X123757664Y-55206206D01*
X123642455Y-55292452D01*
X123642452Y-55292455D01*
X123556206Y-55407664D01*
X123556202Y-55407671D01*
X123505908Y-55542517D01*
X123499501Y-55602116D01*
X123499501Y-55602123D01*
X123499500Y-55602135D01*
X123499500Y-57860993D01*
X123479815Y-57928032D01*
X123463181Y-57948674D01*
X121823675Y-59588181D01*
X121762352Y-59621666D01*
X121735994Y-59624500D01*
X120025455Y-59624500D01*
X119978003Y-59615061D01*
X119791839Y-59537950D01*
X119791829Y-59537947D01*
X119598543Y-59499500D01*
X119598541Y-59499500D01*
X119401459Y-59499500D01*
X119401457Y-59499500D01*
X119208170Y-59537947D01*
X119208160Y-59537950D01*
X119026092Y-59613364D01*
X119026079Y-59613371D01*
X118862218Y-59722860D01*
X118862214Y-59722863D01*
X118722863Y-59862214D01*
X118722860Y-59862218D01*
X118613371Y-60026079D01*
X118613364Y-60026092D01*
X118537950Y-60208160D01*
X118537947Y-60208170D01*
X118499500Y-60401456D01*
X118499500Y-60401459D01*
X118499500Y-60598541D01*
X118499500Y-60598543D01*
X118499499Y-60598543D01*
X100469601Y-60598543D01*
X100856092Y-60212052D01*
X101881325Y-59186818D01*
X101942648Y-59153333D01*
X101969006Y-59150499D01*
X104087871Y-59150499D01*
X104087872Y-59150499D01*
X104147483Y-59144091D01*
X104282331Y-59093796D01*
X104397546Y-59007546D01*
X104483796Y-58892331D01*
X104534091Y-58757483D01*
X104540500Y-58697873D01*
X104540500Y-58598543D01*
X113999499Y-58598543D01*
X114037947Y-58791829D01*
X114037950Y-58791839D01*
X114113364Y-58973907D01*
X114113371Y-58973920D01*
X114222860Y-59137781D01*
X114222863Y-59137785D01*
X114362214Y-59277136D01*
X114362218Y-59277139D01*
X114526079Y-59386628D01*
X114526092Y-59386635D01*
X114708160Y-59462049D01*
X114708165Y-59462051D01*
X114708169Y-59462051D01*
X114708170Y-59462052D01*
X114901456Y-59500500D01*
X114901459Y-59500500D01*
X115098543Y-59500500D01*
X115228582Y-59474632D01*
X115291835Y-59462051D01*
X115473914Y-59386632D01*
X115637782Y-59277139D01*
X115777139Y-59137782D01*
X115886632Y-58973914D01*
X115893158Y-58958160D01*
X115920423Y-58892335D01*
X115962051Y-58791835D01*
X115962051Y-58791833D01*
X115963744Y-58787747D01*
X115990621Y-58747521D01*
X116676325Y-58061819D01*
X116737648Y-58028334D01*
X116764006Y-58025500D01*
X118543901Y-58025500D01*
X118610940Y-58045185D01*
X118651288Y-58087500D01*
X118753075Y-58263803D01*
X118912718Y-58471851D01*
X118912726Y-58471860D01*
X119098140Y-58657274D01*
X119098148Y-58657281D01*
X119306196Y-58816924D01*
X119533299Y-58948041D01*
X119533309Y-58948046D01*
X119775571Y-59048394D01*
X119775581Y-59048398D01*
X120028884Y-59116270D01*
X120277188Y-59148960D01*
X120288864Y-59150498D01*
X120288880Y-59150500D01*
X120288887Y-59150500D01*
X120551113Y-59150500D01*
X120551120Y-59150500D01*
X120811116Y-59116270D01*
X121064419Y-59048398D01*
X121241340Y-58975114D01*
X121306690Y-58948046D01*
X121306691Y-58948045D01*
X121306697Y-58948043D01*
X121533803Y-58816924D01*
X121741851Y-58657282D01*
X121741855Y-58657277D01*
X121741860Y-58657274D01*
X121927274Y-58471860D01*
X121927277Y-58471855D01*
X121927282Y-58471851D01*
X122086924Y-58263803D01*
X122218043Y-58036697D01*
X122318398Y-57794419D01*
X122386270Y-57541116D01*
X122420500Y-57281120D01*
X122420500Y-57018880D01*
X122386270Y-56758884D01*
X122318398Y-56505581D01*
X122278038Y-56408143D01*
X122218046Y-56263309D01*
X122218041Y-56263299D01*
X122086924Y-56036196D01*
X121927281Y-55828148D01*
X121927274Y-55828140D01*
X121741860Y-55642726D01*
X121741851Y-55642718D01*
X121533803Y-55483075D01*
X121306700Y-55351958D01*
X121306690Y-55351953D01*
X121064428Y-55251605D01*
X121064421Y-55251603D01*
X121064419Y-55251602D01*
X120811116Y-55183730D01*
X120753339Y-55176123D01*
X120551127Y-55149500D01*
X120551120Y-55149500D01*
X120288880Y-55149500D01*
X120288872Y-55149500D01*
X120057772Y-55179926D01*
X120028884Y-55183730D01*
X119775581Y-55251602D01*
X119775571Y-55251605D01*
X119533309Y-55351953D01*
X119533299Y-55351958D01*
X119306196Y-55483075D01*
X119098148Y-55642718D01*
X118912718Y-55828148D01*
X118753075Y-56036196D01*
X118651288Y-56212500D01*
X118600722Y-56260715D01*
X118543901Y-56274500D01*
X116263768Y-56274500D01*
X116094633Y-56308143D01*
X116094621Y-56308146D01*
X115935301Y-56374138D01*
X115935288Y-56374145D01*
X115791901Y-56469954D01*
X115791897Y-56469957D01*
X114752477Y-57509377D01*
X114712249Y-57536257D01*
X114526088Y-57613366D01*
X114526079Y-57613371D01*
X114362218Y-57722860D01*
X114362214Y-57722863D01*
X114222863Y-57862214D01*
X114222860Y-57862218D01*
X114113371Y-58026079D01*
X114113364Y-58026092D01*
X114037950Y-58208160D01*
X114037947Y-58208170D01*
X113999500Y-58401456D01*
X113999500Y-58401459D01*
X113999500Y-58598541D01*
X113999500Y-58598543D01*
X113999499Y-58598543D01*
X104540500Y-58598543D01*
X104540499Y-57018886D01*
X104540499Y-55602129D01*
X104540498Y-55602123D01*
X104540497Y-55602116D01*
X104534091Y-55542517D01*
X104526359Y-55521787D01*
X104483797Y-55407671D01*
X104483793Y-55407664D01*
X104397547Y-55292455D01*
X104397544Y-55292452D01*
X104282335Y-55206206D01*
X104282328Y-55206202D01*
X104147482Y-55155908D01*
X104147483Y-55155908D01*
X104087883Y-55149501D01*
X104087881Y-55149500D01*
X104087873Y-55149500D01*
X104087864Y-55149500D01*
X100992129Y-55149500D01*
X100992123Y-55149501D01*
X100932516Y-55155908D01*
X100797671Y-55206202D01*
X100797664Y-55206206D01*
X100682455Y-55292452D01*
X100682452Y-55292455D01*
X100596206Y-55407664D01*
X100596202Y-55407671D01*
X100545908Y-55542517D01*
X100539501Y-55602116D01*
X100539501Y-55602123D01*
X100539500Y-55602135D01*
X100539500Y-58000993D01*
X100519815Y-58068032D01*
X100503181Y-58088674D01*
X98903675Y-59688181D01*
X98842352Y-59721666D01*
X98815994Y-59724500D01*
X97105455Y-59724500D01*
X97058003Y-59715061D01*
X96871839Y-59637950D01*
X96871829Y-59637947D01*
X96678543Y-59599500D01*
X96678541Y-59599500D01*
X96481459Y-59599500D01*
X96481457Y-59599500D01*
X96288170Y-59637947D01*
X96288160Y-59637950D01*
X96106092Y-59713364D01*
X96106079Y-59713371D01*
X95942218Y-59822860D01*
X95942214Y-59822863D01*
X95802863Y-59962214D01*
X95802860Y-59962218D01*
X95693371Y-60126079D01*
X95693364Y-60126092D01*
X95617950Y-60308160D01*
X95617947Y-60308170D01*
X95579500Y-60501456D01*
X95579500Y-60501459D01*
X95579500Y-60698541D01*
X95579500Y-60698543D01*
X95579499Y-60698543D01*
X86620500Y-60698543D01*
X86620500Y-59348543D01*
X90249499Y-59348543D01*
X90287947Y-59541829D01*
X90287950Y-59541839D01*
X90363364Y-59723907D01*
X90363371Y-59723920D01*
X90472860Y-59887781D01*
X90472863Y-59887785D01*
X90612214Y-60027136D01*
X90612218Y-60027139D01*
X90776079Y-60136628D01*
X90776092Y-60136635D01*
X90948771Y-60208160D01*
X90958165Y-60212051D01*
X90958169Y-60212051D01*
X90958170Y-60212052D01*
X91151456Y-60250500D01*
X91151459Y-60250500D01*
X91348543Y-60250500D01*
X91478582Y-60224632D01*
X91541835Y-60212051D01*
X91723914Y-60136632D01*
X91887782Y-60027139D01*
X91969752Y-59945167D01*
X91983423Y-59933950D01*
X91983390Y-59933910D01*
X91988100Y-59930044D01*
X93756325Y-58161819D01*
X93817648Y-58128334D01*
X93844006Y-58125500D01*
X95641635Y-58125500D01*
X95708674Y-58145185D01*
X95749022Y-58187500D01*
X95793075Y-58263803D01*
X95952718Y-58471851D01*
X95952726Y-58471860D01*
X96138140Y-58657274D01*
X96138148Y-58657281D01*
X96346196Y-58816924D01*
X96573299Y-58948041D01*
X96573309Y-58948046D01*
X96815571Y-59048394D01*
X96815581Y-59048398D01*
X97068884Y-59116270D01*
X97317188Y-59148960D01*
X97328864Y-59150498D01*
X97328880Y-59150500D01*
X97328887Y-59150500D01*
X97591113Y-59150500D01*
X97591120Y-59150500D01*
X97851116Y-59116270D01*
X98104419Y-59048398D01*
X98281340Y-58975114D01*
X98346690Y-58948046D01*
X98346691Y-58948045D01*
X98346697Y-58948043D01*
X98573803Y-58816924D01*
X98781851Y-58657282D01*
X98781855Y-58657277D01*
X98781860Y-58657274D01*
X98967274Y-58471860D01*
X98967277Y-58471855D01*
X98967282Y-58471851D01*
X99126924Y-58263803D01*
X99258043Y-58036697D01*
X99358398Y-57794419D01*
X99426270Y-57541116D01*
X99460500Y-57281120D01*
X99460500Y-57018880D01*
X99426270Y-56758884D01*
X99358398Y-56505581D01*
X99318038Y-56408143D01*
X99258046Y-56263309D01*
X99258041Y-56263299D01*
X99126924Y-56036196D01*
X98967281Y-55828148D01*
X98967274Y-55828140D01*
X98781860Y-55642726D01*
X98781851Y-55642718D01*
X98573803Y-55483075D01*
X98346700Y-55351958D01*
X98346690Y-55351953D01*
X98104428Y-55251605D01*
X98104421Y-55251603D01*
X98104419Y-55251602D01*
X97851116Y-55183730D01*
X97793339Y-55176123D01*
X97591127Y-55149500D01*
X97591120Y-55149500D01*
X97328880Y-55149500D01*
X97328872Y-55149500D01*
X97097772Y-55179926D01*
X97068884Y-55183730D01*
X96815581Y-55251602D01*
X96815571Y-55251605D01*
X96573309Y-55351953D01*
X96573299Y-55351958D01*
X96346196Y-55483075D01*
X96138148Y-55642718D01*
X95952718Y-55828148D01*
X95793075Y-56036196D01*
X95661958Y-56263299D01*
X95661955Y-56263306D01*
X95657319Y-56274500D01*
X95647604Y-56297952D01*
X95603766Y-56352355D01*
X95537472Y-56374421D01*
X95533044Y-56374500D01*
X93343768Y-56374500D01*
X93174633Y-56408143D01*
X93174621Y-56408146D01*
X93015301Y-56474138D01*
X93015288Y-56474145D01*
X92871901Y-56569954D01*
X92871897Y-56569957D01*
X91228197Y-58213658D01*
X91166874Y-58247143D01*
X91152680Y-58249379D01*
X91151460Y-58249499D01*
X90958170Y-58287947D01*
X90958160Y-58287950D01*
X90776092Y-58363364D01*
X90776079Y-58363371D01*
X90612218Y-58472860D01*
X90612214Y-58472863D01*
X90472863Y-58612214D01*
X90472860Y-58612218D01*
X90363371Y-58776079D01*
X90363364Y-58776092D01*
X90287950Y-58958160D01*
X90287947Y-58958170D01*
X90249500Y-59151456D01*
X90249500Y-59151459D01*
X90249500Y-59348541D01*
X90249500Y-59348543D01*
X90249499Y-59348543D01*
X86620500Y-59348543D01*
X86620500Y-54191999D01*
X136011865Y-54191999D01*
X136011865Y-54192000D01*
X136866351Y-54192000D01*
X136823910Y-54265508D01*
X136792750Y-54381802D01*
X136792750Y-54502198D01*
X136823910Y-54618492D01*
X136866351Y-54692000D01*
X136011865Y-54692000D01*
X136019074Y-54737517D01*
X136080456Y-54926435D01*
X136170641Y-55103432D01*
X136287403Y-55264139D01*
X136287403Y-55264140D01*
X136427859Y-55404596D01*
X136588567Y-55521358D01*
X136765562Y-55611542D01*
X136954473Y-55672922D01*
X137000000Y-55680133D01*
X137000000Y-54825649D01*
X137073508Y-54868090D01*
X137189802Y-54899250D01*
X137310198Y-54899250D01*
X137426492Y-54868090D01*
X137500000Y-54825649D01*
X137500000Y-55680132D01*
X137545526Y-55672922D01*
X137734437Y-55611542D01*
X137911432Y-55521358D01*
X138072139Y-55404596D01*
X138072140Y-55404596D01*
X138212596Y-55264140D01*
X138212596Y-55264139D01*
X138329358Y-55103432D01*
X138419543Y-54926435D01*
X138480925Y-54737517D01*
X138488134Y-54692000D01*
X137633649Y-54692000D01*
X137676090Y-54618492D01*
X137707250Y-54502198D01*
X137707250Y-54381802D01*
X137676090Y-54265508D01*
X137633649Y-54192000D01*
X138488135Y-54192000D01*
X138488134Y-54191999D01*
X138480925Y-54146482D01*
X138419543Y-53957564D01*
X138329358Y-53780567D01*
X138212596Y-53619860D01*
X138212596Y-53619859D01*
X138072140Y-53479403D01*
X137911432Y-53362641D01*
X137734434Y-53272456D01*
X137734436Y-53272456D01*
X137545517Y-53211074D01*
X137500000Y-53203865D01*
X137500000Y-54058350D01*
X137426492Y-54015910D01*
X137310198Y-53984750D01*
X137189802Y-53984750D01*
X137073508Y-54015910D01*
X137000000Y-54058350D01*
X137000000Y-53203865D01*
X136999999Y-53203865D01*
X136954482Y-53211074D01*
X136765564Y-53272456D01*
X136588567Y-53362641D01*
X136427860Y-53479403D01*
X136427859Y-53479403D01*
X136287403Y-53619859D01*
X136287403Y-53619860D01*
X136170641Y-53780567D01*
X136080456Y-53957564D01*
X136019074Y-54146482D01*
X136011865Y-54191999D01*
X86620500Y-54191999D01*
X86620500Y-51664500D01*
X86640185Y-51597461D01*
X86692989Y-51551706D01*
X86744500Y-51540500D01*
X185495500Y-51540500D01*
X185562539Y-51560185D01*
G37*
%TD.AperFunction*%
%TD*%
M02*
