M48
; DRILL file {KiCad 9.0.4} date 2026-03-30T09:23:52-0700
; FORMAT={-:-/ absolute / metric / decimal}
; #@! TF.CreationDate,2026-03-30T09:23:52-07:00
; #@! TF.GenerationSoftware,Kicad,Pcbnew,9.0.4
; #@! TF.FileFunction,Plated,1,2,PTH
FMAT,2
METRIC
; #@! TA.AperFunction,Plated,PTH,ComponentDrill
T1C0.330
; #@! TA.AperFunction,Plated,PTH,ViaDrill
T2C0.600
; #@! TA.AperFunction,Plated,PTH,ComponentDrill
T3C0.914
; #@! TA.AperFunction,Plated,PTH,ComponentDrill
T4C1.520
; #@! TA.AperFunction,Plated,PTH,ComponentDrill
T5C2.200
%
G90
G05
T1
X99.185Y-66.04
X99.185Y-67.34
X99.185Y-68.64
X99.345Y-111.095
X99.345Y-112.395
X99.345Y-113.695
X100.485Y-66.04
X100.485Y-67.34
X100.485Y-68.64
X100.645Y-111.095
X100.645Y-112.395
X100.645Y-113.695
X103.155Y-79.105
X103.155Y-80.405
X103.155Y-81.705
X103.405Y-98.105
X103.405Y-99.405
X103.405Y-100.705
X104.455Y-79.105
X104.455Y-80.405
X104.455Y-81.705
X104.705Y-98.105
X104.705Y-99.405
X104.705Y-100.705
X122.205Y-112.365
X122.205Y-113.665
X122.205Y-114.965
X122.475Y-66.35
X122.475Y-67.65
X122.475Y-68.95
X123.505Y-112.365
X123.505Y-113.665
X123.505Y-114.965
X123.775Y-66.35
X123.775Y-67.65
X123.775Y-68.95
T2
X91.25Y-59.25
X91.5Y-115.75
X93.75Y-88.75
X94.0Y-65.25
X95.0Y-95.75
X96.0Y-85.25
X96.58Y-60.6
X97.25Y-109.0
X98.0Y-105.0
X99.0Y-78.5
X99.0Y-97.5
X101.25Y-117.0
X114.0Y-120.5
X115.0Y-58.5
X119.5Y-60.5
X119.75Y-109.0
X120.25Y-63.5
X121.5Y-117.5
X125.25Y-91.75
X132.0Y-72.0
X132.75Y-88.25
X133.25Y-75.25
X133.75Y-105.25
X137.25Y-82.5
X138.75Y-100.0
X140.75Y-70.0
X143.25Y-101.0
X146.0Y-114.5
X147.223Y-71.473
X150.25Y-109.25
X155.0Y-119.75
X157.75Y-62.5
X162.5Y-118.25
T3
X124.363Y-77.567
X124.363Y-103.094
X126.903Y-77.567
X126.903Y-103.094
X129.443Y-77.567
X129.443Y-103.094
X131.983Y-77.567
X131.983Y-103.094
X134.523Y-77.567
X134.523Y-103.094
X137.063Y-77.567
X137.063Y-103.094
X137.25Y-54.442
X137.25Y-72.222
X137.25Y-107.782
X137.25Y-125.562
X139.603Y-77.567
X139.603Y-103.094
X142.143Y-77.567
X142.143Y-103.094
X144.683Y-77.567
X144.683Y-103.094
X147.223Y-77.567
X147.223Y-103.094
X149.763Y-77.567
X149.763Y-103.094
X152.303Y-77.567
X152.303Y-103.094
X154.843Y-77.567
X154.843Y-103.094
X157.383Y-77.567
X157.383Y-103.094
X159.923Y-77.567
X159.923Y-103.094
X162.463Y-77.567
X162.463Y-103.094
X165.003Y-77.567
X165.003Y-103.094
X167.543Y-77.567
X167.543Y-103.094
X170.083Y-77.567
X170.083Y-103.094
X177.89Y-54.442
X177.89Y-72.222
X177.89Y-107.782
X177.89Y-125.562
T4
X92.71Y-74.93
X92.71Y-80.01
X92.71Y-100.33
X92.71Y-105.41
X97.46Y-57.15
X97.79Y-122.5
X102.54Y-57.15
X102.87Y-122.5
X120.42Y-57.15
X120.65Y-122.5
X125.5Y-57.15
X125.73Y-122.5
X180.0Y-87.46
X180.0Y-92.54
T5
X89.62Y-54.54
X89.62Y-125.04
X182.62Y-54.54
X182.62Y-125.04
M30
