%TF.GenerationSoftware,KiCad,Pcbnew,9.0.7*%
%TF.CreationDate,2026-02-23T13:15:55-08:00*%
%TF.ProjectId,robo_crawler_board,726f626f-5f63-4726-9177-6c65725f626f,rev?*%
%TF.SameCoordinates,Original*%
%TF.FileFunction,Copper,L1,Top*%
%TF.FilePolarity,Positive*%
%FSLAX46Y46*%
G04 Gerber Fmt 4.6, Leading zero omitted, Abs format (unit mm)*
G04 Created by KiCad (PCBNEW 9.0.7) date 2026-02-23 13:15:55*
%MOMM*%
%LPD*%
G01*
G04 APERTURE LIST*
%TA.AperFunction,SMDPad,CuDef*%
%ADD10R,0.500000X2.200000*%
%TD*%
%TA.AperFunction,ComponentPad*%
%ADD11C,0.630000*%
%TD*%
%TA.AperFunction,SMDPad,CuDef*%
%ADD12R,4.900000X2.950000*%
%TD*%
%TA.AperFunction,ComponentPad*%
%ADD13R,3.000000X3.000000*%
%TD*%
%TA.AperFunction,ComponentPad*%
%ADD14C,3.000000*%
%TD*%
%TA.AperFunction,ComponentPad*%
%ADD15C,1.524000*%
%TD*%
%TA.AperFunction,SMDPad,CuDef*%
%ADD16R,2.200000X0.500000*%
%TD*%
%TA.AperFunction,SMDPad,CuDef*%
%ADD17R,2.950000X4.900000*%
%TD*%
%TA.AperFunction,ComponentPad*%
%ADD18R,2.000000X1.905000*%
%TD*%
%TA.AperFunction,ComponentPad*%
%ADD19O,2.000000X1.905000*%
%TD*%
%TA.AperFunction,ViaPad*%
%ADD20C,1.000000*%
%TD*%
%TA.AperFunction,Conductor*%
%ADD21C,0.500000*%
%TD*%
%TA.AperFunction,Conductor*%
%ADD22C,0.200000*%
%TD*%
G04 APERTURE END LIST*
D10*
%TO.P,U8,1,GND*%
%TO.N,GND*%
X147665000Y-113250000D03*
%TO.P,U8,2,IN2*%
%TO.N,Net-(U5-IO19)*%
X146395000Y-113250000D03*
%TO.P,U8,3,IN1*%
%TO.N,Net-(U5-IO18)*%
X145125000Y-113250000D03*
%TO.P,U8,4,ILIM*%
%TO.N,unconnected-(U8-ILIM-Pad4)*%
X143855000Y-113250000D03*
%TO.P,U8,5,VM*%
%TO.N,+12V*%
X143855000Y-119000000D03*
%TO.P,U8,6,OUT1*%
%TO.N,Net-(J3-Pin_1)*%
X145125000Y-119000000D03*
%TO.P,U8,7,GND*%
%TO.N,GND*%
X146395000Y-119000000D03*
%TO.P,U8,8,OUT2*%
%TO.N,Net-(J3-Pin_2)*%
X147665000Y-119000000D03*
D11*
%TO.P,U8,9,GND*%
%TO.N,GND*%
X147060000Y-115475000D03*
X145760000Y-115475000D03*
X144460000Y-115475000D03*
D12*
X145760000Y-116125000D03*
D11*
X147060000Y-116775000D03*
X145760000Y-116775000D03*
X144460000Y-116775000D03*
%TD*%
D13*
%TO.P,J6,1,Pin_1*%
%TO.N,Net-(J6-Pin_1)*%
X157420000Y-133000000D03*
D14*
%TO.P,J6,2,Pin_2*%
%TO.N,Net-(J6-Pin_2)*%
X162500000Y-133000000D03*
%TD*%
D13*
%TO.P,J4,1,Pin_1*%
%TO.N,Net-(J4-Pin_1)*%
X125000000Y-97000000D03*
D14*
%TO.P,J4,2,Pin_2*%
%TO.N,Net-(J4-Pin_2)*%
X125000000Y-102080000D03*
%TD*%
D15*
%TO.P,U6,1,IN-*%
%TO.N,GND*%
X215558000Y-125410000D03*
%TO.P,U6,2,IN+*%
%TO.N,/+Vin*%
X197778000Y-125410000D03*
%TO.P,U6,3,OUT-*%
%TO.N,GND*%
X215558000Y-84770000D03*
%TO.P,U6,4,OUT+*%
%TO.N,+5V*%
X197778000Y-84770000D03*
%TD*%
D13*
%TO.P,J7,1,Pin_1*%
%TO.N,Net-(J7-Pin_1)*%
X125000000Y-65500000D03*
D14*
%TO.P,J7,2,Pin_2*%
%TO.N,Net-(J7-Pin_2)*%
X125000000Y-70580000D03*
%TD*%
D16*
%TO.P,U9,1,GND*%
%TO.N,GND*%
X142725000Y-99905000D03*
%TO.P,U9,2,IN2*%
%TO.N,Net-(U5-IO17)*%
X142725000Y-98635000D03*
%TO.P,U9,3,IN1*%
%TO.N,Net-(U5-IO16)*%
X142725000Y-97365000D03*
%TO.P,U9,4,ILIM*%
%TO.N,unconnected-(U9-ILIM-Pad4)*%
X142725000Y-96095000D03*
%TO.P,U9,5,VM*%
%TO.N,+12V*%
X136975000Y-96095000D03*
%TO.P,U9,6,OUT1*%
%TO.N,Net-(J4-Pin_1)*%
X136975000Y-97365000D03*
%TO.P,U9,7,GND*%
%TO.N,GND*%
X136975000Y-98635000D03*
%TO.P,U9,8,OUT2*%
%TO.N,Net-(J4-Pin_2)*%
X136975000Y-99905000D03*
D11*
%TO.P,U9,9,GND*%
%TO.N,GND*%
X140500000Y-99300000D03*
X140500000Y-98000000D03*
X140500000Y-96700000D03*
D17*
X139850000Y-98000000D03*
D11*
X139200000Y-99300000D03*
X139200000Y-98000000D03*
X139200000Y-96700000D03*
%TD*%
D15*
%TO.P,U5,1,5v*%
%TO.N,+5V*%
X217457000Y-80603000D03*
%TO.P,U5,2,VDD33*%
%TO.N,unconnected-(U5-VDD33-Pad2)*%
X171737000Y-80603000D03*
%TO.P,U5,3,EN*%
%TO.N,unconnected-(U5-EN-Pad3)*%
X174277000Y-80603000D03*
%TO.P,U5,4,VP*%
%TO.N,unconnected-(U5-VP-Pad4)*%
X176817000Y-80603000D03*
%TO.P,U5,5,VN*%
%TO.N,unconnected-(U5-VN-Pad5)*%
X179357000Y-80603000D03*
%TO.P,U5,6,IO34*%
%TO.N,unconnected-(U5-IO34-Pad6)*%
X181897000Y-80603000D03*
%TO.P,U5,7,IO35*%
%TO.N,unconnected-(U5-IO35-Pad7)*%
X184437000Y-80603000D03*
%TO.P,U5,8,IO32*%
%TO.N,unconnected-(U5-IO32-Pad8)*%
X186977000Y-80603000D03*
%TO.P,U5,9,IO33*%
%TO.N,unconnected-(U5-IO33-Pad9)*%
X189517000Y-80603000D03*
%TO.P,U5,10,IO25*%
%TO.N,unconnected-(U5-IO25-Pad10)*%
X192057000Y-80603000D03*
%TO.P,U5,11,IO26*%
%TO.N,Net-(U1-IN1)*%
X194597000Y-80603000D03*
%TO.P,U5,12,IO27*%
%TO.N,Net-(U1-IN2)*%
X197137000Y-80603000D03*
%TO.P,U5,13,IO14*%
%TO.N,Net-(U4-IN1)*%
X199677000Y-80603000D03*
%TO.P,U5,14,IO12*%
%TO.N,Net-(U3-IN1)*%
X202217000Y-80603000D03*
%TO.P,U5,15,GND*%
%TO.N,GND*%
X204757000Y-80603000D03*
%TO.P,U5,16,IO13*%
%TO.N,Net-(U3-IN2)*%
X207297000Y-80603000D03*
%TO.P,U5,17,SD2*%
%TO.N,unconnected-(U5-SD2-Pad17)*%
X209837000Y-80603000D03*
%TO.P,U5,18,SD3*%
%TO.N,unconnected-(U5-SD3-Pad18)*%
X212377000Y-80603000D03*
%TO.P,U5,19,CMD*%
%TO.N,unconnected-(U5-CMD-Pad19)*%
X214917000Y-80603000D03*
%TO.P,U5,20,CLK*%
%TO.N,unconnected-(U5-CLK-Pad20)*%
X217457000Y-55076000D03*
%TO.P,U5,21,SD0*%
%TO.N,unconnected-(U5-SD0-Pad21)*%
X214917000Y-55076000D03*
%TO.P,U5,22,SD1*%
%TO.N,unconnected-(U5-SD1-Pad22)*%
X212377000Y-55076000D03*
%TO.P,U5,23,IO15*%
%TO.N,Net-(U4-IN2)*%
X209837000Y-55076000D03*
%TO.P,U5,24,IO2*%
%TO.N,Net-(Q2-G)*%
X207297000Y-55076000D03*
%TO.P,U5,25,IO0*%
%TO.N,unconnected-(U5-IO0-Pad25)*%
X204757000Y-55076000D03*
%TO.P,U5,26,IO4*%
%TO.N,Net-(Q1-G)*%
X202217000Y-55076000D03*
%TO.P,U5,27,IO16*%
%TO.N,Net-(U5-IO16)*%
X199677000Y-55076000D03*
%TO.P,U5,28,IO17*%
%TO.N,Net-(U5-IO17)*%
X197137000Y-55076000D03*
%TO.P,U5,29,IO5*%
%TO.N,unconnected-(U5-IO5-Pad29)*%
X194597000Y-55076000D03*
%TO.P,U5,30,IO18*%
%TO.N,Net-(U5-IO18)*%
X192057000Y-55076000D03*
%TO.P,U5,31,IO19*%
%TO.N,Net-(U5-IO19)*%
X189517000Y-55076000D03*
%TO.P,U5,32,NC*%
%TO.N,unconnected-(U5-NC-Pad32)*%
X186977000Y-55076000D03*
%TO.P,U5,33,IO21*%
%TO.N,unconnected-(U5-IO21-Pad33)*%
X184437000Y-55076000D03*
%TO.P,U5,34,RXD0*%
%TO.N,unconnected-(U5-RXD0-Pad34)*%
X181897000Y-55076000D03*
%TO.P,U5,35,TXD0*%
%TO.N,unconnected-(U5-TXD0-Pad35)*%
X179357000Y-55076000D03*
%TO.P,U5,36,IO22*%
%TO.N,Net-(U2-IN1)*%
X176817000Y-55076000D03*
%TO.P,U5,37,IO23*%
%TO.N,Net-(U2-IN2)*%
X174277000Y-55076000D03*
%TO.P,U5,38,GND*%
%TO.N,unconnected-(U5-GND-Pad38)*%
X171737000Y-55076000D03*
%TD*%
D13*
%TO.P,J8,1,Pin_1*%
%TO.N,Net-(J8-Pin_1)*%
X125000000Y-80960000D03*
D14*
%TO.P,J8,2,Pin_2*%
%TO.N,Net-(J8-Pin_2)*%
X125000000Y-86040000D03*
%TD*%
D13*
%TO.P,J3,1,Pin_1*%
%TO.N,Net-(J3-Pin_1)*%
X142460000Y-133000000D03*
D14*
%TO.P,J3,2,Pin_2*%
%TO.N,Net-(J3-Pin_2)*%
X147540000Y-133000000D03*
%TD*%
D15*
%TO.P,U7,1,IN-*%
%TO.N,GND*%
X172942000Y-84590000D03*
%TO.P,U7,2,IN+*%
%TO.N,/+Vin*%
X190722000Y-84590000D03*
%TO.P,U7,3,OUT-*%
%TO.N,GND*%
X172942000Y-125230000D03*
%TO.P,U7,4,OUT+*%
%TO.N,+12V*%
X190722000Y-125230000D03*
%TD*%
D18*
%TO.P,Q1,1,G*%
%TO.N,Net-(Q1-G)*%
X150050000Y-64960000D03*
D19*
%TO.P,Q1,2,D*%
%TO.N,Net-(J1-Pin_1)*%
X150050000Y-67500000D03*
%TO.P,Q1,3,S*%
%TO.N,GND*%
X150050000Y-70040000D03*
%TD*%
D10*
%TO.P,U3,1,GND*%
%TO.N,GND*%
X161865000Y-113125000D03*
%TO.P,U3,2,IN2*%
%TO.N,Net-(U3-IN2)*%
X160595000Y-113125000D03*
%TO.P,U3,3,IN1*%
%TO.N,Net-(U3-IN1)*%
X159325000Y-113125000D03*
%TO.P,U3,4,ILIM*%
%TO.N,unconnected-(U3-ILIM-Pad4)*%
X158055000Y-113125000D03*
%TO.P,U3,5,VM*%
%TO.N,+12V*%
X158055000Y-118875000D03*
%TO.P,U3,6,OUT1*%
%TO.N,Net-(J6-Pin_1)*%
X159325000Y-118875000D03*
%TO.P,U3,7,GND*%
%TO.N,GND*%
X160595000Y-118875000D03*
%TO.P,U3,8,OUT2*%
%TO.N,Net-(J6-Pin_2)*%
X161865000Y-118875000D03*
D11*
%TO.P,U3,9,GND*%
%TO.N,GND*%
X161260000Y-115350000D03*
X159960000Y-115350000D03*
X158660000Y-115350000D03*
D12*
X159960000Y-116000000D03*
D11*
X161260000Y-116650000D03*
X159960000Y-116650000D03*
X158660000Y-116650000D03*
%TD*%
D13*
%TO.P,J9,1,Pin_1*%
%TO.N,GND*%
X193960000Y-132500000D03*
D14*
%TO.P,J9,2,Pin_2*%
%TO.N,/+Vin*%
X199040000Y-132500000D03*
%TD*%
D16*
%TO.P,U2,1,GND*%
%TO.N,GND*%
X140525000Y-70705000D03*
%TO.P,U2,2,IN2*%
%TO.N,Net-(U2-IN2)*%
X140525000Y-69435000D03*
%TO.P,U2,3,IN1*%
%TO.N,Net-(U2-IN1)*%
X140525000Y-68165000D03*
%TO.P,U2,4,ILIM*%
%TO.N,unconnected-(U2-ILIM-Pad4)*%
X140525000Y-66895000D03*
%TO.P,U2,5,VM*%
%TO.N,+12V*%
X134775000Y-66895000D03*
%TO.P,U2,6,OUT1*%
%TO.N,Net-(J7-Pin_1)*%
X134775000Y-68165000D03*
%TO.P,U2,7,GND*%
%TO.N,GND*%
X134775000Y-69435000D03*
%TO.P,U2,8,OUT2*%
%TO.N,Net-(J7-Pin_2)*%
X134775000Y-70705000D03*
D11*
%TO.P,U2,9,GND*%
%TO.N,GND*%
X138300000Y-70100000D03*
X138300000Y-68800000D03*
X138300000Y-67500000D03*
D17*
X137650000Y-68800000D03*
D11*
X137000000Y-70100000D03*
X137000000Y-68800000D03*
X137000000Y-67500000D03*
%TD*%
D10*
%TO.P,U4,1,GND*%
%TO.N,GND*%
X131865000Y-113125000D03*
%TO.P,U4,2,IN2*%
%TO.N,Net-(U4-IN2)*%
X130595000Y-113125000D03*
%TO.P,U4,3,IN1*%
%TO.N,Net-(U4-IN1)*%
X129325000Y-113125000D03*
%TO.P,U4,4,ILIM*%
%TO.N,unconnected-(U4-ILIM-Pad4)*%
X128055000Y-113125000D03*
%TO.P,U4,5,VM*%
%TO.N,+12V*%
X128055000Y-118875000D03*
%TO.P,U4,6,OUT1*%
%TO.N,Net-(J5-Pin_1)*%
X129325000Y-118875000D03*
%TO.P,U4,7,GND*%
%TO.N,GND*%
X130595000Y-118875000D03*
%TO.P,U4,8,OUT2*%
%TO.N,Net-(J5-Pin_2)*%
X131865000Y-118875000D03*
D11*
%TO.P,U4,9,GND*%
%TO.N,GND*%
X131260000Y-115350000D03*
X129960000Y-115350000D03*
X128660000Y-115350000D03*
D12*
X129960000Y-116000000D03*
D11*
X131260000Y-116650000D03*
X129960000Y-116650000D03*
X128660000Y-116650000D03*
%TD*%
D13*
%TO.P,J1,1,Pin_1*%
%TO.N,Net-(J1-Pin_1)*%
X148540000Y-55500000D03*
D14*
%TO.P,J1,2,Pin_2*%
%TO.N,+12V*%
X143460000Y-55500000D03*
%TD*%
D13*
%TO.P,J2,1,Pin_1*%
%TO.N,Net-(J2-Pin_1)*%
X164040000Y-55500000D03*
D14*
%TO.P,J2,2,Pin_2*%
%TO.N,+12V*%
X158960000Y-55500000D03*
%TD*%
D16*
%TO.P,U1,1,GND*%
%TO.N,GND*%
X143025000Y-86405000D03*
%TO.P,U1,2,IN2*%
%TO.N,Net-(U1-IN2)*%
X143025000Y-85135000D03*
%TO.P,U1,3,IN1*%
%TO.N,Net-(U1-IN1)*%
X143025000Y-83865000D03*
%TO.P,U1,4,ILIM*%
%TO.N,unconnected-(U1-ILIM-Pad4)*%
X143025000Y-82595000D03*
%TO.P,U1,5,VM*%
%TO.N,+12V*%
X137275000Y-82595000D03*
%TO.P,U1,6,OUT1*%
%TO.N,Net-(J8-Pin_1)*%
X137275000Y-83865000D03*
%TO.P,U1,7,GND*%
%TO.N,GND*%
X137275000Y-85135000D03*
%TO.P,U1,8,OUT2*%
%TO.N,Net-(J8-Pin_2)*%
X137275000Y-86405000D03*
D11*
%TO.P,U1,9,GND*%
%TO.N,GND*%
X140800000Y-85800000D03*
X140800000Y-84500000D03*
X140800000Y-83200000D03*
D17*
X140150000Y-84500000D03*
D11*
X139500000Y-85800000D03*
X139500000Y-84500000D03*
X139500000Y-83200000D03*
%TD*%
D18*
%TO.P,Q2,1,G*%
%TO.N,Net-(Q2-G)*%
X159050000Y-64960000D03*
D19*
%TO.P,Q2,2,D*%
%TO.N,Net-(J2-Pin_1)*%
X159050000Y-67500000D03*
%TO.P,Q2,3,S*%
%TO.N,GND*%
X159050000Y-70040000D03*
%TD*%
D13*
%TO.P,J5,1,Pin_1*%
%TO.N,Net-(J5-Pin_1)*%
X127420000Y-133000000D03*
D14*
%TO.P,J5,2,Pin_2*%
%TO.N,Net-(J5-Pin_2)*%
X132500000Y-133000000D03*
%TD*%
D20*
%TO.N,+12V*%
X128000000Y-123000000D03*
X135896800Y-94000000D03*
X142000000Y-122000000D03*
X135302700Y-82437500D03*
X158000000Y-122000000D03*
%TO.N,GND*%
X178500000Y-76000000D03*
%TO.N,Net-(U2-IN2)*%
X145231500Y-60500000D03*
X144861000Y-69238400D03*
%TO.N,Net-(U3-IN1)*%
X200500000Y-107000000D03*
%TO.N,Net-(U5-IO18)*%
X188621600Y-105343300D03*
%TO.N,Net-(U5-IO19)*%
X185000000Y-106000000D03*
%TO.N,Net-(U5-IO17)*%
X191621900Y-98188500D03*
%TO.N,Net-(U5-IO16)*%
X194554800Y-97441000D03*
%TO.N,/+Vin*%
X193500000Y-87935100D03*
%TD*%
D21*
%TO.N,+12V*%
X190963500Y-125471500D02*
X190722000Y-125230000D01*
X135896800Y-95016800D02*
X135573300Y-95340300D01*
X128000000Y-123000000D02*
X128000000Y-122500000D01*
X135573300Y-95340300D02*
X135573300Y-96095000D01*
X145261700Y-53698300D02*
X157158300Y-53698300D01*
X135302700Y-82437500D02*
X135715800Y-82437500D01*
X135573300Y-96095000D02*
X136975000Y-96095000D01*
X142000000Y-122000000D02*
X143855000Y-120145000D01*
X158055000Y-121945000D02*
X158055000Y-118875000D01*
X158000000Y-122000000D02*
X158055000Y-121945000D01*
X143855000Y-120145000D02*
X143855000Y-119000000D01*
X135873300Y-82595000D02*
X137275000Y-82595000D01*
X128000000Y-122500000D02*
X128055000Y-122445000D01*
X128055000Y-122445000D02*
X128055000Y-118875000D01*
X157158300Y-53698300D02*
X158960000Y-55500000D01*
X143460000Y-58210000D02*
X134775000Y-66895000D01*
X135715800Y-82437500D02*
X135873300Y-82595000D01*
X135896800Y-94000000D02*
X135896800Y-95016800D01*
D22*
%TO.N,Net-(J3-Pin_1)*%
X142460000Y-133000000D02*
X145125000Y-130335000D01*
X145125000Y-130335000D02*
X145125000Y-119000000D01*
%TO.N,Net-(J3-Pin_2)*%
X147540000Y-133000000D02*
X147540000Y-119125000D01*
X147540000Y-119125000D02*
X147665000Y-119000000D01*
%TO.N,Net-(J4-Pin_2)*%
X133398300Y-102080000D02*
X135573300Y-99905000D01*
X136975000Y-99905000D02*
X135573300Y-99905000D01*
X125000000Y-102080000D02*
X133398300Y-102080000D01*
%TO.N,Net-(J4-Pin_1)*%
X136975000Y-97365000D02*
X135573300Y-97365000D01*
X135208300Y-97000000D02*
X135573300Y-97365000D01*
X125000000Y-97000000D02*
X135208300Y-97000000D01*
%TO.N,Net-(J5-Pin_1)*%
X129325000Y-131095000D02*
X129325000Y-118875000D01*
X127420000Y-133000000D02*
X129325000Y-131095000D01*
%TO.N,Net-(J5-Pin_2)*%
X132500000Y-119510000D02*
X131865000Y-118875000D01*
X132500000Y-133000000D02*
X132500000Y-119510000D01*
%TO.N,Net-(J6-Pin_2)*%
X161865000Y-131865000D02*
X161865000Y-118875000D01*
X162500000Y-132500000D02*
X161865000Y-131865000D01*
X162500000Y-133000000D02*
X162500000Y-132500000D01*
%TO.N,Net-(J6-Pin_1)*%
X157420000Y-133000000D02*
X159325000Y-131095000D01*
X159325000Y-131095000D02*
X159325000Y-118875000D01*
%TO.N,Net-(J7-Pin_2)*%
X125125000Y-70705000D02*
X125000000Y-70580000D01*
X134775000Y-70705000D02*
X125125000Y-70705000D01*
%TO.N,Net-(J7-Pin_1)*%
X126801700Y-65500000D02*
X129466700Y-68165000D01*
X125000000Y-65500000D02*
X126801700Y-65500000D01*
X129466700Y-68165000D02*
X134775000Y-68165000D01*
%TO.N,Net-(J8-Pin_1)*%
X129706700Y-83865000D02*
X137275000Y-83865000D01*
X125000000Y-80960000D02*
X126801700Y-80960000D01*
X126801700Y-80960000D02*
X129706700Y-83865000D01*
%TO.N,Net-(J8-Pin_2)*%
X125365000Y-86405000D02*
X125000000Y-86040000D01*
X137275000Y-86405000D02*
X125365000Y-86405000D01*
%TO.N,GND*%
X154009500Y-70040000D02*
X150771000Y-70040000D01*
X159050000Y-70040000D02*
X154009500Y-70040000D01*
X141623300Y-86405000D02*
X141018300Y-85800000D01*
X128660000Y-116650000D02*
X129960000Y-116650000D01*
X141836300Y-68800000D02*
X138300000Y-68800000D01*
X145358300Y-68884800D02*
X145110200Y-68636700D01*
X149615800Y-68884800D02*
X145358300Y-68884800D01*
X131865000Y-114745000D02*
X131260000Y-115350000D01*
X145110200Y-68636700D02*
X141999600Y-68636700D01*
X141018300Y-85800000D02*
X140800000Y-85800000D01*
X146395000Y-119000000D02*
X146395000Y-117410000D01*
X159960000Y-116650000D02*
X158660000Y-116650000D01*
X159960000Y-116000000D02*
X164113000Y-116000000D01*
X144460000Y-115475000D02*
X132595000Y-115475000D01*
X130595000Y-117285000D02*
X129960000Y-116650000D01*
X136975000Y-98635000D02*
X138565000Y-98635000D01*
X140800000Y-84500000D02*
X140150000Y-84500000D01*
X149385000Y-70705000D02*
X150050000Y-70040000D01*
X178500000Y-76000000D02*
X200154000Y-76000000D01*
X147665000Y-115172500D02*
X158482500Y-115172500D01*
X140800000Y-85800000D02*
X139500000Y-85800000D01*
X136335000Y-69435000D02*
X137000000Y-70100000D01*
X147362500Y-115172500D02*
X147060000Y-115475000D01*
X141999600Y-68636700D02*
X141836300Y-68800000D01*
X138865000Y-85135000D02*
X139500000Y-84500000D01*
X143025000Y-86405000D02*
X141623300Y-86405000D01*
X139200000Y-99300000D02*
X140500000Y-99300000D01*
X131260000Y-116650000D02*
X129960000Y-116650000D01*
X150771000Y-70040000D02*
X149615800Y-68884800D01*
X193960000Y-132500000D02*
X201050000Y-125410000D01*
X132595000Y-115475000D02*
X131865000Y-114745000D01*
X147060000Y-116775000D02*
X145760000Y-116775000D01*
X147665000Y-113250000D02*
X147665000Y-115172500D01*
X137275000Y-85135000D02*
X138865000Y-85135000D01*
X140500000Y-98000000D02*
X139850000Y-98000000D01*
X146395000Y-117410000D02*
X145760000Y-116775000D01*
X160595000Y-117285000D02*
X159960000Y-116650000D01*
X159960000Y-116000000D02*
X159960000Y-116650000D01*
X201050000Y-125410000D02*
X215558000Y-125410000D01*
X158482500Y-115172500D02*
X158660000Y-115350000D01*
X164113000Y-116000000D02*
X172942000Y-124829000D01*
X161865000Y-113125000D02*
X161865000Y-114745000D01*
X129960000Y-116000000D02*
X129960000Y-116650000D01*
X139200000Y-98000000D02*
X139850000Y-98000000D01*
X139500000Y-84500000D02*
X140150000Y-84500000D01*
X141105000Y-99905000D02*
X140500000Y-99300000D01*
X161260000Y-116650000D02*
X159960000Y-116650000D01*
X144460000Y-116775000D02*
X145760000Y-116775000D01*
X154009500Y-70040000D02*
X150050000Y-70040000D01*
X140525000Y-70705000D02*
X149385000Y-70705000D01*
X134775000Y-69435000D02*
X134710000Y-69500000D01*
X142725000Y-99905000D02*
X141105000Y-99905000D01*
X147362500Y-115172500D02*
X147403800Y-115172500D01*
X137000000Y-68800000D02*
X137650000Y-68800000D01*
X138565000Y-98635000D02*
X139200000Y-98000000D01*
X130595000Y-118875000D02*
X130595000Y-117285000D01*
X200154000Y-76000000D02*
X204757000Y-80603000D01*
X147403800Y-115172500D02*
X147665000Y-115172500D01*
X134775000Y-69435000D02*
X136335000Y-69435000D01*
X131865000Y-113125000D02*
X131865000Y-114745000D01*
X161865000Y-114745000D02*
X161260000Y-115350000D01*
X160595000Y-118875000D02*
X160595000Y-117285000D01*
X145760000Y-116125000D02*
X145760000Y-116775000D01*
%TO.N,Net-(Q1-G)*%
X150050000Y-64960000D02*
X150050000Y-63705800D01*
X202217000Y-55076000D02*
X193587200Y-63705800D01*
X193587200Y-63705800D02*
X150050000Y-63705800D01*
%TO.N,Net-(Q2-G)*%
X207297000Y-55076000D02*
X197413000Y-64960000D01*
X197413000Y-64960000D02*
X159050000Y-64960000D01*
%TO.N,Net-(U1-IN2)*%
X173229500Y-82514700D02*
X195225300Y-82514700D01*
X170609200Y-85135000D02*
X173229500Y-82514700D01*
X195225300Y-82514700D02*
X197137000Y-80603000D01*
X143025000Y-85135000D02*
X170609200Y-85135000D01*
%TO.N,Net-(U1-IN1)*%
X143025000Y-83865000D02*
X144426700Y-83865000D01*
X146461300Y-81830400D02*
X193369700Y-81830400D01*
X193369700Y-81830400D02*
X193369700Y-81830300D01*
X144426700Y-83865000D02*
X146461300Y-81830400D01*
X193369700Y-81830300D02*
X194597000Y-80603000D01*
%TO.N,Net-(U2-IN2)*%
X145500700Y-57301700D02*
X145231500Y-57570900D01*
X144861000Y-69238400D02*
X144664400Y-69435000D01*
X144664400Y-69435000D02*
X144861000Y-69238400D01*
X174277000Y-55076000D02*
X172051300Y-57301700D01*
X144861000Y-69238400D02*
X144664400Y-69435000D01*
X145231500Y-57570900D02*
X145231500Y-60500000D01*
X172051300Y-57301700D02*
X145500700Y-57301700D01*
X144664400Y-69435000D02*
X140525000Y-69435000D01*
%TO.N,Net-(U2-IN1)*%
X147504300Y-63267400D02*
X142606700Y-68165000D01*
X142606700Y-68165000D02*
X140525000Y-68165000D01*
X176817000Y-55076000D02*
X168625600Y-63267400D01*
X168625600Y-63267400D02*
X147504300Y-63267400D01*
%TO.N,Net-(U3-IN2)*%
X200830100Y-111723300D02*
X207297000Y-105256400D01*
X160595000Y-111723300D02*
X200830100Y-111723300D01*
X207297000Y-105256400D02*
X207297000Y-80603000D01*
X160595000Y-113125000D02*
X160595000Y-111723300D01*
%TO.N,Net-(U3-IN1)*%
X159325000Y-113125000D02*
X159325000Y-111723300D01*
X200420600Y-107052500D02*
X163995800Y-107052500D01*
X200420600Y-107052500D02*
X200447500Y-107052500D01*
X200447500Y-107052500D02*
X200500000Y-107000000D01*
X200500000Y-107000000D02*
X200473100Y-107000000D01*
X163995800Y-107052500D02*
X159325000Y-111723300D01*
%TO.N,Net-(U4-IN1)*%
X197487700Y-103325000D02*
X137723300Y-103325000D01*
X197487700Y-103325000D02*
X199677000Y-101135700D01*
X129325000Y-113125000D02*
X129325000Y-111723300D01*
X199677000Y-101135700D02*
X199677000Y-80603000D01*
X137723300Y-103325000D02*
X129325000Y-111723300D01*
%TO.N,Net-(U4-IN2)*%
X205916750Y-80259440D02*
X209837000Y-76339190D01*
X204845400Y-104488100D02*
X137830100Y-104488100D01*
X137830100Y-104488100D02*
X137830100Y-104488200D01*
X205916750Y-103416750D02*
X204845400Y-104488100D01*
X209837000Y-76339190D02*
X209837000Y-55076000D01*
X130595000Y-113125000D02*
X130595000Y-111723300D01*
X205916750Y-103416750D02*
X205916750Y-80259440D01*
X137830100Y-104488200D02*
X130595000Y-111723300D01*
%TO.N,Net-(U5-IO18)*%
X145125000Y-113250000D02*
X145125000Y-111848300D01*
X151630000Y-105343300D02*
X188621600Y-105343300D01*
X145125000Y-111848300D02*
X151630000Y-105343300D01*
%TO.N,Net-(U5-IO19)*%
X184733000Y-106267000D02*
X185000000Y-106000000D01*
X151976300Y-106267000D02*
X184733000Y-106267000D01*
X146395000Y-113250000D02*
X146395000Y-111848300D01*
X146395000Y-111848300D02*
X151976300Y-106267000D01*
%TO.N,Net-(U5-IO17)*%
X142725000Y-98635000D02*
X191175400Y-98635000D01*
X191175400Y-98635000D02*
X191621900Y-98188500D01*
X191175400Y-98635000D02*
X191621900Y-98188500D01*
X191621900Y-98188500D02*
X191175400Y-98635000D01*
%TO.N,Net-(U5-IO16)*%
X194478800Y-97365000D02*
X194554800Y-97441000D01*
X194554800Y-97441000D02*
X194478800Y-97365000D01*
X142725000Y-97365000D02*
X194478800Y-97365000D01*
X194478800Y-97365000D02*
X194554800Y-97441000D01*
%TO.N,/+Vin*%
X193500000Y-87935100D02*
X190438450Y-84873550D01*
D21*
%TO.N,+12V*%
X143460000Y-55500000D02*
X143460000Y-58210000D01*
X143460000Y-55500000D02*
X145261700Y-53698300D01*
%TD*%
%TA.AperFunction,Conductor*%
%TO.N,GND*%
G36*
X205007000Y-81841132D02*
G01*
X205052524Y-81833923D01*
X205153931Y-81800973D01*
X205223772Y-81798977D01*
X205283605Y-81835057D01*
X205314434Y-81897758D01*
X205316250Y-81918904D01*
X205316250Y-103116652D01*
X205296565Y-103183691D01*
X205279931Y-103204333D01*
X204632984Y-103851281D01*
X204571661Y-103884766D01*
X204545303Y-103887600D01*
X198073696Y-103887600D01*
X198006657Y-103867915D01*
X197960902Y-103815111D01*
X197950958Y-103745953D01*
X197979983Y-103682397D01*
X197986015Y-103675919D01*
X198493920Y-103168014D01*
X200157520Y-101504416D01*
X200236577Y-101367484D01*
X200277501Y-101214757D01*
X200277501Y-101056642D01*
X200277501Y-101049047D01*
X200277500Y-101049029D01*
X200277500Y-81789730D01*
X200297185Y-81722691D01*
X200334866Y-81685808D01*
X200334752Y-81685651D01*
X200335823Y-81684872D01*
X200336715Y-81684000D01*
X200338690Y-81682789D01*
X200338689Y-81682789D01*
X200338694Y-81682787D01*
X200499464Y-81565981D01*
X200639981Y-81425464D01*
X200756787Y-81264694D01*
X200836515Y-81108218D01*
X200884490Y-81057423D01*
X200952311Y-81040628D01*
X201018446Y-81063165D01*
X201057484Y-81108218D01*
X201137213Y-81264694D01*
X201254019Y-81425464D01*
X201394536Y-81565981D01*
X201555306Y-81682787D01*
X201616500Y-81713967D01*
X201732367Y-81773005D01*
X201732370Y-81773006D01*
X201814583Y-81799718D01*
X201921364Y-81834413D01*
X202117639Y-81865500D01*
X202117640Y-81865500D01*
X202316360Y-81865500D01*
X202316361Y-81865500D01*
X202512636Y-81834413D01*
X202701632Y-81773005D01*
X202878694Y-81682787D01*
X203039464Y-81565981D01*
X203179981Y-81425464D01*
X203296787Y-81264694D01*
X203376796Y-81107667D01*
X203424769Y-81056872D01*
X203492590Y-81040077D01*
X203558725Y-81062614D01*
X203597765Y-81107668D01*
X203677641Y-81264432D01*
X203794403Y-81425139D01*
X203794403Y-81425140D01*
X203934859Y-81565596D01*
X204095567Y-81682358D01*
X204272562Y-81772542D01*
X204461473Y-81833922D01*
X204507000Y-81841133D01*
X204507000Y-80986649D01*
X204580508Y-81029090D01*
X204696802Y-81060250D01*
X204817198Y-81060250D01*
X204933492Y-81029090D01*
X205007000Y-80986649D01*
X205007000Y-81841132D01*
G37*
%TD.AperFunction*%
%TA.AperFunction,Conductor*%
G36*
X224692539Y-49520185D02*
G01*
X224738294Y-49572989D01*
X224749500Y-49624500D01*
X224749500Y-139375500D01*
X224729815Y-139442539D01*
X224677011Y-139488294D01*
X224625500Y-139499500D01*
X117624500Y-139499500D01*
X117557461Y-139479815D01*
X117511706Y-139427011D01*
X117500500Y-139375500D01*
X117500500Y-136393713D01*
X119149500Y-136393713D01*
X119149500Y-136606286D01*
X119182753Y-136816239D01*
X119248444Y-137018414D01*
X119344951Y-137207820D01*
X119469890Y-137379786D01*
X119620213Y-137530109D01*
X119792179Y-137655048D01*
X119792181Y-137655049D01*
X119792184Y-137655051D01*
X119981588Y-137751557D01*
X120183757Y-137817246D01*
X120393713Y-137850500D01*
X120393714Y-137850500D01*
X120606286Y-137850500D01*
X120606287Y-137850500D01*
X120816243Y-137817246D01*
X121018412Y-137751557D01*
X121207816Y-137655051D01*
X121229789Y-137639086D01*
X121379786Y-137530109D01*
X121379788Y-137530106D01*
X121379792Y-137530104D01*
X121530104Y-137379792D01*
X121530106Y-137379788D01*
X121530109Y-137379786D01*
X121655048Y-137207820D01*
X121655047Y-137207820D01*
X121655051Y-137207816D01*
X121751557Y-137018412D01*
X121817246Y-136816243D01*
X121850500Y-136606287D01*
X121850500Y-136393713D01*
X220149500Y-136393713D01*
X220149500Y-136606286D01*
X220182753Y-136816239D01*
X220248444Y-137018414D01*
X220344951Y-137207820D01*
X220469890Y-137379786D01*
X220620213Y-137530109D01*
X220792179Y-137655048D01*
X220792181Y-137655049D01*
X220792184Y-137655051D01*
X220981588Y-137751557D01*
X221183757Y-137817246D01*
X221393713Y-137850500D01*
X221393714Y-137850500D01*
X221606286Y-137850500D01*
X221606287Y-137850500D01*
X221816243Y-137817246D01*
X222018412Y-137751557D01*
X222207816Y-137655051D01*
X222229789Y-137639086D01*
X222379786Y-137530109D01*
X222379788Y-137530106D01*
X222379792Y-137530104D01*
X222530104Y-137379792D01*
X222530106Y-137379788D01*
X222530109Y-137379786D01*
X222655048Y-137207820D01*
X222655047Y-137207820D01*
X222655051Y-137207816D01*
X222751557Y-137018412D01*
X222817246Y-136816243D01*
X222850500Y-136606287D01*
X222850500Y-136393713D01*
X222817246Y-136183757D01*
X222751557Y-135981588D01*
X222655051Y-135792184D01*
X222655049Y-135792181D01*
X222655048Y-135792179D01*
X222530109Y-135620213D01*
X222379786Y-135469890D01*
X222207820Y-135344951D01*
X222018414Y-135248444D01*
X222018413Y-135248443D01*
X222018412Y-135248443D01*
X221816243Y-135182754D01*
X221816241Y-135182753D01*
X221816240Y-135182753D01*
X221654957Y-135157208D01*
X221606287Y-135149500D01*
X221393713Y-135149500D01*
X221345042Y-135157208D01*
X221183760Y-135182753D01*
X220981585Y-135248444D01*
X220792179Y-135344951D01*
X220620213Y-135469890D01*
X220469890Y-135620213D01*
X220344951Y-135792179D01*
X220248444Y-135981585D01*
X220182753Y-136183760D01*
X220149500Y-136393713D01*
X121850500Y-136393713D01*
X121817246Y-136183757D01*
X121751557Y-135981588D01*
X121655051Y-135792184D01*
X121655049Y-135792181D01*
X121655048Y-135792179D01*
X121530109Y-135620213D01*
X121379786Y-135469890D01*
X121207820Y-135344951D01*
X121018414Y-135248444D01*
X121018413Y-135248443D01*
X121018412Y-135248443D01*
X120816243Y-135182754D01*
X120816241Y-135182753D01*
X120816240Y-135182753D01*
X120654957Y-135157208D01*
X120606287Y-135149500D01*
X120393713Y-135149500D01*
X120345042Y-135157208D01*
X120183760Y-135182753D01*
X119981585Y-135248444D01*
X119792179Y-135344951D01*
X119620213Y-135469890D01*
X119469890Y-135620213D01*
X119344951Y-135792179D01*
X119248444Y-135981585D01*
X119182753Y-136183760D01*
X119149500Y-136393713D01*
X117500500Y-136393713D01*
X117500500Y-131452135D01*
X125419500Y-131452135D01*
X125419500Y-134547870D01*
X125419501Y-134547876D01*
X125425908Y-134607483D01*
X125476202Y-134742328D01*
X125476206Y-134742335D01*
X125562452Y-134857544D01*
X125562455Y-134857547D01*
X125677664Y-134943793D01*
X125677671Y-134943797D01*
X125812517Y-134994091D01*
X125812516Y-134994091D01*
X125819444Y-134994835D01*
X125872127Y-135000500D01*
X128967872Y-135000499D01*
X129027483Y-134994091D01*
X129162331Y-134943796D01*
X129277546Y-134857546D01*
X129363796Y-134742331D01*
X129414091Y-134607483D01*
X129420500Y-134547873D01*
X129420499Y-132868872D01*
X130499500Y-132868872D01*
X130499500Y-133131127D01*
X130526123Y-133333339D01*
X130533730Y-133391116D01*
X130593399Y-133613803D01*
X130601602Y-133644418D01*
X130601605Y-133644428D01*
X130701953Y-133886690D01*
X130701958Y-133886700D01*
X130833075Y-134113803D01*
X130992718Y-134321851D01*
X130992726Y-134321860D01*
X131178140Y-134507274D01*
X131178148Y-134507281D01*
X131386196Y-134666924D01*
X131613299Y-134798041D01*
X131613309Y-134798046D01*
X131855571Y-134898394D01*
X131855581Y-134898398D01*
X132108884Y-134966270D01*
X132357188Y-134998960D01*
X132368864Y-135000498D01*
X132368880Y-135000500D01*
X132368887Y-135000500D01*
X132631113Y-135000500D01*
X132631120Y-135000500D01*
X132891116Y-134966270D01*
X133144419Y-134898398D01*
X133386697Y-134798043D01*
X133613803Y-134666924D01*
X133821851Y-134507282D01*
X133821855Y-134507277D01*
X133821860Y-134507274D01*
X134007274Y-134321860D01*
X134007277Y-134321855D01*
X134007282Y-134321851D01*
X134166924Y-134113803D01*
X134298043Y-133886697D01*
X134398398Y-133644419D01*
X134466270Y-133391116D01*
X134500500Y-133131120D01*
X134500500Y-132868880D01*
X134466270Y-132608884D01*
X134398398Y-132355581D01*
X134354665Y-132250000D01*
X134298046Y-132113309D01*
X134298041Y-132113299D01*
X134166924Y-131886196D01*
X134007281Y-131678148D01*
X134007274Y-131678140D01*
X133821860Y-131492726D01*
X133821851Y-131492718D01*
X133768963Y-131452135D01*
X140459500Y-131452135D01*
X140459500Y-134547870D01*
X140459501Y-134547876D01*
X140465908Y-134607483D01*
X140516202Y-134742328D01*
X140516206Y-134742335D01*
X140602452Y-134857544D01*
X140602455Y-134857547D01*
X140717664Y-134943793D01*
X140717671Y-134943797D01*
X140852517Y-134994091D01*
X140852516Y-134994091D01*
X140859444Y-134994835D01*
X140912127Y-135000500D01*
X144007872Y-135000499D01*
X144067483Y-134994091D01*
X144202331Y-134943796D01*
X144317546Y-134857546D01*
X144403796Y-134742331D01*
X144454091Y-134607483D01*
X144460500Y-134547873D01*
X144460499Y-132868872D01*
X145539500Y-132868872D01*
X145539500Y-133131127D01*
X145566123Y-133333339D01*
X145573730Y-133391116D01*
X145633399Y-133613803D01*
X145641602Y-133644418D01*
X145641605Y-133644428D01*
X145741953Y-133886690D01*
X145741958Y-133886700D01*
X145873075Y-134113803D01*
X146032718Y-134321851D01*
X146032726Y-134321860D01*
X146218140Y-134507274D01*
X146218148Y-134507281D01*
X146426196Y-134666924D01*
X146653299Y-134798041D01*
X146653309Y-134798046D01*
X146895571Y-134898394D01*
X146895581Y-134898398D01*
X147148884Y-134966270D01*
X147397188Y-134998960D01*
X147408864Y-135000498D01*
X147408880Y-135000500D01*
X147408887Y-135000500D01*
X147671113Y-135000500D01*
X147671120Y-135000500D01*
X147931116Y-134966270D01*
X148184419Y-134898398D01*
X148426697Y-134798043D01*
X148653803Y-134666924D01*
X148861851Y-134507282D01*
X148861855Y-134507277D01*
X148861860Y-134507274D01*
X149047274Y-134321860D01*
X149047277Y-134321855D01*
X149047282Y-134321851D01*
X149206924Y-134113803D01*
X149338043Y-133886697D01*
X149438398Y-133644419D01*
X149506270Y-133391116D01*
X149540500Y-133131120D01*
X149540500Y-132868880D01*
X149506270Y-132608884D01*
X149438398Y-132355581D01*
X149394665Y-132250000D01*
X149338046Y-132113309D01*
X149338041Y-132113299D01*
X149206924Y-131886196D01*
X149047281Y-131678148D01*
X149047274Y-131678140D01*
X148861860Y-131492726D01*
X148861851Y-131492718D01*
X148808963Y-131452135D01*
X155419500Y-131452135D01*
X155419500Y-134547870D01*
X155419501Y-134547876D01*
X155425908Y-134607483D01*
X155476202Y-134742328D01*
X155476206Y-134742335D01*
X155562452Y-134857544D01*
X155562455Y-134857547D01*
X155677664Y-134943793D01*
X155677671Y-134943797D01*
X155812517Y-134994091D01*
X155812516Y-134994091D01*
X155819444Y-134994835D01*
X155872127Y-135000500D01*
X158967872Y-135000499D01*
X159027483Y-134994091D01*
X159162331Y-134943796D01*
X159277546Y-134857546D01*
X159363796Y-134742331D01*
X159414091Y-134607483D01*
X159420500Y-134547873D01*
X159420499Y-132868872D01*
X160499500Y-132868872D01*
X160499500Y-133131127D01*
X160526123Y-133333339D01*
X160533730Y-133391116D01*
X160593399Y-133613803D01*
X160601602Y-133644418D01*
X160601605Y-133644428D01*
X160701953Y-133886690D01*
X160701958Y-133886700D01*
X160833075Y-134113803D01*
X160992718Y-134321851D01*
X160992726Y-134321860D01*
X161178140Y-134507274D01*
X161178148Y-134507281D01*
X161386196Y-134666924D01*
X161613299Y-134798041D01*
X161613309Y-134798046D01*
X161855571Y-134898394D01*
X161855581Y-134898398D01*
X162108884Y-134966270D01*
X162357188Y-134998960D01*
X162368864Y-135000498D01*
X162368880Y-135000500D01*
X162368887Y-135000500D01*
X162631113Y-135000500D01*
X162631120Y-135000500D01*
X162891116Y-134966270D01*
X163144419Y-134898398D01*
X163386697Y-134798043D01*
X163613803Y-134666924D01*
X163821851Y-134507282D01*
X163821855Y-134507277D01*
X163821860Y-134507274D01*
X164007274Y-134321860D01*
X164007277Y-134321855D01*
X164007282Y-134321851D01*
X164166924Y-134113803D01*
X164298043Y-133886697D01*
X164398398Y-133644419D01*
X164466270Y-133391116D01*
X164500500Y-133131120D01*
X164500500Y-132868880D01*
X164481121Y-132721684D01*
X164480218Y-132714823D01*
X164469197Y-132631120D01*
X164466270Y-132608884D01*
X164398398Y-132355581D01*
X164354665Y-132250000D01*
X164298046Y-132113309D01*
X164298041Y-132113299D01*
X164166924Y-131886196D01*
X164007281Y-131678148D01*
X164007274Y-131678140D01*
X163821860Y-131492726D01*
X163821851Y-131492718D01*
X163613803Y-131333075D01*
X163386700Y-131201958D01*
X163386690Y-131201953D01*
X163144428Y-131101605D01*
X163144421Y-131101603D01*
X163144419Y-131101602D01*
X162891116Y-131033730D01*
X162833339Y-131026123D01*
X162631127Y-130999500D01*
X162631120Y-130999500D01*
X162589500Y-130999500D01*
X162522461Y-130979815D01*
X162498493Y-130952155D01*
X191960000Y-130952155D01*
X191960000Y-132250000D01*
X193240936Y-132250000D01*
X193229207Y-132278316D01*
X193200000Y-132425147D01*
X193200000Y-132574853D01*
X193229207Y-132721684D01*
X193240936Y-132750000D01*
X191960000Y-132750000D01*
X191960000Y-134047844D01*
X191966401Y-134107372D01*
X191966403Y-134107379D01*
X192016645Y-134242086D01*
X192016649Y-134242093D01*
X192102809Y-134357187D01*
X192102812Y-134357190D01*
X192217906Y-134443350D01*
X192217913Y-134443354D01*
X192352620Y-134493596D01*
X192352627Y-134493598D01*
X192412155Y-134499999D01*
X192412172Y-134500000D01*
X193710000Y-134500000D01*
X193710000Y-133219064D01*
X193738316Y-133230793D01*
X193885147Y-133260000D01*
X194034853Y-133260000D01*
X194181684Y-133230793D01*
X194210000Y-133219064D01*
X194210000Y-134500000D01*
X195507828Y-134500000D01*
X195507844Y-134499999D01*
X195567372Y-134493598D01*
X195567379Y-134493596D01*
X195702086Y-134443354D01*
X195702093Y-134443350D01*
X195817187Y-134357190D01*
X195817190Y-134357187D01*
X195903350Y-134242093D01*
X195903354Y-134242086D01*
X195953596Y-134107379D01*
X195953598Y-134107372D01*
X195959999Y-134047844D01*
X195960000Y-134047827D01*
X195960000Y-132750000D01*
X194679064Y-132750000D01*
X194690793Y-132721684D01*
X194720000Y-132574853D01*
X194720000Y-132425147D01*
X194708806Y-132368872D01*
X197039500Y-132368872D01*
X197039500Y-132631127D01*
X197051423Y-132721684D01*
X197073730Y-132891116D01*
X197141602Y-133144418D01*
X197141605Y-133144428D01*
X197241953Y-133386690D01*
X197241958Y-133386700D01*
X197373075Y-133613803D01*
X197532718Y-133821851D01*
X197532726Y-133821860D01*
X197718140Y-134007274D01*
X197718148Y-134007281D01*
X197926196Y-134166924D01*
X198153299Y-134298041D01*
X198153309Y-134298046D01*
X198296096Y-134357190D01*
X198395581Y-134398398D01*
X198648884Y-134466270D01*
X198897188Y-134498960D01*
X198905074Y-134499999D01*
X198908880Y-134500500D01*
X198908887Y-134500500D01*
X199171113Y-134500500D01*
X199171120Y-134500500D01*
X199431116Y-134466270D01*
X199684419Y-134398398D01*
X199869198Y-134321860D01*
X199926690Y-134298046D01*
X199926691Y-134298045D01*
X199926697Y-134298043D01*
X200153803Y-134166924D01*
X200361851Y-134007282D01*
X200361855Y-134007277D01*
X200361860Y-134007274D01*
X200547274Y-133821860D01*
X200547277Y-133821855D01*
X200547282Y-133821851D01*
X200706924Y-133613803D01*
X200838043Y-133386697D01*
X200938398Y-133144419D01*
X201006270Y-132891116D01*
X201040500Y-132631120D01*
X201040500Y-132368880D01*
X201006270Y-132108884D01*
X200938398Y-131855581D01*
X200890523Y-131740000D01*
X200838046Y-131613309D01*
X200838041Y-131613299D01*
X200706924Y-131386196D01*
X200565548Y-131201954D01*
X200547282Y-131178149D01*
X200547281Y-131178148D01*
X200547274Y-131178140D01*
X200361860Y-130992726D01*
X200361851Y-130992718D01*
X200153803Y-130833075D01*
X199926700Y-130701958D01*
X199926690Y-130701953D01*
X199684428Y-130601605D01*
X199684421Y-130601603D01*
X199684419Y-130601602D01*
X199431116Y-130533730D01*
X199373339Y-130526123D01*
X199171127Y-130499500D01*
X199171120Y-130499500D01*
X198908880Y-130499500D01*
X198908872Y-130499500D01*
X198677772Y-130529926D01*
X198648884Y-130533730D01*
X198525517Y-130566786D01*
X198395581Y-130601602D01*
X198395571Y-130601605D01*
X198153309Y-130701953D01*
X198153299Y-130701958D01*
X197926196Y-130833075D01*
X197718148Y-130992718D01*
X197532718Y-131178148D01*
X197373075Y-131386196D01*
X197241958Y-131613299D01*
X197241953Y-131613309D01*
X197141605Y-131855571D01*
X197141602Y-131855581D01*
X197073730Y-132108884D01*
X197069926Y-132137772D01*
X197039500Y-132368872D01*
X194708806Y-132368872D01*
X194690793Y-132278316D01*
X194679064Y-132250000D01*
X195960000Y-132250000D01*
X195960000Y-130952172D01*
X195959999Y-130952155D01*
X195953598Y-130892627D01*
X195953596Y-130892620D01*
X195903354Y-130757913D01*
X195903350Y-130757906D01*
X195817190Y-130642812D01*
X195817187Y-130642809D01*
X195702093Y-130556649D01*
X195702086Y-130556645D01*
X195567379Y-130506403D01*
X195567372Y-130506401D01*
X195507844Y-130500000D01*
X194210000Y-130500000D01*
X194210000Y-131780935D01*
X194181684Y-131769207D01*
X194034853Y-131740000D01*
X193885147Y-131740000D01*
X193738316Y-131769207D01*
X193710000Y-131780935D01*
X193710000Y-130500000D01*
X192412155Y-130500000D01*
X192352627Y-130506401D01*
X192352620Y-130506403D01*
X192217913Y-130556645D01*
X192217906Y-130556649D01*
X192102812Y-130642809D01*
X192102809Y-130642812D01*
X192016649Y-130757906D01*
X192016645Y-130757913D01*
X191966403Y-130892620D01*
X191966401Y-130892627D01*
X191960000Y-130952155D01*
X162498493Y-130952155D01*
X162476706Y-130927011D01*
X162465500Y-130875500D01*
X162465500Y-124979999D01*
X171703865Y-124979999D01*
X171703865Y-124980000D01*
X172558351Y-124980000D01*
X172515910Y-125053508D01*
X172484750Y-125169802D01*
X172484750Y-125290198D01*
X172515910Y-125406492D01*
X172558351Y-125480000D01*
X171703865Y-125480000D01*
X171711074Y-125525517D01*
X171772456Y-125714435D01*
X171862641Y-125891432D01*
X171979403Y-126052139D01*
X171979403Y-126052140D01*
X172119859Y-126192596D01*
X172280567Y-126309358D01*
X172457562Y-126399542D01*
X172646473Y-126460922D01*
X172692000Y-126468133D01*
X172692000Y-125613649D01*
X172765508Y-125656090D01*
X172881802Y-125687250D01*
X173002198Y-125687250D01*
X173118492Y-125656090D01*
X173192000Y-125613649D01*
X173192000Y-126468132D01*
X173237526Y-126460922D01*
X173426437Y-126399542D01*
X173603432Y-126309358D01*
X173764139Y-126192596D01*
X173764140Y-126192596D01*
X173904596Y-126052140D01*
X173904596Y-126052139D01*
X174021358Y-125891432D01*
X174111543Y-125714435D01*
X174172925Y-125525517D01*
X174180134Y-125480000D01*
X173325649Y-125480000D01*
X173368090Y-125406492D01*
X173399250Y-125290198D01*
X173399250Y-125169802D01*
X173388757Y-125130639D01*
X189459500Y-125130639D01*
X189459500Y-125329360D01*
X189490587Y-125525637D01*
X189551993Y-125714629D01*
X189551994Y-125714632D01*
X189583208Y-125775891D01*
X189642213Y-125891694D01*
X189759019Y-126052464D01*
X189899536Y-126192981D01*
X190060306Y-126309787D01*
X190147149Y-126354035D01*
X190237367Y-126400005D01*
X190237370Y-126400006D01*
X190331866Y-126430709D01*
X190426364Y-126461413D01*
X190622639Y-126492500D01*
X190622640Y-126492500D01*
X190821360Y-126492500D01*
X190821361Y-126492500D01*
X191017636Y-126461413D01*
X191206632Y-126400005D01*
X191383694Y-126309787D01*
X191544464Y-126192981D01*
X191684981Y-126052464D01*
X191801787Y-125891694D01*
X191892005Y-125714632D01*
X191953413Y-125525636D01*
X191984500Y-125329361D01*
X191984500Y-125310639D01*
X196515500Y-125310639D01*
X196515500Y-125509360D01*
X196546587Y-125705637D01*
X196607993Y-125894629D01*
X196607994Y-125894632D01*
X196688249Y-126052139D01*
X196698213Y-126071694D01*
X196815019Y-126232464D01*
X196955536Y-126372981D01*
X197116306Y-126489787D01*
X197121631Y-126492500D01*
X197293367Y-126580005D01*
X197293370Y-126580006D01*
X197387866Y-126610709D01*
X197482364Y-126641413D01*
X197678639Y-126672500D01*
X197678640Y-126672500D01*
X197877360Y-126672500D01*
X197877361Y-126672500D01*
X198073636Y-126641413D01*
X198262632Y-126580005D01*
X198439694Y-126489787D01*
X198600464Y-126372981D01*
X198740981Y-126232464D01*
X198857787Y-126071694D01*
X198948005Y-125894632D01*
X199009413Y-125705636D01*
X199040500Y-125509361D01*
X199040500Y-125310639D01*
X199016641Y-125159999D01*
X214319865Y-125159999D01*
X214319865Y-125160000D01*
X215174351Y-125160000D01*
X215131910Y-125233508D01*
X215100750Y-125349802D01*
X215100750Y-125470198D01*
X215131910Y-125586492D01*
X215174351Y-125660000D01*
X214319865Y-125660000D01*
X214327074Y-125705517D01*
X214388456Y-125894435D01*
X214478641Y-126071432D01*
X214595403Y-126232139D01*
X214595403Y-126232140D01*
X214735859Y-126372596D01*
X214896567Y-126489358D01*
X215073562Y-126579542D01*
X215262473Y-126640922D01*
X215308000Y-126648133D01*
X215308000Y-125793649D01*
X215381508Y-125836090D01*
X215497802Y-125867250D01*
X215618198Y-125867250D01*
X215734492Y-125836090D01*
X215808000Y-125793649D01*
X215808000Y-126648132D01*
X215853526Y-126640922D01*
X216042437Y-126579542D01*
X216219432Y-126489358D01*
X216380139Y-126372596D01*
X216380140Y-126372596D01*
X216520596Y-126232140D01*
X216520596Y-126232139D01*
X216637358Y-126071432D01*
X216727543Y-125894435D01*
X216788925Y-125705517D01*
X216796134Y-125660000D01*
X215941649Y-125660000D01*
X215984090Y-125586492D01*
X216015250Y-125470198D01*
X216015250Y-125349802D01*
X215984090Y-125233508D01*
X215941649Y-125160000D01*
X216796135Y-125160000D01*
X216796134Y-125159999D01*
X216788925Y-125114482D01*
X216727543Y-124925564D01*
X216637358Y-124748567D01*
X216520596Y-124587860D01*
X216520596Y-124587859D01*
X216380140Y-124447403D01*
X216219432Y-124330641D01*
X216042434Y-124240456D01*
X216042436Y-124240456D01*
X215853517Y-124179074D01*
X215808000Y-124171865D01*
X215808000Y-125026350D01*
X215734492Y-124983910D01*
X215618198Y-124952750D01*
X215497802Y-124952750D01*
X215381508Y-124983910D01*
X215308000Y-125026350D01*
X215308000Y-124171865D01*
X215307999Y-124171865D01*
X215262482Y-124179074D01*
X215073564Y-124240456D01*
X214896567Y-124330641D01*
X214735860Y-124447403D01*
X214735859Y-124447403D01*
X214595403Y-124587859D01*
X214595403Y-124587860D01*
X214478641Y-124748567D01*
X214388456Y-124925564D01*
X214327074Y-125114482D01*
X214319865Y-125159999D01*
X199016641Y-125159999D01*
X199011991Y-125130639D01*
X199009413Y-125114363D01*
X198948006Y-124925370D01*
X198948005Y-124925367D01*
X198870242Y-124772750D01*
X198857787Y-124748306D01*
X198740981Y-124587536D01*
X198600464Y-124447019D01*
X198439694Y-124330213D01*
X198262632Y-124239994D01*
X198262629Y-124239993D01*
X198073637Y-124178587D01*
X197897192Y-124150641D01*
X197877361Y-124147500D01*
X197678639Y-124147500D01*
X197658808Y-124150641D01*
X197482362Y-124178587D01*
X197293370Y-124239993D01*
X197293367Y-124239994D01*
X197116305Y-124330213D01*
X196955533Y-124447021D01*
X196815021Y-124587533D01*
X196698213Y-124748305D01*
X196607994Y-124925367D01*
X196607993Y-124925370D01*
X196546587Y-125114362D01*
X196515500Y-125310639D01*
X191984500Y-125310639D01*
X191984500Y-125130639D01*
X191953413Y-124934364D01*
X191900902Y-124772750D01*
X191892006Y-124745370D01*
X191892005Y-124745367D01*
X191811750Y-124587860D01*
X191801787Y-124568306D01*
X191684981Y-124407536D01*
X191544464Y-124267019D01*
X191383694Y-124150213D01*
X191206632Y-124059994D01*
X191206629Y-124059993D01*
X191017637Y-123998587D01*
X190919498Y-123983043D01*
X190821361Y-123967500D01*
X190622639Y-123967500D01*
X190557214Y-123977862D01*
X190426362Y-123998587D01*
X190237370Y-124059993D01*
X190237367Y-124059994D01*
X190060305Y-124150213D01*
X189899533Y-124267021D01*
X189759021Y-124407533D01*
X189642213Y-124568305D01*
X189551994Y-124745367D01*
X189551993Y-124745370D01*
X189490587Y-124934362D01*
X189459500Y-125130639D01*
X173388757Y-125130639D01*
X173368090Y-125053508D01*
X173325649Y-124980000D01*
X174180135Y-124980000D01*
X174180134Y-124979999D01*
X174172925Y-124934482D01*
X174111543Y-124745564D01*
X174021358Y-124568567D01*
X173904596Y-124407860D01*
X173904596Y-124407859D01*
X173764140Y-124267403D01*
X173603432Y-124150641D01*
X173426434Y-124060456D01*
X173426436Y-124060456D01*
X173237517Y-123999074D01*
X173192000Y-123991865D01*
X173192000Y-124846350D01*
X173118492Y-124803910D01*
X173002198Y-124772750D01*
X172881802Y-124772750D01*
X172765508Y-124803910D01*
X172692000Y-124846350D01*
X172692000Y-123991865D01*
X172691999Y-123991865D01*
X172646482Y-123999074D01*
X172457564Y-124060456D01*
X172280567Y-124150641D01*
X172119860Y-124267403D01*
X172119859Y-124267403D01*
X171979403Y-124407859D01*
X171979403Y-124407860D01*
X171862641Y-124568567D01*
X171772456Y-124745564D01*
X171711074Y-124934482D01*
X171703865Y-124979999D01*
X162465500Y-124979999D01*
X162465500Y-120383230D01*
X162485185Y-120316191D01*
X162490233Y-120308919D01*
X162528854Y-120257328D01*
X162558796Y-120217331D01*
X162609091Y-120082483D01*
X162615500Y-120022873D01*
X162615499Y-118007812D01*
X162635184Y-117940774D01*
X162665188Y-117908546D01*
X162767191Y-117832186D01*
X162853350Y-117717093D01*
X162853354Y-117717086D01*
X162903596Y-117582379D01*
X162903598Y-117582372D01*
X162909999Y-117522844D01*
X162910000Y-117522827D01*
X162910000Y-116250000D01*
X162013553Y-116250000D01*
X160845000Y-117418553D01*
X160845000Y-120475000D01*
X160892828Y-120475000D01*
X160892844Y-120474999D01*
X160952372Y-120468598D01*
X160952379Y-120468596D01*
X161095399Y-120415254D01*
X161096527Y-120418280D01*
X161149314Y-120406784D01*
X161214785Y-120431183D01*
X161256670Y-120487106D01*
X161264500Y-120530470D01*
X161264500Y-131365308D01*
X161244815Y-131432347D01*
X161215988Y-131463683D01*
X161178141Y-131492724D01*
X161178140Y-131492726D01*
X160992718Y-131678148D01*
X160833075Y-131886196D01*
X160701958Y-132113299D01*
X160701953Y-132113309D01*
X160601605Y-132355571D01*
X160601602Y-132355581D01*
X160533730Y-132608885D01*
X160499500Y-132868872D01*
X159420499Y-132868872D01*
X159420499Y-131900095D01*
X159440184Y-131833057D01*
X159456813Y-131812420D01*
X159693713Y-131575521D01*
X159693716Y-131575520D01*
X159805520Y-131463716D01*
X159855639Y-131376904D01*
X159884577Y-131326785D01*
X159925501Y-131174057D01*
X159925501Y-131015943D01*
X159925501Y-131008348D01*
X159925500Y-131008330D01*
X159925500Y-120530470D01*
X159945185Y-120463431D01*
X159997989Y-120417676D01*
X160067147Y-120407732D01*
X160094063Y-120416694D01*
X160094601Y-120415254D01*
X160237620Y-120468596D01*
X160237627Y-120468598D01*
X160297155Y-120474999D01*
X160297172Y-120475000D01*
X160345000Y-120475000D01*
X160345000Y-117388554D01*
X160344999Y-117388553D01*
X159960001Y-117003554D01*
X159724578Y-117238975D01*
X159663255Y-117272459D01*
X159626194Y-117274449D01*
X159626194Y-117274500D01*
X159626188Y-117274500D01*
X159626179Y-117274678D01*
X159624054Y-117274563D01*
X159623663Y-117274584D01*
X159622873Y-117274500D01*
X159622870Y-117274500D01*
X159027129Y-117274500D01*
X159027115Y-117274501D01*
X158999263Y-117277495D01*
X158930504Y-117265087D01*
X158898332Y-117241886D01*
X158273625Y-116617179D01*
X158495000Y-116617179D01*
X158495000Y-116682821D01*
X158520119Y-116743465D01*
X158566535Y-116789881D01*
X158627179Y-116815000D01*
X158692821Y-116815000D01*
X158753465Y-116789881D01*
X158799881Y-116743465D01*
X158825000Y-116682821D01*
X158825000Y-116650000D01*
X159013554Y-116650000D01*
X159310000Y-116946446D01*
X159606446Y-116650000D01*
X159573625Y-116617179D01*
X159795000Y-116617179D01*
X159795000Y-116682821D01*
X159820119Y-116743465D01*
X159866535Y-116789881D01*
X159927179Y-116815000D01*
X159992821Y-116815000D01*
X160053465Y-116789881D01*
X160099881Y-116743465D01*
X160125000Y-116682821D01*
X160125000Y-116650000D01*
X160313554Y-116650000D01*
X160610000Y-116946446D01*
X160906446Y-116650000D01*
X160873625Y-116617179D01*
X161095000Y-116617179D01*
X161095000Y-116682821D01*
X161120119Y-116743465D01*
X161166535Y-116789881D01*
X161227179Y-116815000D01*
X161292821Y-116815000D01*
X161353465Y-116789881D01*
X161399881Y-116743465D01*
X161425000Y-116682821D01*
X161425000Y-116617179D01*
X161399881Y-116556535D01*
X161353465Y-116510119D01*
X161292821Y-116485000D01*
X161227179Y-116485000D01*
X161166535Y-116510119D01*
X161120119Y-116556535D01*
X161095000Y-116617179D01*
X160873625Y-116617179D01*
X160610000Y-116353554D01*
X160313554Y-116650000D01*
X160125000Y-116650000D01*
X160125000Y-116617179D01*
X160099881Y-116556535D01*
X160053465Y-116510119D01*
X159992821Y-116485000D01*
X159927179Y-116485000D01*
X159866535Y-116510119D01*
X159820119Y-116556535D01*
X159795000Y-116617179D01*
X159573625Y-116617179D01*
X159310000Y-116353554D01*
X159013554Y-116650000D01*
X158825000Y-116650000D01*
X158825000Y-116617179D01*
X158799881Y-116556535D01*
X158753465Y-116510119D01*
X158692821Y-116485000D01*
X158627179Y-116485000D01*
X158566535Y-116510119D01*
X158520119Y-116556535D01*
X158495000Y-116617179D01*
X158273625Y-116617179D01*
X157906446Y-116250000D01*
X158613554Y-116250000D01*
X158660000Y-116296445D01*
X158706446Y-116250000D01*
X159913554Y-116250000D01*
X159960000Y-116296445D01*
X160006446Y-116250000D01*
X161213554Y-116250000D01*
X161260000Y-116296445D01*
X161306446Y-116250000D01*
X161213554Y-116250000D01*
X160006446Y-116250000D01*
X159913554Y-116250000D01*
X158706446Y-116250000D01*
X158613554Y-116250000D01*
X157906446Y-116250000D01*
X157010000Y-116250000D01*
X157010000Y-117522844D01*
X157016401Y-117582372D01*
X157016403Y-117582379D01*
X157066645Y-117717086D01*
X157066649Y-117717093D01*
X157152809Y-117832187D01*
X157152812Y-117832190D01*
X157254811Y-117908547D01*
X157296682Y-117964480D01*
X157304500Y-118007813D01*
X157304500Y-121229216D01*
X157284815Y-121296255D01*
X157268181Y-121316897D01*
X157222863Y-121362214D01*
X157222860Y-121362218D01*
X157113371Y-121526079D01*
X157113364Y-121526092D01*
X157037950Y-121708160D01*
X157037947Y-121708170D01*
X156999500Y-121901456D01*
X156999500Y-121901459D01*
X156999500Y-122098541D01*
X156999500Y-122098543D01*
X156999499Y-122098543D01*
X157037947Y-122291829D01*
X157037950Y-122291839D01*
X157113364Y-122473907D01*
X157113371Y-122473920D01*
X157222860Y-122637781D01*
X157222863Y-122637785D01*
X157362214Y-122777136D01*
X157362218Y-122777139D01*
X157526079Y-122886628D01*
X157526092Y-122886635D01*
X157708160Y-122962049D01*
X157708165Y-122962051D01*
X157708169Y-122962051D01*
X157708170Y-122962052D01*
X157901456Y-123000500D01*
X157901459Y-123000500D01*
X158098543Y-123000500D01*
X158228582Y-122974632D01*
X158291835Y-122962051D01*
X158473914Y-122886632D01*
X158473920Y-122886628D01*
X158531609Y-122848082D01*
X158598287Y-122827204D01*
X158665667Y-122845689D01*
X158712357Y-122897667D01*
X158724500Y-122951184D01*
X158724500Y-130794901D01*
X158715855Y-130824341D01*
X158709332Y-130854328D01*
X158705577Y-130859343D01*
X158704815Y-130861940D01*
X158688181Y-130882582D01*
X158607582Y-130963181D01*
X158546259Y-130996666D01*
X158519901Y-130999500D01*
X155872129Y-130999500D01*
X155872123Y-130999501D01*
X155812516Y-131005908D01*
X155677671Y-131056202D01*
X155677664Y-131056206D01*
X155562455Y-131142452D01*
X155562452Y-131142455D01*
X155476206Y-131257664D01*
X155476202Y-131257671D01*
X155425908Y-131392517D01*
X155419501Y-131452116D01*
X155419500Y-131452135D01*
X148808963Y-131452135D01*
X148653803Y-131333075D01*
X148426700Y-131201958D01*
X148426690Y-131201954D01*
X148217047Y-131115117D01*
X148162644Y-131071276D01*
X148140579Y-131004982D01*
X148140500Y-131000556D01*
X148140500Y-120618464D01*
X148160185Y-120551425D01*
X148190187Y-120519199D01*
X148272546Y-120457546D01*
X148358796Y-120342331D01*
X148409091Y-120207483D01*
X148415500Y-120147873D01*
X148415499Y-118132812D01*
X148435184Y-118065774D01*
X148465188Y-118033546D01*
X148567191Y-117957186D01*
X148653350Y-117842093D01*
X148653354Y-117842086D01*
X148703596Y-117707379D01*
X148703598Y-117707372D01*
X148709999Y-117647844D01*
X148710000Y-117647827D01*
X148710000Y-116375000D01*
X147813553Y-116375000D01*
X146645000Y-117543553D01*
X146645000Y-120600000D01*
X146692828Y-120600000D01*
X146692844Y-120599999D01*
X146752372Y-120593598D01*
X146752380Y-120593596D01*
X146772165Y-120586217D01*
X146841856Y-120581231D01*
X146903180Y-120614715D01*
X146936666Y-120676038D01*
X146939500Y-120702398D01*
X146939500Y-131000556D01*
X146919815Y-131067595D01*
X146867011Y-131113350D01*
X146862953Y-131115117D01*
X146653309Y-131201954D01*
X146653299Y-131201958D01*
X146426196Y-131333075D01*
X146218148Y-131492718D01*
X146032718Y-131678148D01*
X145873075Y-131886196D01*
X145741958Y-132113299D01*
X145741953Y-132113309D01*
X145641605Y-132355571D01*
X145641602Y-132355581D01*
X145573730Y-132608885D01*
X145539500Y-132868872D01*
X144460499Y-132868872D01*
X144460499Y-131900095D01*
X144480184Y-131833057D01*
X144496813Y-131812420D01*
X145483506Y-130825728D01*
X145483511Y-130825724D01*
X145493714Y-130815520D01*
X145493716Y-130815520D01*
X145605520Y-130703716D01*
X145664475Y-130601602D01*
X145684577Y-130566785D01*
X145725500Y-130414057D01*
X145725500Y-130255943D01*
X145725500Y-120655470D01*
X145745185Y-120588431D01*
X145797989Y-120542676D01*
X145867147Y-120532732D01*
X145894063Y-120541694D01*
X145894601Y-120540254D01*
X146037620Y-120593596D01*
X146037627Y-120593598D01*
X146097155Y-120599999D01*
X146097172Y-120600000D01*
X146145000Y-120600000D01*
X146145000Y-117513554D01*
X146144999Y-117513553D01*
X145760001Y-117128554D01*
X145524578Y-117363975D01*
X145463255Y-117397459D01*
X145426194Y-117399449D01*
X145426194Y-117399500D01*
X145426188Y-117399500D01*
X145426179Y-117399678D01*
X145424054Y-117399563D01*
X145423663Y-117399584D01*
X145422873Y-117399500D01*
X145422870Y-117399500D01*
X144827129Y-117399500D01*
X144827115Y-117399501D01*
X144799263Y-117402495D01*
X144730504Y-117390087D01*
X144698332Y-117366886D01*
X144073625Y-116742179D01*
X144295000Y-116742179D01*
X144295000Y-116807821D01*
X144320119Y-116868465D01*
X144366535Y-116914881D01*
X144427179Y-116940000D01*
X144492821Y-116940000D01*
X144553465Y-116914881D01*
X144599881Y-116868465D01*
X144625000Y-116807821D01*
X144625000Y-116775000D01*
X144813554Y-116775000D01*
X145110000Y-117071446D01*
X145406446Y-116775000D01*
X145373625Y-116742179D01*
X145595000Y-116742179D01*
X145595000Y-116807821D01*
X145620119Y-116868465D01*
X145666535Y-116914881D01*
X145727179Y-116940000D01*
X145792821Y-116940000D01*
X145853465Y-116914881D01*
X145899881Y-116868465D01*
X145925000Y-116807821D01*
X145925000Y-116775000D01*
X146113554Y-116775000D01*
X146410000Y-117071446D01*
X146706446Y-116775000D01*
X146673625Y-116742179D01*
X146895000Y-116742179D01*
X146895000Y-116807821D01*
X146920119Y-116868465D01*
X146966535Y-116914881D01*
X147027179Y-116940000D01*
X147092821Y-116940000D01*
X147153465Y-116914881D01*
X147199881Y-116868465D01*
X147225000Y-116807821D01*
X147225000Y-116742179D01*
X147199881Y-116681535D01*
X147153465Y-116635119D01*
X147092821Y-116610000D01*
X147027179Y-116610000D01*
X146966535Y-116635119D01*
X146920119Y-116681535D01*
X146895000Y-116742179D01*
X146673625Y-116742179D01*
X146410000Y-116478554D01*
X146113554Y-116775000D01*
X145925000Y-116775000D01*
X145925000Y-116742179D01*
X145899881Y-116681535D01*
X145853465Y-116635119D01*
X145792821Y-116610000D01*
X145727179Y-116610000D01*
X145666535Y-116635119D01*
X145620119Y-116681535D01*
X145595000Y-116742179D01*
X145373625Y-116742179D01*
X145110000Y-116478554D01*
X144813554Y-116775000D01*
X144625000Y-116775000D01*
X144625000Y-116742179D01*
X144599881Y-116681535D01*
X144553465Y-116635119D01*
X144492821Y-116610000D01*
X144427179Y-116610000D01*
X144366535Y-116635119D01*
X144320119Y-116681535D01*
X144295000Y-116742179D01*
X144073625Y-116742179D01*
X143706446Y-116375000D01*
X144413554Y-116375000D01*
X144460000Y-116421445D01*
X144506446Y-116375000D01*
X145713554Y-116375000D01*
X145760000Y-116421445D01*
X145806446Y-116375000D01*
X147013554Y-116375000D01*
X147060000Y-116421445D01*
X147106446Y-116375000D01*
X147013554Y-116375000D01*
X145806446Y-116375000D01*
X145713554Y-116375000D01*
X144506446Y-116375000D01*
X144413554Y-116375000D01*
X143706446Y-116375000D01*
X142810000Y-116375000D01*
X142810000Y-117647844D01*
X142816401Y-117707372D01*
X142816403Y-117707379D01*
X142866645Y-117842086D01*
X142866649Y-117842093D01*
X142952809Y-117957187D01*
X142952812Y-117957190D01*
X143054811Y-118033547D01*
X143096682Y-118089480D01*
X143104500Y-118132813D01*
X143104500Y-119782770D01*
X143084815Y-119849809D01*
X143068181Y-119870451D01*
X141974621Y-120964010D01*
X141913298Y-120997495D01*
X141904822Y-120998830D01*
X141708170Y-121037947D01*
X141708160Y-121037950D01*
X141526092Y-121113364D01*
X141526079Y-121113371D01*
X141362218Y-121222860D01*
X141362214Y-121222863D01*
X141222863Y-121362214D01*
X141222860Y-121362218D01*
X141113371Y-121526079D01*
X141113364Y-121526092D01*
X141037950Y-121708160D01*
X141037947Y-121708170D01*
X140999500Y-121901456D01*
X140999500Y-121901459D01*
X140999500Y-122098541D01*
X140999500Y-122098543D01*
X140999499Y-122098543D01*
X141037947Y-122291829D01*
X141037950Y-122291839D01*
X141113364Y-122473907D01*
X141113371Y-122473920D01*
X141222860Y-122637781D01*
X141222863Y-122637785D01*
X141362214Y-122777136D01*
X141362218Y-122777139D01*
X141526079Y-122886628D01*
X141526092Y-122886635D01*
X141708160Y-122962049D01*
X141708165Y-122962051D01*
X141708169Y-122962051D01*
X141708170Y-122962052D01*
X141901456Y-123000500D01*
X141901459Y-123000500D01*
X142098543Y-123000500D01*
X142228582Y-122974632D01*
X142291835Y-122962051D01*
X142473914Y-122886632D01*
X142637782Y-122777139D01*
X142777139Y-122637782D01*
X142886632Y-122473914D01*
X142962051Y-122291835D01*
X143000500Y-122098541D01*
X143001689Y-122092566D01*
X143003492Y-122092924D01*
X143026419Y-122036128D01*
X143035980Y-122025386D01*
X144312819Y-120748548D01*
X144374142Y-120715063D01*
X144443834Y-120720047D01*
X144499767Y-120761919D01*
X144524184Y-120827383D01*
X144524500Y-120836229D01*
X144524500Y-130034902D01*
X144504815Y-130101941D01*
X144488181Y-130122583D01*
X143647583Y-130963181D01*
X143586260Y-130996666D01*
X143559902Y-130999500D01*
X140912129Y-130999500D01*
X140912123Y-130999501D01*
X140852516Y-131005908D01*
X140717671Y-131056202D01*
X140717664Y-131056206D01*
X140602455Y-131142452D01*
X140602452Y-131142455D01*
X140516206Y-131257664D01*
X140516202Y-131257671D01*
X140465908Y-131392517D01*
X140459501Y-131452116D01*
X140459500Y-131452135D01*
X133768963Y-131452135D01*
X133613803Y-131333075D01*
X133386700Y-131201958D01*
X133386690Y-131201954D01*
X133177047Y-131115117D01*
X133122644Y-131071276D01*
X133100579Y-131004982D01*
X133100500Y-131000556D01*
X133100500Y-119599060D01*
X133100501Y-119599047D01*
X133100501Y-119430944D01*
X133059576Y-119278214D01*
X133059573Y-119278209D01*
X132980524Y-119141290D01*
X132980518Y-119141282D01*
X132651818Y-118812582D01*
X132618333Y-118751259D01*
X132615499Y-118724901D01*
X132615499Y-118007813D01*
X132635184Y-117940774D01*
X132665188Y-117908546D01*
X132767191Y-117832186D01*
X132853350Y-117717093D01*
X132853354Y-117717086D01*
X132903596Y-117582379D01*
X132903598Y-117582372D01*
X132909999Y-117522844D01*
X132910000Y-117522827D01*
X132910000Y-116250000D01*
X132013553Y-116250000D01*
X130845000Y-117418553D01*
X130845000Y-120475000D01*
X130892828Y-120475000D01*
X130892844Y-120474999D01*
X130952372Y-120468598D01*
X130952379Y-120468596D01*
X131087086Y-120418354D01*
X131087089Y-120418352D01*
X131155271Y-120367311D01*
X131220735Y-120342893D01*
X131289008Y-120357744D01*
X131303887Y-120367306D01*
X131367938Y-120415254D01*
X131372668Y-120418795D01*
X131372671Y-120418797D01*
X131405880Y-120431183D01*
X131507517Y-120469091D01*
X131567127Y-120475500D01*
X131775500Y-120475499D01*
X131842539Y-120495183D01*
X131888294Y-120547987D01*
X131899500Y-120599499D01*
X131899500Y-131000556D01*
X131879815Y-131067595D01*
X131827011Y-131113350D01*
X131822953Y-131115117D01*
X131613309Y-131201954D01*
X131613299Y-131201958D01*
X131386196Y-131333075D01*
X131178148Y-131492718D01*
X130992718Y-131678148D01*
X130833075Y-131886196D01*
X130701958Y-132113299D01*
X130701953Y-132113309D01*
X130601605Y-132355571D01*
X130601602Y-132355581D01*
X130533730Y-132608885D01*
X130499500Y-132868872D01*
X129420499Y-132868872D01*
X129420499Y-131900095D01*
X129440184Y-131833057D01*
X129456813Y-131812420D01*
X129693713Y-131575521D01*
X129693716Y-131575520D01*
X129805520Y-131463716D01*
X129855639Y-131376904D01*
X129884577Y-131326785D01*
X129925501Y-131174057D01*
X129925501Y-131015943D01*
X129925501Y-131008348D01*
X129925500Y-131008330D01*
X129925500Y-120530470D01*
X129945185Y-120463431D01*
X129997989Y-120417676D01*
X130067147Y-120407732D01*
X130094063Y-120416694D01*
X130094601Y-120415254D01*
X130237620Y-120468596D01*
X130237627Y-120468598D01*
X130297155Y-120474999D01*
X130297172Y-120475000D01*
X130345000Y-120475000D01*
X130345000Y-117388554D01*
X130344999Y-117388553D01*
X129960001Y-117003554D01*
X129724578Y-117238975D01*
X129663255Y-117272459D01*
X129626194Y-117274449D01*
X129626194Y-117274500D01*
X129626188Y-117274500D01*
X129626179Y-117274678D01*
X129624054Y-117274563D01*
X129623663Y-117274584D01*
X129622873Y-117274500D01*
X129622870Y-117274500D01*
X129027129Y-117274500D01*
X129027115Y-117274501D01*
X128999263Y-117277495D01*
X128930504Y-117265087D01*
X128898332Y-117241886D01*
X128273625Y-116617179D01*
X128495000Y-116617179D01*
X128495000Y-116682821D01*
X128520119Y-116743465D01*
X128566535Y-116789881D01*
X128627179Y-116815000D01*
X128692821Y-116815000D01*
X128753465Y-116789881D01*
X128799881Y-116743465D01*
X128825000Y-116682821D01*
X128825000Y-116650000D01*
X129013554Y-116650000D01*
X129310000Y-116946446D01*
X129606446Y-116650000D01*
X129573625Y-116617179D01*
X129795000Y-116617179D01*
X129795000Y-116682821D01*
X129820119Y-116743465D01*
X129866535Y-116789881D01*
X129927179Y-116815000D01*
X129992821Y-116815000D01*
X130053465Y-116789881D01*
X130099881Y-116743465D01*
X130125000Y-116682821D01*
X130125000Y-116650000D01*
X130313554Y-116650000D01*
X130610000Y-116946446D01*
X130906446Y-116650000D01*
X130873625Y-116617179D01*
X131095000Y-116617179D01*
X131095000Y-116682821D01*
X131120119Y-116743465D01*
X131166535Y-116789881D01*
X131227179Y-116815000D01*
X131292821Y-116815000D01*
X131353465Y-116789881D01*
X131399881Y-116743465D01*
X131425000Y-116682821D01*
X131425000Y-116617179D01*
X131399881Y-116556535D01*
X131353465Y-116510119D01*
X131292821Y-116485000D01*
X131227179Y-116485000D01*
X131166535Y-116510119D01*
X131120119Y-116556535D01*
X131095000Y-116617179D01*
X130873625Y-116617179D01*
X130610000Y-116353554D01*
X130313554Y-116650000D01*
X130125000Y-116650000D01*
X130125000Y-116617179D01*
X130099881Y-116556535D01*
X130053465Y-116510119D01*
X129992821Y-116485000D01*
X129927179Y-116485000D01*
X129866535Y-116510119D01*
X129820119Y-116556535D01*
X129795000Y-116617179D01*
X129573625Y-116617179D01*
X129310000Y-116353554D01*
X129013554Y-116650000D01*
X128825000Y-116650000D01*
X128825000Y-116617179D01*
X128799881Y-116556535D01*
X128753465Y-116510119D01*
X128692821Y-116485000D01*
X128627179Y-116485000D01*
X128566535Y-116510119D01*
X128520119Y-116556535D01*
X128495000Y-116617179D01*
X128273625Y-116617179D01*
X127906446Y-116250000D01*
X128613554Y-116250000D01*
X128660000Y-116296445D01*
X128706446Y-116250000D01*
X129913554Y-116250000D01*
X129960000Y-116296445D01*
X130006446Y-116250000D01*
X131213554Y-116250000D01*
X131260000Y-116296445D01*
X131306446Y-116250000D01*
X131213554Y-116250000D01*
X130006446Y-116250000D01*
X129913554Y-116250000D01*
X128706446Y-116250000D01*
X128613554Y-116250000D01*
X127906446Y-116250000D01*
X127010000Y-116250000D01*
X127010000Y-117522844D01*
X127016401Y-117582372D01*
X127016403Y-117582379D01*
X127066645Y-117717086D01*
X127066649Y-117717093D01*
X127152809Y-117832187D01*
X127152812Y-117832190D01*
X127254811Y-117908547D01*
X127296682Y-117964480D01*
X127304500Y-118007813D01*
X127304500Y-122193270D01*
X127303264Y-122199868D01*
X127304056Y-122203757D01*
X127297454Y-122230890D01*
X127296096Y-122238142D01*
X127295587Y-122239452D01*
X127278342Y-122281087D01*
X127277202Y-122286813D01*
X127273290Y-122296893D01*
X127258284Y-122316393D01*
X127246866Y-122338185D01*
X127245379Y-122339699D01*
X127222858Y-122362220D01*
X127222858Y-122362221D01*
X127113371Y-122526079D01*
X127113364Y-122526092D01*
X127037950Y-122708160D01*
X127037947Y-122708170D01*
X126999500Y-122901456D01*
X126999500Y-122901459D01*
X126999500Y-123098541D01*
X126999500Y-123098543D01*
X126999499Y-123098543D01*
X127037947Y-123291829D01*
X127037950Y-123291839D01*
X127113364Y-123473907D01*
X127113371Y-123473920D01*
X127222860Y-123637781D01*
X127222863Y-123637785D01*
X127362214Y-123777136D01*
X127362218Y-123777139D01*
X127526079Y-123886628D01*
X127526092Y-123886635D01*
X127708160Y-123962049D01*
X127708165Y-123962051D01*
X127708169Y-123962051D01*
X127708170Y-123962052D01*
X127901456Y-124000500D01*
X127901459Y-124000500D01*
X128098543Y-124000500D01*
X128264441Y-123967500D01*
X128291835Y-123962051D01*
X128473914Y-123886632D01*
X128473920Y-123886628D01*
X128531609Y-123848082D01*
X128598287Y-123827204D01*
X128665667Y-123845689D01*
X128712357Y-123897667D01*
X128724500Y-123951184D01*
X128724500Y-130794901D01*
X128715855Y-130824341D01*
X128709332Y-130854328D01*
X128705577Y-130859343D01*
X128704815Y-130861940D01*
X128688181Y-130882582D01*
X128607582Y-130963181D01*
X128546259Y-130996666D01*
X128519901Y-130999500D01*
X125872129Y-130999500D01*
X125872123Y-130999501D01*
X125812516Y-131005908D01*
X125677671Y-131056202D01*
X125677664Y-131056206D01*
X125562455Y-131142452D01*
X125562452Y-131142455D01*
X125476206Y-131257664D01*
X125476202Y-131257671D01*
X125425908Y-131392517D01*
X125419501Y-131452116D01*
X125419500Y-131452135D01*
X117500500Y-131452135D01*
X117500500Y-101948872D01*
X122999500Y-101948872D01*
X122999500Y-102211127D01*
X123026123Y-102413339D01*
X123033730Y-102471116D01*
X123101602Y-102724418D01*
X123101605Y-102724428D01*
X123201953Y-102966690D01*
X123201958Y-102966700D01*
X123333075Y-103193803D01*
X123492718Y-103401851D01*
X123492726Y-103401860D01*
X123678140Y-103587274D01*
X123678148Y-103587281D01*
X123886196Y-103746924D01*
X124113299Y-103878041D01*
X124113309Y-103878046D01*
X124355571Y-103978394D01*
X124355581Y-103978398D01*
X124608884Y-104046270D01*
X124868880Y-104080500D01*
X124868887Y-104080500D01*
X125131113Y-104080500D01*
X125131120Y-104080500D01*
X125391116Y-104046270D01*
X125644419Y-103978398D01*
X125821340Y-103905114D01*
X125886690Y-103878046D01*
X125886691Y-103878045D01*
X125886697Y-103878043D01*
X126113803Y-103746924D01*
X126321851Y-103587282D01*
X126321855Y-103587277D01*
X126321860Y-103587274D01*
X126507274Y-103401860D01*
X126507277Y-103401855D01*
X126507282Y-103401851D01*
X126666924Y-103193803D01*
X126798043Y-102966697D01*
X126884883Y-102757046D01*
X126928724Y-102702644D01*
X126995018Y-102680579D01*
X126999444Y-102680500D01*
X133311631Y-102680500D01*
X133311647Y-102680501D01*
X133319243Y-102680501D01*
X133477354Y-102680501D01*
X133477357Y-102680501D01*
X133630085Y-102639577D01*
X133680204Y-102610639D01*
X133767016Y-102560520D01*
X133878820Y-102448716D01*
X133878820Y-102448714D01*
X133889028Y-102438507D01*
X133889030Y-102438504D01*
X135646572Y-100680961D01*
X135707893Y-100647478D01*
X135762776Y-100647970D01*
X135767510Y-100649088D01*
X135767517Y-100649091D01*
X135827127Y-100655500D01*
X137842186Y-100655499D01*
X137909225Y-100675184D01*
X137941452Y-100705188D01*
X138017809Y-100807187D01*
X138017812Y-100807190D01*
X138132906Y-100893350D01*
X138132913Y-100893354D01*
X138267620Y-100943596D01*
X138267627Y-100943598D01*
X138327155Y-100949999D01*
X138327172Y-100950000D01*
X139600000Y-100950000D01*
X139600000Y-100053554D01*
X139599999Y-100053553D01*
X140100000Y-100053553D01*
X140100000Y-100950000D01*
X141372828Y-100950000D01*
X141372844Y-100949999D01*
X141432372Y-100943598D01*
X141432379Y-100943596D01*
X141567086Y-100893354D01*
X141567093Y-100893350D01*
X141682186Y-100807190D01*
X141758920Y-100704689D01*
X141814854Y-100662818D01*
X141858187Y-100655000D01*
X142475000Y-100655000D01*
X142975000Y-100655000D01*
X143872828Y-100655000D01*
X143872844Y-100654999D01*
X143932372Y-100648598D01*
X143932379Y-100648596D01*
X144067086Y-100598354D01*
X144067093Y-100598350D01*
X144182187Y-100512190D01*
X144182190Y-100512187D01*
X144268350Y-100397093D01*
X144268354Y-100397086D01*
X144318596Y-100262379D01*
X144318598Y-100262372D01*
X144324999Y-100202844D01*
X144325000Y-100202827D01*
X144325000Y-100155000D01*
X142975000Y-100155000D01*
X142975000Y-100655000D01*
X142475000Y-100655000D01*
X142475000Y-100155000D01*
X141052808Y-100155000D01*
X140985769Y-100135315D01*
X140965127Y-100118681D01*
X140500000Y-99653554D01*
X140100000Y-100053553D01*
X139599999Y-100053553D01*
X138813625Y-99267179D01*
X139035000Y-99267179D01*
X139035000Y-99332821D01*
X139060119Y-99393465D01*
X139106535Y-99439881D01*
X139167179Y-99465000D01*
X139232821Y-99465000D01*
X139293465Y-99439881D01*
X139339881Y-99393465D01*
X139365000Y-99332821D01*
X139365000Y-99300000D01*
X139553554Y-99300000D01*
X139600000Y-99346445D01*
X139600000Y-99346444D01*
X140100000Y-99346444D01*
X140146445Y-99300000D01*
X140113624Y-99267179D01*
X140335000Y-99267179D01*
X140335000Y-99332821D01*
X140360119Y-99393465D01*
X140406535Y-99439881D01*
X140467179Y-99465000D01*
X140532821Y-99465000D01*
X140593465Y-99439881D01*
X140639881Y-99393465D01*
X140665000Y-99332821D01*
X140665000Y-99267179D01*
X140639881Y-99206535D01*
X140593465Y-99160119D01*
X140532821Y-99135000D01*
X140467179Y-99135000D01*
X140406535Y-99160119D01*
X140360119Y-99206535D01*
X140335000Y-99267179D01*
X140113624Y-99267179D01*
X140100000Y-99253555D01*
X140100000Y-99346444D01*
X139600000Y-99346444D01*
X139600000Y-99253554D01*
X139553554Y-99300000D01*
X139365000Y-99300000D01*
X139365000Y-99267179D01*
X139339881Y-99206535D01*
X139293465Y-99160119D01*
X139232821Y-99135000D01*
X139167179Y-99135000D01*
X139106535Y-99160119D01*
X139060119Y-99206535D01*
X139035000Y-99267179D01*
X138813625Y-99267179D01*
X138431446Y-98885000D01*
X135375000Y-98885000D01*
X135375000Y-98932844D01*
X135381401Y-98992372D01*
X135381403Y-98992379D01*
X135431645Y-99127086D01*
X135431648Y-99127092D01*
X135442931Y-99142164D01*
X135467347Y-99207629D01*
X135452494Y-99275901D01*
X135403088Y-99325306D01*
X135375759Y-99336247D01*
X135341518Y-99345422D01*
X135341509Y-99345426D01*
X135204590Y-99424475D01*
X135204582Y-99424481D01*
X135092778Y-99536286D01*
X133185884Y-101443181D01*
X133124561Y-101476666D01*
X133098203Y-101479500D01*
X126999444Y-101479500D01*
X126932405Y-101459815D01*
X126886650Y-101407011D01*
X126884883Y-101402953D01*
X126870191Y-101367484D01*
X126798043Y-101193303D01*
X126798041Y-101193299D01*
X126666924Y-100966196D01*
X126507281Y-100758148D01*
X126507274Y-100758140D01*
X126321860Y-100572726D01*
X126321851Y-100572718D01*
X126113803Y-100413075D01*
X125886700Y-100281958D01*
X125886690Y-100281953D01*
X125644428Y-100181605D01*
X125644421Y-100181603D01*
X125644419Y-100181602D01*
X125391116Y-100113730D01*
X125333339Y-100106123D01*
X125131127Y-100079500D01*
X125131120Y-100079500D01*
X124868880Y-100079500D01*
X124868872Y-100079500D01*
X124637772Y-100109926D01*
X124608884Y-100113730D01*
X124454862Y-100155000D01*
X124355581Y-100181602D01*
X124355571Y-100181605D01*
X124113309Y-100281953D01*
X124113299Y-100281958D01*
X123886196Y-100413075D01*
X123678148Y-100572718D01*
X123492718Y-100758148D01*
X123333075Y-100966196D01*
X123201958Y-101193299D01*
X123201953Y-101193309D01*
X123101605Y-101435571D01*
X123101602Y-101435581D01*
X123033730Y-101688885D01*
X122999500Y-101948872D01*
X117500500Y-101948872D01*
X117500500Y-95452135D01*
X122999500Y-95452135D01*
X122999500Y-98547870D01*
X122999501Y-98547876D01*
X123005908Y-98607483D01*
X123056202Y-98742328D01*
X123056206Y-98742335D01*
X123142452Y-98857544D01*
X123142455Y-98857547D01*
X123257664Y-98943793D01*
X123257671Y-98943797D01*
X123392517Y-98994091D01*
X123392516Y-98994091D01*
X123399444Y-98994835D01*
X123452127Y-99000500D01*
X126547872Y-99000499D01*
X126607483Y-98994091D01*
X126742331Y-98943796D01*
X126857546Y-98857546D01*
X126943796Y-98742331D01*
X126978233Y-98650000D01*
X138903554Y-98650000D01*
X139200000Y-98946446D01*
X139496446Y-98650000D01*
X140203554Y-98650000D01*
X140500000Y-98946446D01*
X140796446Y-98650000D01*
X140500000Y-98353554D01*
X140203554Y-98650000D01*
X139496446Y-98650000D01*
X139200000Y-98353554D01*
X138903554Y-98650000D01*
X126978233Y-98650000D01*
X126994091Y-98607483D01*
X127000500Y-98547873D01*
X127000500Y-97724500D01*
X127020185Y-97657461D01*
X127072989Y-97611706D01*
X127124500Y-97600500D01*
X134908203Y-97600500D01*
X134937643Y-97609144D01*
X134967630Y-97615668D01*
X134972645Y-97619422D01*
X134975242Y-97620185D01*
X134995884Y-97636819D01*
X135088439Y-97729374D01*
X135088449Y-97729385D01*
X135092779Y-97733715D01*
X135092780Y-97733716D01*
X135204584Y-97845520D01*
X135272100Y-97884500D01*
X135341515Y-97924577D01*
X135386002Y-97936497D01*
X135395622Y-97940937D01*
X135414271Y-97957227D01*
X135435416Y-97970115D01*
X135440126Y-97979811D01*
X135448244Y-97986902D01*
X135455125Y-98010687D01*
X135465946Y-98032962D01*
X135464666Y-98043664D01*
X135467662Y-98054019D01*
X135460591Y-98077749D01*
X135457652Y-98102337D01*
X135448587Y-98118038D01*
X135447711Y-98120980D01*
X135446079Y-98122382D01*
X135442933Y-98127833D01*
X135431648Y-98142908D01*
X135431645Y-98142913D01*
X135381403Y-98277620D01*
X135381401Y-98277627D01*
X135375000Y-98337155D01*
X135375000Y-98385000D01*
X138461446Y-98385000D01*
X138461446Y-98384999D01*
X138846446Y-98000000D01*
X138813625Y-97967179D01*
X139035000Y-97967179D01*
X139035000Y-98032821D01*
X139060119Y-98093465D01*
X139106535Y-98139881D01*
X139167179Y-98165000D01*
X139232821Y-98165000D01*
X139293465Y-98139881D01*
X139339881Y-98093465D01*
X139365000Y-98032821D01*
X139365000Y-98000000D01*
X139553554Y-98000000D01*
X139600000Y-98046445D01*
X139600000Y-98046444D01*
X140100000Y-98046444D01*
X140146445Y-98000000D01*
X140113624Y-97967179D01*
X140335000Y-97967179D01*
X140335000Y-98032821D01*
X140360119Y-98093465D01*
X140406535Y-98139881D01*
X140467179Y-98165000D01*
X140532821Y-98165000D01*
X140593465Y-98139881D01*
X140639881Y-98093465D01*
X140665000Y-98032821D01*
X140665000Y-97967179D01*
X140639881Y-97906535D01*
X140593465Y-97860119D01*
X140532821Y-97835000D01*
X140467179Y-97835000D01*
X140406535Y-97860119D01*
X140360119Y-97906535D01*
X140335000Y-97967179D01*
X140113624Y-97967179D01*
X140100000Y-97953555D01*
X140100000Y-98046444D01*
X139600000Y-98046444D01*
X139600000Y-97953554D01*
X139553554Y-98000000D01*
X139365000Y-98000000D01*
X139365000Y-97967179D01*
X139339881Y-97906535D01*
X139293465Y-97860119D01*
X139232821Y-97835000D01*
X139167179Y-97835000D01*
X139106535Y-97860119D01*
X139060119Y-97906535D01*
X139035000Y-97967179D01*
X138813625Y-97967179D01*
X138611025Y-97764579D01*
X138577540Y-97703256D01*
X138575554Y-97666194D01*
X138575500Y-97666194D01*
X138575499Y-97666188D01*
X138575322Y-97666179D01*
X138575437Y-97664023D01*
X138575417Y-97663642D01*
X138575500Y-97662873D01*
X138575499Y-97350000D01*
X138903554Y-97350000D01*
X139200000Y-97646446D01*
X139496446Y-97350000D01*
X140203554Y-97350000D01*
X140500000Y-97646446D01*
X140796446Y-97350000D01*
X140500000Y-97053554D01*
X140203554Y-97350000D01*
X139496446Y-97350000D01*
X139200000Y-97053554D01*
X138903554Y-97350000D01*
X138575499Y-97350000D01*
X138575499Y-97067128D01*
X138572504Y-97039266D01*
X138584911Y-96970507D01*
X138608113Y-96938332D01*
X138879267Y-96667179D01*
X139035000Y-96667179D01*
X139035000Y-96732821D01*
X139060119Y-96793465D01*
X139106535Y-96839881D01*
X139167179Y-96865000D01*
X139232821Y-96865000D01*
X139293465Y-96839881D01*
X139339881Y-96793465D01*
X139365000Y-96732821D01*
X139365000Y-96700000D01*
X139553554Y-96700000D01*
X139600000Y-96746445D01*
X139600000Y-96746444D01*
X140100000Y-96746444D01*
X140146445Y-96700000D01*
X140113624Y-96667179D01*
X140335000Y-96667179D01*
X140335000Y-96732821D01*
X140360119Y-96793465D01*
X140406535Y-96839881D01*
X140467179Y-96865000D01*
X140532821Y-96865000D01*
X140593465Y-96839881D01*
X140639881Y-96793465D01*
X140665000Y-96732821D01*
X140665000Y-96667179D01*
X140639881Y-96606535D01*
X140593465Y-96560119D01*
X140532821Y-96535000D01*
X140467179Y-96535000D01*
X140406535Y-96560119D01*
X140360119Y-96606535D01*
X140335000Y-96667179D01*
X140113624Y-96667179D01*
X140100000Y-96653555D01*
X140100000Y-96746444D01*
X139600000Y-96746444D01*
X139600000Y-96653554D01*
X139553554Y-96700000D01*
X139365000Y-96700000D01*
X139365000Y-96667179D01*
X139339881Y-96606535D01*
X139293465Y-96560119D01*
X139232821Y-96535000D01*
X139167179Y-96535000D01*
X139106535Y-96560119D01*
X139060119Y-96606535D01*
X139035000Y-96667179D01*
X138879267Y-96667179D01*
X138985489Y-96560957D01*
X139023223Y-96523223D01*
X139599999Y-95946446D01*
X140100000Y-95946446D01*
X141091887Y-96938333D01*
X141125372Y-96999656D01*
X141127495Y-97039263D01*
X141124500Y-97067127D01*
X141124500Y-97067134D01*
X141124500Y-97067135D01*
X141124500Y-97662870D01*
X141124502Y-97662901D01*
X141124585Y-97663669D01*
X141124553Y-97663845D01*
X141124679Y-97666195D01*
X141124123Y-97666224D01*
X141112165Y-97732426D01*
X141088975Y-97764578D01*
X140853554Y-98000000D01*
X141088974Y-98235420D01*
X141122459Y-98296743D01*
X141124450Y-98333806D01*
X141124500Y-98333806D01*
X141124500Y-98333811D01*
X141124678Y-98333821D01*
X141124564Y-98335941D01*
X141124585Y-98336329D01*
X141124501Y-98337105D01*
X141124500Y-98337136D01*
X141124500Y-98932870D01*
X141124501Y-98932884D01*
X141127495Y-98960735D01*
X141115087Y-99029494D01*
X141091887Y-99061666D01*
X140853554Y-99300000D01*
X141208554Y-99655000D01*
X144325000Y-99655000D01*
X144325000Y-99607172D01*
X144324999Y-99607155D01*
X144318598Y-99547627D01*
X144318596Y-99547620D01*
X144265254Y-99404601D01*
X144268273Y-99403474D01*
X144256788Y-99350632D01*
X144281217Y-99285172D01*
X144337158Y-99243311D01*
X144380471Y-99235500D01*
X191088731Y-99235500D01*
X191088747Y-99235501D01*
X191096343Y-99235501D01*
X191254454Y-99235501D01*
X191254457Y-99235501D01*
X191407185Y-99194577D01*
X191407187Y-99194575D01*
X191407190Y-99194575D01*
X191414697Y-99191466D01*
X191415619Y-99193693D01*
X191471603Y-99180104D01*
X191489912Y-99182346D01*
X191505232Y-99185394D01*
X191523358Y-99189000D01*
X191523359Y-99189000D01*
X191720443Y-99189000D01*
X191893882Y-99154500D01*
X191913735Y-99150551D01*
X192095814Y-99075132D01*
X192259682Y-98965639D01*
X192399039Y-98826282D01*
X192508532Y-98662414D01*
X192583951Y-98480335D01*
X192612432Y-98337155D01*
X192622400Y-98287043D01*
X192622400Y-98089500D01*
X192642085Y-98022461D01*
X192694889Y-97976706D01*
X192746400Y-97965500D01*
X193635689Y-97965500D01*
X193702728Y-97985185D01*
X193738791Y-98020610D01*
X193777657Y-98078777D01*
X193777663Y-98078785D01*
X193917014Y-98218136D01*
X193917018Y-98218139D01*
X194080879Y-98327628D01*
X194080892Y-98327635D01*
X194262960Y-98403049D01*
X194262965Y-98403051D01*
X194262969Y-98403051D01*
X194262970Y-98403052D01*
X194456256Y-98441500D01*
X194456259Y-98441500D01*
X194653343Y-98441500D01*
X194783382Y-98415632D01*
X194846635Y-98403051D01*
X195005844Y-98337105D01*
X195028707Y-98327635D01*
X195028707Y-98327634D01*
X195028714Y-98327632D01*
X195192582Y-98218139D01*
X195331939Y-98078782D01*
X195441432Y-97914914D01*
X195516851Y-97732835D01*
X195530609Y-97663669D01*
X195555300Y-97539543D01*
X195555300Y-97342456D01*
X195516852Y-97149170D01*
X195516851Y-97149169D01*
X195516851Y-97149165D01*
X195516849Y-97149160D01*
X195441435Y-96967092D01*
X195441428Y-96967079D01*
X195331939Y-96803218D01*
X195331936Y-96803214D01*
X195192585Y-96663863D01*
X195192581Y-96663860D01*
X195028720Y-96554371D01*
X195028707Y-96554364D01*
X194846639Y-96478950D01*
X194846629Y-96478947D01*
X194653343Y-96440500D01*
X194653341Y-96440500D01*
X194456259Y-96440500D01*
X194456257Y-96440500D01*
X194262970Y-96478947D01*
X194262960Y-96478950D01*
X194080892Y-96554364D01*
X194080879Y-96554371D01*
X193917019Y-96663859D01*
X193888868Y-96692011D01*
X193852696Y-96728182D01*
X193791376Y-96761666D01*
X193765017Y-96764500D01*
X144381046Y-96764500D01*
X144314007Y-96744815D01*
X144268252Y-96692011D01*
X144258308Y-96622853D01*
X144267179Y-96596193D01*
X144265697Y-96595641D01*
X144288314Y-96535000D01*
X144319091Y-96452483D01*
X144325500Y-96392873D01*
X144325499Y-95797128D01*
X144319091Y-95737517D01*
X144268796Y-95602669D01*
X144268795Y-95602668D01*
X144268793Y-95602664D01*
X144182547Y-95487455D01*
X144182544Y-95487452D01*
X144067335Y-95401206D01*
X144067328Y-95401202D01*
X143932482Y-95350908D01*
X143932483Y-95350908D01*
X143872883Y-95344501D01*
X143872881Y-95344500D01*
X143872873Y-95344500D01*
X143872865Y-95344500D01*
X141857813Y-95344500D01*
X141790774Y-95324815D01*
X141758547Y-95294811D01*
X141682190Y-95192812D01*
X141682187Y-95192809D01*
X141567093Y-95106649D01*
X141567086Y-95106645D01*
X141432379Y-95056403D01*
X141432372Y-95056401D01*
X141372844Y-95050000D01*
X140100000Y-95050000D01*
X140100000Y-95946446D01*
X139599999Y-95946446D01*
X139600000Y-95946445D01*
X139600000Y-95050000D01*
X138327155Y-95050000D01*
X138267627Y-95056401D01*
X138267620Y-95056403D01*
X138132913Y-95106645D01*
X138132906Y-95106649D01*
X138017812Y-95192809D01*
X138017809Y-95192812D01*
X137941453Y-95294811D01*
X137885520Y-95336682D01*
X137842187Y-95344500D01*
X136747914Y-95344500D01*
X136680875Y-95324815D01*
X136635120Y-95272011D01*
X136625176Y-95202853D01*
X136626297Y-95196308D01*
X136647300Y-95090720D01*
X136647300Y-94714610D01*
X136666985Y-94647571D01*
X136672028Y-94640641D01*
X136673936Y-94637784D01*
X136673939Y-94637782D01*
X136783432Y-94473914D01*
X136858851Y-94291835D01*
X136897300Y-94098541D01*
X136897300Y-93901459D01*
X136897300Y-93901456D01*
X136858852Y-93708170D01*
X136858851Y-93708169D01*
X136858851Y-93708165D01*
X136858849Y-93708160D01*
X136783435Y-93526092D01*
X136783428Y-93526079D01*
X136673939Y-93362218D01*
X136673936Y-93362214D01*
X136534585Y-93222863D01*
X136534581Y-93222860D01*
X136370720Y-93113371D01*
X136370707Y-93113364D01*
X136188639Y-93037950D01*
X136188629Y-93037947D01*
X135995343Y-92999500D01*
X135995341Y-92999500D01*
X135798259Y-92999500D01*
X135798257Y-92999500D01*
X135604970Y-93037947D01*
X135604960Y-93037950D01*
X135422892Y-93113364D01*
X135422879Y-93113371D01*
X135259018Y-93222860D01*
X135259014Y-93222863D01*
X135119663Y-93362214D01*
X135119660Y-93362218D01*
X135010171Y-93526079D01*
X135010164Y-93526092D01*
X134934750Y-93708160D01*
X134934747Y-93708170D01*
X134896300Y-93901456D01*
X134896300Y-93901459D01*
X134896300Y-94098541D01*
X134896300Y-94098543D01*
X134896299Y-94098543D01*
X134934747Y-94291829D01*
X134934750Y-94291839D01*
X135010164Y-94473907D01*
X135010171Y-94473920D01*
X135101090Y-94609990D01*
X135121968Y-94676668D01*
X135103483Y-94744048D01*
X135085669Y-94766562D01*
X134990350Y-94861880D01*
X134990344Y-94861888D01*
X134941112Y-94935568D01*
X134941113Y-94935569D01*
X134908221Y-94984796D01*
X134908214Y-94984808D01*
X134851642Y-95121386D01*
X134851640Y-95121392D01*
X134822800Y-95266379D01*
X134822800Y-96168922D01*
X134839188Y-96251309D01*
X134832961Y-96320900D01*
X134790098Y-96376078D01*
X134724208Y-96399322D01*
X134717571Y-96399500D01*
X127124499Y-96399500D01*
X127057460Y-96379815D01*
X127011705Y-96327011D01*
X127000499Y-96275500D01*
X127000499Y-95452129D01*
X127000498Y-95452123D01*
X127000497Y-95452116D01*
X126994091Y-95392517D01*
X126978572Y-95350909D01*
X126943797Y-95257671D01*
X126943793Y-95257664D01*
X126857547Y-95142455D01*
X126857544Y-95142452D01*
X126742335Y-95056206D01*
X126742328Y-95056202D01*
X126607482Y-95005908D01*
X126607483Y-95005908D01*
X126547883Y-94999501D01*
X126547881Y-94999500D01*
X126547873Y-94999500D01*
X126547864Y-94999500D01*
X123452129Y-94999500D01*
X123452123Y-94999501D01*
X123392516Y-95005908D01*
X123257671Y-95056202D01*
X123257664Y-95056206D01*
X123142455Y-95142452D01*
X123142452Y-95142455D01*
X123056206Y-95257664D01*
X123056202Y-95257671D01*
X123005908Y-95392517D01*
X122999501Y-95452116D01*
X122999501Y-95452123D01*
X122999500Y-95452135D01*
X117500500Y-95452135D01*
X117500500Y-85908872D01*
X122999500Y-85908872D01*
X122999500Y-86171127D01*
X123026123Y-86373339D01*
X123033730Y-86431116D01*
X123101602Y-86684418D01*
X123101605Y-86684428D01*
X123201953Y-86926690D01*
X123201958Y-86926700D01*
X123333075Y-87153803D01*
X123492718Y-87361851D01*
X123492726Y-87361860D01*
X123678140Y-87547274D01*
X123678148Y-87547281D01*
X123886196Y-87706924D01*
X124113299Y-87838041D01*
X124113309Y-87838046D01*
X124355571Y-87938394D01*
X124355581Y-87938398D01*
X124608884Y-88006270D01*
X124868880Y-88040500D01*
X124868887Y-88040500D01*
X125131113Y-88040500D01*
X125131120Y-88040500D01*
X125391116Y-88006270D01*
X125644419Y-87938398D01*
X125886697Y-87838043D01*
X126113803Y-87706924D01*
X126321851Y-87547282D01*
X126321855Y-87547277D01*
X126321860Y-87547274D01*
X126507274Y-87361860D01*
X126507277Y-87361855D01*
X126507282Y-87361851D01*
X126666924Y-87153803D01*
X126669930Y-87148596D01*
X126716751Y-87067500D01*
X126767318Y-87019285D01*
X126824138Y-87005500D01*
X135766769Y-87005500D01*
X135833808Y-87025185D01*
X135841080Y-87030233D01*
X135890863Y-87067500D01*
X135932073Y-87098350D01*
X135932668Y-87098795D01*
X135932671Y-87098797D01*
X136067517Y-87149091D01*
X136067516Y-87149091D01*
X136074444Y-87149835D01*
X136127127Y-87155500D01*
X138142186Y-87155499D01*
X138209225Y-87175184D01*
X138241452Y-87205188D01*
X138317809Y-87307187D01*
X138317812Y-87307190D01*
X138432906Y-87393350D01*
X138432913Y-87393354D01*
X138567620Y-87443596D01*
X138567627Y-87443598D01*
X138627155Y-87449999D01*
X138627172Y-87450000D01*
X139900000Y-87450000D01*
X139900000Y-86553554D01*
X139899999Y-86553553D01*
X140400000Y-86553553D01*
X140400000Y-87450000D01*
X141672828Y-87450000D01*
X141672844Y-87449999D01*
X141732372Y-87443598D01*
X141732379Y-87443596D01*
X141867086Y-87393354D01*
X141867093Y-87393350D01*
X141982186Y-87307190D01*
X142058920Y-87204689D01*
X142114854Y-87162818D01*
X142158187Y-87155000D01*
X142775000Y-87155000D01*
X143275000Y-87155000D01*
X144172828Y-87155000D01*
X144172844Y-87154999D01*
X144232372Y-87148598D01*
X144232379Y-87148596D01*
X144367086Y-87098354D01*
X144367093Y-87098350D01*
X144482187Y-87012190D01*
X144482190Y-87012187D01*
X144568350Y-86897093D01*
X144568354Y-86897086D01*
X144618596Y-86762379D01*
X144618598Y-86762372D01*
X144624999Y-86702844D01*
X144625000Y-86702827D01*
X144625000Y-86655000D01*
X143275000Y-86655000D01*
X143275000Y-87155000D01*
X142775000Y-87155000D01*
X142775000Y-86655000D01*
X141352808Y-86655000D01*
X141285769Y-86635315D01*
X141265127Y-86618681D01*
X140800000Y-86153554D01*
X140400000Y-86553553D01*
X139899999Y-86553553D01*
X139113625Y-85767179D01*
X139335000Y-85767179D01*
X139335000Y-85832821D01*
X139360119Y-85893465D01*
X139406535Y-85939881D01*
X139467179Y-85965000D01*
X139532821Y-85965000D01*
X139593465Y-85939881D01*
X139639881Y-85893465D01*
X139665000Y-85832821D01*
X139665000Y-85800000D01*
X139853554Y-85800000D01*
X139900000Y-85846445D01*
X139900000Y-85846444D01*
X140400000Y-85846444D01*
X140446445Y-85800000D01*
X140413624Y-85767179D01*
X140635000Y-85767179D01*
X140635000Y-85832821D01*
X140660119Y-85893465D01*
X140706535Y-85939881D01*
X140767179Y-85965000D01*
X140832821Y-85965000D01*
X140893465Y-85939881D01*
X140939881Y-85893465D01*
X140965000Y-85832821D01*
X140965000Y-85767179D01*
X140939881Y-85706535D01*
X140893465Y-85660119D01*
X140832821Y-85635000D01*
X140767179Y-85635000D01*
X140706535Y-85660119D01*
X140660119Y-85706535D01*
X140635000Y-85767179D01*
X140413624Y-85767179D01*
X140400000Y-85753555D01*
X140400000Y-85846444D01*
X139900000Y-85846444D01*
X139900000Y-85753554D01*
X139853554Y-85800000D01*
X139665000Y-85800000D01*
X139665000Y-85767179D01*
X139639881Y-85706535D01*
X139593465Y-85660119D01*
X139532821Y-85635000D01*
X139467179Y-85635000D01*
X139406535Y-85660119D01*
X139360119Y-85706535D01*
X139335000Y-85767179D01*
X139113625Y-85767179D01*
X138731446Y-85385000D01*
X135675000Y-85385000D01*
X135675000Y-85432844D01*
X135681401Y-85492372D01*
X135681403Y-85492379D01*
X135734746Y-85635399D01*
X135731726Y-85636525D01*
X135743212Y-85689368D01*
X135718783Y-85754828D01*
X135662842Y-85796689D01*
X135619529Y-85804500D01*
X127095502Y-85804500D01*
X127028463Y-85784815D01*
X126982708Y-85732011D01*
X126972563Y-85696685D01*
X126972285Y-85694577D01*
X126966270Y-85648884D01*
X126898398Y-85395581D01*
X126798043Y-85153303D01*
X126796136Y-85150000D01*
X139203554Y-85150000D01*
X139500000Y-85446446D01*
X139796446Y-85150000D01*
X140503554Y-85150000D01*
X140800000Y-85446446D01*
X141096446Y-85150000D01*
X140800000Y-84853554D01*
X140503554Y-85150000D01*
X139796446Y-85150000D01*
X139500000Y-84853554D01*
X139203554Y-85150000D01*
X126796136Y-85150000D01*
X126721081Y-85020000D01*
X126666924Y-84926196D01*
X126544377Y-84766492D01*
X126507282Y-84718149D01*
X126507281Y-84718148D01*
X126507274Y-84718140D01*
X126321860Y-84532726D01*
X126321851Y-84532718D01*
X126113803Y-84373075D01*
X125886700Y-84241958D01*
X125886690Y-84241953D01*
X125644428Y-84141605D01*
X125644421Y-84141603D01*
X125644419Y-84141602D01*
X125391116Y-84073730D01*
X125333339Y-84066123D01*
X125131127Y-84039500D01*
X125131120Y-84039500D01*
X124868880Y-84039500D01*
X124868872Y-84039500D01*
X124637772Y-84069926D01*
X124608884Y-84073730D01*
X124479848Y-84108305D01*
X124355581Y-84141602D01*
X124355571Y-84141605D01*
X124113309Y-84241953D01*
X124113299Y-84241958D01*
X123886196Y-84373075D01*
X123678148Y-84532718D01*
X123492718Y-84718148D01*
X123333075Y-84926196D01*
X123201958Y-85153299D01*
X123201953Y-85153309D01*
X123101605Y-85395571D01*
X123101602Y-85395581D01*
X123033730Y-85648884D01*
X123030978Y-85669786D01*
X122999500Y-85908872D01*
X117500500Y-85908872D01*
X117500500Y-79412135D01*
X122999500Y-79412135D01*
X122999500Y-82507870D01*
X122999501Y-82507876D01*
X123005908Y-82567483D01*
X123056202Y-82702328D01*
X123056206Y-82702335D01*
X123142452Y-82817544D01*
X123142455Y-82817547D01*
X123257664Y-82903793D01*
X123257671Y-82903797D01*
X123392517Y-82954091D01*
X123392516Y-82954091D01*
X123399444Y-82954835D01*
X123452127Y-82960500D01*
X126547872Y-82960499D01*
X126607483Y-82954091D01*
X126742331Y-82903796D01*
X126857546Y-82817546D01*
X126943796Y-82702331D01*
X126994091Y-82567483D01*
X127000500Y-82507873D01*
X127000499Y-82307394D01*
X127020183Y-82240357D01*
X127072987Y-82194602D01*
X127142145Y-82184658D01*
X127205701Y-82213683D01*
X127212180Y-82219715D01*
X129221839Y-84229374D01*
X129221849Y-84229385D01*
X129226179Y-84233715D01*
X129226180Y-84233716D01*
X129337984Y-84345520D01*
X129337986Y-84345521D01*
X129337990Y-84345524D01*
X129427083Y-84396961D01*
X129474916Y-84424577D01*
X129586719Y-84454534D01*
X129627642Y-84465500D01*
X129627643Y-84465500D01*
X135619529Y-84465500D01*
X135686568Y-84485185D01*
X135732323Y-84537989D01*
X135742267Y-84607147D01*
X135733310Y-84634065D01*
X135734746Y-84634601D01*
X135681403Y-84777620D01*
X135681401Y-84777627D01*
X135675000Y-84837155D01*
X135675000Y-84885000D01*
X138761446Y-84885000D01*
X138761446Y-84884999D01*
X139146446Y-84500000D01*
X139113625Y-84467179D01*
X139335000Y-84467179D01*
X139335000Y-84532821D01*
X139360119Y-84593465D01*
X139406535Y-84639881D01*
X139467179Y-84665000D01*
X139532821Y-84665000D01*
X139593465Y-84639881D01*
X139639881Y-84593465D01*
X139665000Y-84532821D01*
X139665000Y-84500000D01*
X139853554Y-84500000D01*
X139900000Y-84546445D01*
X139900000Y-84546444D01*
X140400000Y-84546444D01*
X140446445Y-84500000D01*
X140413624Y-84467179D01*
X140635000Y-84467179D01*
X140635000Y-84532821D01*
X140660119Y-84593465D01*
X140706535Y-84639881D01*
X140767179Y-84665000D01*
X140832821Y-84665000D01*
X140893465Y-84639881D01*
X140939881Y-84593465D01*
X140965000Y-84532821D01*
X140965000Y-84467179D01*
X140939881Y-84406535D01*
X140893465Y-84360119D01*
X140832821Y-84335000D01*
X140767179Y-84335000D01*
X140706535Y-84360119D01*
X140660119Y-84406535D01*
X140635000Y-84467179D01*
X140413624Y-84467179D01*
X140400000Y-84453555D01*
X140400000Y-84546444D01*
X139900000Y-84546444D01*
X139900000Y-84453554D01*
X139853554Y-84500000D01*
X139665000Y-84500000D01*
X139665000Y-84467179D01*
X139639881Y-84406535D01*
X139593465Y-84360119D01*
X139532821Y-84335000D01*
X139467179Y-84335000D01*
X139406535Y-84360119D01*
X139360119Y-84406535D01*
X139335000Y-84467179D01*
X139113625Y-84467179D01*
X138911025Y-84264579D01*
X138877540Y-84203256D01*
X138875554Y-84166194D01*
X138875500Y-84166194D01*
X138875499Y-84166188D01*
X138875322Y-84166179D01*
X138875437Y-84164023D01*
X138875417Y-84163642D01*
X138875500Y-84162873D01*
X138875499Y-83850000D01*
X139203554Y-83850000D01*
X139500000Y-84146446D01*
X139796446Y-83850000D01*
X140503554Y-83850000D01*
X140800000Y-84146446D01*
X141096446Y-83850000D01*
X140800000Y-83553554D01*
X140503554Y-83850000D01*
X139796446Y-83850000D01*
X139500000Y-83553554D01*
X139203554Y-83850000D01*
X138875499Y-83850000D01*
X138875499Y-83567128D01*
X138872504Y-83539266D01*
X138884911Y-83470507D01*
X138908113Y-83438332D01*
X139179267Y-83167179D01*
X139335000Y-83167179D01*
X139335000Y-83232821D01*
X139360119Y-83293465D01*
X139406535Y-83339881D01*
X139467179Y-83365000D01*
X139532821Y-83365000D01*
X139593465Y-83339881D01*
X139639881Y-83293465D01*
X139665000Y-83232821D01*
X139665000Y-83200000D01*
X139853554Y-83200000D01*
X139900000Y-83246445D01*
X139900000Y-83246444D01*
X140400000Y-83246444D01*
X140446445Y-83200000D01*
X140413624Y-83167179D01*
X140635000Y-83167179D01*
X140635000Y-83232821D01*
X140660119Y-83293465D01*
X140706535Y-83339881D01*
X140767179Y-83365000D01*
X140832821Y-83365000D01*
X140893465Y-83339881D01*
X140939881Y-83293465D01*
X140965000Y-83232821D01*
X140965000Y-83167179D01*
X140939881Y-83106535D01*
X140893465Y-83060119D01*
X140832821Y-83035000D01*
X140767179Y-83035000D01*
X140706535Y-83060119D01*
X140660119Y-83106535D01*
X140635000Y-83167179D01*
X140413624Y-83167179D01*
X140400000Y-83153555D01*
X140400000Y-83246444D01*
X139900000Y-83246444D01*
X139900000Y-83153554D01*
X139853554Y-83200000D01*
X139665000Y-83200000D01*
X139665000Y-83167179D01*
X139639881Y-83106535D01*
X139593465Y-83060119D01*
X139532821Y-83035000D01*
X139467179Y-83035000D01*
X139406535Y-83060119D01*
X139360119Y-83106535D01*
X139335000Y-83167179D01*
X139179267Y-83167179D01*
X139285489Y-83060957D01*
X139323223Y-83023223D01*
X139899999Y-82446446D01*
X139900000Y-82446445D01*
X139900000Y-81550000D01*
X138627155Y-81550000D01*
X138567627Y-81556401D01*
X138567620Y-81556403D01*
X138432913Y-81606645D01*
X138432906Y-81606649D01*
X138317812Y-81692809D01*
X138317809Y-81692812D01*
X138241453Y-81794811D01*
X138185520Y-81836682D01*
X138142187Y-81844500D01*
X136216791Y-81844500D01*
X136198646Y-81839172D01*
X136179740Y-81838835D01*
X136151521Y-81825334D01*
X136149752Y-81824815D01*
X136147902Y-81823603D01*
X136112156Y-81799719D01*
X136112155Y-81799718D01*
X136071294Y-81772415D01*
X136062058Y-81768590D01*
X136021833Y-81741712D01*
X135940482Y-81660361D01*
X135940481Y-81660360D01*
X135940480Y-81660359D01*
X135776620Y-81550871D01*
X135776607Y-81550864D01*
X135594539Y-81475450D01*
X135594529Y-81475447D01*
X135401243Y-81437000D01*
X135401241Y-81437000D01*
X135204159Y-81437000D01*
X135204157Y-81437000D01*
X135010870Y-81475447D01*
X135010860Y-81475450D01*
X134828792Y-81550864D01*
X134828779Y-81550871D01*
X134664918Y-81660360D01*
X134664914Y-81660363D01*
X134525563Y-81799714D01*
X134525560Y-81799718D01*
X134416071Y-81963579D01*
X134416064Y-81963592D01*
X134340650Y-82145660D01*
X134340647Y-82145670D01*
X134302200Y-82338956D01*
X134302200Y-82338959D01*
X134302200Y-82536041D01*
X134302200Y-82536043D01*
X134302199Y-82536043D01*
X134340647Y-82729329D01*
X134340650Y-82729339D01*
X134416064Y-82911407D01*
X134416071Y-82911420D01*
X134523106Y-83071609D01*
X134543984Y-83138287D01*
X134525499Y-83205667D01*
X134473520Y-83252357D01*
X134420004Y-83264500D01*
X130006797Y-83264500D01*
X129939758Y-83244815D01*
X129919116Y-83228181D01*
X127289290Y-80598355D01*
X127289288Y-80598352D01*
X127170417Y-80479481D01*
X127170416Y-80479480D01*
X127083604Y-80429360D01*
X127083604Y-80429359D01*
X127083599Y-80429357D01*
X127072047Y-80422687D01*
X127062495Y-80417172D01*
X127014281Y-80366602D01*
X127000499Y-80309787D01*
X127000499Y-79412129D01*
X127000498Y-79412123D01*
X127000497Y-79412116D01*
X126994091Y-79352517D01*
X126943796Y-79217669D01*
X126943795Y-79217668D01*
X126943793Y-79217664D01*
X126857547Y-79102455D01*
X126857544Y-79102452D01*
X126742335Y-79016206D01*
X126742328Y-79016202D01*
X126607482Y-78965908D01*
X126607483Y-78965908D01*
X126547883Y-78959501D01*
X126547881Y-78959500D01*
X126547873Y-78959500D01*
X126547864Y-78959500D01*
X123452129Y-78959500D01*
X123452123Y-78959501D01*
X123392516Y-78965908D01*
X123257671Y-79016202D01*
X123257664Y-79016206D01*
X123142455Y-79102452D01*
X123142452Y-79102455D01*
X123056206Y-79217664D01*
X123056202Y-79217671D01*
X123005908Y-79352517D01*
X123003806Y-79372074D01*
X122999501Y-79412123D01*
X122999500Y-79412135D01*
X117500500Y-79412135D01*
X117500500Y-70448872D01*
X122999500Y-70448872D01*
X122999500Y-70711127D01*
X123018252Y-70853553D01*
X123033730Y-70971116D01*
X123094278Y-71197086D01*
X123101602Y-71224418D01*
X123101605Y-71224428D01*
X123201953Y-71466690D01*
X123201958Y-71466700D01*
X123333075Y-71693803D01*
X123492718Y-71901851D01*
X123492726Y-71901860D01*
X123678140Y-72087274D01*
X123678148Y-72087281D01*
X123886196Y-72246924D01*
X124113299Y-72378041D01*
X124113309Y-72378046D01*
X124355571Y-72478394D01*
X124355581Y-72478398D01*
X124608884Y-72546270D01*
X124868880Y-72580500D01*
X124868887Y-72580500D01*
X125131113Y-72580500D01*
X125131120Y-72580500D01*
X125391116Y-72546270D01*
X125644419Y-72478398D01*
X125886697Y-72378043D01*
X126113803Y-72246924D01*
X126321851Y-72087282D01*
X126321855Y-72087277D01*
X126321860Y-72087274D01*
X126507274Y-71901860D01*
X126507277Y-71901855D01*
X126507282Y-71901851D01*
X126666924Y-71693803D01*
X126798043Y-71466697D01*
X126802888Y-71455000D01*
X126833106Y-71382048D01*
X126876947Y-71327644D01*
X126943241Y-71305579D01*
X126947667Y-71305500D01*
X133266769Y-71305500D01*
X133333808Y-71325185D01*
X133341080Y-71330233D01*
X133404497Y-71377706D01*
X133432073Y-71398350D01*
X133432668Y-71398795D01*
X133432671Y-71398797D01*
X133567517Y-71449091D01*
X133567516Y-71449091D01*
X133574444Y-71449835D01*
X133627127Y-71455500D01*
X135642186Y-71455499D01*
X135709225Y-71475184D01*
X135741452Y-71505188D01*
X135817809Y-71607187D01*
X135817812Y-71607190D01*
X135932906Y-71693350D01*
X135932913Y-71693354D01*
X136067620Y-71743596D01*
X136067627Y-71743598D01*
X136127155Y-71749999D01*
X136127172Y-71750000D01*
X137400000Y-71750000D01*
X137400000Y-70853554D01*
X137399999Y-70853553D01*
X137900000Y-70853553D01*
X137900000Y-71750000D01*
X139172828Y-71750000D01*
X139172844Y-71749999D01*
X139232372Y-71743598D01*
X139232379Y-71743596D01*
X139367086Y-71693354D01*
X139367093Y-71693350D01*
X139482186Y-71607190D01*
X139558920Y-71504689D01*
X139614854Y-71462818D01*
X139658187Y-71455000D01*
X140275000Y-71455000D01*
X140775000Y-71455000D01*
X141672828Y-71455000D01*
X141672844Y-71454999D01*
X141732372Y-71448598D01*
X141732379Y-71448596D01*
X141867086Y-71398354D01*
X141867093Y-71398350D01*
X141982187Y-71312190D01*
X141982190Y-71312187D01*
X142068350Y-71197093D01*
X142068354Y-71197086D01*
X142118596Y-71062379D01*
X142118598Y-71062372D01*
X142124999Y-71002844D01*
X142125000Y-71002827D01*
X142125000Y-70955000D01*
X140775000Y-70955000D01*
X140775000Y-71455000D01*
X140275000Y-71455000D01*
X140275000Y-70955000D01*
X138852808Y-70955000D01*
X138785769Y-70935315D01*
X138765127Y-70918681D01*
X138300000Y-70453554D01*
X137900000Y-70853553D01*
X137399999Y-70853553D01*
X136613625Y-70067179D01*
X136835000Y-70067179D01*
X136835000Y-70132821D01*
X136860119Y-70193465D01*
X136906535Y-70239881D01*
X136967179Y-70265000D01*
X137032821Y-70265000D01*
X137093465Y-70239881D01*
X137139881Y-70193465D01*
X137165000Y-70132821D01*
X137165000Y-70100000D01*
X137353554Y-70100000D01*
X137400000Y-70146445D01*
X137400000Y-70146444D01*
X137900000Y-70146444D01*
X137946445Y-70100000D01*
X137913624Y-70067179D01*
X138135000Y-70067179D01*
X138135000Y-70132821D01*
X138160119Y-70193465D01*
X138206535Y-70239881D01*
X138267179Y-70265000D01*
X138332821Y-70265000D01*
X138393465Y-70239881D01*
X138439881Y-70193465D01*
X138465000Y-70132821D01*
X138465000Y-70067179D01*
X138439881Y-70006535D01*
X138393465Y-69960119D01*
X138332821Y-69935000D01*
X138267179Y-69935000D01*
X138206535Y-69960119D01*
X138160119Y-70006535D01*
X138135000Y-70067179D01*
X137913624Y-70067179D01*
X137900000Y-70053555D01*
X137900000Y-70146444D01*
X137400000Y-70146444D01*
X137400000Y-70053554D01*
X137353554Y-70100000D01*
X137165000Y-70100000D01*
X137165000Y-70067179D01*
X137139881Y-70006535D01*
X137093465Y-69960119D01*
X137032821Y-69935000D01*
X136967179Y-69935000D01*
X136906535Y-69960119D01*
X136860119Y-70006535D01*
X136835000Y-70067179D01*
X136613625Y-70067179D01*
X136231446Y-69685000D01*
X133175000Y-69685000D01*
X133175000Y-69732844D01*
X133181401Y-69792372D01*
X133181403Y-69792379D01*
X133234746Y-69935399D01*
X133231726Y-69936525D01*
X133243212Y-69989368D01*
X133218783Y-70054828D01*
X133162842Y-70096689D01*
X133119529Y-70104500D01*
X127038808Y-70104500D01*
X126971769Y-70084815D01*
X126926014Y-70032011D01*
X126919033Y-70012594D01*
X126918661Y-70011204D01*
X126898398Y-69935581D01*
X126894981Y-69927331D01*
X126798046Y-69693309D01*
X126798041Y-69693299D01*
X126666924Y-69466197D01*
X126666923Y-69466196D01*
X126654496Y-69450000D01*
X136703554Y-69450000D01*
X137000000Y-69746446D01*
X137296446Y-69450000D01*
X138003554Y-69450000D01*
X138300000Y-69746446D01*
X138596446Y-69450000D01*
X138300000Y-69153554D01*
X138003554Y-69450000D01*
X137296446Y-69450000D01*
X137000000Y-69153554D01*
X136703554Y-69450000D01*
X126654496Y-69450000D01*
X126507282Y-69258149D01*
X126507281Y-69258148D01*
X126507274Y-69258140D01*
X126321860Y-69072726D01*
X126321851Y-69072718D01*
X126113803Y-68913075D01*
X125886700Y-68781958D01*
X125886690Y-68781953D01*
X125644428Y-68681605D01*
X125644421Y-68681603D01*
X125644419Y-68681602D01*
X125391116Y-68613730D01*
X125333339Y-68606123D01*
X125131127Y-68579500D01*
X125131120Y-68579500D01*
X124868880Y-68579500D01*
X124868872Y-68579500D01*
X124650257Y-68608283D01*
X124608884Y-68613730D01*
X124490242Y-68645520D01*
X124355581Y-68681602D01*
X124355571Y-68681605D01*
X124113309Y-68781953D01*
X124113299Y-68781958D01*
X123886196Y-68913075D01*
X123678148Y-69072718D01*
X123492718Y-69258148D01*
X123333075Y-69466196D01*
X123201958Y-69693299D01*
X123201953Y-69693309D01*
X123101605Y-69935571D01*
X123101603Y-69935578D01*
X123101602Y-69935581D01*
X123045102Y-70146445D01*
X123033730Y-70188885D01*
X122999500Y-70448872D01*
X117500500Y-70448872D01*
X117500500Y-63952135D01*
X122999500Y-63952135D01*
X122999500Y-67047870D01*
X122999501Y-67047876D01*
X123005908Y-67107483D01*
X123056202Y-67242328D01*
X123056206Y-67242335D01*
X123142452Y-67357544D01*
X123142455Y-67357547D01*
X123257664Y-67443793D01*
X123257671Y-67443797D01*
X123392517Y-67494091D01*
X123392516Y-67494091D01*
X123399444Y-67494835D01*
X123452127Y-67500500D01*
X126547872Y-67500499D01*
X126607483Y-67494091D01*
X126742331Y-67443796D01*
X126857546Y-67357546D01*
X126943796Y-67242331D01*
X126994091Y-67107483D01*
X127000500Y-67047873D01*
X127000499Y-66847394D01*
X127020183Y-66780357D01*
X127072987Y-66734602D01*
X127142145Y-66724658D01*
X127205701Y-66753683D01*
X127212180Y-66759715D01*
X128981839Y-68529374D01*
X128981849Y-68529385D01*
X128986179Y-68533715D01*
X128986180Y-68533716D01*
X129097984Y-68645520D01*
X129165500Y-68684500D01*
X129234915Y-68724577D01*
X129387643Y-68765500D01*
X133119529Y-68765500D01*
X133186568Y-68785185D01*
X133232323Y-68837989D01*
X133242267Y-68907147D01*
X133233310Y-68934065D01*
X133234746Y-68934601D01*
X133181403Y-69077620D01*
X133181401Y-69077627D01*
X133175000Y-69137155D01*
X133175000Y-69185000D01*
X136261446Y-69185000D01*
X136261446Y-69184999D01*
X136646446Y-68800000D01*
X136613625Y-68767179D01*
X136835000Y-68767179D01*
X136835000Y-68832821D01*
X136860119Y-68893465D01*
X136906535Y-68939881D01*
X136967179Y-68965000D01*
X137032821Y-68965000D01*
X137093465Y-68939881D01*
X137139881Y-68893465D01*
X137165000Y-68832821D01*
X137165000Y-68800000D01*
X137353554Y-68800000D01*
X137400000Y-68846445D01*
X137400000Y-68846444D01*
X137900000Y-68846444D01*
X137946445Y-68800000D01*
X137913624Y-68767179D01*
X138135000Y-68767179D01*
X138135000Y-68832821D01*
X138160119Y-68893465D01*
X138206535Y-68939881D01*
X138267179Y-68965000D01*
X138332821Y-68965000D01*
X138393465Y-68939881D01*
X138439881Y-68893465D01*
X138465000Y-68832821D01*
X138465000Y-68767179D01*
X138439881Y-68706535D01*
X138393465Y-68660119D01*
X138332821Y-68635000D01*
X138267179Y-68635000D01*
X138206535Y-68660119D01*
X138160119Y-68706535D01*
X138135000Y-68767179D01*
X137913624Y-68767179D01*
X137900000Y-68753555D01*
X137900000Y-68846444D01*
X137400000Y-68846444D01*
X137400000Y-68753554D01*
X137353554Y-68800000D01*
X137165000Y-68800000D01*
X137165000Y-68767179D01*
X137139881Y-68706535D01*
X137093465Y-68660119D01*
X137032821Y-68635000D01*
X136967179Y-68635000D01*
X136906535Y-68660119D01*
X136860119Y-68706535D01*
X136835000Y-68767179D01*
X136613625Y-68767179D01*
X136411025Y-68564579D01*
X136377540Y-68503256D01*
X136375554Y-68466194D01*
X136375500Y-68466194D01*
X136375499Y-68466188D01*
X136375322Y-68466179D01*
X136375437Y-68464023D01*
X136375417Y-68463642D01*
X136375500Y-68462873D01*
X136375499Y-68150000D01*
X136703554Y-68150000D01*
X137000000Y-68446446D01*
X137296446Y-68150000D01*
X138003554Y-68150000D01*
X138300000Y-68446446D01*
X138596446Y-68150000D01*
X138300000Y-67853554D01*
X138003554Y-68150000D01*
X137296446Y-68150000D01*
X137000000Y-67853554D01*
X136703554Y-68150000D01*
X136375499Y-68150000D01*
X136375499Y-67867128D01*
X136372504Y-67839266D01*
X136384911Y-67770507D01*
X136408113Y-67738332D01*
X136679267Y-67467179D01*
X136835000Y-67467179D01*
X136835000Y-67532821D01*
X136860119Y-67593465D01*
X136906535Y-67639881D01*
X136967179Y-67665000D01*
X137032821Y-67665000D01*
X137093465Y-67639881D01*
X137139881Y-67593465D01*
X137165000Y-67532821D01*
X137165000Y-67500000D01*
X137353554Y-67500000D01*
X137400000Y-67546445D01*
X137400000Y-67546444D01*
X137900000Y-67546444D01*
X137946445Y-67500000D01*
X137913624Y-67467179D01*
X138135000Y-67467179D01*
X138135000Y-67532821D01*
X138160119Y-67593465D01*
X138206535Y-67639881D01*
X138267179Y-67665000D01*
X138332821Y-67665000D01*
X138393465Y-67639881D01*
X138439881Y-67593465D01*
X138465000Y-67532821D01*
X138465000Y-67467179D01*
X138439881Y-67406535D01*
X138393465Y-67360119D01*
X138332821Y-67335000D01*
X138267179Y-67335000D01*
X138206535Y-67360119D01*
X138160119Y-67406535D01*
X138135000Y-67467179D01*
X137913624Y-67467179D01*
X137900000Y-67453555D01*
X137900000Y-67546444D01*
X137400000Y-67546444D01*
X137400000Y-67453554D01*
X137353554Y-67500000D01*
X137165000Y-67500000D01*
X137165000Y-67467179D01*
X137139881Y-67406535D01*
X137093465Y-67360119D01*
X137032821Y-67335000D01*
X136967179Y-67335000D01*
X136906535Y-67360119D01*
X136860119Y-67406535D01*
X136835000Y-67467179D01*
X136679267Y-67467179D01*
X136785489Y-67360957D01*
X136823223Y-67323223D01*
X137399999Y-66746446D01*
X137400000Y-66746445D01*
X137400000Y-65850000D01*
X137180729Y-65850000D01*
X137113690Y-65830315D01*
X137067935Y-65777511D01*
X137057991Y-65708353D01*
X137087016Y-65644797D01*
X137093048Y-65638319D01*
X140100786Y-62630581D01*
X144042952Y-58688416D01*
X144092186Y-58614729D01*
X144125084Y-58565495D01*
X144181658Y-58428913D01*
X144210500Y-58283918D01*
X144210500Y-57437311D01*
X144214565Y-57423464D01*
X144213762Y-57409055D01*
X144224213Y-57390608D01*
X144230185Y-57370272D01*
X144241732Y-57359688D01*
X144248205Y-57348265D01*
X144269356Y-57334370D01*
X144276788Y-57327560D01*
X144281805Y-57324921D01*
X144346697Y-57298043D01*
X144487339Y-57216843D01*
X144489495Y-57215710D01*
X144521431Y-57209285D01*
X144553107Y-57201601D01*
X144555505Y-57202431D01*
X144557993Y-57201931D01*
X144588332Y-57213792D01*
X144619134Y-57224453D01*
X144620703Y-57226448D01*
X144623066Y-57227372D01*
X144642175Y-57253753D01*
X144662325Y-57279375D01*
X144662566Y-57281902D01*
X144664054Y-57283956D01*
X144665868Y-57316485D01*
X144668966Y-57348928D01*
X144667929Y-57353435D01*
X144667945Y-57353717D01*
X144667809Y-57353955D01*
X144666982Y-57357553D01*
X144630999Y-57491843D01*
X144630999Y-57491845D01*
X144630999Y-57659946D01*
X144631000Y-57659959D01*
X144631000Y-59634216D01*
X144611315Y-59701255D01*
X144594681Y-59721897D01*
X144454363Y-59862214D01*
X144454360Y-59862218D01*
X144344871Y-60026079D01*
X144344864Y-60026092D01*
X144269450Y-60208160D01*
X144269447Y-60208170D01*
X144231000Y-60401456D01*
X144231000Y-60401459D01*
X144231000Y-60598541D01*
X144231000Y-60598543D01*
X144230999Y-60598543D01*
X144269447Y-60791829D01*
X144269450Y-60791839D01*
X144344864Y-60973907D01*
X144344871Y-60973920D01*
X144454360Y-61137781D01*
X144454363Y-61137785D01*
X144593714Y-61277136D01*
X144593718Y-61277139D01*
X144757579Y-61386628D01*
X144757592Y-61386635D01*
X144939660Y-61462049D01*
X144939665Y-61462051D01*
X144939669Y-61462051D01*
X144939670Y-61462052D01*
X145132956Y-61500500D01*
X145132959Y-61500500D01*
X145330043Y-61500500D01*
X145460082Y-61474632D01*
X145523335Y-61462051D01*
X145705414Y-61386632D01*
X145869282Y-61277139D01*
X146008639Y-61137782D01*
X146118132Y-60973914D01*
X146193551Y-60791835D01*
X146232000Y-60598541D01*
X146232000Y-60401459D01*
X146232000Y-60401456D01*
X146193552Y-60208170D01*
X146193551Y-60208169D01*
X146193551Y-60208165D01*
X146193549Y-60208160D01*
X146118135Y-60026092D01*
X146118128Y-60026079D01*
X146008639Y-59862218D01*
X146008636Y-59862214D01*
X145868319Y-59721897D01*
X145834834Y-59660574D01*
X145832000Y-59634216D01*
X145832000Y-58026200D01*
X145851685Y-57959161D01*
X145904489Y-57913406D01*
X145956000Y-57902200D01*
X171964631Y-57902200D01*
X171964647Y-57902201D01*
X171972243Y-57902201D01*
X172130354Y-57902201D01*
X172130357Y-57902201D01*
X172283085Y-57861277D01*
X172333204Y-57832339D01*
X172420016Y-57782220D01*
X172531820Y-57670416D01*
X172531820Y-57670414D01*
X172542028Y-57660207D01*
X172542030Y-57660204D01*
X173862473Y-56339760D01*
X173923794Y-56306277D01*
X173976521Y-56306841D01*
X173976552Y-56306651D01*
X173977843Y-56306855D01*
X173979099Y-56306869D01*
X173981352Y-56307409D01*
X173981364Y-56307413D01*
X174177639Y-56338500D01*
X174177640Y-56338500D01*
X174376355Y-56338500D01*
X174376361Y-56338500D01*
X174390228Y-56336303D01*
X174459516Y-56345256D01*
X174512970Y-56390250D01*
X174533612Y-56457001D01*
X174514889Y-56524315D01*
X174497306Y-56546457D01*
X168413184Y-62630581D01*
X168351861Y-62664066D01*
X168325503Y-62666900D01*
X147425240Y-62666900D01*
X147384319Y-62677864D01*
X147384319Y-62677865D01*
X147347051Y-62687851D01*
X147272514Y-62707823D01*
X147272509Y-62707826D01*
X147135590Y-62786875D01*
X147135582Y-62786881D01*
X147023778Y-62898686D01*
X142394284Y-67528181D01*
X142367356Y-67542884D01*
X142341538Y-67559477D01*
X142335337Y-67560368D01*
X142332961Y-67561666D01*
X142306603Y-67564500D01*
X142181046Y-67564500D01*
X142114007Y-67544815D01*
X142068252Y-67492011D01*
X142058308Y-67422853D01*
X142067179Y-67396193D01*
X142065697Y-67395641D01*
X142088314Y-67335000D01*
X142119091Y-67252483D01*
X142125500Y-67192873D01*
X142125499Y-66597128D01*
X142119091Y-66537517D01*
X142075968Y-66421899D01*
X142068797Y-66402671D01*
X142068793Y-66402664D01*
X141982547Y-66287455D01*
X141982544Y-66287452D01*
X141867335Y-66201206D01*
X141867328Y-66201202D01*
X141732482Y-66150908D01*
X141732483Y-66150908D01*
X141672883Y-66144501D01*
X141672881Y-66144500D01*
X141672873Y-66144500D01*
X141672865Y-66144500D01*
X139657813Y-66144500D01*
X139590774Y-66124815D01*
X139558547Y-66094811D01*
X139482190Y-65992812D01*
X139482187Y-65992809D01*
X139367093Y-65906649D01*
X139367086Y-65906645D01*
X139232379Y-65856403D01*
X139232372Y-65856401D01*
X139172844Y-65850000D01*
X137900000Y-65850000D01*
X137900000Y-66746446D01*
X138891887Y-67738333D01*
X138925372Y-67799656D01*
X138927495Y-67839263D01*
X138924500Y-67867127D01*
X138924500Y-67867134D01*
X138924500Y-67867135D01*
X138924500Y-68462870D01*
X138924502Y-68462901D01*
X138924585Y-68463669D01*
X138924553Y-68463845D01*
X138924679Y-68466195D01*
X138924123Y-68466224D01*
X138912165Y-68532426D01*
X138888975Y-68564578D01*
X138653554Y-68800000D01*
X138888974Y-69035420D01*
X138922459Y-69096743D01*
X138924450Y-69133806D01*
X138924500Y-69133806D01*
X138924500Y-69133811D01*
X138924678Y-69133821D01*
X138924564Y-69135941D01*
X138924585Y-69136329D01*
X138924501Y-69137105D01*
X138924500Y-69137136D01*
X138924500Y-69732870D01*
X138924501Y-69732884D01*
X138927495Y-69760735D01*
X138915087Y-69829494D01*
X138891887Y-69861666D01*
X138653554Y-70100000D01*
X139008554Y-70455000D01*
X142125000Y-70455000D01*
X142125000Y-70407172D01*
X142124999Y-70407155D01*
X142118598Y-70347627D01*
X142118596Y-70347620D01*
X142065254Y-70204601D01*
X142068273Y-70203474D01*
X142056788Y-70150632D01*
X142081217Y-70085172D01*
X142137158Y-70043311D01*
X142180471Y-70035500D01*
X144215477Y-70035500D01*
X144282516Y-70055185D01*
X144284368Y-70056398D01*
X144387079Y-70125028D01*
X144387092Y-70125035D01*
X144541242Y-70188885D01*
X144569165Y-70200451D01*
X144569169Y-70200451D01*
X144569170Y-70200452D01*
X144762456Y-70238900D01*
X144762459Y-70238900D01*
X144959543Y-70238900D01*
X145091412Y-70212669D01*
X145152835Y-70200451D01*
X145302698Y-70138376D01*
X145302699Y-70138376D01*
X145325827Y-70128796D01*
X145334914Y-70125032D01*
X145498782Y-70015539D01*
X145638139Y-69876182D01*
X145747632Y-69712314D01*
X145823051Y-69530235D01*
X145861500Y-69336941D01*
X145861500Y-69139859D01*
X145861500Y-69139856D01*
X145823052Y-68946570D01*
X145823051Y-68946569D01*
X145823051Y-68946565D01*
X145821437Y-68942669D01*
X145747635Y-68764492D01*
X145747628Y-68764479D01*
X145638139Y-68600618D01*
X145638136Y-68600614D01*
X145498785Y-68461263D01*
X145498781Y-68461260D01*
X145334920Y-68351771D01*
X145334907Y-68351764D01*
X145152839Y-68276350D01*
X145152829Y-68276347D01*
X144959543Y-68237900D01*
X144959541Y-68237900D01*
X144762459Y-68237900D01*
X144762457Y-68237900D01*
X144569170Y-68276347D01*
X144569160Y-68276350D01*
X144387092Y-68351764D01*
X144387079Y-68351771D01*
X144223218Y-68461260D01*
X144223214Y-68461263D01*
X144083863Y-68600614D01*
X144083860Y-68600618D01*
X143974369Y-68764483D01*
X143971983Y-68768948D01*
X143923023Y-68818795D01*
X143862622Y-68834500D01*
X143085798Y-68834500D01*
X143064552Y-68828261D01*
X143042466Y-68826682D01*
X143031682Y-68818609D01*
X143018759Y-68814815D01*
X143004260Y-68798082D01*
X142986532Y-68784812D01*
X142981823Y-68772189D01*
X142973004Y-68762011D01*
X142969852Y-68740095D01*
X142962114Y-68719348D01*
X142964977Y-68706185D01*
X142963060Y-68692853D01*
X142972258Y-68672710D01*
X142976965Y-68651075D01*
X142990234Y-68633348D01*
X142992085Y-68629297D01*
X142998101Y-68622834D01*
X143087220Y-68533716D01*
X143087221Y-68533713D01*
X147716716Y-63904219D01*
X147778039Y-63870734D01*
X147804397Y-63867900D01*
X148425500Y-63867900D01*
X148492539Y-63887585D01*
X148538294Y-63940389D01*
X148549500Y-63991900D01*
X148549500Y-65960370D01*
X148549501Y-65960376D01*
X148555908Y-66019983D01*
X148606202Y-66154828D01*
X148606206Y-66154835D01*
X148692452Y-66270044D01*
X148692455Y-66270047D01*
X148807664Y-66356293D01*
X148807669Y-66356296D01*
X148835539Y-66366690D01*
X148891473Y-66408561D01*
X148915891Y-66474024D01*
X148901040Y-66542298D01*
X148892525Y-66555759D01*
X148759783Y-66738461D01*
X148655950Y-66942244D01*
X148585278Y-67159750D01*
X148585278Y-67159753D01*
X148549500Y-67385646D01*
X148549500Y-67614353D01*
X148585278Y-67840246D01*
X148585278Y-67840249D01*
X148655950Y-68057755D01*
X148747739Y-68237900D01*
X148759783Y-68261538D01*
X148894214Y-68446566D01*
X149055934Y-68608286D01*
X149140864Y-68669991D01*
X149183529Y-68725321D01*
X149189508Y-68794935D01*
X149156902Y-68856730D01*
X149140864Y-68870627D01*
X149056257Y-68932097D01*
X148894597Y-69093757D01*
X148760211Y-69278723D01*
X148656417Y-69482429D01*
X148585765Y-69699871D01*
X148571491Y-69790000D01*
X149559252Y-69790000D01*
X149537482Y-69827708D01*
X149500000Y-69967591D01*
X149500000Y-70112409D01*
X149537482Y-70252292D01*
X149559252Y-70290000D01*
X148571491Y-70290000D01*
X148585765Y-70380128D01*
X148656417Y-70597570D01*
X148760211Y-70801276D01*
X148894597Y-70986242D01*
X149056257Y-71147902D01*
X149241223Y-71282288D01*
X149444929Y-71386082D01*
X149662371Y-71456734D01*
X149800000Y-71478532D01*
X149800000Y-70530747D01*
X149837708Y-70552518D01*
X149977591Y-70590000D01*
X150122409Y-70590000D01*
X150262292Y-70552518D01*
X150300000Y-70530747D01*
X150300000Y-71478531D01*
X150437628Y-71456734D01*
X150655070Y-71386082D01*
X150858776Y-71282288D01*
X151043742Y-71147902D01*
X151205402Y-70986242D01*
X151339788Y-70801276D01*
X151443582Y-70597570D01*
X151514234Y-70380128D01*
X151528509Y-70290000D01*
X150540748Y-70290000D01*
X150562518Y-70252292D01*
X150600000Y-70112409D01*
X150600000Y-69967591D01*
X150562518Y-69827708D01*
X150540748Y-69790000D01*
X151528509Y-69790000D01*
X151514234Y-69699871D01*
X151443582Y-69482429D01*
X151339788Y-69278723D01*
X151205402Y-69093757D01*
X151043742Y-68932097D01*
X150959135Y-68870626D01*
X150916470Y-68815296D01*
X150910491Y-68745682D01*
X150943097Y-68683887D01*
X150959125Y-68669999D01*
X151044066Y-68608286D01*
X151205786Y-68446566D01*
X151340217Y-68261538D01*
X151444048Y-68057758D01*
X151514722Y-67840245D01*
X151550500Y-67614354D01*
X151550500Y-67385646D01*
X151514722Y-67159755D01*
X151514721Y-67159751D01*
X151514721Y-67159750D01*
X151444049Y-66942244D01*
X151395722Y-66847397D01*
X151340217Y-66738462D01*
X151207472Y-66555755D01*
X151183994Y-66489953D01*
X151199819Y-66421899D01*
X151249925Y-66373204D01*
X151264455Y-66366692D01*
X151292331Y-66356296D01*
X151407546Y-66270046D01*
X151493796Y-66154831D01*
X151544091Y-66019983D01*
X151550500Y-65960373D01*
X151550499Y-64430299D01*
X151570184Y-64363261D01*
X151622987Y-64317506D01*
X151674499Y-64306300D01*
X157425500Y-64306300D01*
X157492539Y-64325985D01*
X157538294Y-64378789D01*
X157549500Y-64430300D01*
X157549500Y-65960370D01*
X157549501Y-65960376D01*
X157555908Y-66019983D01*
X157606202Y-66154828D01*
X157606206Y-66154835D01*
X157692452Y-66270044D01*
X157692455Y-66270047D01*
X157807664Y-66356293D01*
X157807669Y-66356296D01*
X157835539Y-66366690D01*
X157891473Y-66408561D01*
X157915891Y-66474024D01*
X157901040Y-66542298D01*
X157892525Y-66555759D01*
X157759783Y-66738461D01*
X157655950Y-66942244D01*
X157585278Y-67159750D01*
X157585278Y-67159753D01*
X157549500Y-67385646D01*
X157549500Y-67614353D01*
X157585278Y-67840246D01*
X157585278Y-67840249D01*
X157655950Y-68057755D01*
X157747739Y-68237900D01*
X157759783Y-68261538D01*
X157894214Y-68446566D01*
X158055934Y-68608286D01*
X158140864Y-68669991D01*
X158183529Y-68725321D01*
X158189508Y-68794935D01*
X158156902Y-68856730D01*
X158140864Y-68870627D01*
X158056257Y-68932097D01*
X157894597Y-69093757D01*
X157760211Y-69278723D01*
X157656417Y-69482429D01*
X157585765Y-69699871D01*
X157571491Y-69790000D01*
X158559252Y-69790000D01*
X158537482Y-69827708D01*
X158500000Y-69967591D01*
X158500000Y-70112409D01*
X158537482Y-70252292D01*
X158559252Y-70290000D01*
X157571491Y-70290000D01*
X157585765Y-70380128D01*
X157656417Y-70597570D01*
X157760211Y-70801276D01*
X157894597Y-70986242D01*
X158056257Y-71147902D01*
X158241223Y-71282288D01*
X158444929Y-71386082D01*
X158662371Y-71456734D01*
X158800000Y-71478532D01*
X158800000Y-70530747D01*
X158837708Y-70552518D01*
X158977591Y-70590000D01*
X159122409Y-70590000D01*
X159262292Y-70552518D01*
X159300000Y-70530747D01*
X159300000Y-71478531D01*
X159437628Y-71456734D01*
X159655070Y-71386082D01*
X159858776Y-71282288D01*
X160043742Y-71147902D01*
X160205402Y-70986242D01*
X160339788Y-70801276D01*
X160443582Y-70597570D01*
X160514234Y-70380128D01*
X160528509Y-70290000D01*
X159540748Y-70290000D01*
X159562518Y-70252292D01*
X159600000Y-70112409D01*
X159600000Y-69967591D01*
X159562518Y-69827708D01*
X159540748Y-69790000D01*
X160528509Y-69790000D01*
X160514234Y-69699871D01*
X160443582Y-69482429D01*
X160339788Y-69278723D01*
X160205402Y-69093757D01*
X160043742Y-68932097D01*
X159959135Y-68870626D01*
X159916470Y-68815296D01*
X159910491Y-68745682D01*
X159943097Y-68683887D01*
X159959125Y-68669999D01*
X160044066Y-68608286D01*
X160205786Y-68446566D01*
X160340217Y-68261538D01*
X160444048Y-68057758D01*
X160514722Y-67840245D01*
X160550500Y-67614354D01*
X160550500Y-67385646D01*
X160514722Y-67159755D01*
X160514721Y-67159751D01*
X160514721Y-67159750D01*
X160444049Y-66942244D01*
X160395722Y-66847397D01*
X160340217Y-66738462D01*
X160207472Y-66555755D01*
X160183994Y-66489953D01*
X160199819Y-66421899D01*
X160249925Y-66373204D01*
X160264455Y-66366692D01*
X160292331Y-66356296D01*
X160407546Y-66270046D01*
X160493796Y-66154831D01*
X160544091Y-66019983D01*
X160550500Y-65960373D01*
X160550500Y-65684500D01*
X160570185Y-65617461D01*
X160622989Y-65571706D01*
X160674500Y-65560500D01*
X197326331Y-65560500D01*
X197326347Y-65560501D01*
X197333943Y-65560501D01*
X197492054Y-65560501D01*
X197492057Y-65560501D01*
X197644785Y-65519577D01*
X197694904Y-65490639D01*
X197781716Y-65440520D01*
X197893520Y-65328716D01*
X197893520Y-65328714D01*
X197903728Y-65318507D01*
X197903730Y-65318504D01*
X206882473Y-56339760D01*
X206943794Y-56306277D01*
X206996521Y-56306841D01*
X206996552Y-56306651D01*
X206997843Y-56306855D01*
X206999099Y-56306869D01*
X207001352Y-56307409D01*
X207001364Y-56307413D01*
X207197639Y-56338500D01*
X207197640Y-56338500D01*
X207396360Y-56338500D01*
X207396361Y-56338500D01*
X207592636Y-56307413D01*
X207781632Y-56246005D01*
X207958694Y-56155787D01*
X208119464Y-56038981D01*
X208259981Y-55898464D01*
X208376787Y-55737694D01*
X208456515Y-55581218D01*
X208504490Y-55530423D01*
X208572311Y-55513628D01*
X208638446Y-55536165D01*
X208677484Y-55581218D01*
X208757213Y-55737694D01*
X208874019Y-55898464D01*
X209014536Y-56038981D01*
X209159672Y-56144428D01*
X209175309Y-56155789D01*
X209177285Y-56157000D01*
X209177878Y-56157656D01*
X209179248Y-56158651D01*
X209179039Y-56158938D01*
X209224163Y-56208810D01*
X209236500Y-56262730D01*
X209236500Y-76039091D01*
X209216815Y-76106130D01*
X209200181Y-76126772D01*
X205716238Y-79610714D01*
X205654915Y-79644199D01*
X205585223Y-79639215D01*
X205555672Y-79623351D01*
X205418435Y-79523643D01*
X205241434Y-79433456D01*
X205241436Y-79433456D01*
X205052517Y-79372074D01*
X205007000Y-79364865D01*
X205007000Y-80219350D01*
X204933492Y-80176910D01*
X204817198Y-80145750D01*
X204696802Y-80145750D01*
X204580508Y-80176910D01*
X204507000Y-80219350D01*
X204507000Y-79364865D01*
X204506999Y-79364865D01*
X204461482Y-79372074D01*
X204272564Y-79433456D01*
X204095567Y-79523641D01*
X203934860Y-79640403D01*
X203934859Y-79640403D01*
X203794403Y-79780859D01*
X203794403Y-79780860D01*
X203677639Y-79941569D01*
X203597764Y-80098332D01*
X203549790Y-80149127D01*
X203481969Y-80165922D01*
X203415834Y-80143384D01*
X203376796Y-80098332D01*
X203296787Y-79941306D01*
X203179981Y-79780536D01*
X203039464Y-79640019D01*
X202878694Y-79523213D01*
X202701632Y-79432994D01*
X202701629Y-79432993D01*
X202512637Y-79371587D01*
X202392227Y-79352516D01*
X202316361Y-79340500D01*
X202117639Y-79340500D01*
X202052214Y-79350862D01*
X201921362Y-79371587D01*
X201732370Y-79432993D01*
X201732367Y-79432994D01*
X201555305Y-79523213D01*
X201394533Y-79640021D01*
X201254021Y-79780533D01*
X201137213Y-79941305D01*
X201057485Y-80097780D01*
X201009510Y-80148576D01*
X200941689Y-80165371D01*
X200875554Y-80142833D01*
X200836515Y-80097780D01*
X200756786Y-79941305D01*
X200640216Y-79780860D01*
X200639981Y-79780536D01*
X200499464Y-79640019D01*
X200338694Y-79523213D01*
X200161632Y-79432994D01*
X200161629Y-79432993D01*
X199972637Y-79371587D01*
X199852227Y-79352516D01*
X199776361Y-79340500D01*
X199577639Y-79340500D01*
X199512214Y-79350862D01*
X199381362Y-79371587D01*
X199192370Y-79432993D01*
X199192367Y-79432994D01*
X199015305Y-79523213D01*
X198854533Y-79640021D01*
X198714021Y-79780533D01*
X198597213Y-79941305D01*
X198517485Y-80097780D01*
X198469510Y-80148576D01*
X198401689Y-80165371D01*
X198335554Y-80142833D01*
X198296515Y-80097780D01*
X198216786Y-79941305D01*
X198100216Y-79780860D01*
X198099981Y-79780536D01*
X197959464Y-79640019D01*
X197798694Y-79523213D01*
X197621632Y-79432994D01*
X197621629Y-79432993D01*
X197432637Y-79371587D01*
X197312227Y-79352516D01*
X197236361Y-79340500D01*
X197037639Y-79340500D01*
X196972214Y-79350862D01*
X196841362Y-79371587D01*
X196652370Y-79432993D01*
X196652367Y-79432994D01*
X196475305Y-79523213D01*
X196314533Y-79640021D01*
X196174021Y-79780533D01*
X196057213Y-79941305D01*
X195977485Y-80097780D01*
X195929510Y-80148576D01*
X195861689Y-80165371D01*
X195795554Y-80142833D01*
X195756515Y-80097780D01*
X195676786Y-79941305D01*
X195560216Y-79780860D01*
X195559981Y-79780536D01*
X195419464Y-79640019D01*
X195258694Y-79523213D01*
X195081632Y-79432994D01*
X195081629Y-79432993D01*
X194892637Y-79371587D01*
X194772227Y-79352516D01*
X194696361Y-79340500D01*
X194497639Y-79340500D01*
X194432214Y-79350862D01*
X194301362Y-79371587D01*
X194112370Y-79432993D01*
X194112367Y-79432994D01*
X193935305Y-79523213D01*
X193774533Y-79640021D01*
X193634021Y-79780533D01*
X193517213Y-79941305D01*
X193437485Y-80097780D01*
X193389510Y-80148576D01*
X193321689Y-80165371D01*
X193255554Y-80142833D01*
X193216515Y-80097780D01*
X193136786Y-79941305D01*
X193020216Y-79780860D01*
X193019981Y-79780536D01*
X192879464Y-79640019D01*
X192718694Y-79523213D01*
X192541632Y-79432994D01*
X192541629Y-79432993D01*
X192352637Y-79371587D01*
X192232227Y-79352516D01*
X192156361Y-79340500D01*
X191957639Y-79340500D01*
X191892214Y-79350862D01*
X191761362Y-79371587D01*
X191572370Y-79432993D01*
X191572367Y-79432994D01*
X191395305Y-79523213D01*
X191234533Y-79640021D01*
X191094021Y-79780533D01*
X190977213Y-79941305D01*
X190897485Y-80097780D01*
X190849510Y-80148576D01*
X190781689Y-80165371D01*
X190715554Y-80142833D01*
X190676515Y-80097780D01*
X190596786Y-79941305D01*
X190480216Y-79780860D01*
X190479981Y-79780536D01*
X190339464Y-79640019D01*
X190178694Y-79523213D01*
X190001632Y-79432994D01*
X190001629Y-79432993D01*
X189812637Y-79371587D01*
X189692227Y-79352516D01*
X189616361Y-79340500D01*
X189417639Y-79340500D01*
X189352214Y-79350862D01*
X189221362Y-79371587D01*
X189032370Y-79432993D01*
X189032367Y-79432994D01*
X188855305Y-79523213D01*
X188694533Y-79640021D01*
X188554021Y-79780533D01*
X188437213Y-79941305D01*
X188357485Y-80097780D01*
X188309510Y-80148576D01*
X188241689Y-80165371D01*
X188175554Y-80142833D01*
X188136515Y-80097780D01*
X188056786Y-79941305D01*
X187940216Y-79780860D01*
X187939981Y-79780536D01*
X187799464Y-79640019D01*
X187638694Y-79523213D01*
X187461632Y-79432994D01*
X187461629Y-79432993D01*
X187272637Y-79371587D01*
X187152227Y-79352516D01*
X187076361Y-79340500D01*
X186877639Y-79340500D01*
X186812214Y-79350862D01*
X186681362Y-79371587D01*
X186492370Y-79432993D01*
X186492367Y-79432994D01*
X186315305Y-79523213D01*
X186154533Y-79640021D01*
X186014021Y-79780533D01*
X185897213Y-79941305D01*
X185817485Y-80097780D01*
X185769510Y-80148576D01*
X185701689Y-80165371D01*
X185635554Y-80142833D01*
X185596515Y-80097780D01*
X185516786Y-79941305D01*
X185400216Y-79780860D01*
X185399981Y-79780536D01*
X185259464Y-79640019D01*
X185098694Y-79523213D01*
X184921632Y-79432994D01*
X184921629Y-79432993D01*
X184732637Y-79371587D01*
X184612227Y-79352516D01*
X184536361Y-79340500D01*
X184337639Y-79340500D01*
X184272214Y-79350862D01*
X184141362Y-79371587D01*
X183952370Y-79432993D01*
X183952367Y-79432994D01*
X183775305Y-79523213D01*
X183614533Y-79640021D01*
X183474021Y-79780533D01*
X183357213Y-79941305D01*
X183277485Y-80097780D01*
X183229510Y-80148576D01*
X183161689Y-80165371D01*
X183095554Y-80142833D01*
X183056515Y-80097780D01*
X182976786Y-79941305D01*
X182860216Y-79780860D01*
X182859981Y-79780536D01*
X182719464Y-79640019D01*
X182558694Y-79523213D01*
X182381632Y-79432994D01*
X182381629Y-79432993D01*
X182192637Y-79371587D01*
X182072227Y-79352516D01*
X181996361Y-79340500D01*
X181797639Y-79340500D01*
X181732214Y-79350862D01*
X181601362Y-79371587D01*
X181412370Y-79432993D01*
X181412367Y-79432994D01*
X181235305Y-79523213D01*
X181074533Y-79640021D01*
X180934021Y-79780533D01*
X180817213Y-79941305D01*
X180737485Y-80097780D01*
X180689510Y-80148576D01*
X180621689Y-80165371D01*
X180555554Y-80142833D01*
X180516515Y-80097780D01*
X180436786Y-79941305D01*
X180320216Y-79780860D01*
X180319981Y-79780536D01*
X180179464Y-79640019D01*
X180018694Y-79523213D01*
X179841632Y-79432994D01*
X179841629Y-79432993D01*
X179652637Y-79371587D01*
X179532227Y-79352516D01*
X179456361Y-79340500D01*
X179257639Y-79340500D01*
X179192214Y-79350862D01*
X179061362Y-79371587D01*
X178872370Y-79432993D01*
X178872367Y-79432994D01*
X178695305Y-79523213D01*
X178534533Y-79640021D01*
X178394021Y-79780533D01*
X178277213Y-79941305D01*
X178197485Y-80097780D01*
X178149510Y-80148576D01*
X178081689Y-80165371D01*
X178015554Y-80142833D01*
X177976515Y-80097780D01*
X177896786Y-79941305D01*
X177780216Y-79780860D01*
X177779981Y-79780536D01*
X177639464Y-79640019D01*
X177478694Y-79523213D01*
X177301632Y-79432994D01*
X177301629Y-79432993D01*
X177112637Y-79371587D01*
X176992227Y-79352516D01*
X176916361Y-79340500D01*
X176717639Y-79340500D01*
X176652214Y-79350862D01*
X176521362Y-79371587D01*
X176332370Y-79432993D01*
X176332367Y-79432994D01*
X176155305Y-79523213D01*
X175994533Y-79640021D01*
X175854021Y-79780533D01*
X175737213Y-79941305D01*
X175657485Y-80097780D01*
X175609510Y-80148576D01*
X175541689Y-80165371D01*
X175475554Y-80142833D01*
X175436515Y-80097780D01*
X175356786Y-79941305D01*
X175240216Y-79780860D01*
X175239981Y-79780536D01*
X175099464Y-79640019D01*
X174938694Y-79523213D01*
X174761632Y-79432994D01*
X174761629Y-79432993D01*
X174572637Y-79371587D01*
X174452227Y-79352516D01*
X174376361Y-79340500D01*
X174177639Y-79340500D01*
X174112214Y-79350862D01*
X173981362Y-79371587D01*
X173792370Y-79432993D01*
X173792367Y-79432994D01*
X173615305Y-79523213D01*
X173454533Y-79640021D01*
X173314021Y-79780533D01*
X173197213Y-79941305D01*
X173117485Y-80097780D01*
X173069510Y-80148576D01*
X173001689Y-80165371D01*
X172935554Y-80142833D01*
X172896515Y-80097780D01*
X172816786Y-79941305D01*
X172700216Y-79780860D01*
X172699981Y-79780536D01*
X172559464Y-79640019D01*
X172398694Y-79523213D01*
X172221632Y-79432994D01*
X172221629Y-79432993D01*
X172032637Y-79371587D01*
X171912227Y-79352516D01*
X171836361Y-79340500D01*
X171637639Y-79340500D01*
X171572214Y-79350862D01*
X171441362Y-79371587D01*
X171252370Y-79432993D01*
X171252367Y-79432994D01*
X171075305Y-79523213D01*
X170914533Y-79640021D01*
X170774021Y-79780533D01*
X170657213Y-79941305D01*
X170566994Y-80118367D01*
X170566993Y-80118370D01*
X170505587Y-80307362D01*
X170474500Y-80503639D01*
X170474500Y-80702360D01*
X170505587Y-80898637D01*
X170560480Y-81067582D01*
X170562475Y-81137423D01*
X170526394Y-81197256D01*
X170463693Y-81228084D01*
X170442549Y-81229900D01*
X146547969Y-81229900D01*
X146547953Y-81229899D01*
X146540357Y-81229899D01*
X146382243Y-81229899D01*
X146274887Y-81258665D01*
X146229510Y-81270824D01*
X146229509Y-81270825D01*
X146179396Y-81299759D01*
X146179395Y-81299760D01*
X146135989Y-81324820D01*
X146092585Y-81349879D01*
X146092582Y-81349881D01*
X144837180Y-82605284D01*
X144775857Y-82638769D01*
X144706165Y-82633785D01*
X144650232Y-82591913D01*
X144625815Y-82526449D01*
X144625499Y-82517603D01*
X144625499Y-82297129D01*
X144625498Y-82297123D01*
X144619091Y-82237516D01*
X144568797Y-82102671D01*
X144568793Y-82102664D01*
X144482547Y-81987455D01*
X144482544Y-81987452D01*
X144367335Y-81901206D01*
X144367328Y-81901202D01*
X144232482Y-81850908D01*
X144232483Y-81850908D01*
X144172883Y-81844501D01*
X144172881Y-81844500D01*
X144172873Y-81844500D01*
X144172865Y-81844500D01*
X142157813Y-81844500D01*
X142090774Y-81824815D01*
X142058547Y-81794811D01*
X141982190Y-81692812D01*
X141982187Y-81692809D01*
X141867093Y-81606649D01*
X141867086Y-81606645D01*
X141732379Y-81556403D01*
X141732372Y-81556401D01*
X141672844Y-81550000D01*
X140400000Y-81550000D01*
X140400000Y-82446446D01*
X141391887Y-83438333D01*
X141425372Y-83499656D01*
X141427495Y-83539263D01*
X141424500Y-83567127D01*
X141424500Y-83567134D01*
X141424500Y-83567135D01*
X141424500Y-84162870D01*
X141424502Y-84162901D01*
X141424585Y-84163669D01*
X141424553Y-84163845D01*
X141424679Y-84166195D01*
X141424123Y-84166224D01*
X141412165Y-84232426D01*
X141388975Y-84264578D01*
X141153554Y-84500000D01*
X141388974Y-84735420D01*
X141422459Y-84796743D01*
X141424450Y-84833806D01*
X141424500Y-84833806D01*
X141424500Y-84833811D01*
X141424678Y-84833821D01*
X141424564Y-84835941D01*
X141424585Y-84836329D01*
X141424501Y-84837105D01*
X141424500Y-84837136D01*
X141424500Y-85432870D01*
X141424501Y-85432884D01*
X141427495Y-85460735D01*
X141415087Y-85529494D01*
X141391887Y-85561666D01*
X141153554Y-85800000D01*
X141508554Y-86155000D01*
X144625000Y-86155000D01*
X144625000Y-86107172D01*
X144624999Y-86107155D01*
X144618598Y-86047627D01*
X144618596Y-86047620D01*
X144565254Y-85904601D01*
X144568273Y-85903474D01*
X144556788Y-85850632D01*
X144581217Y-85785172D01*
X144637158Y-85743311D01*
X144680471Y-85735500D01*
X170522531Y-85735500D01*
X170522547Y-85735501D01*
X170530143Y-85735501D01*
X170688254Y-85735501D01*
X170688257Y-85735501D01*
X170840985Y-85694577D01*
X170920127Y-85648884D01*
X170977916Y-85615520D01*
X171089720Y-85503716D01*
X171089720Y-85503714D01*
X171099924Y-85493511D01*
X171099927Y-85493506D01*
X171567219Y-85026215D01*
X171628539Y-84992732D01*
X171698231Y-84997716D01*
X171754164Y-85039588D01*
X171770027Y-85070171D01*
X171770593Y-85069937D01*
X171772456Y-85074434D01*
X171862641Y-85251432D01*
X171979403Y-85412139D01*
X171979403Y-85412140D01*
X172119859Y-85552596D01*
X172280567Y-85669358D01*
X172457562Y-85759542D01*
X172646473Y-85820922D01*
X172692000Y-85828133D01*
X172692000Y-84973649D01*
X172765508Y-85016090D01*
X172881802Y-85047250D01*
X173002198Y-85047250D01*
X173118492Y-85016090D01*
X173192000Y-84973649D01*
X173192000Y-85828132D01*
X173237526Y-85820922D01*
X173426437Y-85759542D01*
X173603432Y-85669358D01*
X173764139Y-85552596D01*
X173764140Y-85552596D01*
X173904596Y-85412140D01*
X173904596Y-85412139D01*
X174021358Y-85251432D01*
X174111543Y-85074435D01*
X174172925Y-84885517D01*
X174180134Y-84840000D01*
X173325649Y-84840000D01*
X173368090Y-84766492D01*
X173399250Y-84650198D01*
X173399250Y-84529802D01*
X173368090Y-84413508D01*
X173325649Y-84340000D01*
X174180135Y-84340000D01*
X174180134Y-84339999D01*
X174172925Y-84294482D01*
X174111543Y-84105564D01*
X174021358Y-83928567D01*
X173904596Y-83767860D01*
X173904596Y-83767859D01*
X173764140Y-83627403D01*
X173603432Y-83510641D01*
X173426434Y-83420456D01*
X173423224Y-83419126D01*
X173422565Y-83419079D01*
X173396638Y-83399670D01*
X173369904Y-83381390D01*
X173368833Y-83378856D01*
X173366631Y-83377208D01*
X173355313Y-83346862D01*
X173342707Y-83317031D01*
X173343176Y-83314320D01*
X173342215Y-83311743D01*
X173349098Y-83280100D01*
X173354622Y-83248185D01*
X173356661Y-83245335D01*
X173357067Y-83243470D01*
X173378212Y-83215223D01*
X173441919Y-83151516D01*
X173503241Y-83118034D01*
X173529598Y-83115200D01*
X190392526Y-83115200D01*
X190459565Y-83134885D01*
X190505320Y-83187689D01*
X190515264Y-83256847D01*
X190486239Y-83320403D01*
X190430844Y-83357131D01*
X190237370Y-83419993D01*
X190237367Y-83419994D01*
X190060305Y-83510213D01*
X189899533Y-83627021D01*
X189759021Y-83767533D01*
X189642213Y-83928305D01*
X189551994Y-84105367D01*
X189551993Y-84105370D01*
X189490587Y-84294362D01*
X189465219Y-84454529D01*
X189459500Y-84490639D01*
X189459500Y-84689361D01*
X189464060Y-84718149D01*
X189490587Y-84885637D01*
X189551993Y-85074629D01*
X189551994Y-85074632D01*
X189592083Y-85153309D01*
X189642213Y-85251694D01*
X189759019Y-85412464D01*
X189899536Y-85552981D01*
X190060306Y-85669787D01*
X190098736Y-85689368D01*
X190237367Y-85760005D01*
X190237370Y-85760006D01*
X190426363Y-85821413D01*
X190468511Y-85828088D01*
X190518118Y-85835945D01*
X190581253Y-85865874D01*
X190586401Y-85870736D01*
X192463182Y-87747518D01*
X192496666Y-87808839D01*
X192499500Y-87835197D01*
X192499500Y-87836559D01*
X192499500Y-88033641D01*
X192499500Y-88033643D01*
X192499499Y-88033643D01*
X192537947Y-88226929D01*
X192537950Y-88226939D01*
X192613364Y-88409007D01*
X192613371Y-88409020D01*
X192722860Y-88572881D01*
X192722863Y-88572885D01*
X192862214Y-88712236D01*
X192862218Y-88712239D01*
X193026079Y-88821728D01*
X193026092Y-88821735D01*
X193208160Y-88897149D01*
X193208165Y-88897151D01*
X193208169Y-88897151D01*
X193208170Y-88897152D01*
X193401456Y-88935600D01*
X193401459Y-88935600D01*
X193598543Y-88935600D01*
X193728582Y-88909732D01*
X193791835Y-88897151D01*
X193973914Y-88821732D01*
X194137782Y-88712239D01*
X194277139Y-88572882D01*
X194386632Y-88409014D01*
X194462051Y-88226935D01*
X194500500Y-88033641D01*
X194500500Y-87836559D01*
X194500500Y-87836556D01*
X194462052Y-87643270D01*
X194462051Y-87643269D01*
X194462051Y-87643265D01*
X194422294Y-87547282D01*
X194386635Y-87461192D01*
X194386628Y-87461179D01*
X194277139Y-87297318D01*
X194277136Y-87297314D01*
X194137785Y-87157963D01*
X194137781Y-87157960D01*
X193973920Y-87048471D01*
X193973907Y-87048464D01*
X193791839Y-86973050D01*
X193791829Y-86973047D01*
X193598543Y-86934600D01*
X193598541Y-86934600D01*
X193401459Y-86934600D01*
X193400098Y-86934600D01*
X193333059Y-86914915D01*
X193312417Y-86898281D01*
X191819251Y-85405115D01*
X191785766Y-85343792D01*
X191790750Y-85274100D01*
X191801207Y-85252640D01*
X191801779Y-85251704D01*
X191801787Y-85251694D01*
X191892005Y-85074632D01*
X191953413Y-84885636D01*
X191984500Y-84689361D01*
X191984500Y-84490639D01*
X191953413Y-84294364D01*
X191911769Y-84166195D01*
X191892006Y-84105370D01*
X191892005Y-84105367D01*
X191811750Y-83947860D01*
X191801787Y-83928306D01*
X191684981Y-83767536D01*
X191544464Y-83627019D01*
X191383694Y-83510213D01*
X191378403Y-83507517D01*
X191206632Y-83419994D01*
X191206629Y-83419993D01*
X191013156Y-83357131D01*
X190955481Y-83317694D01*
X190928282Y-83253335D01*
X190940196Y-83184489D01*
X190987440Y-83133013D01*
X191051474Y-83115200D01*
X195138631Y-83115200D01*
X195138647Y-83115201D01*
X195146243Y-83115201D01*
X195304354Y-83115201D01*
X195304357Y-83115201D01*
X195457085Y-83074277D01*
X195507204Y-83045339D01*
X195594016Y-82995220D01*
X195705820Y-82883416D01*
X195705820Y-82883414D01*
X195716028Y-82873207D01*
X195716030Y-82873204D01*
X196722473Y-81866760D01*
X196783794Y-81833277D01*
X196836521Y-81833841D01*
X196836552Y-81833651D01*
X196837843Y-81833855D01*
X196839099Y-81833869D01*
X196841352Y-81834409D01*
X196841364Y-81834413D01*
X197037639Y-81865500D01*
X197037640Y-81865500D01*
X197236360Y-81865500D01*
X197236361Y-81865500D01*
X197432636Y-81834413D01*
X197621632Y-81773005D01*
X197798694Y-81682787D01*
X197959464Y-81565981D01*
X198099981Y-81425464D01*
X198216787Y-81264694D01*
X198296515Y-81108218D01*
X198344490Y-81057423D01*
X198412311Y-81040628D01*
X198478446Y-81063165D01*
X198517484Y-81108218D01*
X198597213Y-81264694D01*
X198714019Y-81425464D01*
X198854536Y-81565981D01*
X198984442Y-81660363D01*
X199015309Y-81682789D01*
X199017285Y-81684000D01*
X199017878Y-81684656D01*
X199019248Y-81685651D01*
X199019039Y-81685938D01*
X199064163Y-81735810D01*
X199076500Y-81789730D01*
X199076500Y-84027705D01*
X199056815Y-84094744D01*
X199004011Y-84140499D01*
X198934853Y-84150443D01*
X198871297Y-84121418D01*
X198852182Y-84100591D01*
X198832666Y-84073730D01*
X198740981Y-83947536D01*
X198600464Y-83807019D01*
X198439694Y-83690213D01*
X198262632Y-83599994D01*
X198262629Y-83599993D01*
X198073637Y-83538587D01*
X197897192Y-83510641D01*
X197877361Y-83507500D01*
X197678639Y-83507500D01*
X197658808Y-83510641D01*
X197482362Y-83538587D01*
X197293370Y-83599993D01*
X197293367Y-83599994D01*
X197116305Y-83690213D01*
X196955533Y-83807021D01*
X196815021Y-83947533D01*
X196698213Y-84108305D01*
X196607994Y-84285367D01*
X196607993Y-84285370D01*
X196546587Y-84474362D01*
X196515500Y-84670639D01*
X196515500Y-84869360D01*
X196546587Y-85065637D01*
X196607993Y-85254629D01*
X196607994Y-85254632D01*
X196653424Y-85343792D01*
X196698213Y-85431694D01*
X196815019Y-85592464D01*
X196955536Y-85732981D01*
X197116306Y-85849787D01*
X197202029Y-85893465D01*
X197293367Y-85940005D01*
X197293370Y-85940006D01*
X197370295Y-85965000D01*
X197482364Y-86001413D01*
X197678639Y-86032500D01*
X197678640Y-86032500D01*
X197877360Y-86032500D01*
X197877361Y-86032500D01*
X198073636Y-86001413D01*
X198262632Y-85940005D01*
X198439694Y-85849787D01*
X198600464Y-85732981D01*
X198740981Y-85592464D01*
X198852182Y-85439409D01*
X198907512Y-85396743D01*
X198977125Y-85390764D01*
X199038920Y-85423370D01*
X199073277Y-85484208D01*
X199076500Y-85512294D01*
X199076500Y-100835602D01*
X199056815Y-100902641D01*
X199040181Y-100923283D01*
X197275284Y-102688181D01*
X197213961Y-102721666D01*
X197187603Y-102724500D01*
X137809970Y-102724500D01*
X137809954Y-102724499D01*
X137802358Y-102724499D01*
X137644243Y-102724499D01*
X137567879Y-102744961D01*
X137491514Y-102765423D01*
X137491509Y-102765426D01*
X137354590Y-102844475D01*
X137354582Y-102844481D01*
X128844481Y-111354582D01*
X128844479Y-111354585D01*
X128797672Y-111435657D01*
X128797669Y-111435663D01*
X128794360Y-111441395D01*
X128765423Y-111491515D01*
X128753895Y-111534536D01*
X128749996Y-111543344D01*
X128733394Y-111562957D01*
X128720021Y-111584899D01*
X128711195Y-111589185D01*
X128704857Y-111596675D01*
X128680284Y-111604200D01*
X128657173Y-111615427D01*
X128647432Y-111614262D01*
X128638050Y-111617136D01*
X128613311Y-111610182D01*
X128587798Y-111607132D01*
X128573891Y-111599102D01*
X128570787Y-111598230D01*
X128569114Y-111596344D01*
X128562300Y-111592410D01*
X128547331Y-111581204D01*
X128547328Y-111581202D01*
X128412486Y-111530910D01*
X128412485Y-111530909D01*
X128412483Y-111530909D01*
X128352873Y-111524500D01*
X128352863Y-111524500D01*
X127757129Y-111524500D01*
X127757123Y-111524501D01*
X127697516Y-111530908D01*
X127562671Y-111581202D01*
X127562664Y-111581206D01*
X127447455Y-111667452D01*
X127447452Y-111667455D01*
X127361206Y-111782664D01*
X127361202Y-111782671D01*
X127310908Y-111917517D01*
X127304501Y-111977116D01*
X127304500Y-111977135D01*
X127304500Y-113992187D01*
X127284815Y-114059226D01*
X127254811Y-114091453D01*
X127152812Y-114167809D01*
X127152809Y-114167812D01*
X127066649Y-114282906D01*
X127066645Y-114282913D01*
X127016403Y-114417620D01*
X127016401Y-114417627D01*
X127010000Y-114477155D01*
X127010000Y-115750000D01*
X127906446Y-115750000D01*
X128613554Y-115750000D01*
X128706445Y-115750000D01*
X129913554Y-115750000D01*
X130006445Y-115750000D01*
X131213554Y-115750000D01*
X131306445Y-115750000D01*
X131260000Y-115703554D01*
X131213554Y-115750000D01*
X130006445Y-115750000D01*
X129960000Y-115703554D01*
X129913554Y-115750000D01*
X128706445Y-115750000D01*
X128660000Y-115703554D01*
X128613554Y-115750000D01*
X127906446Y-115750000D01*
X127906446Y-115749999D01*
X128023222Y-115633224D01*
X128339267Y-115317179D01*
X128495000Y-115317179D01*
X128495000Y-115382821D01*
X128520119Y-115443465D01*
X128566535Y-115489881D01*
X128627179Y-115515000D01*
X128692821Y-115515000D01*
X128753465Y-115489881D01*
X128799881Y-115443465D01*
X128825000Y-115382821D01*
X128825000Y-115350000D01*
X129013554Y-115350000D01*
X129310000Y-115646446D01*
X129606446Y-115350000D01*
X129573625Y-115317179D01*
X129795000Y-115317179D01*
X129795000Y-115382821D01*
X129820119Y-115443465D01*
X129866535Y-115489881D01*
X129927179Y-115515000D01*
X129992821Y-115515000D01*
X130053465Y-115489881D01*
X130099881Y-115443465D01*
X130125000Y-115382821D01*
X130125000Y-115350000D01*
X130313554Y-115350000D01*
X130610000Y-115646446D01*
X130906446Y-115350000D01*
X130873625Y-115317179D01*
X131095000Y-115317179D01*
X131095000Y-115382821D01*
X131120119Y-115443465D01*
X131166535Y-115489881D01*
X131227179Y-115515000D01*
X131292821Y-115515000D01*
X131353465Y-115489881D01*
X131399881Y-115443465D01*
X131425000Y-115382821D01*
X131425000Y-115350000D01*
X131613554Y-115350000D01*
X132013554Y-115750000D01*
X132910000Y-115750000D01*
X132910000Y-114477172D01*
X132909999Y-114477155D01*
X132903598Y-114417627D01*
X132903596Y-114417620D01*
X132853354Y-114282913D01*
X132853350Y-114282906D01*
X132767190Y-114167812D01*
X132664688Y-114091078D01*
X132622818Y-114035144D01*
X132615000Y-113991812D01*
X132615000Y-113375000D01*
X132115000Y-113375000D01*
X132115000Y-114797192D01*
X132095315Y-114864231D01*
X132078681Y-114884873D01*
X131613554Y-115350000D01*
X131425000Y-115350000D01*
X131425000Y-115317179D01*
X131399881Y-115256535D01*
X131353465Y-115210119D01*
X131292821Y-115185000D01*
X131227179Y-115185000D01*
X131166535Y-115210119D01*
X131120119Y-115256535D01*
X131095000Y-115317179D01*
X130873625Y-115317179D01*
X130610000Y-115053554D01*
X130313554Y-115350000D01*
X130125000Y-115350000D01*
X130125000Y-115317179D01*
X130099881Y-115256535D01*
X130053465Y-115210119D01*
X129992821Y-115185000D01*
X129927179Y-115185000D01*
X129866535Y-115210119D01*
X129820119Y-115256535D01*
X129795000Y-115317179D01*
X129573625Y-115317179D01*
X129310000Y-115053554D01*
X129013554Y-115350000D01*
X128825000Y-115350000D01*
X128825000Y-115317179D01*
X128799881Y-115256535D01*
X128753465Y-115210119D01*
X128692821Y-115185000D01*
X128627179Y-115185000D01*
X128566535Y-115210119D01*
X128520119Y-115256535D01*
X128495000Y-115317179D01*
X128339267Y-115317179D01*
X128483223Y-115173223D01*
X128898332Y-114758112D01*
X128959655Y-114724627D01*
X128999264Y-114722504D01*
X129027127Y-114725500D01*
X129622872Y-114725499D01*
X129623643Y-114725416D01*
X129623820Y-114725448D01*
X129626195Y-114725321D01*
X129626225Y-114725881D01*
X129692403Y-114737822D01*
X129724579Y-114761025D01*
X129959999Y-114996445D01*
X130195419Y-114761025D01*
X130256742Y-114727540D01*
X130293806Y-114725553D01*
X130293806Y-114725500D01*
X130293811Y-114725499D01*
X130293821Y-114725322D01*
X130295974Y-114725437D01*
X130296356Y-114725417D01*
X130297127Y-114725500D01*
X130892872Y-114725499D01*
X130920732Y-114722504D01*
X130989491Y-114734911D01*
X131021667Y-114758113D01*
X131260000Y-114996446D01*
X131614999Y-114641446D01*
X131615000Y-114641445D01*
X131615000Y-112875000D01*
X132115000Y-112875000D01*
X132615000Y-112875000D01*
X132615000Y-111977172D01*
X132614999Y-111977155D01*
X132608598Y-111917627D01*
X132608596Y-111917620D01*
X132558354Y-111782913D01*
X132558350Y-111782906D01*
X132472190Y-111667812D01*
X132472187Y-111667809D01*
X132357093Y-111581649D01*
X132357086Y-111581645D01*
X132222379Y-111531403D01*
X132222372Y-111531401D01*
X132162844Y-111525000D01*
X132115000Y-111525000D01*
X132115000Y-112875000D01*
X131615000Y-112875000D01*
X131615000Y-111603896D01*
X131623644Y-111574455D01*
X131630168Y-111544469D01*
X131633922Y-111539453D01*
X131634685Y-111536857D01*
X131651319Y-111516215D01*
X131781577Y-111385957D01*
X136459366Y-106708170D01*
X138042617Y-105124919D01*
X138103940Y-105091434D01*
X138130298Y-105088600D01*
X150736103Y-105088600D01*
X150803142Y-105108285D01*
X150848897Y-105161089D01*
X150858841Y-105230247D01*
X150829816Y-105293803D01*
X150823784Y-105300281D01*
X144756286Y-111367778D01*
X144644481Y-111479582D01*
X144644479Y-111479584D01*
X144617337Y-111526597D01*
X144614848Y-111530909D01*
X144565423Y-111616515D01*
X144553467Y-111661131D01*
X144548629Y-111671324D01*
X144532570Y-111689309D01*
X144520021Y-111709899D01*
X144509721Y-111714901D01*
X144502096Y-111723443D01*
X144478860Y-111729892D01*
X144457173Y-111740427D01*
X144445803Y-111739067D01*
X144434771Y-111742130D01*
X144411740Y-111734994D01*
X144387798Y-111732132D01*
X144370773Y-111722302D01*
X144368032Y-111721453D01*
X144366833Y-111720027D01*
X144362300Y-111717410D01*
X144358948Y-111714901D01*
X144347331Y-111706204D01*
X144347328Y-111706202D01*
X144212486Y-111655910D01*
X144212485Y-111655909D01*
X144212483Y-111655909D01*
X144152873Y-111649500D01*
X144152863Y-111649500D01*
X143557129Y-111649500D01*
X143557123Y-111649501D01*
X143497516Y-111655908D01*
X143362671Y-111706202D01*
X143362664Y-111706206D01*
X143247455Y-111792452D01*
X143247452Y-111792455D01*
X143161206Y-111907664D01*
X143161202Y-111907671D01*
X143110908Y-112042517D01*
X143104501Y-112102116D01*
X143104500Y-112102135D01*
X143104500Y-114117187D01*
X143084815Y-114184226D01*
X143054811Y-114216453D01*
X142952812Y-114292809D01*
X142952809Y-114292812D01*
X142866649Y-114407906D01*
X142866645Y-114407913D01*
X142816403Y-114542620D01*
X142816401Y-114542627D01*
X142810000Y-114602155D01*
X142810000Y-115875000D01*
X143706446Y-115875000D01*
X144413554Y-115875000D01*
X144506445Y-115875000D01*
X145713554Y-115875000D01*
X145806445Y-115875000D01*
X147013554Y-115875000D01*
X147106445Y-115875000D01*
X147060000Y-115828554D01*
X147013554Y-115875000D01*
X145806445Y-115875000D01*
X145760000Y-115828554D01*
X145713554Y-115875000D01*
X144506445Y-115875000D01*
X144460000Y-115828554D01*
X144413554Y-115875000D01*
X143706446Y-115875000D01*
X143706446Y-115874999D01*
X143823222Y-115758224D01*
X144139267Y-115442179D01*
X144295000Y-115442179D01*
X144295000Y-115507821D01*
X144320119Y-115568465D01*
X144366535Y-115614881D01*
X144427179Y-115640000D01*
X144492821Y-115640000D01*
X144553465Y-115614881D01*
X144599881Y-115568465D01*
X144625000Y-115507821D01*
X144625000Y-115475000D01*
X144813554Y-115475000D01*
X145110000Y-115771446D01*
X145406446Y-115475000D01*
X145373625Y-115442179D01*
X145595000Y-115442179D01*
X145595000Y-115507821D01*
X145620119Y-115568465D01*
X145666535Y-115614881D01*
X145727179Y-115640000D01*
X145792821Y-115640000D01*
X145853465Y-115614881D01*
X145899881Y-115568465D01*
X145925000Y-115507821D01*
X145925000Y-115475000D01*
X146113554Y-115475000D01*
X146410000Y-115771446D01*
X146706446Y-115475000D01*
X146673625Y-115442179D01*
X146895000Y-115442179D01*
X146895000Y-115507821D01*
X146920119Y-115568465D01*
X146966535Y-115614881D01*
X147027179Y-115640000D01*
X147092821Y-115640000D01*
X147153465Y-115614881D01*
X147199881Y-115568465D01*
X147225000Y-115507821D01*
X147225000Y-115475000D01*
X147413554Y-115475000D01*
X147813554Y-115875000D01*
X148710000Y-115875000D01*
X148710000Y-114602172D01*
X148709999Y-114602155D01*
X148703598Y-114542627D01*
X148703596Y-114542620D01*
X148653354Y-114407913D01*
X148653350Y-114407906D01*
X148567190Y-114292812D01*
X148464688Y-114216078D01*
X148422818Y-114160144D01*
X148415000Y-114116812D01*
X148415000Y-113500000D01*
X147915000Y-113500000D01*
X147915000Y-114922192D01*
X147895315Y-114989231D01*
X147878681Y-115009873D01*
X147413554Y-115475000D01*
X147225000Y-115475000D01*
X147225000Y-115442179D01*
X147199881Y-115381535D01*
X147153465Y-115335119D01*
X147092821Y-115310000D01*
X147027179Y-115310000D01*
X146966535Y-115335119D01*
X146920119Y-115381535D01*
X146895000Y-115442179D01*
X146673625Y-115442179D01*
X146410000Y-115178554D01*
X146113554Y-115475000D01*
X145925000Y-115475000D01*
X145925000Y-115442179D01*
X145899881Y-115381535D01*
X145853465Y-115335119D01*
X145792821Y-115310000D01*
X145727179Y-115310000D01*
X145666535Y-115335119D01*
X145620119Y-115381535D01*
X145595000Y-115442179D01*
X145373625Y-115442179D01*
X145110000Y-115178554D01*
X144813554Y-115475000D01*
X144625000Y-115475000D01*
X144625000Y-115442179D01*
X144599881Y-115381535D01*
X144553465Y-115335119D01*
X144492821Y-115310000D01*
X144427179Y-115310000D01*
X144366535Y-115335119D01*
X144320119Y-115381535D01*
X144295000Y-115442179D01*
X144139267Y-115442179D01*
X144283223Y-115298223D01*
X144698332Y-114883112D01*
X144759655Y-114849627D01*
X144799264Y-114847504D01*
X144827127Y-114850500D01*
X145422872Y-114850499D01*
X145423643Y-114850416D01*
X145423820Y-114850448D01*
X145426195Y-114850321D01*
X145426225Y-114850881D01*
X145492403Y-114862822D01*
X145524579Y-114886025D01*
X145759999Y-115121445D01*
X145995419Y-114886025D01*
X146056742Y-114852540D01*
X146093806Y-114850553D01*
X146093806Y-114850500D01*
X146093811Y-114850499D01*
X146093821Y-114850322D01*
X146095974Y-114850437D01*
X146096356Y-114850417D01*
X146097127Y-114850500D01*
X146692872Y-114850499D01*
X146720732Y-114847504D01*
X146789491Y-114859911D01*
X146821667Y-114883113D01*
X147060000Y-115121446D01*
X147414999Y-114766446D01*
X147415000Y-114766445D01*
X147415000Y-113000000D01*
X147915000Y-113000000D01*
X148415000Y-113000000D01*
X148415000Y-112102172D01*
X148414999Y-112102155D01*
X148408598Y-112042627D01*
X148408596Y-112042620D01*
X148358354Y-111907913D01*
X148358350Y-111907906D01*
X148272190Y-111792812D01*
X148272187Y-111792809D01*
X148157093Y-111706649D01*
X148157086Y-111706645D01*
X148022379Y-111656403D01*
X148022372Y-111656401D01*
X147962844Y-111650000D01*
X147915000Y-111650000D01*
X147915000Y-113000000D01*
X147415000Y-113000000D01*
X147415000Y-111728896D01*
X147423644Y-111699455D01*
X147430168Y-111669469D01*
X147433922Y-111664453D01*
X147434685Y-111661857D01*
X147451319Y-111641215D01*
X147581577Y-111510957D01*
X152188716Y-106903819D01*
X152250039Y-106870334D01*
X152276397Y-106867500D01*
X163032202Y-106867500D01*
X163099241Y-106887185D01*
X163144996Y-106939989D01*
X163154940Y-107009147D01*
X163125915Y-107072703D01*
X163119883Y-107079181D01*
X158844481Y-111354582D01*
X158844479Y-111354585D01*
X158797672Y-111435657D01*
X158797669Y-111435663D01*
X158794360Y-111441395D01*
X158765423Y-111491515D01*
X158753895Y-111534536D01*
X158749996Y-111543344D01*
X158733394Y-111562957D01*
X158720021Y-111584899D01*
X158711195Y-111589185D01*
X158704857Y-111596675D01*
X158680284Y-111604200D01*
X158657173Y-111615427D01*
X158647432Y-111614262D01*
X158638050Y-111617136D01*
X158613311Y-111610182D01*
X158587798Y-111607132D01*
X158573891Y-111599102D01*
X158570787Y-111598230D01*
X158569114Y-111596344D01*
X158562300Y-111592410D01*
X158547331Y-111581204D01*
X158547328Y-111581202D01*
X158412486Y-111530910D01*
X158412485Y-111530909D01*
X158412483Y-111530909D01*
X158352873Y-111524500D01*
X158352863Y-111524500D01*
X157757129Y-111524500D01*
X157757123Y-111524501D01*
X157697516Y-111530908D01*
X157562671Y-111581202D01*
X157562664Y-111581206D01*
X157447455Y-111667452D01*
X157447452Y-111667455D01*
X157361206Y-111782664D01*
X157361202Y-111782671D01*
X157310908Y-111917517D01*
X157304501Y-111977116D01*
X157304500Y-111977135D01*
X157304500Y-113992187D01*
X157284815Y-114059226D01*
X157254811Y-114091453D01*
X157152812Y-114167809D01*
X157152809Y-114167812D01*
X157066649Y-114282906D01*
X157066645Y-114282913D01*
X157016403Y-114417620D01*
X157016401Y-114417627D01*
X157010000Y-114477155D01*
X157010000Y-115750000D01*
X157906446Y-115750000D01*
X158613554Y-115750000D01*
X158706445Y-115750000D01*
X159913554Y-115750000D01*
X160006445Y-115750000D01*
X161213554Y-115750000D01*
X161306445Y-115750000D01*
X161260000Y-115703554D01*
X161213554Y-115750000D01*
X160006445Y-115750000D01*
X159960000Y-115703554D01*
X159913554Y-115750000D01*
X158706445Y-115750000D01*
X158660000Y-115703554D01*
X158613554Y-115750000D01*
X157906446Y-115750000D01*
X157906446Y-115749999D01*
X158023222Y-115633224D01*
X158339267Y-115317179D01*
X158495000Y-115317179D01*
X158495000Y-115382821D01*
X158520119Y-115443465D01*
X158566535Y-115489881D01*
X158627179Y-115515000D01*
X158692821Y-115515000D01*
X158753465Y-115489881D01*
X158799881Y-115443465D01*
X158825000Y-115382821D01*
X158825000Y-115350000D01*
X159013554Y-115350000D01*
X159310000Y-115646446D01*
X159606446Y-115350000D01*
X159573625Y-115317179D01*
X159795000Y-115317179D01*
X159795000Y-115382821D01*
X159820119Y-115443465D01*
X159866535Y-115489881D01*
X159927179Y-115515000D01*
X159992821Y-115515000D01*
X160053465Y-115489881D01*
X160099881Y-115443465D01*
X160125000Y-115382821D01*
X160125000Y-115350000D01*
X160313554Y-115350000D01*
X160610000Y-115646446D01*
X160906446Y-115350000D01*
X160873625Y-115317179D01*
X161095000Y-115317179D01*
X161095000Y-115382821D01*
X161120119Y-115443465D01*
X161166535Y-115489881D01*
X161227179Y-115515000D01*
X161292821Y-115515000D01*
X161353465Y-115489881D01*
X161399881Y-115443465D01*
X161425000Y-115382821D01*
X161425000Y-115350000D01*
X161613554Y-115350000D01*
X162013554Y-115750000D01*
X162910000Y-115750000D01*
X162910000Y-114477172D01*
X162909999Y-114477155D01*
X162903598Y-114417627D01*
X162903596Y-114417620D01*
X162853354Y-114282913D01*
X162853350Y-114282906D01*
X162767190Y-114167812D01*
X162664688Y-114091078D01*
X162622818Y-114035144D01*
X162615000Y-113991812D01*
X162615000Y-113375000D01*
X162115000Y-113375000D01*
X162115000Y-114797192D01*
X162095315Y-114864231D01*
X162078681Y-114884873D01*
X161613554Y-115350000D01*
X161425000Y-115350000D01*
X161425000Y-115317179D01*
X161399881Y-115256535D01*
X161353465Y-115210119D01*
X161292821Y-115185000D01*
X161227179Y-115185000D01*
X161166535Y-115210119D01*
X161120119Y-115256535D01*
X161095000Y-115317179D01*
X160873625Y-115317179D01*
X160610000Y-115053554D01*
X160313554Y-115350000D01*
X160125000Y-115350000D01*
X160125000Y-115317179D01*
X160099881Y-115256535D01*
X160053465Y-115210119D01*
X159992821Y-115185000D01*
X159927179Y-115185000D01*
X159866535Y-115210119D01*
X159820119Y-115256535D01*
X159795000Y-115317179D01*
X159573625Y-115317179D01*
X159310000Y-115053554D01*
X159013554Y-115350000D01*
X158825000Y-115350000D01*
X158825000Y-115317179D01*
X158799881Y-115256535D01*
X158753465Y-115210119D01*
X158692821Y-115185000D01*
X158627179Y-115185000D01*
X158566535Y-115210119D01*
X158520119Y-115256535D01*
X158495000Y-115317179D01*
X158339267Y-115317179D01*
X158483223Y-115173223D01*
X158898332Y-114758112D01*
X158959655Y-114724627D01*
X158999264Y-114722504D01*
X159027127Y-114725500D01*
X159622872Y-114725499D01*
X159623643Y-114725416D01*
X159623820Y-114725448D01*
X159626195Y-114725321D01*
X159626225Y-114725881D01*
X159692403Y-114737822D01*
X159724579Y-114761025D01*
X159959999Y-114996445D01*
X160195419Y-114761025D01*
X160256742Y-114727540D01*
X160293806Y-114725553D01*
X160293806Y-114725500D01*
X160293811Y-114725499D01*
X160293821Y-114725322D01*
X160295974Y-114725437D01*
X160296356Y-114725417D01*
X160297127Y-114725500D01*
X160892872Y-114725499D01*
X160920732Y-114722504D01*
X160989491Y-114734911D01*
X161021667Y-114758113D01*
X161260000Y-114996446D01*
X161614999Y-114641446D01*
X161615000Y-114641445D01*
X161615000Y-113249000D01*
X161634685Y-113181961D01*
X161687489Y-113136206D01*
X161739000Y-113125000D01*
X161865000Y-113125000D01*
X161865000Y-112999000D01*
X161884685Y-112931961D01*
X161937489Y-112886206D01*
X161989000Y-112875000D01*
X162615000Y-112875000D01*
X162615000Y-112447800D01*
X162634685Y-112380761D01*
X162687489Y-112335006D01*
X162739000Y-112323800D01*
X200743431Y-112323800D01*
X200743447Y-112323801D01*
X200751043Y-112323801D01*
X200909154Y-112323801D01*
X200909157Y-112323801D01*
X201061885Y-112282877D01*
X201112004Y-112253939D01*
X201198816Y-112203820D01*
X201310620Y-112092016D01*
X201310620Y-112092014D01*
X201320828Y-112081807D01*
X201320829Y-112081804D01*
X207777520Y-105625116D01*
X207856577Y-105488184D01*
X207897501Y-105335457D01*
X207897501Y-105177342D01*
X207897501Y-105169747D01*
X207897500Y-105169729D01*
X207897500Y-84519999D01*
X214319865Y-84519999D01*
X214319865Y-84520000D01*
X215174351Y-84520000D01*
X215131910Y-84593508D01*
X215100750Y-84709802D01*
X215100750Y-84830198D01*
X215131910Y-84946492D01*
X215174351Y-85020000D01*
X214319865Y-85020000D01*
X214327074Y-85065517D01*
X214388456Y-85254435D01*
X214478641Y-85431432D01*
X214595403Y-85592139D01*
X214595403Y-85592140D01*
X214735859Y-85732596D01*
X214896567Y-85849358D01*
X215073562Y-85939542D01*
X215262473Y-86000922D01*
X215308000Y-86008133D01*
X215308000Y-85153649D01*
X215381508Y-85196090D01*
X215497802Y-85227250D01*
X215618198Y-85227250D01*
X215734492Y-85196090D01*
X215808000Y-85153649D01*
X215808000Y-86008132D01*
X215853526Y-86000922D01*
X216042437Y-85939542D01*
X216219432Y-85849358D01*
X216380139Y-85732596D01*
X216380140Y-85732596D01*
X216520596Y-85592140D01*
X216520596Y-85592139D01*
X216637358Y-85431432D01*
X216727543Y-85254435D01*
X216788925Y-85065517D01*
X216796134Y-85020000D01*
X215941649Y-85020000D01*
X215984090Y-84946492D01*
X216015250Y-84830198D01*
X216015250Y-84709802D01*
X215984090Y-84593508D01*
X215941649Y-84520000D01*
X216796135Y-84520000D01*
X216796134Y-84519999D01*
X216788925Y-84474482D01*
X216727543Y-84285564D01*
X216637358Y-84108567D01*
X216520596Y-83947860D01*
X216520596Y-83947859D01*
X216380140Y-83807403D01*
X216219432Y-83690641D01*
X216042434Y-83600456D01*
X216042436Y-83600456D01*
X215853517Y-83539074D01*
X215808000Y-83531865D01*
X215808000Y-84386350D01*
X215734492Y-84343910D01*
X215618198Y-84312750D01*
X215497802Y-84312750D01*
X215381508Y-84343910D01*
X215308000Y-84386350D01*
X215308000Y-83531865D01*
X215307999Y-83531865D01*
X215262482Y-83539074D01*
X215073564Y-83600456D01*
X214896567Y-83690641D01*
X214735860Y-83807403D01*
X214735859Y-83807403D01*
X214595403Y-83947859D01*
X214595403Y-83947860D01*
X214478641Y-84108567D01*
X214388456Y-84285564D01*
X214327074Y-84474482D01*
X214319865Y-84519999D01*
X207897500Y-84519999D01*
X207897500Y-81789730D01*
X207917185Y-81722691D01*
X207954866Y-81685808D01*
X207954752Y-81685651D01*
X207955823Y-81684872D01*
X207956715Y-81684000D01*
X207958690Y-81682789D01*
X207958689Y-81682789D01*
X207958694Y-81682787D01*
X208119464Y-81565981D01*
X208259981Y-81425464D01*
X208376787Y-81264694D01*
X208456515Y-81108218D01*
X208504490Y-81057423D01*
X208572311Y-81040628D01*
X208638446Y-81063165D01*
X208677484Y-81108218D01*
X208757213Y-81264694D01*
X208874019Y-81425464D01*
X209014536Y-81565981D01*
X209175306Y-81682787D01*
X209236500Y-81713967D01*
X209352367Y-81773005D01*
X209352370Y-81773006D01*
X209434583Y-81799718D01*
X209541364Y-81834413D01*
X209737639Y-81865500D01*
X209737640Y-81865500D01*
X209936360Y-81865500D01*
X209936361Y-81865500D01*
X210132636Y-81834413D01*
X210321632Y-81773005D01*
X210498694Y-81682787D01*
X210659464Y-81565981D01*
X210799981Y-81425464D01*
X210916787Y-81264694D01*
X210996515Y-81108218D01*
X211044490Y-81057423D01*
X211112311Y-81040628D01*
X211178446Y-81063165D01*
X211217484Y-81108218D01*
X211297213Y-81264694D01*
X211414019Y-81425464D01*
X211554536Y-81565981D01*
X211715306Y-81682787D01*
X211776500Y-81713967D01*
X211892367Y-81773005D01*
X211892370Y-81773006D01*
X211974583Y-81799718D01*
X212081364Y-81834413D01*
X212277639Y-81865500D01*
X212277640Y-81865500D01*
X212476360Y-81865500D01*
X212476361Y-81865500D01*
X212672636Y-81834413D01*
X212861632Y-81773005D01*
X213038694Y-81682787D01*
X213199464Y-81565981D01*
X213339981Y-81425464D01*
X213456787Y-81264694D01*
X213536515Y-81108218D01*
X213584490Y-81057423D01*
X213652311Y-81040628D01*
X213718446Y-81063165D01*
X213757484Y-81108218D01*
X213837213Y-81264694D01*
X213954019Y-81425464D01*
X214094536Y-81565981D01*
X214255306Y-81682787D01*
X214316500Y-81713967D01*
X214432367Y-81773005D01*
X214432370Y-81773006D01*
X214514583Y-81799718D01*
X214621364Y-81834413D01*
X214817639Y-81865500D01*
X214817640Y-81865500D01*
X215016360Y-81865500D01*
X215016361Y-81865500D01*
X215212636Y-81834413D01*
X215401632Y-81773005D01*
X215578694Y-81682787D01*
X215739464Y-81565981D01*
X215879981Y-81425464D01*
X215996787Y-81264694D01*
X216076515Y-81108218D01*
X216124490Y-81057423D01*
X216192311Y-81040628D01*
X216258446Y-81063165D01*
X216297484Y-81108218D01*
X216377213Y-81264694D01*
X216494019Y-81425464D01*
X216634536Y-81565981D01*
X216795306Y-81682787D01*
X216856500Y-81713967D01*
X216972367Y-81773005D01*
X216972370Y-81773006D01*
X217054583Y-81799718D01*
X217161364Y-81834413D01*
X217357639Y-81865500D01*
X217357640Y-81865500D01*
X217556360Y-81865500D01*
X217556361Y-81865500D01*
X217752636Y-81834413D01*
X217941632Y-81773005D01*
X218118694Y-81682787D01*
X218279464Y-81565981D01*
X218419981Y-81425464D01*
X218536787Y-81264694D01*
X218627005Y-81087632D01*
X218688413Y-80898636D01*
X218719500Y-80702361D01*
X218719500Y-80503639D01*
X218688413Y-80307364D01*
X218627005Y-80118368D01*
X218627005Y-80118367D01*
X218536786Y-79941305D01*
X218420216Y-79780860D01*
X218419981Y-79780536D01*
X218279464Y-79640019D01*
X218118694Y-79523213D01*
X217941632Y-79432994D01*
X217941629Y-79432993D01*
X217752637Y-79371587D01*
X217632227Y-79352516D01*
X217556361Y-79340500D01*
X217357639Y-79340500D01*
X217292214Y-79350862D01*
X217161362Y-79371587D01*
X216972370Y-79432993D01*
X216972367Y-79432994D01*
X216795305Y-79523213D01*
X216634533Y-79640021D01*
X216494021Y-79780533D01*
X216377213Y-79941305D01*
X216297485Y-80097780D01*
X216249510Y-80148576D01*
X216181689Y-80165371D01*
X216115554Y-80142833D01*
X216076515Y-80097780D01*
X215996786Y-79941305D01*
X215880216Y-79780860D01*
X215879981Y-79780536D01*
X215739464Y-79640019D01*
X215578694Y-79523213D01*
X215401632Y-79432994D01*
X215401629Y-79432993D01*
X215212637Y-79371587D01*
X215092227Y-79352516D01*
X215016361Y-79340500D01*
X214817639Y-79340500D01*
X214752214Y-79350862D01*
X214621362Y-79371587D01*
X214432370Y-79432993D01*
X214432367Y-79432994D01*
X214255305Y-79523213D01*
X214094533Y-79640021D01*
X213954021Y-79780533D01*
X213837213Y-79941305D01*
X213757485Y-80097780D01*
X213709510Y-80148576D01*
X213641689Y-80165371D01*
X213575554Y-80142833D01*
X213536515Y-80097780D01*
X213456786Y-79941305D01*
X213340216Y-79780860D01*
X213339981Y-79780536D01*
X213199464Y-79640019D01*
X213038694Y-79523213D01*
X212861632Y-79432994D01*
X212861629Y-79432993D01*
X212672637Y-79371587D01*
X212552227Y-79352516D01*
X212476361Y-79340500D01*
X212277639Y-79340500D01*
X212212214Y-79350862D01*
X212081362Y-79371587D01*
X211892370Y-79432993D01*
X211892367Y-79432994D01*
X211715305Y-79523213D01*
X211554533Y-79640021D01*
X211414021Y-79780533D01*
X211297213Y-79941305D01*
X211217485Y-80097780D01*
X211169510Y-80148576D01*
X211101689Y-80165371D01*
X211035554Y-80142833D01*
X210996515Y-80097780D01*
X210916786Y-79941305D01*
X210800216Y-79780860D01*
X210799981Y-79780536D01*
X210659464Y-79640019D01*
X210498694Y-79523213D01*
X210321632Y-79432994D01*
X210321629Y-79432993D01*
X210132637Y-79371587D01*
X210012227Y-79352516D01*
X209936361Y-79340500D01*
X209737639Y-79340500D01*
X209672214Y-79350862D01*
X209541362Y-79371587D01*
X209352370Y-79432993D01*
X209352367Y-79432994D01*
X209175305Y-79523213D01*
X209014533Y-79640021D01*
X208874021Y-79780533D01*
X208757213Y-79941305D01*
X208677485Y-80097780D01*
X208629510Y-80148576D01*
X208561689Y-80165371D01*
X208495554Y-80142833D01*
X208456515Y-80097780D01*
X208376786Y-79941305D01*
X208260216Y-79780860D01*
X208259981Y-79780536D01*
X208119464Y-79640019D01*
X207958694Y-79523213D01*
X207808361Y-79446614D01*
X207757565Y-79398639D01*
X207740770Y-79330818D01*
X207763308Y-79264683D01*
X207776969Y-79248454D01*
X210317520Y-76707906D01*
X210396577Y-76570974D01*
X210437501Y-76418247D01*
X210437501Y-76260132D01*
X210437501Y-76252537D01*
X210437500Y-76252519D01*
X210437500Y-56262730D01*
X210457185Y-56195691D01*
X210494866Y-56158808D01*
X210494752Y-56158651D01*
X210495823Y-56157872D01*
X210496715Y-56157000D01*
X210498690Y-56155789D01*
X210498689Y-56155789D01*
X210498694Y-56155787D01*
X210659464Y-56038981D01*
X210799981Y-55898464D01*
X210916787Y-55737694D01*
X210996515Y-55581218D01*
X211044490Y-55530423D01*
X211112311Y-55513628D01*
X211178446Y-55536165D01*
X211217484Y-55581218D01*
X211297213Y-55737694D01*
X211414019Y-55898464D01*
X211554536Y-56038981D01*
X211715306Y-56155787D01*
X211776500Y-56186967D01*
X211892367Y-56246005D01*
X211892370Y-56246006D01*
X211986866Y-56276709D01*
X212081364Y-56307413D01*
X212277639Y-56338500D01*
X212277640Y-56338500D01*
X212476360Y-56338500D01*
X212476361Y-56338500D01*
X212672636Y-56307413D01*
X212861632Y-56246005D01*
X213038694Y-56155787D01*
X213199464Y-56038981D01*
X213339981Y-55898464D01*
X213456787Y-55737694D01*
X213536515Y-55581218D01*
X213584490Y-55530423D01*
X213652311Y-55513628D01*
X213718446Y-55536165D01*
X213757484Y-55581218D01*
X213837213Y-55737694D01*
X213954019Y-55898464D01*
X214094536Y-56038981D01*
X214255306Y-56155787D01*
X214316500Y-56186967D01*
X214432367Y-56246005D01*
X214432370Y-56246006D01*
X214526866Y-56276709D01*
X214621364Y-56307413D01*
X214817639Y-56338500D01*
X214817640Y-56338500D01*
X215016360Y-56338500D01*
X215016361Y-56338500D01*
X215212636Y-56307413D01*
X215401632Y-56246005D01*
X215578694Y-56155787D01*
X215739464Y-56038981D01*
X215879981Y-55898464D01*
X215996787Y-55737694D01*
X216076515Y-55581218D01*
X216124490Y-55530423D01*
X216192311Y-55513628D01*
X216258446Y-55536165D01*
X216297484Y-55581218D01*
X216377213Y-55737694D01*
X216494019Y-55898464D01*
X216634536Y-56038981D01*
X216795306Y-56155787D01*
X216856500Y-56186967D01*
X216972367Y-56246005D01*
X216972370Y-56246006D01*
X217066866Y-56276709D01*
X217161364Y-56307413D01*
X217357639Y-56338500D01*
X217357640Y-56338500D01*
X217556360Y-56338500D01*
X217556361Y-56338500D01*
X217752636Y-56307413D01*
X217941632Y-56246005D01*
X218118694Y-56155787D01*
X218279464Y-56038981D01*
X218419981Y-55898464D01*
X218536787Y-55737694D01*
X218627005Y-55560632D01*
X218688413Y-55371636D01*
X218719500Y-55175361D01*
X218719500Y-54976639D01*
X218688413Y-54780364D01*
X218657709Y-54685866D01*
X218627006Y-54591370D01*
X218627005Y-54591367D01*
X218560072Y-54460006D01*
X218536787Y-54414306D01*
X218419981Y-54253536D01*
X218279464Y-54113019D01*
X218118694Y-53996213D01*
X218111835Y-53992718D01*
X217941632Y-53905994D01*
X217941629Y-53905993D01*
X217752637Y-53844587D01*
X217654498Y-53829043D01*
X217556361Y-53813500D01*
X217357639Y-53813500D01*
X217333988Y-53817246D01*
X217161362Y-53844587D01*
X216972370Y-53905993D01*
X216972367Y-53905994D01*
X216795305Y-53996213D01*
X216634533Y-54113021D01*
X216494021Y-54253533D01*
X216377213Y-54414305D01*
X216297485Y-54570780D01*
X216249510Y-54621576D01*
X216181689Y-54638371D01*
X216115554Y-54615833D01*
X216076515Y-54570780D01*
X216032868Y-54485119D01*
X215996787Y-54414306D01*
X215879981Y-54253536D01*
X215739464Y-54113019D01*
X215578694Y-53996213D01*
X215571835Y-53992718D01*
X215401632Y-53905994D01*
X215401629Y-53905993D01*
X215212637Y-53844587D01*
X215114498Y-53829043D01*
X215016361Y-53813500D01*
X214817639Y-53813500D01*
X214793988Y-53817246D01*
X214621362Y-53844587D01*
X214432370Y-53905993D01*
X214432367Y-53905994D01*
X214255305Y-53996213D01*
X214094533Y-54113021D01*
X213954021Y-54253533D01*
X213837213Y-54414305D01*
X213757485Y-54570780D01*
X213709510Y-54621576D01*
X213641689Y-54638371D01*
X213575554Y-54615833D01*
X213536515Y-54570780D01*
X213492868Y-54485119D01*
X213456787Y-54414306D01*
X213339981Y-54253536D01*
X213199464Y-54113019D01*
X213038694Y-53996213D01*
X213031835Y-53992718D01*
X212861632Y-53905994D01*
X212861629Y-53905993D01*
X212672637Y-53844587D01*
X212574498Y-53829043D01*
X212476361Y-53813500D01*
X212277639Y-53813500D01*
X212253988Y-53817246D01*
X212081362Y-53844587D01*
X211892370Y-53905993D01*
X211892367Y-53905994D01*
X211715305Y-53996213D01*
X211554533Y-54113021D01*
X211414021Y-54253533D01*
X211297213Y-54414305D01*
X211217485Y-54570780D01*
X211169510Y-54621576D01*
X211101689Y-54638371D01*
X211035554Y-54615833D01*
X210996515Y-54570780D01*
X210952868Y-54485119D01*
X210916787Y-54414306D01*
X210799981Y-54253536D01*
X210659464Y-54113019D01*
X210498694Y-53996213D01*
X210491835Y-53992718D01*
X210321632Y-53905994D01*
X210321629Y-53905993D01*
X210132637Y-53844587D01*
X210034498Y-53829043D01*
X209936361Y-53813500D01*
X209737639Y-53813500D01*
X209713988Y-53817246D01*
X209541362Y-53844587D01*
X209352370Y-53905993D01*
X209352367Y-53905994D01*
X209175305Y-53996213D01*
X209014533Y-54113021D01*
X208874021Y-54253533D01*
X208757213Y-54414305D01*
X208677485Y-54570780D01*
X208629510Y-54621576D01*
X208561689Y-54638371D01*
X208495554Y-54615833D01*
X208456515Y-54570780D01*
X208412868Y-54485119D01*
X208376787Y-54414306D01*
X208259981Y-54253536D01*
X208119464Y-54113019D01*
X207958694Y-53996213D01*
X207951835Y-53992718D01*
X207781632Y-53905994D01*
X207781629Y-53905993D01*
X207592637Y-53844587D01*
X207494498Y-53829043D01*
X207396361Y-53813500D01*
X207197639Y-53813500D01*
X207173988Y-53817246D01*
X207001362Y-53844587D01*
X206812370Y-53905993D01*
X206812367Y-53905994D01*
X206635305Y-53996213D01*
X206474533Y-54113021D01*
X206334021Y-54253533D01*
X206217213Y-54414305D01*
X206137485Y-54570780D01*
X206089510Y-54621576D01*
X206021689Y-54638371D01*
X205955554Y-54615833D01*
X205916515Y-54570780D01*
X205872868Y-54485119D01*
X205836787Y-54414306D01*
X205719981Y-54253536D01*
X205579464Y-54113019D01*
X205418694Y-53996213D01*
X205411835Y-53992718D01*
X205241632Y-53905994D01*
X205241629Y-53905993D01*
X205052637Y-53844587D01*
X204954498Y-53829043D01*
X204856361Y-53813500D01*
X204657639Y-53813500D01*
X204633988Y-53817246D01*
X204461362Y-53844587D01*
X204272370Y-53905993D01*
X204272367Y-53905994D01*
X204095305Y-53996213D01*
X203934533Y-54113021D01*
X203794021Y-54253533D01*
X203677213Y-54414305D01*
X203597485Y-54570780D01*
X203549510Y-54621576D01*
X203481689Y-54638371D01*
X203415554Y-54615833D01*
X203376515Y-54570780D01*
X203332868Y-54485119D01*
X203296787Y-54414306D01*
X203179981Y-54253536D01*
X203039464Y-54113019D01*
X202878694Y-53996213D01*
X202871835Y-53992718D01*
X202701632Y-53905994D01*
X202701629Y-53905993D01*
X202512637Y-53844587D01*
X202414498Y-53829043D01*
X202316361Y-53813500D01*
X202117639Y-53813500D01*
X202093988Y-53817246D01*
X201921362Y-53844587D01*
X201732370Y-53905993D01*
X201732367Y-53905994D01*
X201555305Y-53996213D01*
X201394533Y-54113021D01*
X201254021Y-54253533D01*
X201137213Y-54414305D01*
X201057485Y-54570780D01*
X201009510Y-54621576D01*
X200941689Y-54638371D01*
X200875554Y-54615833D01*
X200836515Y-54570780D01*
X200792868Y-54485119D01*
X200756787Y-54414306D01*
X200639981Y-54253536D01*
X200499464Y-54113019D01*
X200338694Y-53996213D01*
X200331835Y-53992718D01*
X200161632Y-53905994D01*
X200161629Y-53905993D01*
X199972637Y-53844587D01*
X199874498Y-53829043D01*
X199776361Y-53813500D01*
X199577639Y-53813500D01*
X199553988Y-53817246D01*
X199381362Y-53844587D01*
X199192370Y-53905993D01*
X199192367Y-53905994D01*
X199015305Y-53996213D01*
X198854533Y-54113021D01*
X198714021Y-54253533D01*
X198597213Y-54414305D01*
X198517485Y-54570780D01*
X198469510Y-54621576D01*
X198401689Y-54638371D01*
X198335554Y-54615833D01*
X198296515Y-54570780D01*
X198252868Y-54485119D01*
X198216787Y-54414306D01*
X198099981Y-54253536D01*
X197959464Y-54113019D01*
X197798694Y-53996213D01*
X197791835Y-53992718D01*
X197621632Y-53905994D01*
X197621629Y-53905993D01*
X197432637Y-53844587D01*
X197334498Y-53829043D01*
X197236361Y-53813500D01*
X197037639Y-53813500D01*
X197013988Y-53817246D01*
X196841362Y-53844587D01*
X196652370Y-53905993D01*
X196652367Y-53905994D01*
X196475305Y-53996213D01*
X196314533Y-54113021D01*
X196174021Y-54253533D01*
X196057213Y-54414305D01*
X195977485Y-54570780D01*
X195929510Y-54621576D01*
X195861689Y-54638371D01*
X195795554Y-54615833D01*
X195756515Y-54570780D01*
X195712868Y-54485119D01*
X195676787Y-54414306D01*
X195559981Y-54253536D01*
X195419464Y-54113019D01*
X195258694Y-53996213D01*
X195251835Y-53992718D01*
X195081632Y-53905994D01*
X195081629Y-53905993D01*
X194892637Y-53844587D01*
X194794498Y-53829043D01*
X194696361Y-53813500D01*
X194497639Y-53813500D01*
X194473988Y-53817246D01*
X194301362Y-53844587D01*
X194112370Y-53905993D01*
X194112367Y-53905994D01*
X193935305Y-53996213D01*
X193774533Y-54113021D01*
X193634021Y-54253533D01*
X193517213Y-54414305D01*
X193437485Y-54570780D01*
X193389510Y-54621576D01*
X193321689Y-54638371D01*
X193255554Y-54615833D01*
X193216515Y-54570780D01*
X193172868Y-54485119D01*
X193136787Y-54414306D01*
X193019981Y-54253536D01*
X192879464Y-54113019D01*
X192718694Y-53996213D01*
X192711835Y-53992718D01*
X192541632Y-53905994D01*
X192541629Y-53905993D01*
X192352637Y-53844587D01*
X192254498Y-53829043D01*
X192156361Y-53813500D01*
X191957639Y-53813500D01*
X191933988Y-53817246D01*
X191761362Y-53844587D01*
X191572370Y-53905993D01*
X191572367Y-53905994D01*
X191395305Y-53996213D01*
X191234533Y-54113021D01*
X191094021Y-54253533D01*
X190977213Y-54414305D01*
X190897485Y-54570780D01*
X190849510Y-54621576D01*
X190781689Y-54638371D01*
X190715554Y-54615833D01*
X190676515Y-54570780D01*
X190632868Y-54485119D01*
X190596787Y-54414306D01*
X190479981Y-54253536D01*
X190339464Y-54113019D01*
X190178694Y-53996213D01*
X190171835Y-53992718D01*
X190001632Y-53905994D01*
X190001629Y-53905993D01*
X189812637Y-53844587D01*
X189714498Y-53829043D01*
X189616361Y-53813500D01*
X189417639Y-53813500D01*
X189393988Y-53817246D01*
X189221362Y-53844587D01*
X189032370Y-53905993D01*
X189032367Y-53905994D01*
X188855305Y-53996213D01*
X188694533Y-54113021D01*
X188554021Y-54253533D01*
X188437213Y-54414305D01*
X188357485Y-54570780D01*
X188309510Y-54621576D01*
X188241689Y-54638371D01*
X188175554Y-54615833D01*
X188136515Y-54570780D01*
X188092868Y-54485119D01*
X188056787Y-54414306D01*
X187939981Y-54253536D01*
X187799464Y-54113019D01*
X187638694Y-53996213D01*
X187631835Y-53992718D01*
X187461632Y-53905994D01*
X187461629Y-53905993D01*
X187272637Y-53844587D01*
X187174498Y-53829043D01*
X187076361Y-53813500D01*
X186877639Y-53813500D01*
X186853988Y-53817246D01*
X186681362Y-53844587D01*
X186492370Y-53905993D01*
X186492367Y-53905994D01*
X186315305Y-53996213D01*
X186154533Y-54113021D01*
X186014021Y-54253533D01*
X185897213Y-54414305D01*
X185817485Y-54570780D01*
X185769510Y-54621576D01*
X185701689Y-54638371D01*
X185635554Y-54615833D01*
X185596515Y-54570780D01*
X185552868Y-54485119D01*
X185516787Y-54414306D01*
X185399981Y-54253536D01*
X185259464Y-54113019D01*
X185098694Y-53996213D01*
X185091835Y-53992718D01*
X184921632Y-53905994D01*
X184921629Y-53905993D01*
X184732637Y-53844587D01*
X184634498Y-53829043D01*
X184536361Y-53813500D01*
X184337639Y-53813500D01*
X184313988Y-53817246D01*
X184141362Y-53844587D01*
X183952370Y-53905993D01*
X183952367Y-53905994D01*
X183775305Y-53996213D01*
X183614533Y-54113021D01*
X183474021Y-54253533D01*
X183357213Y-54414305D01*
X183277485Y-54570780D01*
X183229510Y-54621576D01*
X183161689Y-54638371D01*
X183095554Y-54615833D01*
X183056515Y-54570780D01*
X183012868Y-54485119D01*
X182976787Y-54414306D01*
X182859981Y-54253536D01*
X182719464Y-54113019D01*
X182558694Y-53996213D01*
X182551835Y-53992718D01*
X182381632Y-53905994D01*
X182381629Y-53905993D01*
X182192637Y-53844587D01*
X182094498Y-53829043D01*
X181996361Y-53813500D01*
X181797639Y-53813500D01*
X181773988Y-53817246D01*
X181601362Y-53844587D01*
X181412370Y-53905993D01*
X181412367Y-53905994D01*
X181235305Y-53996213D01*
X181074533Y-54113021D01*
X180934021Y-54253533D01*
X180817213Y-54414305D01*
X180737485Y-54570780D01*
X180689510Y-54621576D01*
X180621689Y-54638371D01*
X180555554Y-54615833D01*
X180516515Y-54570780D01*
X180472868Y-54485119D01*
X180436787Y-54414306D01*
X180319981Y-54253536D01*
X180179464Y-54113019D01*
X180018694Y-53996213D01*
X180011835Y-53992718D01*
X179841632Y-53905994D01*
X179841629Y-53905993D01*
X179652637Y-53844587D01*
X179554498Y-53829043D01*
X179456361Y-53813500D01*
X179257639Y-53813500D01*
X179233988Y-53817246D01*
X179061362Y-53844587D01*
X178872370Y-53905993D01*
X178872367Y-53905994D01*
X178695305Y-53996213D01*
X178534533Y-54113021D01*
X178394021Y-54253533D01*
X178277213Y-54414305D01*
X178197485Y-54570780D01*
X178149510Y-54621576D01*
X178081689Y-54638371D01*
X178015554Y-54615833D01*
X177976515Y-54570780D01*
X177932868Y-54485119D01*
X177896787Y-54414306D01*
X177779981Y-54253536D01*
X177639464Y-54113019D01*
X177478694Y-53996213D01*
X177471835Y-53992718D01*
X177301632Y-53905994D01*
X177301629Y-53905993D01*
X177112637Y-53844587D01*
X177014498Y-53829043D01*
X176916361Y-53813500D01*
X176717639Y-53813500D01*
X176693988Y-53817246D01*
X176521362Y-53844587D01*
X176332370Y-53905993D01*
X176332367Y-53905994D01*
X176155305Y-53996213D01*
X175994533Y-54113021D01*
X175854021Y-54253533D01*
X175737213Y-54414305D01*
X175657485Y-54570780D01*
X175609510Y-54621576D01*
X175541689Y-54638371D01*
X175475554Y-54615833D01*
X175436515Y-54570780D01*
X175392868Y-54485119D01*
X175356787Y-54414306D01*
X175239981Y-54253536D01*
X175099464Y-54113019D01*
X174938694Y-53996213D01*
X174931835Y-53992718D01*
X174761632Y-53905994D01*
X174761629Y-53905993D01*
X174572637Y-53844587D01*
X174474498Y-53829043D01*
X174376361Y-53813500D01*
X174177639Y-53813500D01*
X174153988Y-53817246D01*
X173981362Y-53844587D01*
X173792370Y-53905993D01*
X173792367Y-53905994D01*
X173615305Y-53996213D01*
X173454533Y-54113021D01*
X173314021Y-54253533D01*
X173197213Y-54414305D01*
X173117485Y-54570780D01*
X173069510Y-54621576D01*
X173001689Y-54638371D01*
X172935554Y-54615833D01*
X172896515Y-54570780D01*
X172852868Y-54485119D01*
X172816787Y-54414306D01*
X172699981Y-54253536D01*
X172559464Y-54113019D01*
X172398694Y-53996213D01*
X172391835Y-53992718D01*
X172221632Y-53905994D01*
X172221629Y-53905993D01*
X172032637Y-53844587D01*
X171934498Y-53829043D01*
X171836361Y-53813500D01*
X171637639Y-53813500D01*
X171613988Y-53817246D01*
X171441362Y-53844587D01*
X171252370Y-53905993D01*
X171252367Y-53905994D01*
X171075305Y-53996213D01*
X170914533Y-54113021D01*
X170774021Y-54253533D01*
X170657213Y-54414305D01*
X170566994Y-54591367D01*
X170566993Y-54591370D01*
X170505587Y-54780362D01*
X170474500Y-54976639D01*
X170474500Y-55175360D01*
X170505587Y-55371637D01*
X170566993Y-55560629D01*
X170566994Y-55560632D01*
X170602914Y-55631127D01*
X170657213Y-55737694D01*
X170774019Y-55898464D01*
X170914536Y-56038981D01*
X171075306Y-56155787D01*
X171136500Y-56186967D01*
X171252367Y-56246005D01*
X171252370Y-56246006D01*
X171346866Y-56276709D01*
X171441364Y-56307413D01*
X171637639Y-56338500D01*
X171637640Y-56338500D01*
X171836356Y-56338500D01*
X171836361Y-56338500D01*
X171850229Y-56336303D01*
X171919518Y-56345256D01*
X171972972Y-56390251D01*
X171993613Y-56457002D01*
X171974890Y-56524316D01*
X171957309Y-56546455D01*
X171838882Y-56664882D01*
X171777562Y-56698366D01*
X171751203Y-56701200D01*
X166164500Y-56701200D01*
X166097461Y-56681515D01*
X166051706Y-56628711D01*
X166040500Y-56577200D01*
X166040499Y-53952129D01*
X166040498Y-53952123D01*
X166040497Y-53952116D01*
X166034091Y-53892517D01*
X166016214Y-53844587D01*
X165983797Y-53757671D01*
X165983793Y-53757664D01*
X165897547Y-53642455D01*
X165897544Y-53642452D01*
X165782335Y-53556206D01*
X165782328Y-53556202D01*
X165647482Y-53505908D01*
X165647483Y-53505908D01*
X165587883Y-53499501D01*
X165587881Y-53499500D01*
X165587873Y-53499500D01*
X165587864Y-53499500D01*
X162492129Y-53499500D01*
X162492123Y-53499501D01*
X162432516Y-53505908D01*
X162297671Y-53556202D01*
X162297664Y-53556206D01*
X162182455Y-53642452D01*
X162182452Y-53642455D01*
X162096206Y-53757664D01*
X162096202Y-53757671D01*
X162045908Y-53892517D01*
X162039501Y-53952116D01*
X162039501Y-53952123D01*
X162039500Y-53952135D01*
X162039501Y-56577200D01*
X162019816Y-56644239D01*
X161967013Y-56689994D01*
X161915501Y-56701200D01*
X160791239Y-56701200D01*
X160724200Y-56681515D01*
X160678445Y-56628711D01*
X160668501Y-56559553D01*
X160683852Y-56515200D01*
X160758043Y-56386697D01*
X160858398Y-56144419D01*
X160926270Y-55891116D01*
X160960500Y-55631120D01*
X160960500Y-55368880D01*
X160926270Y-55108884D01*
X160858398Y-54855581D01*
X160858394Y-54855571D01*
X160758046Y-54613309D01*
X160758041Y-54613299D01*
X160626924Y-54386196D01*
X160467281Y-54178148D01*
X160467274Y-54178140D01*
X160281860Y-53992726D01*
X160281851Y-53992718D01*
X160073803Y-53833075D01*
X159846700Y-53701958D01*
X159846690Y-53701953D01*
X159604428Y-53601605D01*
X159604421Y-53601603D01*
X159604419Y-53601602D01*
X159351116Y-53533730D01*
X159293339Y-53526123D01*
X159091127Y-53499500D01*
X159091120Y-53499500D01*
X158828880Y-53499500D01*
X158828872Y-53499500D01*
X158597772Y-53529926D01*
X158568884Y-53533730D01*
X158323691Y-53599429D01*
X158315581Y-53601602D01*
X158315565Y-53601607D01*
X158255930Y-53626309D01*
X158186460Y-53633778D01*
X158123981Y-53602502D01*
X158120797Y-53599429D01*
X157636721Y-53115352D01*
X157636714Y-53115346D01*
X157563029Y-53066112D01*
X157563029Y-53066113D01*
X157513791Y-53033213D01*
X157377217Y-52976643D01*
X157377207Y-52976640D01*
X157232220Y-52947800D01*
X157232218Y-52947800D01*
X145187782Y-52947800D01*
X145187776Y-52947800D01*
X145158942Y-52953534D01*
X145158943Y-52953535D01*
X145042793Y-52976639D01*
X145042783Y-52976642D01*
X144962781Y-53009779D01*
X144962782Y-53009780D01*
X144906205Y-53033215D01*
X144824072Y-53088095D01*
X144783285Y-53115347D01*
X144783281Y-53115350D01*
X144299201Y-53599429D01*
X144237878Y-53632914D01*
X144168186Y-53627930D01*
X144164067Y-53626309D01*
X144104428Y-53601605D01*
X144104421Y-53601603D01*
X144104419Y-53601602D01*
X143851116Y-53533730D01*
X143793339Y-53526123D01*
X143591127Y-53499500D01*
X143591120Y-53499500D01*
X143328880Y-53499500D01*
X143328872Y-53499500D01*
X143097772Y-53529926D01*
X143068884Y-53533730D01*
X142823691Y-53599429D01*
X142815581Y-53601602D01*
X142815571Y-53601605D01*
X142573309Y-53701953D01*
X142573299Y-53701958D01*
X142346196Y-53833075D01*
X142138148Y-53992718D01*
X141952718Y-54178148D01*
X141793075Y-54386196D01*
X141661958Y-54613299D01*
X141661953Y-54613309D01*
X141561605Y-54855571D01*
X141561602Y-54855581D01*
X141493730Y-55108885D01*
X141459500Y-55368872D01*
X141459500Y-55631127D01*
X141459917Y-55634291D01*
X141493730Y-55891116D01*
X141533350Y-56038981D01*
X141561602Y-56144418D01*
X141561605Y-56144428D01*
X141661953Y-56386690D01*
X141661958Y-56386700D01*
X141793075Y-56613803D01*
X141952718Y-56821851D01*
X141952726Y-56821860D01*
X142138140Y-57007274D01*
X142138148Y-57007281D01*
X142346196Y-57166924D01*
X142573299Y-57298041D01*
X142573301Y-57298041D01*
X142573303Y-57298043D01*
X142632952Y-57322750D01*
X142687355Y-57366589D01*
X142709421Y-57432883D01*
X142709500Y-57437311D01*
X142709500Y-57847769D01*
X142689815Y-57914808D01*
X142673181Y-57935450D01*
X134500449Y-66108181D01*
X134439126Y-66141666D01*
X134412768Y-66144500D01*
X133627129Y-66144500D01*
X133627123Y-66144501D01*
X133567516Y-66150908D01*
X133432671Y-66201202D01*
X133432664Y-66201206D01*
X133317455Y-66287452D01*
X133317452Y-66287455D01*
X133231206Y-66402664D01*
X133231202Y-66402671D01*
X133180910Y-66537513D01*
X133180909Y-66537517D01*
X133174500Y-66597127D01*
X133174500Y-66597134D01*
X133174500Y-66597135D01*
X133174500Y-67192870D01*
X133174501Y-67192876D01*
X133180908Y-67252483D01*
X133234303Y-67395641D01*
X133231208Y-67396795D01*
X133242637Y-67449362D01*
X133218211Y-67514823D01*
X133162272Y-67556687D01*
X133118954Y-67564500D01*
X129766797Y-67564500D01*
X129699758Y-67544815D01*
X129679116Y-67528181D01*
X127289290Y-65138355D01*
X127289288Y-65138352D01*
X127170417Y-65019481D01*
X127170416Y-65019480D01*
X127083604Y-64969360D01*
X127083604Y-64969359D01*
X127083599Y-64969357D01*
X127072047Y-64962687D01*
X127062495Y-64957172D01*
X127014281Y-64906602D01*
X127000499Y-64849787D01*
X127000499Y-63952129D01*
X127000498Y-63952123D01*
X127000497Y-63952116D01*
X126994091Y-63892517D01*
X126992251Y-63887585D01*
X126943797Y-63757671D01*
X126943793Y-63757664D01*
X126857547Y-63642455D01*
X126857544Y-63642452D01*
X126742335Y-63556206D01*
X126742328Y-63556202D01*
X126607482Y-63505908D01*
X126607483Y-63505908D01*
X126547883Y-63499501D01*
X126547881Y-63499500D01*
X126547873Y-63499500D01*
X126547864Y-63499500D01*
X123452129Y-63499500D01*
X123452123Y-63499501D01*
X123392516Y-63505908D01*
X123257671Y-63556202D01*
X123257664Y-63556206D01*
X123142455Y-63642452D01*
X123142452Y-63642455D01*
X123056206Y-63757664D01*
X123056202Y-63757671D01*
X123005908Y-63892517D01*
X123000762Y-63940389D01*
X122999501Y-63952123D01*
X122999500Y-63952135D01*
X117500500Y-63952135D01*
X117500500Y-52393713D01*
X119149500Y-52393713D01*
X119149500Y-52606287D01*
X119182754Y-52816243D01*
X119245638Y-53009780D01*
X119248444Y-53018414D01*
X119344951Y-53207820D01*
X119469890Y-53379786D01*
X119620213Y-53530109D01*
X119792179Y-53655048D01*
X119792181Y-53655049D01*
X119792184Y-53655051D01*
X119981588Y-53751557D01*
X120183757Y-53817246D01*
X120393713Y-53850500D01*
X120393714Y-53850500D01*
X120606286Y-53850500D01*
X120606287Y-53850500D01*
X120816243Y-53817246D01*
X121018412Y-53751557D01*
X121207816Y-53655051D01*
X121284374Y-53599429D01*
X121379786Y-53530109D01*
X121379788Y-53530106D01*
X121379792Y-53530104D01*
X121530104Y-53379792D01*
X121530106Y-53379788D01*
X121530109Y-53379786D01*
X121655048Y-53207820D01*
X121655047Y-53207820D01*
X121655051Y-53207816D01*
X121751557Y-53018412D01*
X121817246Y-52816243D01*
X121850500Y-52606287D01*
X121850500Y-52393713D01*
X220149500Y-52393713D01*
X220149500Y-52606287D01*
X220182754Y-52816243D01*
X220245638Y-53009780D01*
X220248444Y-53018414D01*
X220344951Y-53207820D01*
X220469890Y-53379786D01*
X220620213Y-53530109D01*
X220792179Y-53655048D01*
X220792181Y-53655049D01*
X220792184Y-53655051D01*
X220981588Y-53751557D01*
X221183757Y-53817246D01*
X221393713Y-53850500D01*
X221393714Y-53850500D01*
X221606286Y-53850500D01*
X221606287Y-53850500D01*
X221816243Y-53817246D01*
X222018412Y-53751557D01*
X222207816Y-53655051D01*
X222284374Y-53599429D01*
X222379786Y-53530109D01*
X222379788Y-53530106D01*
X222379792Y-53530104D01*
X222530104Y-53379792D01*
X222530106Y-53379788D01*
X222530109Y-53379786D01*
X222655048Y-53207820D01*
X222655047Y-53207820D01*
X222655051Y-53207816D01*
X222751557Y-53018412D01*
X222817246Y-52816243D01*
X222850500Y-52606287D01*
X222850500Y-52393713D01*
X222817246Y-52183757D01*
X222751557Y-51981588D01*
X222655051Y-51792184D01*
X222655049Y-51792181D01*
X222655048Y-51792179D01*
X222530109Y-51620213D01*
X222379786Y-51469890D01*
X222207820Y-51344951D01*
X222018414Y-51248444D01*
X222018413Y-51248443D01*
X222018412Y-51248443D01*
X221816243Y-51182754D01*
X221816241Y-51182753D01*
X221816240Y-51182753D01*
X221654957Y-51157208D01*
X221606287Y-51149500D01*
X221393713Y-51149500D01*
X221345042Y-51157208D01*
X221183760Y-51182753D01*
X220981585Y-51248444D01*
X220792179Y-51344951D01*
X220620213Y-51469890D01*
X220469890Y-51620213D01*
X220344951Y-51792179D01*
X220248444Y-51981585D01*
X220182753Y-52183760D01*
X220149500Y-52393713D01*
X121850500Y-52393713D01*
X121817246Y-52183757D01*
X121751557Y-51981588D01*
X121655051Y-51792184D01*
X121655049Y-51792181D01*
X121655048Y-51792179D01*
X121530109Y-51620213D01*
X121379786Y-51469890D01*
X121207820Y-51344951D01*
X121018414Y-51248444D01*
X121018413Y-51248443D01*
X121018412Y-51248443D01*
X120816243Y-51182754D01*
X120816241Y-51182753D01*
X120816240Y-51182753D01*
X120654957Y-51157208D01*
X120606287Y-51149500D01*
X120393713Y-51149500D01*
X120345042Y-51157208D01*
X120183760Y-51182753D01*
X119981585Y-51248444D01*
X119792179Y-51344951D01*
X119620213Y-51469890D01*
X119469890Y-51620213D01*
X119344951Y-51792179D01*
X119248444Y-51981585D01*
X119182753Y-52183760D01*
X119149500Y-52393713D01*
X117500500Y-52393713D01*
X117500500Y-49624500D01*
X117520185Y-49557461D01*
X117572989Y-49511706D01*
X117624500Y-49500500D01*
X224625500Y-49500500D01*
X224692539Y-49520185D01*
G37*
%TD.AperFunction*%
%TD*%
M02*
