%TF.GenerationSoftware,KiCad,Pcbnew,9.0.7*%
%TF.CreationDate,2026-02-23T13:15:55-08:00*%
%TF.ProjectId,robo_crawler_board,726f626f-5f63-4726-9177-6c65725f626f,rev?*%
%TF.SameCoordinates,Original*%
%TF.FileFunction,Copper,L2,Bot*%
%TF.FilePolarity,Positive*%
%FSLAX46Y46*%
G04 Gerber Fmt 4.6, Leading zero omitted, Abs format (unit mm)*
G04 Created by KiCad (PCBNEW 9.0.7) date 2026-02-23 13:15:55*
%MOMM*%
%LPD*%
G01*
G04 APERTURE LIST*
%TA.AperFunction,ComponentPad*%
%ADD10C,0.630000*%
%TD*%
%TA.AperFunction,SMDPad,CuDef*%
%ADD11R,3.300000X2.600000*%
%TD*%
%TA.AperFunction,ComponentPad*%
%ADD12R,3.000000X3.000000*%
%TD*%
%TA.AperFunction,ComponentPad*%
%ADD13C,3.000000*%
%TD*%
%TA.AperFunction,ComponentPad*%
%ADD14C,1.524000*%
%TD*%
%TA.AperFunction,SMDPad,CuDef*%
%ADD15R,2.600000X3.300000*%
%TD*%
%TA.AperFunction,ComponentPad*%
%ADD16R,2.000000X1.905000*%
%TD*%
%TA.AperFunction,ComponentPad*%
%ADD17O,2.000000X1.905000*%
%TD*%
%TA.AperFunction,ViaPad*%
%ADD18C,1.000000*%
%TD*%
%TA.AperFunction,Conductor*%
%ADD19C,0.500000*%
%TD*%
%TA.AperFunction,Conductor*%
%ADD20C,0.200000*%
%TD*%
G04 APERTURE END LIST*
D10*
%TO.P,U8,9,GND*%
%TO.N,GND*%
X147060000Y-115475000D03*
X145760000Y-115475000D03*
X144460000Y-115475000D03*
D11*
X145760000Y-116125000D03*
D10*
X147060000Y-116775000D03*
X145760000Y-116775000D03*
X144460000Y-116775000D03*
%TD*%
D12*
%TO.P,J6,1,Pin_1*%
%TO.N,Net-(J6-Pin_1)*%
X157420000Y-133000000D03*
D13*
%TO.P,J6,2,Pin_2*%
%TO.N,Net-(J6-Pin_2)*%
X162500000Y-133000000D03*
%TD*%
D12*
%TO.P,J4,1,Pin_1*%
%TO.N,Net-(J4-Pin_1)*%
X125000000Y-97000000D03*
D13*
%TO.P,J4,2,Pin_2*%
%TO.N,Net-(J4-Pin_2)*%
X125000000Y-102080000D03*
%TD*%
D14*
%TO.P,U6,1,IN-*%
%TO.N,GND*%
X215558000Y-125410000D03*
%TO.P,U6,2,IN+*%
%TO.N,/+Vin*%
X197778000Y-125410000D03*
%TO.P,U6,3,OUT-*%
%TO.N,GND*%
X215558000Y-84770000D03*
%TO.P,U6,4,OUT+*%
%TO.N,+5V*%
X197778000Y-84770000D03*
%TD*%
D12*
%TO.P,J7,1,Pin_1*%
%TO.N,Net-(J7-Pin_1)*%
X125000000Y-65500000D03*
D13*
%TO.P,J7,2,Pin_2*%
%TO.N,Net-(J7-Pin_2)*%
X125000000Y-70580000D03*
%TD*%
D10*
%TO.P,U9,9,GND*%
%TO.N,GND*%
X140500000Y-99300000D03*
X140500000Y-98000000D03*
X140500000Y-96700000D03*
D15*
X139850000Y-98000000D03*
D10*
X139200000Y-99300000D03*
X139200000Y-98000000D03*
X139200000Y-96700000D03*
%TD*%
D14*
%TO.P,U5,1,5v*%
%TO.N,+5V*%
X217457000Y-80603000D03*
%TO.P,U5,2,VDD33*%
%TO.N,unconnected-(U5-VDD33-Pad2)*%
X171737000Y-80603000D03*
%TO.P,U5,3,EN*%
%TO.N,unconnected-(U5-EN-Pad3)*%
X174277000Y-80603000D03*
%TO.P,U5,4,VP*%
%TO.N,unconnected-(U5-VP-Pad4)*%
X176817000Y-80603000D03*
%TO.P,U5,5,VN*%
%TO.N,unconnected-(U5-VN-Pad5)*%
X179357000Y-80603000D03*
%TO.P,U5,6,IO34*%
%TO.N,unconnected-(U5-IO34-Pad6)*%
X181897000Y-80603000D03*
%TO.P,U5,7,IO35*%
%TO.N,unconnected-(U5-IO35-Pad7)*%
X184437000Y-80603000D03*
%TO.P,U5,8,IO32*%
%TO.N,unconnected-(U5-IO32-Pad8)*%
X186977000Y-80603000D03*
%TO.P,U5,9,IO33*%
%TO.N,unconnected-(U5-IO33-Pad9)*%
X189517000Y-80603000D03*
%TO.P,U5,10,IO25*%
%TO.N,unconnected-(U5-IO25-Pad10)*%
X192057000Y-80603000D03*
%TO.P,U5,11,IO26*%
%TO.N,Net-(U1-IN1)*%
X194597000Y-80603000D03*
%TO.P,U5,12,IO27*%
%TO.N,Net-(U1-IN2)*%
X197137000Y-80603000D03*
%TO.P,U5,13,IO14*%
%TO.N,Net-(U4-IN1)*%
X199677000Y-80603000D03*
%TO.P,U5,14,IO12*%
%TO.N,Net-(U3-IN1)*%
X202217000Y-80603000D03*
%TO.P,U5,15,GND*%
%TO.N,GND*%
X204757000Y-80603000D03*
%TO.P,U5,16,IO13*%
%TO.N,Net-(U3-IN2)*%
X207297000Y-80603000D03*
%TO.P,U5,17,SD2*%
%TO.N,unconnected-(U5-SD2-Pad17)*%
X209837000Y-80603000D03*
%TO.P,U5,18,SD3*%
%TO.N,unconnected-(U5-SD3-Pad18)*%
X212377000Y-80603000D03*
%TO.P,U5,19,CMD*%
%TO.N,unconnected-(U5-CMD-Pad19)*%
X214917000Y-80603000D03*
%TO.P,U5,20,CLK*%
%TO.N,unconnected-(U5-CLK-Pad20)*%
X217457000Y-55076000D03*
%TO.P,U5,21,SD0*%
%TO.N,unconnected-(U5-SD0-Pad21)*%
X214917000Y-55076000D03*
%TO.P,U5,22,SD1*%
%TO.N,unconnected-(U5-SD1-Pad22)*%
X212377000Y-55076000D03*
%TO.P,U5,23,IO15*%
%TO.N,Net-(U4-IN2)*%
X209837000Y-55076000D03*
%TO.P,U5,24,IO2*%
%TO.N,Net-(Q2-G)*%
X207297000Y-55076000D03*
%TO.P,U5,25,IO0*%
%TO.N,unconnected-(U5-IO0-Pad25)*%
X204757000Y-55076000D03*
%TO.P,U5,26,IO4*%
%TO.N,Net-(Q1-G)*%
X202217000Y-55076000D03*
%TO.P,U5,27,IO16*%
%TO.N,Net-(U5-IO16)*%
X199677000Y-55076000D03*
%TO.P,U5,28,IO17*%
%TO.N,Net-(U5-IO17)*%
X197137000Y-55076000D03*
%TO.P,U5,29,IO5*%
%TO.N,unconnected-(U5-IO5-Pad29)*%
X194597000Y-55076000D03*
%TO.P,U5,30,IO18*%
%TO.N,Net-(U5-IO18)*%
X192057000Y-55076000D03*
%TO.P,U5,31,IO19*%
%TO.N,Net-(U5-IO19)*%
X189517000Y-55076000D03*
%TO.P,U5,32,NC*%
%TO.N,unconnected-(U5-NC-Pad32)*%
X186977000Y-55076000D03*
%TO.P,U5,33,IO21*%
%TO.N,unconnected-(U5-IO21-Pad33)*%
X184437000Y-55076000D03*
%TO.P,U5,34,RXD0*%
%TO.N,unconnected-(U5-RXD0-Pad34)*%
X181897000Y-55076000D03*
%TO.P,U5,35,TXD0*%
%TO.N,unconnected-(U5-TXD0-Pad35)*%
X179357000Y-55076000D03*
%TO.P,U5,36,IO22*%
%TO.N,Net-(U2-IN1)*%
X176817000Y-55076000D03*
%TO.P,U5,37,IO23*%
%TO.N,Net-(U2-IN2)*%
X174277000Y-55076000D03*
%TO.P,U5,38,GND*%
%TO.N,unconnected-(U5-GND-Pad38)*%
X171737000Y-55076000D03*
%TD*%
D12*
%TO.P,J8,1,Pin_1*%
%TO.N,Net-(J8-Pin_1)*%
X125000000Y-80960000D03*
D13*
%TO.P,J8,2,Pin_2*%
%TO.N,Net-(J8-Pin_2)*%
X125000000Y-86040000D03*
%TD*%
D12*
%TO.P,J3,1,Pin_1*%
%TO.N,Net-(J3-Pin_1)*%
X142460000Y-133000000D03*
D13*
%TO.P,J3,2,Pin_2*%
%TO.N,Net-(J3-Pin_2)*%
X147540000Y-133000000D03*
%TD*%
D14*
%TO.P,U7,1,IN-*%
%TO.N,GND*%
X172942000Y-84590000D03*
%TO.P,U7,2,IN+*%
%TO.N,/+Vin*%
X190722000Y-84590000D03*
%TO.P,U7,3,OUT-*%
%TO.N,GND*%
X172942000Y-125230000D03*
%TO.P,U7,4,OUT+*%
%TO.N,+12V*%
X190722000Y-125230000D03*
%TD*%
D16*
%TO.P,Q1,1,G*%
%TO.N,Net-(Q1-G)*%
X150050000Y-64960000D03*
D17*
%TO.P,Q1,2,D*%
%TO.N,Net-(J1-Pin_1)*%
X150050000Y-67500000D03*
%TO.P,Q1,3,S*%
%TO.N,GND*%
X150050000Y-70040000D03*
%TD*%
D10*
%TO.P,U3,9,GND*%
%TO.N,GND*%
X161260000Y-115350000D03*
X159960000Y-115350000D03*
X158660000Y-115350000D03*
D11*
X159960000Y-116000000D03*
D10*
X161260000Y-116650000D03*
X159960000Y-116650000D03*
X158660000Y-116650000D03*
%TD*%
D12*
%TO.P,J9,1,Pin_1*%
%TO.N,GND*%
X193960000Y-132500000D03*
D13*
%TO.P,J9,2,Pin_2*%
%TO.N,/+Vin*%
X199040000Y-132500000D03*
%TD*%
D10*
%TO.P,U2,9,GND*%
%TO.N,GND*%
X138300000Y-70100000D03*
X138300000Y-68800000D03*
X138300000Y-67500000D03*
D15*
X137650000Y-68800000D03*
D10*
X137000000Y-70100000D03*
X137000000Y-68800000D03*
X137000000Y-67500000D03*
%TD*%
%TO.P,U4,9,GND*%
%TO.N,GND*%
X131260000Y-115350000D03*
X129960000Y-115350000D03*
X128660000Y-115350000D03*
D11*
X129960000Y-116000000D03*
D10*
X131260000Y-116650000D03*
X129960000Y-116650000D03*
X128660000Y-116650000D03*
%TD*%
D12*
%TO.P,J1,1,Pin_1*%
%TO.N,Net-(J1-Pin_1)*%
X148540000Y-55500000D03*
D13*
%TO.P,J1,2,Pin_2*%
%TO.N,+12V*%
X143460000Y-55500000D03*
%TD*%
D12*
%TO.P,J2,1,Pin_1*%
%TO.N,Net-(J2-Pin_1)*%
X164040000Y-55500000D03*
D13*
%TO.P,J2,2,Pin_2*%
%TO.N,+12V*%
X158960000Y-55500000D03*
%TD*%
D10*
%TO.P,U1,9,GND*%
%TO.N,GND*%
X140800000Y-85800000D03*
X140800000Y-84500000D03*
X140800000Y-83200000D03*
D15*
X140150000Y-84500000D03*
D10*
X139500000Y-85800000D03*
X139500000Y-84500000D03*
X139500000Y-83200000D03*
%TD*%
D16*
%TO.P,Q2,1,G*%
%TO.N,Net-(Q2-G)*%
X159050000Y-64960000D03*
D17*
%TO.P,Q2,2,D*%
%TO.N,Net-(J2-Pin_1)*%
X159050000Y-67500000D03*
%TO.P,Q2,3,S*%
%TO.N,GND*%
X159050000Y-70040000D03*
%TD*%
D12*
%TO.P,J5,1,Pin_1*%
%TO.N,Net-(J5-Pin_1)*%
X127420000Y-133000000D03*
D13*
%TO.P,J5,2,Pin_2*%
%TO.N,Net-(J5-Pin_2)*%
X132500000Y-133000000D03*
%TD*%
D18*
%TO.N,+12V*%
X128000000Y-123000000D03*
X135896800Y-94000000D03*
X142000000Y-122000000D03*
X135302700Y-82437500D03*
X158000000Y-122000000D03*
%TO.N,GND*%
X178500000Y-76000000D03*
%TO.N,Net-(U2-IN2)*%
X145231500Y-60500000D03*
X144861000Y-69238400D03*
%TO.N,Net-(U3-IN1)*%
X200500000Y-107000000D03*
%TO.N,Net-(U5-IO18)*%
X188621600Y-105343300D03*
%TO.N,Net-(U5-IO19)*%
X185000000Y-106000000D03*
%TO.N,Net-(U5-IO17)*%
X191621900Y-98188500D03*
%TO.N,Net-(U5-IO16)*%
X194554800Y-97441000D03*
%TO.N,/+Vin*%
X193500000Y-87935100D03*
%TD*%
D19*
%TO.N,+12V*%
X190722000Y-125230000D02*
X188992000Y-123500000D01*
D20*
%TO.N,Net-(J1-Pin_1)*%
X150050000Y-66245800D02*
X148952600Y-66245800D01*
X150050000Y-67500000D02*
X150050000Y-66245800D01*
X148952600Y-66245800D02*
X148540000Y-65833200D01*
X148540000Y-65833200D02*
X148540000Y-55500000D01*
D19*
%TO.N,+12V*%
X188992000Y-123500000D02*
X155500000Y-123500000D01*
X128500000Y-123500000D02*
X128000000Y-123000000D01*
X155500000Y-123500000D02*
X157000000Y-122000000D01*
X135302700Y-82437500D02*
X135302700Y-63657300D01*
X141000000Y-122000000D02*
X142000000Y-122000000D01*
X139500000Y-123500000D02*
X141000000Y-122000000D01*
X135896800Y-94000000D02*
X135896800Y-118000000D01*
X135896800Y-94000000D02*
X135896800Y-83031600D01*
X139500000Y-121603200D02*
X135896800Y-118000000D01*
X139500000Y-123500000D02*
X128500000Y-123500000D01*
X157000000Y-122000000D02*
X158000000Y-122000000D01*
X135302700Y-63657300D02*
X143460000Y-55500000D01*
X135896800Y-83031600D02*
X135302700Y-82437500D01*
X155500000Y-123500000D02*
X139500000Y-123500000D01*
X139500000Y-123500000D02*
X139500000Y-121603200D01*
D20*
%TO.N,Net-(J2-Pin_1)*%
X164040000Y-62353200D02*
X164040000Y-55500000D01*
X159050000Y-66245800D02*
X160147400Y-66245800D01*
X160147400Y-66245800D02*
X164040000Y-62353200D01*
X159050000Y-67500000D02*
X159050000Y-66245800D01*
%TO.N,Net-(J3-Pin_2)*%
X148504900Y-132035100D02*
X147540000Y-133000000D01*
%TO.N,GND*%
X158660000Y-116650000D02*
X158660000Y-115350000D01*
X139200000Y-96927100D02*
X139200000Y-97185800D01*
X175754000Y-81778000D02*
X175754000Y-78746000D01*
X172942000Y-84590000D02*
X159050000Y-70698000D01*
X147060000Y-115475000D02*
X147060000Y-116775000D01*
X161260000Y-116650000D02*
X161260000Y-115350000D01*
X175754000Y-78746000D02*
X178500000Y-76000000D01*
X144460000Y-115475000D02*
X144460000Y-116775000D01*
X140500000Y-111515000D02*
X144460000Y-115475000D01*
X159050000Y-70698000D02*
X159050000Y-70040000D01*
X139200000Y-96700000D02*
X139500000Y-96400000D01*
X129960000Y-116650000D02*
X129960000Y-116000000D01*
X140500000Y-99300000D02*
X140500000Y-111515000D01*
X128660000Y-115350000D02*
X128660000Y-116650000D01*
X145760000Y-116125000D02*
X145760000Y-116775000D01*
X180212000Y-132500000D02*
X172942000Y-125230000D01*
X139322900Y-98000000D02*
X139281600Y-98000000D01*
X139500000Y-85800000D02*
X139500000Y-84500000D01*
X129960000Y-116000000D02*
X129960000Y-115350000D01*
X137000000Y-70100000D02*
X137000000Y-68800000D01*
X215558000Y-84770000D02*
X218520000Y-81808000D01*
X172942000Y-84590000D02*
X175754000Y-81778000D01*
X193960000Y-132500000D02*
X180212000Y-132500000D01*
X139500000Y-96400000D02*
X139500000Y-85800000D01*
X138300000Y-67500000D02*
X138300000Y-68800000D01*
X218520000Y-80162690D02*
X217897310Y-79540000D01*
X139200000Y-98000000D02*
X139200000Y-99300000D01*
X140800000Y-83200000D02*
X140800000Y-72600000D01*
X138300000Y-70100000D02*
X138300000Y-68800000D01*
X139200000Y-97185800D02*
X139200000Y-97227100D01*
X218520000Y-81808000D02*
X218520000Y-80162690D01*
X131260000Y-116650000D02*
X131260000Y-115350000D01*
X137650000Y-68800000D02*
X138300000Y-68800000D01*
X217897310Y-79540000D02*
X205820000Y-79540000D01*
X139200000Y-96700000D02*
X139200000Y-96927100D01*
X140800000Y-72600000D02*
X138300000Y-70100000D01*
X145760000Y-115475000D02*
X145760000Y-116125000D01*
X140800000Y-84500000D02*
X140800000Y-83200000D01*
X205820000Y-79540000D02*
X204757000Y-80603000D01*
X139200000Y-97227100D02*
X139200000Y-98000000D01*
X139850000Y-98000000D02*
X139322900Y-98000000D01*
X137000000Y-67500000D02*
X137000000Y-68800000D01*
X139281600Y-98000000D02*
X139200000Y-98000000D01*
X140500000Y-96700000D02*
X140500000Y-98000000D01*
X139500000Y-83200000D02*
X139500000Y-84500000D01*
X140150000Y-84500000D02*
X139500000Y-84500000D01*
X159960000Y-115350000D02*
X159960000Y-116000000D01*
X159960000Y-116000000D02*
X159960000Y-116650000D01*
%TO.N,Net-(U2-IN2)*%
X145231500Y-68867900D02*
X144861000Y-69238400D01*
X145231500Y-60500000D02*
X145231500Y-68867900D01*
X144861000Y-69238400D02*
X144664400Y-69435000D01*
X144664400Y-69435000D02*
X144861000Y-69238400D01*
%TO.N,Net-(U3-IN1)*%
X196715000Y-103215000D02*
X196715000Y-84329690D01*
X196715000Y-84329690D02*
X199378690Y-81666000D01*
X200500000Y-107000000D02*
X196715000Y-103215000D01*
X201154000Y-81666000D02*
X202217000Y-80603000D01*
X199378690Y-81666000D02*
X201154000Y-81666000D01*
%TO.N,+5V*%
X197778000Y-84770000D02*
X213290000Y-84770000D01*
X213290000Y-84770000D02*
X217457000Y-80603000D01*
%TO.N,Net-(U5-IO18)*%
X188621600Y-105343300D02*
X188916400Y-105048500D01*
X188916400Y-105048500D02*
X188916400Y-84006800D01*
X190787000Y-56346000D02*
X192057000Y-55076000D01*
X188916400Y-84006800D02*
X190787000Y-82136200D01*
X190787000Y-82136200D02*
X190787000Y-56346000D01*
%TO.N,Net-(U5-IO19)*%
X189517000Y-55076000D02*
X188412700Y-56180300D01*
X185905800Y-105094200D02*
X188019900Y-105094200D01*
X188412700Y-56180300D02*
X188412700Y-104701400D01*
X188412700Y-104701400D02*
X188019900Y-105094200D01*
X185000000Y-106000000D02*
X185905800Y-105094200D01*
%TO.N,Net-(U5-IO17)*%
X191621900Y-98188500D02*
X191621900Y-86485600D01*
X191621900Y-86485600D02*
X195711000Y-82396500D01*
X195711000Y-56502000D02*
X197137000Y-55076000D01*
X195711000Y-82396500D02*
X195711000Y-56502000D01*
%TO.N,Net-(U5-IO16)*%
X194554800Y-85123500D02*
X198407000Y-81271300D01*
X198407000Y-56346000D02*
X199677000Y-55076000D01*
X198407000Y-81271300D02*
X198407000Y-56346000D01*
X194554800Y-97441000D02*
X194478800Y-97365000D01*
X194478800Y-97365000D02*
X194554800Y-97441000D01*
X194554800Y-97441000D02*
X194554800Y-85123500D01*
%TO.N,/+Vin*%
X193770000Y-126135100D02*
X194495100Y-125410000D01*
X194495100Y-125410000D02*
X197778000Y-125410000D01*
X193770000Y-126135100D02*
X193770000Y-127230000D01*
X193500000Y-87935100D02*
X193500000Y-125865100D01*
X193500000Y-125865100D02*
X193770000Y-126135100D01*
X193770000Y-127230000D02*
X199040000Y-132500000D01*
%TD*%
%TA.AperFunction,Conductor*%
%TO.N,GND*%
G36*
X205007000Y-81841132D02*
G01*
X205052526Y-81833922D01*
X205241437Y-81772542D01*
X205418432Y-81682358D01*
X205579139Y-81565596D01*
X205579140Y-81565596D01*
X205719596Y-81425140D01*
X205719596Y-81425139D01*
X205836358Y-81264432D01*
X205916234Y-81107668D01*
X205964208Y-81056872D01*
X206032029Y-81040077D01*
X206098164Y-81062614D01*
X206137203Y-81107667D01*
X206217213Y-81264694D01*
X206334019Y-81425464D01*
X206474536Y-81565981D01*
X206635306Y-81682787D01*
X206714010Y-81722889D01*
X206812367Y-81773005D01*
X206812370Y-81773006D01*
X206894583Y-81799718D01*
X207001364Y-81834413D01*
X207197639Y-81865500D01*
X207197640Y-81865500D01*
X207396360Y-81865500D01*
X207396361Y-81865500D01*
X207592636Y-81834413D01*
X207781632Y-81773005D01*
X207958694Y-81682787D01*
X208119464Y-81565981D01*
X208259981Y-81425464D01*
X208376787Y-81264694D01*
X208456515Y-81108218D01*
X208504490Y-81057423D01*
X208572311Y-81040628D01*
X208638446Y-81063165D01*
X208677484Y-81108218D01*
X208757213Y-81264694D01*
X208874019Y-81425464D01*
X209014536Y-81565981D01*
X209175306Y-81682787D01*
X209254010Y-81722889D01*
X209352367Y-81773005D01*
X209352370Y-81773006D01*
X209434583Y-81799718D01*
X209541364Y-81834413D01*
X209737639Y-81865500D01*
X209737640Y-81865500D01*
X209936360Y-81865500D01*
X209936361Y-81865500D01*
X210132636Y-81834413D01*
X210321632Y-81773005D01*
X210498694Y-81682787D01*
X210659464Y-81565981D01*
X210799981Y-81425464D01*
X210916787Y-81264694D01*
X210996515Y-81108218D01*
X211044490Y-81057423D01*
X211112311Y-81040628D01*
X211178446Y-81063165D01*
X211217484Y-81108218D01*
X211297213Y-81264694D01*
X211414019Y-81425464D01*
X211554536Y-81565981D01*
X211715306Y-81682787D01*
X211794010Y-81722889D01*
X211892367Y-81773005D01*
X211892370Y-81773006D01*
X211974583Y-81799718D01*
X212081364Y-81834413D01*
X212277639Y-81865500D01*
X212277640Y-81865500D01*
X212476360Y-81865500D01*
X212476361Y-81865500D01*
X212672636Y-81834413D01*
X212861632Y-81773005D01*
X213038694Y-81682787D01*
X213199464Y-81565981D01*
X213339981Y-81425464D01*
X213456787Y-81264694D01*
X213536515Y-81108218D01*
X213584490Y-81057423D01*
X213652311Y-81040628D01*
X213718446Y-81063165D01*
X213757484Y-81108218D01*
X213837213Y-81264694D01*
X213954019Y-81425464D01*
X214094536Y-81565981D01*
X214255306Y-81682787D01*
X214334010Y-81722889D01*
X214432367Y-81773005D01*
X214432370Y-81773006D01*
X214514583Y-81799718D01*
X214621364Y-81834413D01*
X214817639Y-81865500D01*
X214817640Y-81865500D01*
X215016355Y-81865500D01*
X215016361Y-81865500D01*
X215030228Y-81863303D01*
X215099516Y-81872256D01*
X215152970Y-81917250D01*
X215173612Y-81984001D01*
X215154889Y-82051315D01*
X215137306Y-82073457D01*
X213077584Y-84133181D01*
X213016261Y-84166666D01*
X212989903Y-84169500D01*
X198964730Y-84169500D01*
X198897691Y-84149815D01*
X198860808Y-84112133D01*
X198860651Y-84112248D01*
X198859872Y-84111176D01*
X198859000Y-84110285D01*
X198857789Y-84108309D01*
X198816801Y-84051894D01*
X198740981Y-83947536D01*
X198600464Y-83807019D01*
X198477660Y-83717797D01*
X198439689Y-83690209D01*
X198435433Y-83688041D01*
X198384637Y-83640067D01*
X198367842Y-83572246D01*
X198390380Y-83506111D01*
X198404040Y-83489883D01*
X199591107Y-82302819D01*
X199652430Y-82269334D01*
X199678788Y-82266500D01*
X201067331Y-82266500D01*
X201067347Y-82266501D01*
X201074943Y-82266501D01*
X201233054Y-82266501D01*
X201233057Y-82266501D01*
X201385785Y-82225577D01*
X201448336Y-82189463D01*
X201522716Y-82146520D01*
X201634520Y-82034716D01*
X201634520Y-82034714D01*
X201644723Y-82024512D01*
X201644727Y-82024506D01*
X201802473Y-81866760D01*
X201863794Y-81833277D01*
X201916521Y-81833841D01*
X201916552Y-81833651D01*
X201917843Y-81833855D01*
X201919099Y-81833869D01*
X201921352Y-81834409D01*
X201921364Y-81834413D01*
X202117639Y-81865500D01*
X202117640Y-81865500D01*
X202316360Y-81865500D01*
X202316361Y-81865500D01*
X202512636Y-81834413D01*
X202701632Y-81773005D01*
X202878694Y-81682787D01*
X203039464Y-81565981D01*
X203179981Y-81425464D01*
X203296787Y-81264694D01*
X203376796Y-81107667D01*
X203424769Y-81056872D01*
X203492590Y-81040077D01*
X203558725Y-81062614D01*
X203597765Y-81107668D01*
X203677641Y-81264432D01*
X203794403Y-81425139D01*
X203794403Y-81425140D01*
X203934859Y-81565596D01*
X204095567Y-81682358D01*
X204272562Y-81772542D01*
X204461473Y-81833922D01*
X204507000Y-81841133D01*
X204507000Y-80986649D01*
X204580508Y-81029090D01*
X204696802Y-81060250D01*
X204817198Y-81060250D01*
X204933492Y-81029090D01*
X205007000Y-80986649D01*
X205007000Y-81841132D01*
G37*
%TD.AperFunction*%
%TA.AperFunction,Conductor*%
G36*
X224692539Y-49520185D02*
G01*
X224738294Y-49572989D01*
X224749500Y-49624500D01*
X224749500Y-139375500D01*
X224729815Y-139442539D01*
X224677011Y-139488294D01*
X224625500Y-139499500D01*
X117624500Y-139499500D01*
X117557461Y-139479815D01*
X117511706Y-139427011D01*
X117500500Y-139375500D01*
X117500500Y-136393713D01*
X119149500Y-136393713D01*
X119149500Y-136606286D01*
X119182753Y-136816239D01*
X119248444Y-137018414D01*
X119344951Y-137207820D01*
X119469890Y-137379786D01*
X119620213Y-137530109D01*
X119792179Y-137655048D01*
X119792181Y-137655049D01*
X119792184Y-137655051D01*
X119981588Y-137751557D01*
X120183757Y-137817246D01*
X120393713Y-137850500D01*
X120393714Y-137850500D01*
X120606286Y-137850500D01*
X120606287Y-137850500D01*
X120816243Y-137817246D01*
X121018412Y-137751557D01*
X121207816Y-137655051D01*
X121229789Y-137639086D01*
X121379786Y-137530109D01*
X121379788Y-137530106D01*
X121379792Y-137530104D01*
X121530104Y-137379792D01*
X121530106Y-137379788D01*
X121530109Y-137379786D01*
X121655048Y-137207820D01*
X121655047Y-137207820D01*
X121655051Y-137207816D01*
X121751557Y-137018412D01*
X121817246Y-136816243D01*
X121850500Y-136606287D01*
X121850500Y-136393713D01*
X220149500Y-136393713D01*
X220149500Y-136606286D01*
X220182753Y-136816239D01*
X220248444Y-137018414D01*
X220344951Y-137207820D01*
X220469890Y-137379786D01*
X220620213Y-137530109D01*
X220792179Y-137655048D01*
X220792181Y-137655049D01*
X220792184Y-137655051D01*
X220981588Y-137751557D01*
X221183757Y-137817246D01*
X221393713Y-137850500D01*
X221393714Y-137850500D01*
X221606286Y-137850500D01*
X221606287Y-137850500D01*
X221816243Y-137817246D01*
X222018412Y-137751557D01*
X222207816Y-137655051D01*
X222229789Y-137639086D01*
X222379786Y-137530109D01*
X222379788Y-137530106D01*
X222379792Y-137530104D01*
X222530104Y-137379792D01*
X222530106Y-137379788D01*
X222530109Y-137379786D01*
X222655048Y-137207820D01*
X222655047Y-137207820D01*
X222655051Y-137207816D01*
X222751557Y-137018412D01*
X222817246Y-136816243D01*
X222850500Y-136606287D01*
X222850500Y-136393713D01*
X222817246Y-136183757D01*
X222751557Y-135981588D01*
X222655051Y-135792184D01*
X222655049Y-135792181D01*
X222655048Y-135792179D01*
X222530109Y-135620213D01*
X222379786Y-135469890D01*
X222207820Y-135344951D01*
X222018414Y-135248444D01*
X222018413Y-135248443D01*
X222018412Y-135248443D01*
X221816243Y-135182754D01*
X221816241Y-135182753D01*
X221816240Y-135182753D01*
X221654957Y-135157208D01*
X221606287Y-135149500D01*
X221393713Y-135149500D01*
X221345042Y-135157208D01*
X221183760Y-135182753D01*
X220981585Y-135248444D01*
X220792179Y-135344951D01*
X220620213Y-135469890D01*
X220469890Y-135620213D01*
X220344951Y-135792179D01*
X220248444Y-135981585D01*
X220182753Y-136183760D01*
X220149500Y-136393713D01*
X121850500Y-136393713D01*
X121817246Y-136183757D01*
X121751557Y-135981588D01*
X121655051Y-135792184D01*
X121655049Y-135792181D01*
X121655048Y-135792179D01*
X121530109Y-135620213D01*
X121379786Y-135469890D01*
X121207820Y-135344951D01*
X121018414Y-135248444D01*
X121018413Y-135248443D01*
X121018412Y-135248443D01*
X120816243Y-135182754D01*
X120816241Y-135182753D01*
X120816240Y-135182753D01*
X120654957Y-135157208D01*
X120606287Y-135149500D01*
X120393713Y-135149500D01*
X120345042Y-135157208D01*
X120183760Y-135182753D01*
X119981585Y-135248444D01*
X119792179Y-135344951D01*
X119620213Y-135469890D01*
X119469890Y-135620213D01*
X119344951Y-135792179D01*
X119248444Y-135981585D01*
X119182753Y-136183760D01*
X119149500Y-136393713D01*
X117500500Y-136393713D01*
X117500500Y-131452135D01*
X125419500Y-131452135D01*
X125419500Y-134547870D01*
X125419501Y-134547876D01*
X125425908Y-134607483D01*
X125476202Y-134742328D01*
X125476206Y-134742335D01*
X125562452Y-134857544D01*
X125562455Y-134857547D01*
X125677664Y-134943793D01*
X125677671Y-134943797D01*
X125812517Y-134994091D01*
X125812516Y-134994091D01*
X125819444Y-134994835D01*
X125872127Y-135000500D01*
X128967872Y-135000499D01*
X129027483Y-134994091D01*
X129162331Y-134943796D01*
X129277546Y-134857546D01*
X129363796Y-134742331D01*
X129414091Y-134607483D01*
X129420500Y-134547873D01*
X129420499Y-132868872D01*
X130499500Y-132868872D01*
X130499500Y-133131127D01*
X130526123Y-133333339D01*
X130533730Y-133391116D01*
X130593399Y-133613803D01*
X130601602Y-133644418D01*
X130601605Y-133644428D01*
X130701953Y-133886690D01*
X130701958Y-133886700D01*
X130833075Y-134113803D01*
X130992718Y-134321851D01*
X130992726Y-134321860D01*
X131178140Y-134507274D01*
X131178148Y-134507281D01*
X131386196Y-134666924D01*
X131613299Y-134798041D01*
X131613309Y-134798046D01*
X131855571Y-134898394D01*
X131855581Y-134898398D01*
X132108884Y-134966270D01*
X132357188Y-134998960D01*
X132368864Y-135000498D01*
X132368880Y-135000500D01*
X132368887Y-135000500D01*
X132631113Y-135000500D01*
X132631120Y-135000500D01*
X132891116Y-134966270D01*
X133144419Y-134898398D01*
X133386697Y-134798043D01*
X133613803Y-134666924D01*
X133821851Y-134507282D01*
X133821855Y-134507277D01*
X133821860Y-134507274D01*
X134007274Y-134321860D01*
X134007277Y-134321855D01*
X134007282Y-134321851D01*
X134166924Y-134113803D01*
X134298043Y-133886697D01*
X134398398Y-133644419D01*
X134466270Y-133391116D01*
X134500500Y-133131120D01*
X134500500Y-132868880D01*
X134466270Y-132608884D01*
X134398398Y-132355581D01*
X134354665Y-132250000D01*
X134298046Y-132113309D01*
X134298041Y-132113299D01*
X134166924Y-131886196D01*
X134007281Y-131678148D01*
X134007274Y-131678140D01*
X133821860Y-131492726D01*
X133821851Y-131492718D01*
X133768963Y-131452135D01*
X140459500Y-131452135D01*
X140459500Y-134547870D01*
X140459501Y-134547876D01*
X140465908Y-134607483D01*
X140516202Y-134742328D01*
X140516206Y-134742335D01*
X140602452Y-134857544D01*
X140602455Y-134857547D01*
X140717664Y-134943793D01*
X140717671Y-134943797D01*
X140852517Y-134994091D01*
X140852516Y-134994091D01*
X140859444Y-134994835D01*
X140912127Y-135000500D01*
X144007872Y-135000499D01*
X144067483Y-134994091D01*
X144202331Y-134943796D01*
X144317546Y-134857546D01*
X144403796Y-134742331D01*
X144454091Y-134607483D01*
X144460500Y-134547873D01*
X144460499Y-132868872D01*
X145539500Y-132868872D01*
X145539500Y-133131127D01*
X145566123Y-133333339D01*
X145573730Y-133391116D01*
X145633399Y-133613803D01*
X145641602Y-133644418D01*
X145641605Y-133644428D01*
X145741953Y-133886690D01*
X145741958Y-133886700D01*
X145873075Y-134113803D01*
X146032718Y-134321851D01*
X146032726Y-134321860D01*
X146218140Y-134507274D01*
X146218148Y-134507281D01*
X146426196Y-134666924D01*
X146653299Y-134798041D01*
X146653309Y-134798046D01*
X146895571Y-134898394D01*
X146895581Y-134898398D01*
X147148884Y-134966270D01*
X147397188Y-134998960D01*
X147408864Y-135000498D01*
X147408880Y-135000500D01*
X147408887Y-135000500D01*
X147671113Y-135000500D01*
X147671120Y-135000500D01*
X147931116Y-134966270D01*
X148184419Y-134898398D01*
X148426697Y-134798043D01*
X148653803Y-134666924D01*
X148861851Y-134507282D01*
X148861855Y-134507277D01*
X148861860Y-134507274D01*
X149047274Y-134321860D01*
X149047277Y-134321855D01*
X149047282Y-134321851D01*
X149206924Y-134113803D01*
X149338043Y-133886697D01*
X149438398Y-133644419D01*
X149506270Y-133391116D01*
X149540500Y-133131120D01*
X149540500Y-132868880D01*
X149506270Y-132608884D01*
X149438398Y-132355581D01*
X149394665Y-132250000D01*
X149338046Y-132113309D01*
X149338041Y-132113299D01*
X149206924Y-131886196D01*
X149047281Y-131678148D01*
X149047274Y-131678140D01*
X148861860Y-131492726D01*
X148861851Y-131492718D01*
X148808963Y-131452135D01*
X155419500Y-131452135D01*
X155419500Y-134547870D01*
X155419501Y-134547876D01*
X155425908Y-134607483D01*
X155476202Y-134742328D01*
X155476206Y-134742335D01*
X155562452Y-134857544D01*
X155562455Y-134857547D01*
X155677664Y-134943793D01*
X155677671Y-134943797D01*
X155812517Y-134994091D01*
X155812516Y-134994091D01*
X155819444Y-134994835D01*
X155872127Y-135000500D01*
X158967872Y-135000499D01*
X159027483Y-134994091D01*
X159162331Y-134943796D01*
X159277546Y-134857546D01*
X159363796Y-134742331D01*
X159414091Y-134607483D01*
X159420500Y-134547873D01*
X159420499Y-132868872D01*
X160499500Y-132868872D01*
X160499500Y-133131127D01*
X160526123Y-133333339D01*
X160533730Y-133391116D01*
X160593399Y-133613803D01*
X160601602Y-133644418D01*
X160601605Y-133644428D01*
X160701953Y-133886690D01*
X160701958Y-133886700D01*
X160833075Y-134113803D01*
X160992718Y-134321851D01*
X160992726Y-134321860D01*
X161178140Y-134507274D01*
X161178148Y-134507281D01*
X161386196Y-134666924D01*
X161613299Y-134798041D01*
X161613309Y-134798046D01*
X161855571Y-134898394D01*
X161855581Y-134898398D01*
X162108884Y-134966270D01*
X162357188Y-134998960D01*
X162368864Y-135000498D01*
X162368880Y-135000500D01*
X162368887Y-135000500D01*
X162631113Y-135000500D01*
X162631120Y-135000500D01*
X162891116Y-134966270D01*
X163144419Y-134898398D01*
X163386697Y-134798043D01*
X163613803Y-134666924D01*
X163821851Y-134507282D01*
X163821855Y-134507277D01*
X163821860Y-134507274D01*
X164007274Y-134321860D01*
X164007277Y-134321855D01*
X164007282Y-134321851D01*
X164166924Y-134113803D01*
X164298043Y-133886697D01*
X164398398Y-133644419D01*
X164466270Y-133391116D01*
X164500500Y-133131120D01*
X164500500Y-132868880D01*
X164481121Y-132721684D01*
X164480218Y-132714823D01*
X164469197Y-132631120D01*
X164466270Y-132608884D01*
X164398398Y-132355581D01*
X164354665Y-132250000D01*
X164298046Y-132113309D01*
X164298041Y-132113299D01*
X164166924Y-131886196D01*
X164007281Y-131678148D01*
X164007274Y-131678140D01*
X163821860Y-131492726D01*
X163821851Y-131492718D01*
X163613803Y-131333075D01*
X163386700Y-131201958D01*
X163386690Y-131201953D01*
X163144428Y-131101605D01*
X163144421Y-131101603D01*
X163144419Y-131101602D01*
X162891116Y-131033730D01*
X162833339Y-131026123D01*
X162631127Y-130999500D01*
X162631120Y-130999500D01*
X162368880Y-130999500D01*
X162368872Y-130999500D01*
X162137772Y-131029926D01*
X162108884Y-131033730D01*
X161978650Y-131068626D01*
X161855581Y-131101602D01*
X161855571Y-131101605D01*
X161613309Y-131201953D01*
X161613299Y-131201958D01*
X161386196Y-131333075D01*
X161178148Y-131492718D01*
X160992718Y-131678148D01*
X160833075Y-131886196D01*
X160701958Y-132113299D01*
X160701953Y-132113309D01*
X160601605Y-132355571D01*
X160601602Y-132355581D01*
X160533730Y-132608885D01*
X160499500Y-132868872D01*
X159420499Y-132868872D01*
X159420499Y-131452128D01*
X159414091Y-131392517D01*
X159411733Y-131386196D01*
X159363797Y-131257671D01*
X159363793Y-131257664D01*
X159277547Y-131142455D01*
X159277544Y-131142452D01*
X159162335Y-131056206D01*
X159162328Y-131056202D01*
X159027482Y-131005908D01*
X159027483Y-131005908D01*
X158967883Y-130999501D01*
X158967881Y-130999500D01*
X158967873Y-130999500D01*
X158967864Y-130999500D01*
X155872129Y-130999500D01*
X155872123Y-130999501D01*
X155812516Y-131005908D01*
X155677671Y-131056202D01*
X155677664Y-131056206D01*
X155562455Y-131142452D01*
X155562452Y-131142455D01*
X155476206Y-131257664D01*
X155476202Y-131257671D01*
X155425908Y-131392517D01*
X155419501Y-131452116D01*
X155419501Y-131452123D01*
X155419500Y-131452135D01*
X148808963Y-131452135D01*
X148653803Y-131333075D01*
X148426700Y-131201958D01*
X148426690Y-131201953D01*
X148184428Y-131101605D01*
X148184421Y-131101603D01*
X148184419Y-131101602D01*
X147931116Y-131033730D01*
X147873339Y-131026123D01*
X147671127Y-130999500D01*
X147671120Y-130999500D01*
X147408880Y-130999500D01*
X147408872Y-130999500D01*
X147177772Y-131029926D01*
X147148884Y-131033730D01*
X147018650Y-131068626D01*
X146895581Y-131101602D01*
X146895571Y-131101605D01*
X146653309Y-131201953D01*
X146653299Y-131201958D01*
X146426196Y-131333075D01*
X146218148Y-131492718D01*
X146032718Y-131678148D01*
X145873075Y-131886196D01*
X145741958Y-132113299D01*
X145741953Y-132113309D01*
X145641605Y-132355571D01*
X145641602Y-132355581D01*
X145573730Y-132608885D01*
X145539500Y-132868872D01*
X144460499Y-132868872D01*
X144460499Y-131452128D01*
X144454091Y-131392517D01*
X144451733Y-131386196D01*
X144403797Y-131257671D01*
X144403793Y-131257664D01*
X144317547Y-131142455D01*
X144317544Y-131142452D01*
X144202335Y-131056206D01*
X144202328Y-131056202D01*
X144067482Y-131005908D01*
X144067483Y-131005908D01*
X144007883Y-130999501D01*
X144007881Y-130999500D01*
X144007873Y-130999500D01*
X144007864Y-130999500D01*
X140912129Y-130999500D01*
X140912123Y-130999501D01*
X140852516Y-131005908D01*
X140717671Y-131056202D01*
X140717664Y-131056206D01*
X140602455Y-131142452D01*
X140602452Y-131142455D01*
X140516206Y-131257664D01*
X140516202Y-131257671D01*
X140465908Y-131392517D01*
X140459501Y-131452116D01*
X140459501Y-131452123D01*
X140459500Y-131452135D01*
X133768963Y-131452135D01*
X133613803Y-131333075D01*
X133386700Y-131201958D01*
X133386690Y-131201953D01*
X133144428Y-131101605D01*
X133144421Y-131101603D01*
X133144419Y-131101602D01*
X132891116Y-131033730D01*
X132833339Y-131026123D01*
X132631127Y-130999500D01*
X132631120Y-130999500D01*
X132368880Y-130999500D01*
X132368872Y-130999500D01*
X132137772Y-131029926D01*
X132108884Y-131033730D01*
X131978650Y-131068626D01*
X131855581Y-131101602D01*
X131855571Y-131101605D01*
X131613309Y-131201953D01*
X131613299Y-131201958D01*
X131386196Y-131333075D01*
X131178148Y-131492718D01*
X130992718Y-131678148D01*
X130833075Y-131886196D01*
X130701958Y-132113299D01*
X130701953Y-132113309D01*
X130601605Y-132355571D01*
X130601602Y-132355581D01*
X130533730Y-132608885D01*
X130499500Y-132868872D01*
X129420499Y-132868872D01*
X129420499Y-131452128D01*
X129414091Y-131392517D01*
X129411733Y-131386196D01*
X129363797Y-131257671D01*
X129363793Y-131257664D01*
X129277547Y-131142455D01*
X129277544Y-131142452D01*
X129162335Y-131056206D01*
X129162328Y-131056202D01*
X129027482Y-131005908D01*
X129027483Y-131005908D01*
X128967883Y-130999501D01*
X128967881Y-130999500D01*
X128967873Y-130999500D01*
X128967864Y-130999500D01*
X125872129Y-130999500D01*
X125872123Y-130999501D01*
X125812516Y-131005908D01*
X125677671Y-131056202D01*
X125677664Y-131056206D01*
X125562455Y-131142452D01*
X125562452Y-131142455D01*
X125476206Y-131257664D01*
X125476202Y-131257671D01*
X125425908Y-131392517D01*
X125419501Y-131452116D01*
X125419501Y-131452123D01*
X125419500Y-131452135D01*
X117500500Y-131452135D01*
X117500500Y-130952155D01*
X191960000Y-130952155D01*
X191960000Y-132250000D01*
X193240936Y-132250000D01*
X193229207Y-132278316D01*
X193200000Y-132425147D01*
X193200000Y-132574853D01*
X193229207Y-132721684D01*
X193240936Y-132750000D01*
X191960000Y-132750000D01*
X191960000Y-134047844D01*
X191966401Y-134107372D01*
X191966403Y-134107379D01*
X192016645Y-134242086D01*
X192016649Y-134242093D01*
X192102809Y-134357187D01*
X192102812Y-134357190D01*
X192217906Y-134443350D01*
X192217913Y-134443354D01*
X192352620Y-134493596D01*
X192352627Y-134493598D01*
X192412155Y-134499999D01*
X192412172Y-134500000D01*
X193710000Y-134500000D01*
X193710000Y-133219064D01*
X193738316Y-133230793D01*
X193885147Y-133260000D01*
X194034853Y-133260000D01*
X194181684Y-133230793D01*
X194210000Y-133219064D01*
X194210000Y-134500000D01*
X195507828Y-134500000D01*
X195507844Y-134499999D01*
X195567372Y-134493598D01*
X195567379Y-134493596D01*
X195702086Y-134443354D01*
X195702093Y-134443350D01*
X195817187Y-134357190D01*
X195817190Y-134357187D01*
X195903350Y-134242093D01*
X195903354Y-134242086D01*
X195953596Y-134107379D01*
X195953598Y-134107372D01*
X195959999Y-134047844D01*
X195960000Y-134047827D01*
X195960000Y-132750000D01*
X194679064Y-132750000D01*
X194690793Y-132721684D01*
X194720000Y-132574853D01*
X194720000Y-132425147D01*
X194690793Y-132278316D01*
X194679064Y-132250000D01*
X195960000Y-132250000D01*
X195960000Y-130952172D01*
X195959999Y-130952155D01*
X195953598Y-130892627D01*
X195953596Y-130892620D01*
X195903354Y-130757913D01*
X195903350Y-130757906D01*
X195817190Y-130642812D01*
X195817187Y-130642809D01*
X195702093Y-130556649D01*
X195702086Y-130556645D01*
X195567379Y-130506403D01*
X195567372Y-130506401D01*
X195507844Y-130500000D01*
X194210000Y-130500000D01*
X194210000Y-131780935D01*
X194181684Y-131769207D01*
X194034853Y-131740000D01*
X193885147Y-131740000D01*
X193738316Y-131769207D01*
X193710000Y-131780935D01*
X193710000Y-130500000D01*
X192412155Y-130500000D01*
X192352627Y-130506401D01*
X192352620Y-130506403D01*
X192217913Y-130556645D01*
X192217906Y-130556649D01*
X192102812Y-130642809D01*
X192102809Y-130642812D01*
X192016649Y-130757906D01*
X192016645Y-130757913D01*
X191966403Y-130892620D01*
X191966401Y-130892627D01*
X191960000Y-130952155D01*
X117500500Y-130952155D01*
X117500500Y-123098543D01*
X126999499Y-123098543D01*
X127037947Y-123291829D01*
X127037950Y-123291839D01*
X127113364Y-123473907D01*
X127113371Y-123473920D01*
X127222860Y-123637781D01*
X127222863Y-123637785D01*
X127362214Y-123777136D01*
X127362218Y-123777139D01*
X127526079Y-123886628D01*
X127526092Y-123886635D01*
X127708160Y-123962049D01*
X127708165Y-123962051D01*
X127708169Y-123962051D01*
X127708170Y-123962052D01*
X127907434Y-124001689D01*
X127907075Y-124003491D01*
X127915941Y-124007070D01*
X127934018Y-124008954D01*
X127954675Y-124022708D01*
X127963876Y-124026423D01*
X127964430Y-124026865D01*
X127969777Y-124031145D01*
X128021584Y-124082952D01*
X128095270Y-124132186D01*
X128099703Y-124135148D01*
X128099708Y-124135152D01*
X128118189Y-124147500D01*
X128144505Y-124165084D01*
X128144506Y-124165084D01*
X128144507Y-124165085D01*
X128144509Y-124165086D01*
X128281082Y-124221656D01*
X128281087Y-124221658D01*
X128281091Y-124221658D01*
X128281092Y-124221659D01*
X128426079Y-124250500D01*
X128426082Y-124250500D01*
X128426083Y-124250500D01*
X128573918Y-124250500D01*
X139426082Y-124250500D01*
X139426083Y-124250500D01*
X139573917Y-124250500D01*
X139573918Y-124250500D01*
X155426082Y-124250500D01*
X155426083Y-124250500D01*
X155573917Y-124250500D01*
X171850368Y-124250500D01*
X171917407Y-124270185D01*
X171963162Y-124322989D01*
X171973106Y-124392147D01*
X171950686Y-124447386D01*
X171862641Y-124568567D01*
X171772456Y-124745564D01*
X171711074Y-124934482D01*
X171703865Y-124979999D01*
X171703865Y-124980000D01*
X172558351Y-124980000D01*
X172515910Y-125053508D01*
X172484750Y-125169802D01*
X172484750Y-125290198D01*
X172515910Y-125406492D01*
X172558351Y-125480000D01*
X171703865Y-125480000D01*
X171711074Y-125525517D01*
X171772456Y-125714435D01*
X171862641Y-125891432D01*
X171979403Y-126052139D01*
X171979403Y-126052140D01*
X172119859Y-126192596D01*
X172280567Y-126309358D01*
X172457562Y-126399542D01*
X172646473Y-126460922D01*
X172692000Y-126468133D01*
X172692000Y-125613649D01*
X172765508Y-125656090D01*
X172881802Y-125687250D01*
X173002198Y-125687250D01*
X173118492Y-125656090D01*
X173192000Y-125613649D01*
X173192000Y-126468132D01*
X173237526Y-126460922D01*
X173426437Y-126399542D01*
X173603432Y-126309358D01*
X173764139Y-126192596D01*
X173764140Y-126192596D01*
X173904596Y-126052140D01*
X173904596Y-126052139D01*
X174021358Y-125891432D01*
X174111543Y-125714435D01*
X174172925Y-125525517D01*
X174180134Y-125480000D01*
X173325649Y-125480000D01*
X173368090Y-125406492D01*
X173399250Y-125290198D01*
X173399250Y-125169802D01*
X173368090Y-125053508D01*
X173325649Y-124980000D01*
X174180135Y-124980000D01*
X174180134Y-124979999D01*
X174172925Y-124934482D01*
X174111543Y-124745564D01*
X174021358Y-124568567D01*
X173933314Y-124447386D01*
X173909834Y-124381580D01*
X173925659Y-124313526D01*
X173975765Y-124264831D01*
X174033632Y-124250500D01*
X188629770Y-124250500D01*
X188696809Y-124270185D01*
X188717451Y-124286819D01*
X189428738Y-124998105D01*
X189462223Y-125059428D01*
X189463531Y-125105181D01*
X189459500Y-125130636D01*
X189459500Y-125329360D01*
X189490587Y-125525637D01*
X189551993Y-125714629D01*
X189551994Y-125714632D01*
X189613881Y-125836090D01*
X189642213Y-125891694D01*
X189759019Y-126052464D01*
X189899536Y-126192981D01*
X190060306Y-126309787D01*
X190130632Y-126345620D01*
X190237367Y-126400005D01*
X190237370Y-126400006D01*
X190331866Y-126430709D01*
X190426364Y-126461413D01*
X190622639Y-126492500D01*
X190622640Y-126492500D01*
X190821360Y-126492500D01*
X190821361Y-126492500D01*
X191017636Y-126461413D01*
X191206632Y-126400005D01*
X191383694Y-126309787D01*
X191544464Y-126192981D01*
X191684981Y-126052464D01*
X191801787Y-125891694D01*
X191892005Y-125714632D01*
X191953413Y-125525636D01*
X191984500Y-125329361D01*
X191984500Y-125130639D01*
X191953413Y-124934364D01*
X191900902Y-124772750D01*
X191892006Y-124745370D01*
X191892005Y-124745367D01*
X191811750Y-124587860D01*
X191801787Y-124568306D01*
X191684981Y-124407536D01*
X191544464Y-124267019D01*
X191383694Y-124150213D01*
X191206632Y-124059994D01*
X191206629Y-124059993D01*
X191017637Y-123998587D01*
X190919498Y-123983043D01*
X190821361Y-123967500D01*
X190622639Y-123967500D01*
X190622636Y-123967500D01*
X190597181Y-123971531D01*
X190527887Y-123962574D01*
X190490105Y-123936738D01*
X189470421Y-122917052D01*
X189470414Y-122917046D01*
X189396729Y-122867812D01*
X189396729Y-122867813D01*
X189347491Y-122834913D01*
X189210917Y-122778343D01*
X189210907Y-122778340D01*
X189065920Y-122749500D01*
X189065918Y-122749500D01*
X158934480Y-122749500D01*
X158867441Y-122729815D01*
X158821686Y-122677011D01*
X158811742Y-122607853D01*
X158831378Y-122556610D01*
X158886625Y-122473925D01*
X158886626Y-122473921D01*
X158886632Y-122473914D01*
X158962051Y-122291835D01*
X158997551Y-122113368D01*
X159000500Y-122098543D01*
X159000500Y-121901456D01*
X158962052Y-121708170D01*
X158962051Y-121708169D01*
X158962051Y-121708165D01*
X158953753Y-121688132D01*
X158886635Y-121526092D01*
X158886628Y-121526079D01*
X158777139Y-121362218D01*
X158777136Y-121362214D01*
X158637785Y-121222863D01*
X158637781Y-121222860D01*
X158473920Y-121113371D01*
X158473907Y-121113364D01*
X158291839Y-121037950D01*
X158291829Y-121037947D01*
X158098543Y-120999500D01*
X158098541Y-120999500D01*
X157901459Y-120999500D01*
X157901457Y-120999500D01*
X157708170Y-121037947D01*
X157708160Y-121037950D01*
X157526092Y-121113364D01*
X157526079Y-121113371D01*
X157357153Y-121226245D01*
X157356132Y-121224717D01*
X157299745Y-121248666D01*
X157285390Y-121249500D01*
X156926080Y-121249500D01*
X156781092Y-121278340D01*
X156781082Y-121278343D01*
X156644511Y-121334912D01*
X156644498Y-121334919D01*
X156521584Y-121417048D01*
X156521580Y-121417051D01*
X155225451Y-122713181D01*
X155164128Y-122746666D01*
X155137770Y-122749500D01*
X142934480Y-122749500D01*
X142867441Y-122729815D01*
X142821686Y-122677011D01*
X142811742Y-122607853D01*
X142831378Y-122556610D01*
X142886625Y-122473925D01*
X142886626Y-122473921D01*
X142886632Y-122473914D01*
X142962051Y-122291835D01*
X142997551Y-122113368D01*
X143000500Y-122098543D01*
X143000500Y-121901456D01*
X142962052Y-121708170D01*
X142962051Y-121708169D01*
X142962051Y-121708165D01*
X142953753Y-121688132D01*
X142886635Y-121526092D01*
X142886628Y-121526079D01*
X142777139Y-121362218D01*
X142777136Y-121362214D01*
X142637785Y-121222863D01*
X142637781Y-121222860D01*
X142473920Y-121113371D01*
X142473907Y-121113364D01*
X142291839Y-121037950D01*
X142291829Y-121037947D01*
X142098543Y-120999500D01*
X142098541Y-120999500D01*
X141901459Y-120999500D01*
X141901457Y-120999500D01*
X141708170Y-121037947D01*
X141708160Y-121037950D01*
X141526092Y-121113364D01*
X141526079Y-121113371D01*
X141357153Y-121226245D01*
X141356132Y-121224717D01*
X141299745Y-121248666D01*
X141285390Y-121249500D01*
X140926080Y-121249500D01*
X140781092Y-121278340D01*
X140781082Y-121278343D01*
X140644511Y-121334912D01*
X140644498Y-121334919D01*
X140521584Y-121417048D01*
X140440894Y-121497738D01*
X140379570Y-121531222D01*
X140309879Y-121526238D01*
X140253945Y-121484366D01*
X140231596Y-121434247D01*
X140221659Y-121384294D01*
X140221658Y-121384287D01*
X140177775Y-121278343D01*
X140165087Y-121247711D01*
X140165080Y-121247698D01*
X140082952Y-121124785D01*
X140071531Y-121113364D01*
X139978416Y-121020249D01*
X136683619Y-117725451D01*
X136650134Y-117664128D01*
X136647300Y-117637770D01*
X136647300Y-117472844D01*
X143610000Y-117472844D01*
X143616401Y-117532372D01*
X143616403Y-117532379D01*
X143666645Y-117667086D01*
X143666649Y-117667093D01*
X143752809Y-117782187D01*
X143752812Y-117782190D01*
X143867906Y-117868350D01*
X143867913Y-117868354D01*
X144002620Y-117918596D01*
X144002627Y-117918598D01*
X144062155Y-117924999D01*
X144062172Y-117925000D01*
X145510000Y-117925000D01*
X145510000Y-117378554D01*
X145509998Y-117378553D01*
X146010000Y-117378553D01*
X146010000Y-117925000D01*
X147457828Y-117925000D01*
X147457844Y-117924999D01*
X147517372Y-117918598D01*
X147517379Y-117918596D01*
X147652086Y-117868354D01*
X147652093Y-117868350D01*
X147767187Y-117782190D01*
X147767190Y-117782187D01*
X147853350Y-117667093D01*
X147853354Y-117667086D01*
X147903596Y-117532379D01*
X147903598Y-117532372D01*
X147909999Y-117472844D01*
X147910000Y-117472827D01*
X147910000Y-117347844D01*
X157810000Y-117347844D01*
X157816401Y-117407372D01*
X157816403Y-117407379D01*
X157866645Y-117542086D01*
X157866649Y-117542093D01*
X157952809Y-117657187D01*
X157952812Y-117657190D01*
X158067906Y-117743350D01*
X158067913Y-117743354D01*
X158202620Y-117793596D01*
X158202627Y-117793598D01*
X158262155Y-117799999D01*
X158262172Y-117800000D01*
X159710000Y-117800000D01*
X159710000Y-117253554D01*
X159709998Y-117253553D01*
X160210000Y-117253553D01*
X160210000Y-117800000D01*
X161657828Y-117800000D01*
X161657844Y-117799999D01*
X161717372Y-117793598D01*
X161717379Y-117793596D01*
X161852086Y-117743354D01*
X161852093Y-117743350D01*
X161967187Y-117657190D01*
X161967190Y-117657187D01*
X162053350Y-117542093D01*
X162053354Y-117542086D01*
X162103596Y-117407379D01*
X162103598Y-117407372D01*
X162109999Y-117347844D01*
X162110000Y-117347827D01*
X162110000Y-116250000D01*
X162013553Y-116250000D01*
X160856242Y-117407312D01*
X160794919Y-117440797D01*
X160725227Y-117435813D01*
X160680880Y-117407312D01*
X160610000Y-117336432D01*
X160539120Y-117407312D01*
X160477797Y-117440796D01*
X160408105Y-117435812D01*
X160363758Y-117407311D01*
X160210000Y-117253553D01*
X159709998Y-117253553D01*
X159556241Y-117407311D01*
X159494918Y-117440796D01*
X159425226Y-117435812D01*
X159380879Y-117407311D01*
X159310000Y-117336432D01*
X159239120Y-117407312D01*
X159177797Y-117440797D01*
X159108105Y-117435813D01*
X159063758Y-117407312D01*
X158273625Y-116617179D01*
X158495000Y-116617179D01*
X158495000Y-116682821D01*
X158520119Y-116743465D01*
X158566535Y-116789881D01*
X158627179Y-116815000D01*
X158692821Y-116815000D01*
X158753465Y-116789881D01*
X158799881Y-116743465D01*
X158825000Y-116682821D01*
X158825000Y-116650000D01*
X159013554Y-116650000D01*
X159310000Y-116946446D01*
X159606446Y-116650000D01*
X159573625Y-116617179D01*
X159795000Y-116617179D01*
X159795000Y-116682821D01*
X159820119Y-116743465D01*
X159866535Y-116789881D01*
X159927179Y-116815000D01*
X159992821Y-116815000D01*
X160053465Y-116789881D01*
X160099881Y-116743465D01*
X160125000Y-116682821D01*
X160125000Y-116650000D01*
X160313554Y-116650000D01*
X160610000Y-116946446D01*
X160906446Y-116650000D01*
X160873625Y-116617179D01*
X161095000Y-116617179D01*
X161095000Y-116682821D01*
X161120119Y-116743465D01*
X161166535Y-116789881D01*
X161227179Y-116815000D01*
X161292821Y-116815000D01*
X161353465Y-116789881D01*
X161399881Y-116743465D01*
X161425000Y-116682821D01*
X161425000Y-116617179D01*
X161399881Y-116556535D01*
X161353465Y-116510119D01*
X161292821Y-116485000D01*
X161227179Y-116485000D01*
X161166535Y-116510119D01*
X161120119Y-116556535D01*
X161095000Y-116617179D01*
X160873625Y-116617179D01*
X160610000Y-116353554D01*
X160313554Y-116650000D01*
X160125000Y-116650000D01*
X160125000Y-116617179D01*
X160099881Y-116556535D01*
X160053465Y-116510119D01*
X159992821Y-116485000D01*
X159927179Y-116485000D01*
X159866535Y-116510119D01*
X159820119Y-116556535D01*
X159795000Y-116617179D01*
X159573625Y-116617179D01*
X159310000Y-116353554D01*
X159013554Y-116650000D01*
X158825000Y-116650000D01*
X158825000Y-116617179D01*
X158799881Y-116556535D01*
X158753465Y-116510119D01*
X158692821Y-116485000D01*
X158627179Y-116485000D01*
X158566535Y-116510119D01*
X158520119Y-116556535D01*
X158495000Y-116617179D01*
X158273625Y-116617179D01*
X157906446Y-116250000D01*
X158613554Y-116250000D01*
X158660000Y-116296445D01*
X158706446Y-116250000D01*
X161213554Y-116250000D01*
X161260000Y-116296445D01*
X161306446Y-116250000D01*
X161213554Y-116250000D01*
X158706446Y-116250000D01*
X158613554Y-116250000D01*
X157906446Y-116250000D01*
X157810000Y-116250000D01*
X157810000Y-117347844D01*
X147910000Y-117347844D01*
X147910000Y-116375000D01*
X147813553Y-116375000D01*
X146656242Y-117532312D01*
X146594919Y-117565797D01*
X146525227Y-117560813D01*
X146480880Y-117532312D01*
X146410000Y-117461432D01*
X146339120Y-117532312D01*
X146277797Y-117565796D01*
X146208105Y-117560812D01*
X146163758Y-117532311D01*
X146010000Y-117378553D01*
X145509998Y-117378553D01*
X145356241Y-117532311D01*
X145294918Y-117565796D01*
X145225226Y-117560812D01*
X145180879Y-117532311D01*
X145110000Y-117461432D01*
X145039120Y-117532312D01*
X144977797Y-117565797D01*
X144908105Y-117560813D01*
X144863758Y-117532312D01*
X144073625Y-116742179D01*
X144295000Y-116742179D01*
X144295000Y-116807821D01*
X144320119Y-116868465D01*
X144366535Y-116914881D01*
X144427179Y-116940000D01*
X144492821Y-116940000D01*
X144553465Y-116914881D01*
X144599881Y-116868465D01*
X144625000Y-116807821D01*
X144625000Y-116775000D01*
X144813554Y-116775000D01*
X145110000Y-117071446D01*
X145406446Y-116775000D01*
X145373625Y-116742179D01*
X145595000Y-116742179D01*
X145595000Y-116807821D01*
X145620119Y-116868465D01*
X145666535Y-116914881D01*
X145727179Y-116940000D01*
X145792821Y-116940000D01*
X145853465Y-116914881D01*
X145899881Y-116868465D01*
X145925000Y-116807821D01*
X145925000Y-116775000D01*
X146113554Y-116775000D01*
X146410000Y-117071446D01*
X146706446Y-116775000D01*
X146673625Y-116742179D01*
X146895000Y-116742179D01*
X146895000Y-116807821D01*
X146920119Y-116868465D01*
X146966535Y-116914881D01*
X147027179Y-116940000D01*
X147092821Y-116940000D01*
X147153465Y-116914881D01*
X147199881Y-116868465D01*
X147225000Y-116807821D01*
X147225000Y-116742179D01*
X147199881Y-116681535D01*
X147153465Y-116635119D01*
X147092821Y-116610000D01*
X147027179Y-116610000D01*
X146966535Y-116635119D01*
X146920119Y-116681535D01*
X146895000Y-116742179D01*
X146673625Y-116742179D01*
X146410000Y-116478554D01*
X146113554Y-116775000D01*
X145925000Y-116775000D01*
X145925000Y-116742179D01*
X145899881Y-116681535D01*
X145853465Y-116635119D01*
X145792821Y-116610000D01*
X145727179Y-116610000D01*
X145666535Y-116635119D01*
X145620119Y-116681535D01*
X145595000Y-116742179D01*
X145373625Y-116742179D01*
X145110000Y-116478554D01*
X144813554Y-116775000D01*
X144625000Y-116775000D01*
X144625000Y-116742179D01*
X144599881Y-116681535D01*
X144553465Y-116635119D01*
X144492821Y-116610000D01*
X144427179Y-116610000D01*
X144366535Y-116635119D01*
X144320119Y-116681535D01*
X144295000Y-116742179D01*
X144073625Y-116742179D01*
X143706446Y-116375000D01*
X144413554Y-116375000D01*
X144460000Y-116421445D01*
X144506446Y-116375000D01*
X147013554Y-116375000D01*
X147060000Y-116421445D01*
X147106446Y-116375000D01*
X147013554Y-116375000D01*
X144506446Y-116375000D01*
X144413554Y-116375000D01*
X143706446Y-116375000D01*
X143610000Y-116375000D01*
X143610000Y-117472844D01*
X136647300Y-117472844D01*
X136647300Y-114777155D01*
X143610000Y-114777155D01*
X143610000Y-115875000D01*
X143706446Y-115875000D01*
X144413554Y-115875000D01*
X144506445Y-115875000D01*
X147013554Y-115875000D01*
X147106445Y-115875000D01*
X147060000Y-115828554D01*
X147013554Y-115875000D01*
X144506445Y-115875000D01*
X144460000Y-115828554D01*
X144413554Y-115875000D01*
X143706446Y-115875000D01*
X143706446Y-115874999D01*
X143823222Y-115758224D01*
X144139267Y-115442179D01*
X144295000Y-115442179D01*
X144295000Y-115507821D01*
X144320119Y-115568465D01*
X144366535Y-115614881D01*
X144427179Y-115640000D01*
X144492821Y-115640000D01*
X144553465Y-115614881D01*
X144599881Y-115568465D01*
X144625000Y-115507821D01*
X144625000Y-115475000D01*
X144813554Y-115475000D01*
X145110000Y-115771446D01*
X145406446Y-115475000D01*
X145373625Y-115442179D01*
X145595000Y-115442179D01*
X145595000Y-115507821D01*
X145620119Y-115568465D01*
X145666535Y-115614881D01*
X145727179Y-115640000D01*
X145792821Y-115640000D01*
X145853465Y-115614881D01*
X145899881Y-115568465D01*
X145925000Y-115507821D01*
X145925000Y-115475000D01*
X146113554Y-115475000D01*
X146410000Y-115771446D01*
X146706446Y-115475000D01*
X146673625Y-115442179D01*
X146895000Y-115442179D01*
X146895000Y-115507821D01*
X146920119Y-115568465D01*
X146966535Y-115614881D01*
X147027179Y-115640000D01*
X147092821Y-115640000D01*
X147153465Y-115614881D01*
X147199881Y-115568465D01*
X147225000Y-115507821D01*
X147225000Y-115442179D01*
X147199881Y-115381535D01*
X147153465Y-115335119D01*
X147092821Y-115310000D01*
X147027179Y-115310000D01*
X146966535Y-115335119D01*
X146920119Y-115381535D01*
X146895000Y-115442179D01*
X146673625Y-115442179D01*
X146410000Y-115178554D01*
X146113554Y-115475000D01*
X145925000Y-115475000D01*
X145925000Y-115442179D01*
X145899881Y-115381535D01*
X145853465Y-115335119D01*
X145792821Y-115310000D01*
X145727179Y-115310000D01*
X145666535Y-115335119D01*
X145620119Y-115381535D01*
X145595000Y-115442179D01*
X145373625Y-115442179D01*
X145110000Y-115178554D01*
X144813554Y-115475000D01*
X144625000Y-115475000D01*
X144625000Y-115442179D01*
X144599881Y-115381535D01*
X144553465Y-115335119D01*
X144492821Y-115310000D01*
X144427179Y-115310000D01*
X144366535Y-115335119D01*
X144320119Y-115381535D01*
X144295000Y-115442179D01*
X144139267Y-115442179D01*
X144863758Y-114717688D01*
X144925081Y-114684203D01*
X144994773Y-114689187D01*
X145039120Y-114717688D01*
X145109999Y-114788567D01*
X145180878Y-114717688D01*
X145242201Y-114684203D01*
X145311893Y-114689187D01*
X145356241Y-114717688D01*
X145509999Y-114871446D01*
X146010000Y-114871446D01*
X146163758Y-114717688D01*
X146225081Y-114684203D01*
X146294772Y-114689187D01*
X146339120Y-114717688D01*
X146410000Y-114788568D01*
X146480880Y-114717688D01*
X146542203Y-114684203D01*
X146611895Y-114689187D01*
X146656242Y-114717688D01*
X147813554Y-115875000D01*
X147910000Y-115875000D01*
X147910000Y-114777172D01*
X147909999Y-114777155D01*
X147903598Y-114717627D01*
X147903596Y-114717616D01*
X147894110Y-114692183D01*
X147879180Y-114652155D01*
X157810000Y-114652155D01*
X157810000Y-115750000D01*
X157906446Y-115750000D01*
X158613554Y-115750000D01*
X158706445Y-115750000D01*
X161213554Y-115750000D01*
X161306445Y-115750000D01*
X161260000Y-115703554D01*
X161213554Y-115750000D01*
X158706445Y-115750000D01*
X158660000Y-115703554D01*
X158613554Y-115750000D01*
X157906446Y-115750000D01*
X157906446Y-115749999D01*
X158023222Y-115633224D01*
X158339267Y-115317179D01*
X158495000Y-115317179D01*
X158495000Y-115382821D01*
X158520119Y-115443465D01*
X158566535Y-115489881D01*
X158627179Y-115515000D01*
X158692821Y-115515000D01*
X158753465Y-115489881D01*
X158799881Y-115443465D01*
X158825000Y-115382821D01*
X158825000Y-115350000D01*
X159013554Y-115350000D01*
X159310000Y-115646446D01*
X159606446Y-115350000D01*
X159573625Y-115317179D01*
X159795000Y-115317179D01*
X159795000Y-115382821D01*
X159820119Y-115443465D01*
X159866535Y-115489881D01*
X159927179Y-115515000D01*
X159992821Y-115515000D01*
X160053465Y-115489881D01*
X160099881Y-115443465D01*
X160125000Y-115382821D01*
X160125000Y-115350000D01*
X160313554Y-115350000D01*
X160610000Y-115646446D01*
X160906446Y-115350000D01*
X160873625Y-115317179D01*
X161095000Y-115317179D01*
X161095000Y-115382821D01*
X161120119Y-115443465D01*
X161166535Y-115489881D01*
X161227179Y-115515000D01*
X161292821Y-115515000D01*
X161353465Y-115489881D01*
X161399881Y-115443465D01*
X161425000Y-115382821D01*
X161425000Y-115317179D01*
X161399881Y-115256535D01*
X161353465Y-115210119D01*
X161292821Y-115185000D01*
X161227179Y-115185000D01*
X161166535Y-115210119D01*
X161120119Y-115256535D01*
X161095000Y-115317179D01*
X160873625Y-115317179D01*
X160610000Y-115053554D01*
X160313554Y-115350000D01*
X160125000Y-115350000D01*
X160125000Y-115317179D01*
X160099881Y-115256535D01*
X160053465Y-115210119D01*
X159992821Y-115185000D01*
X159927179Y-115185000D01*
X159866535Y-115210119D01*
X159820119Y-115256535D01*
X159795000Y-115317179D01*
X159573625Y-115317179D01*
X159310000Y-115053554D01*
X159013554Y-115350000D01*
X158825000Y-115350000D01*
X158825000Y-115317179D01*
X158799881Y-115256535D01*
X158753465Y-115210119D01*
X158692821Y-115185000D01*
X158627179Y-115185000D01*
X158566535Y-115210119D01*
X158520119Y-115256535D01*
X158495000Y-115317179D01*
X158339267Y-115317179D01*
X159063758Y-114592688D01*
X159125081Y-114559203D01*
X159194773Y-114564187D01*
X159239120Y-114592688D01*
X159309999Y-114663567D01*
X159380878Y-114592688D01*
X159442201Y-114559203D01*
X159511893Y-114564187D01*
X159556241Y-114592688D01*
X159709999Y-114746446D01*
X160210000Y-114746446D01*
X160363758Y-114592688D01*
X160425081Y-114559203D01*
X160494772Y-114564187D01*
X160539120Y-114592688D01*
X160610000Y-114663568D01*
X160680880Y-114592688D01*
X160742203Y-114559203D01*
X160811895Y-114564187D01*
X160856242Y-114592688D01*
X162013554Y-115750000D01*
X162110000Y-115750000D01*
X162110000Y-114652172D01*
X162109999Y-114652155D01*
X162103598Y-114592627D01*
X162103596Y-114592620D01*
X162053354Y-114457913D01*
X162053350Y-114457906D01*
X161967190Y-114342812D01*
X161967187Y-114342809D01*
X161852093Y-114256649D01*
X161852086Y-114256645D01*
X161717379Y-114206403D01*
X161717372Y-114206401D01*
X161657844Y-114200000D01*
X160210000Y-114200000D01*
X160210000Y-114746446D01*
X159709999Y-114746446D01*
X159710000Y-114746445D01*
X159710000Y-114200000D01*
X158262155Y-114200000D01*
X158202627Y-114206401D01*
X158202620Y-114206403D01*
X158067913Y-114256645D01*
X158067906Y-114256649D01*
X157952812Y-114342809D01*
X157952809Y-114342812D01*
X157866649Y-114457906D01*
X157866645Y-114457913D01*
X157816403Y-114592620D01*
X157816401Y-114592627D01*
X157810000Y-114652155D01*
X147879180Y-114652155D01*
X147853354Y-114582913D01*
X147853350Y-114582906D01*
X147767190Y-114467812D01*
X147767187Y-114467809D01*
X147652093Y-114381649D01*
X147652086Y-114381645D01*
X147517379Y-114331403D01*
X147517372Y-114331401D01*
X147457844Y-114325000D01*
X146010000Y-114325000D01*
X146010000Y-114871446D01*
X145509999Y-114871446D01*
X145510000Y-114871445D01*
X145510000Y-114325000D01*
X144062155Y-114325000D01*
X144002627Y-114331401D01*
X144002620Y-114331403D01*
X143867913Y-114381645D01*
X143867906Y-114381649D01*
X143752812Y-114467809D01*
X143752809Y-114467812D01*
X143666649Y-114582906D01*
X143666645Y-114582913D01*
X143616403Y-114717620D01*
X143616401Y-114717627D01*
X143610000Y-114777155D01*
X136647300Y-114777155D01*
X136647300Y-99697844D01*
X138050000Y-99697844D01*
X138056401Y-99757372D01*
X138056403Y-99757379D01*
X138106645Y-99892086D01*
X138106649Y-99892093D01*
X138192809Y-100007187D01*
X138192812Y-100007190D01*
X138307906Y-100093350D01*
X138307913Y-100093354D01*
X138442620Y-100143596D01*
X138442627Y-100143598D01*
X138502155Y-100149999D01*
X138502172Y-100150000D01*
X139600000Y-100150000D01*
X139600000Y-100053554D01*
X139599999Y-100053553D01*
X140100000Y-100053553D01*
X140100000Y-100150000D01*
X141197828Y-100150000D01*
X141197844Y-100149999D01*
X141257372Y-100143598D01*
X141257379Y-100143596D01*
X141392086Y-100093354D01*
X141392093Y-100093350D01*
X141507187Y-100007190D01*
X141507190Y-100007187D01*
X141593350Y-99892093D01*
X141593354Y-99892086D01*
X141643596Y-99757379D01*
X141643598Y-99757372D01*
X141649999Y-99697844D01*
X141650000Y-99697827D01*
X141650000Y-98250000D01*
X141103553Y-98250000D01*
X141257311Y-98403758D01*
X141290796Y-98465081D01*
X141285812Y-98534773D01*
X141257312Y-98579120D01*
X141186432Y-98650000D01*
X141257312Y-98720880D01*
X141290797Y-98782203D01*
X141285813Y-98851895D01*
X141257312Y-98896242D01*
X140100000Y-100053553D01*
X139599999Y-100053553D01*
X138813625Y-99267179D01*
X139035000Y-99267179D01*
X139035000Y-99332821D01*
X139060119Y-99393465D01*
X139106535Y-99439881D01*
X139167179Y-99465000D01*
X139232821Y-99465000D01*
X139293465Y-99439881D01*
X139339881Y-99393465D01*
X139365000Y-99332821D01*
X139365000Y-99300000D01*
X139553554Y-99300000D01*
X139600000Y-99346445D01*
X139600000Y-99346444D01*
X140100000Y-99346444D01*
X140146445Y-99300000D01*
X140113624Y-99267179D01*
X140335000Y-99267179D01*
X140335000Y-99332821D01*
X140360119Y-99393465D01*
X140406535Y-99439881D01*
X140467179Y-99465000D01*
X140532821Y-99465000D01*
X140593465Y-99439881D01*
X140639881Y-99393465D01*
X140665000Y-99332821D01*
X140665000Y-99267179D01*
X140639881Y-99206535D01*
X140593465Y-99160119D01*
X140532821Y-99135000D01*
X140467179Y-99135000D01*
X140406535Y-99160119D01*
X140360119Y-99206535D01*
X140335000Y-99267179D01*
X140113624Y-99267179D01*
X140100000Y-99253555D01*
X140100000Y-99346444D01*
X139600000Y-99346444D01*
X139600000Y-99253554D01*
X139553554Y-99300000D01*
X139365000Y-99300000D01*
X139365000Y-99267179D01*
X139339881Y-99206535D01*
X139293465Y-99160119D01*
X139232821Y-99135000D01*
X139167179Y-99135000D01*
X139106535Y-99160119D01*
X139060119Y-99206535D01*
X139035000Y-99267179D01*
X138813625Y-99267179D01*
X138442688Y-98896242D01*
X138409203Y-98834919D01*
X138414187Y-98765227D01*
X138419935Y-98752167D01*
X138472107Y-98650000D01*
X138903554Y-98650000D01*
X139200000Y-98946446D01*
X139496446Y-98650000D01*
X140203554Y-98650000D01*
X140500000Y-98946446D01*
X140796446Y-98650000D01*
X140500000Y-98353554D01*
X140203554Y-98650000D01*
X139496446Y-98650000D01*
X139200000Y-98353554D01*
X138903554Y-98650000D01*
X138472107Y-98650000D01*
X138486122Y-98622554D01*
X138442688Y-98579120D01*
X138409203Y-98517797D01*
X138414187Y-98448105D01*
X138442688Y-98403758D01*
X138596446Y-98250000D01*
X138050000Y-98250000D01*
X138050000Y-99697844D01*
X136647300Y-99697844D01*
X136647300Y-97967179D01*
X139035000Y-97967179D01*
X139035000Y-98032821D01*
X139060119Y-98093465D01*
X139106535Y-98139881D01*
X139167179Y-98165000D01*
X139232821Y-98165000D01*
X139293465Y-98139881D01*
X139339881Y-98093465D01*
X139365000Y-98032821D01*
X139365000Y-97967179D01*
X140335000Y-97967179D01*
X140335000Y-98032821D01*
X140360119Y-98093465D01*
X140406535Y-98139881D01*
X140467179Y-98165000D01*
X140532821Y-98165000D01*
X140593465Y-98139881D01*
X140639881Y-98093465D01*
X140665000Y-98032821D01*
X140665000Y-97967179D01*
X140639881Y-97906535D01*
X140593465Y-97860119D01*
X140532821Y-97835000D01*
X140467179Y-97835000D01*
X140406535Y-97860119D01*
X140360119Y-97906535D01*
X140335000Y-97967179D01*
X139365000Y-97967179D01*
X139339881Y-97906535D01*
X139293465Y-97860119D01*
X139232821Y-97835000D01*
X139167179Y-97835000D01*
X139106535Y-97860119D01*
X139060119Y-97906535D01*
X139035000Y-97967179D01*
X136647300Y-97967179D01*
X136647300Y-96302155D01*
X138050000Y-96302155D01*
X138050000Y-97750000D01*
X138596446Y-97750000D01*
X138596446Y-97749999D01*
X138442688Y-97596241D01*
X138409203Y-97534918D01*
X138414187Y-97465226D01*
X138419935Y-97452166D01*
X138472107Y-97350000D01*
X138903554Y-97350000D01*
X139200000Y-97646446D01*
X139496446Y-97350000D01*
X140203554Y-97350000D01*
X140500000Y-97646446D01*
X140796446Y-97350000D01*
X140500000Y-97053554D01*
X140203554Y-97350000D01*
X139496446Y-97350000D01*
X139200000Y-97053554D01*
X138903554Y-97350000D01*
X138472107Y-97350000D01*
X138486122Y-97322554D01*
X138442688Y-97279120D01*
X138409203Y-97217797D01*
X138414187Y-97148105D01*
X138442688Y-97103758D01*
X138879267Y-96667179D01*
X139035000Y-96667179D01*
X139035000Y-96732821D01*
X139060119Y-96793465D01*
X139106535Y-96839881D01*
X139167179Y-96865000D01*
X139232821Y-96865000D01*
X139293465Y-96839881D01*
X139339881Y-96793465D01*
X139365000Y-96732821D01*
X139365000Y-96700000D01*
X139553554Y-96700000D01*
X139600000Y-96746445D01*
X139600000Y-96746444D01*
X140100000Y-96746444D01*
X140146445Y-96700000D01*
X140113624Y-96667179D01*
X140335000Y-96667179D01*
X140335000Y-96732821D01*
X140360119Y-96793465D01*
X140406535Y-96839881D01*
X140467179Y-96865000D01*
X140532821Y-96865000D01*
X140593465Y-96839881D01*
X140639881Y-96793465D01*
X140665000Y-96732821D01*
X140665000Y-96667179D01*
X140639881Y-96606535D01*
X140593465Y-96560119D01*
X140532821Y-96535000D01*
X140467179Y-96535000D01*
X140406535Y-96560119D01*
X140360119Y-96606535D01*
X140335000Y-96667179D01*
X140113624Y-96667179D01*
X140100000Y-96653555D01*
X140100000Y-96746444D01*
X139600000Y-96746444D01*
X139600000Y-96653554D01*
X139553554Y-96700000D01*
X139365000Y-96700000D01*
X139365000Y-96667179D01*
X139339881Y-96606535D01*
X139293465Y-96560119D01*
X139232821Y-96535000D01*
X139167179Y-96535000D01*
X139106535Y-96560119D01*
X139060119Y-96606535D01*
X139035000Y-96667179D01*
X138879267Y-96667179D01*
X138985489Y-96560957D01*
X139599999Y-95946446D01*
X140100000Y-95946446D01*
X141257312Y-97103758D01*
X141290797Y-97165081D01*
X141285813Y-97234773D01*
X141257312Y-97279120D01*
X141186432Y-97350000D01*
X141257311Y-97420879D01*
X141290796Y-97482202D01*
X141285812Y-97551894D01*
X141257311Y-97596241D01*
X141103553Y-97749998D01*
X141103554Y-97750000D01*
X141650000Y-97750000D01*
X141650000Y-96302172D01*
X141649999Y-96302155D01*
X141643598Y-96242627D01*
X141643596Y-96242620D01*
X141593354Y-96107913D01*
X141593350Y-96107906D01*
X141507190Y-95992812D01*
X141507187Y-95992809D01*
X141392093Y-95906649D01*
X141392086Y-95906645D01*
X141257379Y-95856403D01*
X141257372Y-95856401D01*
X141197844Y-95850000D01*
X140100000Y-95850000D01*
X140100000Y-95946446D01*
X139599999Y-95946446D01*
X139600000Y-95946445D01*
X139600000Y-95850000D01*
X138502155Y-95850000D01*
X138442627Y-95856401D01*
X138442620Y-95856403D01*
X138307913Y-95906645D01*
X138307906Y-95906649D01*
X138192812Y-95992809D01*
X138192809Y-95992812D01*
X138106649Y-96107906D01*
X138106645Y-96107913D01*
X138056403Y-96242620D01*
X138056401Y-96242627D01*
X138050000Y-96302155D01*
X136647300Y-96302155D01*
X136647300Y-94714610D01*
X136666985Y-94647571D01*
X136672028Y-94640641D01*
X136673936Y-94637784D01*
X136673939Y-94637782D01*
X136783432Y-94473914D01*
X136858851Y-94291835D01*
X136897300Y-94098541D01*
X136897300Y-93901459D01*
X136897300Y-93901456D01*
X136858852Y-93708170D01*
X136858851Y-93708169D01*
X136858851Y-93708165D01*
X136858849Y-93708160D01*
X136783435Y-93526092D01*
X136783428Y-93526079D01*
X136670555Y-93357153D01*
X136672078Y-93356135D01*
X136648131Y-93299723D01*
X136647300Y-93285389D01*
X136647300Y-86197844D01*
X138350000Y-86197844D01*
X138356401Y-86257372D01*
X138356403Y-86257379D01*
X138406645Y-86392086D01*
X138406649Y-86392093D01*
X138492809Y-86507187D01*
X138492812Y-86507190D01*
X138607906Y-86593350D01*
X138607913Y-86593354D01*
X138742620Y-86643596D01*
X138742627Y-86643598D01*
X138802155Y-86649999D01*
X138802172Y-86650000D01*
X139900000Y-86650000D01*
X139900000Y-86553554D01*
X139899999Y-86553553D01*
X140400000Y-86553553D01*
X140400000Y-86650000D01*
X141497828Y-86650000D01*
X141497844Y-86649999D01*
X141557372Y-86643598D01*
X141557379Y-86643596D01*
X141692086Y-86593354D01*
X141692093Y-86593350D01*
X141807187Y-86507190D01*
X141807190Y-86507187D01*
X141893350Y-86392093D01*
X141893354Y-86392086D01*
X141943596Y-86257379D01*
X141943598Y-86257372D01*
X141949999Y-86197844D01*
X141950000Y-86197827D01*
X141950000Y-84750000D01*
X141403553Y-84750000D01*
X141557311Y-84903758D01*
X141590796Y-84965081D01*
X141585812Y-85034773D01*
X141557312Y-85079120D01*
X141486432Y-85150000D01*
X141557312Y-85220880D01*
X141590797Y-85282203D01*
X141585813Y-85351895D01*
X141557312Y-85396242D01*
X140400000Y-86553553D01*
X139899999Y-86553553D01*
X139113625Y-85767179D01*
X139335000Y-85767179D01*
X139335000Y-85832821D01*
X139360119Y-85893465D01*
X139406535Y-85939881D01*
X139467179Y-85965000D01*
X139532821Y-85965000D01*
X139593465Y-85939881D01*
X139639881Y-85893465D01*
X139665000Y-85832821D01*
X139665000Y-85800000D01*
X139853554Y-85800000D01*
X139900000Y-85846445D01*
X139900000Y-85846444D01*
X140400000Y-85846444D01*
X140446445Y-85800000D01*
X140413624Y-85767179D01*
X140635000Y-85767179D01*
X140635000Y-85832821D01*
X140660119Y-85893465D01*
X140706535Y-85939881D01*
X140767179Y-85965000D01*
X140832821Y-85965000D01*
X140893465Y-85939881D01*
X140939881Y-85893465D01*
X140965000Y-85832821D01*
X140965000Y-85767179D01*
X140939881Y-85706535D01*
X140893465Y-85660119D01*
X140832821Y-85635000D01*
X140767179Y-85635000D01*
X140706535Y-85660119D01*
X140660119Y-85706535D01*
X140635000Y-85767179D01*
X140413624Y-85767179D01*
X140400000Y-85753555D01*
X140400000Y-85846444D01*
X139900000Y-85846444D01*
X139900000Y-85753554D01*
X139853554Y-85800000D01*
X139665000Y-85800000D01*
X139665000Y-85767179D01*
X139639881Y-85706535D01*
X139593465Y-85660119D01*
X139532821Y-85635000D01*
X139467179Y-85635000D01*
X139406535Y-85660119D01*
X139360119Y-85706535D01*
X139335000Y-85767179D01*
X139113625Y-85767179D01*
X138742688Y-85396242D01*
X138709203Y-85334919D01*
X138714187Y-85265227D01*
X138719935Y-85252167D01*
X138772107Y-85150000D01*
X139203554Y-85150000D01*
X139500000Y-85446446D01*
X139796446Y-85150000D01*
X140503554Y-85150000D01*
X140800000Y-85446446D01*
X141096446Y-85150000D01*
X140800000Y-84853554D01*
X140503554Y-85150000D01*
X139796446Y-85150000D01*
X139500000Y-84853554D01*
X139203554Y-85150000D01*
X138772107Y-85150000D01*
X138786122Y-85122554D01*
X138742688Y-85079120D01*
X138709203Y-85017797D01*
X138714187Y-84948105D01*
X138742688Y-84903758D01*
X138896446Y-84750000D01*
X138350000Y-84750000D01*
X138350000Y-86197844D01*
X136647300Y-86197844D01*
X136647300Y-84467179D01*
X139335000Y-84467179D01*
X139335000Y-84532821D01*
X139360119Y-84593465D01*
X139406535Y-84639881D01*
X139467179Y-84665000D01*
X139532821Y-84665000D01*
X139593465Y-84639881D01*
X139639881Y-84593465D01*
X139665000Y-84532821D01*
X139665000Y-84467179D01*
X140635000Y-84467179D01*
X140635000Y-84532821D01*
X140660119Y-84593465D01*
X140706535Y-84639881D01*
X140767179Y-84665000D01*
X140832821Y-84665000D01*
X140893465Y-84639881D01*
X140939881Y-84593465D01*
X140965000Y-84532821D01*
X140965000Y-84467179D01*
X140939881Y-84406535D01*
X140893465Y-84360119D01*
X140844890Y-84339999D01*
X171703865Y-84339999D01*
X171703865Y-84340000D01*
X172558351Y-84340000D01*
X172515910Y-84413508D01*
X172484750Y-84529802D01*
X172484750Y-84650198D01*
X172515910Y-84766492D01*
X172558351Y-84840000D01*
X171703865Y-84840000D01*
X171711074Y-84885517D01*
X171772456Y-85074435D01*
X171862641Y-85251432D01*
X171979403Y-85412139D01*
X171979403Y-85412140D01*
X172119859Y-85552596D01*
X172280567Y-85669358D01*
X172457562Y-85759542D01*
X172646473Y-85820922D01*
X172692000Y-85828133D01*
X172692000Y-84973649D01*
X172765508Y-85016090D01*
X172881802Y-85047250D01*
X173002198Y-85047250D01*
X173118492Y-85016090D01*
X173192000Y-84973649D01*
X173192000Y-85828132D01*
X173237526Y-85820922D01*
X173426437Y-85759542D01*
X173603432Y-85669358D01*
X173764139Y-85552596D01*
X173764140Y-85552596D01*
X173904596Y-85412140D01*
X173904596Y-85412139D01*
X174021358Y-85251432D01*
X174111543Y-85074435D01*
X174172925Y-84885517D01*
X174180134Y-84840000D01*
X173325649Y-84840000D01*
X173368090Y-84766492D01*
X173399250Y-84650198D01*
X173399250Y-84529802D01*
X173368090Y-84413508D01*
X173325649Y-84340000D01*
X174180135Y-84340000D01*
X174180134Y-84339999D01*
X174172925Y-84294482D01*
X174111543Y-84105564D01*
X174021358Y-83928567D01*
X173904596Y-83767860D01*
X173904596Y-83767859D01*
X173764140Y-83627403D01*
X173603432Y-83510641D01*
X173426434Y-83420456D01*
X173426436Y-83420456D01*
X173237517Y-83359074D01*
X173192000Y-83351865D01*
X173192000Y-84206350D01*
X173118492Y-84163910D01*
X173002198Y-84132750D01*
X172881802Y-84132750D01*
X172765508Y-84163910D01*
X172692000Y-84206350D01*
X172692000Y-83351865D01*
X172691999Y-83351865D01*
X172646482Y-83359074D01*
X172457564Y-83420456D01*
X172280567Y-83510641D01*
X172119860Y-83627403D01*
X172119859Y-83627403D01*
X171979403Y-83767859D01*
X171979403Y-83767860D01*
X171862641Y-83928567D01*
X171772456Y-84105564D01*
X171711074Y-84294482D01*
X171703865Y-84339999D01*
X140844890Y-84339999D01*
X140832821Y-84335000D01*
X140767179Y-84335000D01*
X140706535Y-84360119D01*
X140660119Y-84406535D01*
X140635000Y-84467179D01*
X139665000Y-84467179D01*
X139639881Y-84406535D01*
X139593465Y-84360119D01*
X139532821Y-84335000D01*
X139467179Y-84335000D01*
X139406535Y-84360119D01*
X139360119Y-84406535D01*
X139335000Y-84467179D01*
X136647300Y-84467179D01*
X136647300Y-82957679D01*
X136620518Y-82823043D01*
X136620517Y-82823040D01*
X136618458Y-82812687D01*
X136614096Y-82802155D01*
X138350000Y-82802155D01*
X138350000Y-84250000D01*
X138896446Y-84250000D01*
X138896446Y-84249999D01*
X138742688Y-84096241D01*
X138709203Y-84034918D01*
X138714187Y-83965226D01*
X138719935Y-83952166D01*
X138772107Y-83850000D01*
X139203554Y-83850000D01*
X139500000Y-84146446D01*
X139796446Y-83850000D01*
X140503554Y-83850000D01*
X140800000Y-84146446D01*
X141096446Y-83850000D01*
X140800000Y-83553554D01*
X140503554Y-83850000D01*
X139796446Y-83850000D01*
X139500000Y-83553554D01*
X139203554Y-83850000D01*
X138772107Y-83850000D01*
X138786122Y-83822554D01*
X138742688Y-83779120D01*
X138709203Y-83717797D01*
X138714187Y-83648105D01*
X138742688Y-83603758D01*
X139179267Y-83167179D01*
X139335000Y-83167179D01*
X139335000Y-83232821D01*
X139360119Y-83293465D01*
X139406535Y-83339881D01*
X139467179Y-83365000D01*
X139532821Y-83365000D01*
X139593465Y-83339881D01*
X139639881Y-83293465D01*
X139665000Y-83232821D01*
X139665000Y-83200000D01*
X139853554Y-83200000D01*
X139900000Y-83246445D01*
X139900000Y-83246444D01*
X140400000Y-83246444D01*
X140446445Y-83200000D01*
X140413624Y-83167179D01*
X140635000Y-83167179D01*
X140635000Y-83232821D01*
X140660119Y-83293465D01*
X140706535Y-83339881D01*
X140767179Y-83365000D01*
X140832821Y-83365000D01*
X140893465Y-83339881D01*
X140939881Y-83293465D01*
X140965000Y-83232821D01*
X140965000Y-83167179D01*
X140939881Y-83106535D01*
X140893465Y-83060119D01*
X140832821Y-83035000D01*
X140767179Y-83035000D01*
X140706535Y-83060119D01*
X140660119Y-83106535D01*
X140635000Y-83167179D01*
X140413624Y-83167179D01*
X140400000Y-83153555D01*
X140400000Y-83246444D01*
X139900000Y-83246444D01*
X139900000Y-83153554D01*
X139853554Y-83200000D01*
X139665000Y-83200000D01*
X139665000Y-83167179D01*
X139639881Y-83106535D01*
X139593465Y-83060119D01*
X139532821Y-83035000D01*
X139467179Y-83035000D01*
X139406535Y-83060119D01*
X139360119Y-83106535D01*
X139335000Y-83167179D01*
X139179267Y-83167179D01*
X139285489Y-83060957D01*
X139899999Y-82446446D01*
X140400000Y-82446446D01*
X141557312Y-83603758D01*
X141590797Y-83665081D01*
X141585813Y-83734773D01*
X141557312Y-83779120D01*
X141486432Y-83850000D01*
X141557311Y-83920879D01*
X141590796Y-83982202D01*
X141585812Y-84051894D01*
X141557311Y-84096241D01*
X141403553Y-84249998D01*
X141403554Y-84250000D01*
X141950000Y-84250000D01*
X141950000Y-82802172D01*
X141949999Y-82802155D01*
X141943598Y-82742627D01*
X141943596Y-82742620D01*
X141893354Y-82607913D01*
X141893350Y-82607906D01*
X141807190Y-82492812D01*
X141807187Y-82492809D01*
X141692093Y-82406649D01*
X141692086Y-82406645D01*
X141557379Y-82356403D01*
X141557372Y-82356401D01*
X141497844Y-82350000D01*
X140400000Y-82350000D01*
X140400000Y-82446446D01*
X139899999Y-82446446D01*
X139900000Y-82446445D01*
X139900000Y-82350000D01*
X138802155Y-82350000D01*
X138742627Y-82356401D01*
X138742620Y-82356403D01*
X138607913Y-82406645D01*
X138607906Y-82406649D01*
X138492812Y-82492809D01*
X138492809Y-82492812D01*
X138406649Y-82607906D01*
X138406645Y-82607913D01*
X138356403Y-82742620D01*
X138356401Y-82742627D01*
X138350000Y-82802155D01*
X136614096Y-82802155D01*
X136597216Y-82761403D01*
X136561887Y-82676111D01*
X136561880Y-82676098D01*
X136479752Y-82553185D01*
X136431483Y-82504916D01*
X136375216Y-82448649D01*
X136350743Y-82424175D01*
X136338686Y-82412118D01*
X136310490Y-82360478D01*
X136305203Y-82350795D01*
X136303869Y-82342320D01*
X136264752Y-82145670D01*
X136264751Y-82145669D01*
X136264751Y-82145665D01*
X136234842Y-82073457D01*
X136189335Y-81963592D01*
X136189328Y-81963579D01*
X136076455Y-81794653D01*
X136077978Y-81793635D01*
X136054031Y-81737223D01*
X136053200Y-81722889D01*
X136053200Y-71051540D01*
X136072885Y-70984501D01*
X136125689Y-70938746D01*
X136194847Y-70928802D01*
X136220536Y-70935359D01*
X136242622Y-70943597D01*
X136242627Y-70943598D01*
X136302155Y-70949999D01*
X136302172Y-70950000D01*
X137400000Y-70950000D01*
X137400000Y-70853554D01*
X137399999Y-70853553D01*
X137900000Y-70853553D01*
X137900000Y-70950000D01*
X138997828Y-70950000D01*
X138997844Y-70949999D01*
X139057372Y-70943598D01*
X139057379Y-70943596D01*
X139192086Y-70893354D01*
X139192093Y-70893350D01*
X139307187Y-70807190D01*
X139307190Y-70807187D01*
X139393350Y-70692093D01*
X139393354Y-70692086D01*
X139443596Y-70557379D01*
X139443598Y-70557372D01*
X139449999Y-70497844D01*
X139450000Y-70497827D01*
X139450000Y-69336943D01*
X143860499Y-69336943D01*
X143898947Y-69530229D01*
X143898950Y-69530239D01*
X143974364Y-69712307D01*
X143974371Y-69712320D01*
X144083860Y-69876181D01*
X144083863Y-69876185D01*
X144223214Y-70015536D01*
X144223218Y-70015539D01*
X144387079Y-70125028D01*
X144387092Y-70125035D01*
X144541242Y-70188885D01*
X144569165Y-70200451D01*
X144569169Y-70200451D01*
X144569170Y-70200452D01*
X144762456Y-70238900D01*
X144762459Y-70238900D01*
X144959543Y-70238900D01*
X145089582Y-70213032D01*
X145152835Y-70200451D01*
X145302698Y-70138376D01*
X145302699Y-70138376D01*
X145317821Y-70132112D01*
X145334914Y-70125032D01*
X145498782Y-70015539D01*
X145638139Y-69876182D01*
X145747632Y-69712314D01*
X145823051Y-69530235D01*
X145861500Y-69336941D01*
X145861500Y-69139859D01*
X145861500Y-69139856D01*
X145832461Y-68993874D01*
X145831139Y-68953495D01*
X145832000Y-68946955D01*
X145832000Y-61365784D01*
X145851685Y-61298745D01*
X145868319Y-61278103D01*
X146008636Y-61137785D01*
X146008639Y-61137782D01*
X146118132Y-60973914D01*
X146193551Y-60791835D01*
X146232000Y-60598541D01*
X146232000Y-60401459D01*
X146232000Y-60401456D01*
X146193552Y-60208170D01*
X146193551Y-60208169D01*
X146193551Y-60208165D01*
X146193549Y-60208160D01*
X146118135Y-60026092D01*
X146118128Y-60026079D01*
X146008639Y-59862218D01*
X146008636Y-59862214D01*
X145869285Y-59722863D01*
X145869281Y-59722860D01*
X145705420Y-59613371D01*
X145705407Y-59613364D01*
X145523339Y-59537950D01*
X145523329Y-59537947D01*
X145330043Y-59499500D01*
X145330041Y-59499500D01*
X145132959Y-59499500D01*
X145132957Y-59499500D01*
X144939670Y-59537947D01*
X144939660Y-59537950D01*
X144757592Y-59613364D01*
X144757579Y-59613371D01*
X144593718Y-59722860D01*
X144593714Y-59722863D01*
X144454363Y-59862214D01*
X144454360Y-59862218D01*
X144344871Y-60026079D01*
X144344864Y-60026092D01*
X144269450Y-60208160D01*
X144269447Y-60208170D01*
X144231000Y-60401456D01*
X144231000Y-60401459D01*
X144231000Y-60598541D01*
X144231000Y-60598543D01*
X144230999Y-60598543D01*
X144269447Y-60791829D01*
X144269450Y-60791839D01*
X144344864Y-60973907D01*
X144344871Y-60973920D01*
X144454360Y-61137781D01*
X144454363Y-61137785D01*
X144594681Y-61278103D01*
X144628166Y-61339426D01*
X144631000Y-61365784D01*
X144631000Y-68167882D01*
X144611315Y-68234921D01*
X144558511Y-68280676D01*
X144554452Y-68282443D01*
X144387092Y-68351764D01*
X144387079Y-68351771D01*
X144223218Y-68461260D01*
X144223214Y-68461263D01*
X144083863Y-68600614D01*
X144083860Y-68600618D01*
X143974371Y-68764479D01*
X143974364Y-68764492D01*
X143898950Y-68946560D01*
X143898947Y-68946570D01*
X143860500Y-69139856D01*
X143860500Y-69139859D01*
X143860500Y-69336941D01*
X143860500Y-69336943D01*
X143860499Y-69336943D01*
X139450000Y-69336943D01*
X139450000Y-69050000D01*
X138903553Y-69050000D01*
X139057311Y-69203758D01*
X139090796Y-69265081D01*
X139085812Y-69334773D01*
X139057312Y-69379120D01*
X138986432Y-69450000D01*
X139057312Y-69520880D01*
X139090797Y-69582203D01*
X139085813Y-69651895D01*
X139057312Y-69696242D01*
X137900000Y-70853553D01*
X137399999Y-70853553D01*
X136613625Y-70067179D01*
X136835000Y-70067179D01*
X136835000Y-70132821D01*
X136860119Y-70193465D01*
X136906535Y-70239881D01*
X136967179Y-70265000D01*
X137032821Y-70265000D01*
X137093465Y-70239881D01*
X137139881Y-70193465D01*
X137165000Y-70132821D01*
X137165000Y-70100000D01*
X137353554Y-70100000D01*
X137400000Y-70146445D01*
X137400000Y-70146444D01*
X137900000Y-70146444D01*
X137946445Y-70100000D01*
X137913624Y-70067179D01*
X138135000Y-70067179D01*
X138135000Y-70132821D01*
X138160119Y-70193465D01*
X138206535Y-70239881D01*
X138267179Y-70265000D01*
X138332821Y-70265000D01*
X138393465Y-70239881D01*
X138439881Y-70193465D01*
X138465000Y-70132821D01*
X138465000Y-70067179D01*
X138439881Y-70006535D01*
X138393465Y-69960119D01*
X138332821Y-69935000D01*
X138267179Y-69935000D01*
X138206535Y-69960119D01*
X138160119Y-70006535D01*
X138135000Y-70067179D01*
X137913624Y-70067179D01*
X137900000Y-70053555D01*
X137900000Y-70146444D01*
X137400000Y-70146444D01*
X137400000Y-70053554D01*
X137353554Y-70100000D01*
X137165000Y-70100000D01*
X137165000Y-70067179D01*
X137139881Y-70006535D01*
X137093465Y-69960119D01*
X137032821Y-69935000D01*
X136967179Y-69935000D01*
X136906535Y-69960119D01*
X136860119Y-70006535D01*
X136835000Y-70067179D01*
X136613625Y-70067179D01*
X136242688Y-69696242D01*
X136209203Y-69634919D01*
X136214187Y-69565227D01*
X136219935Y-69552167D01*
X136272107Y-69450000D01*
X136703554Y-69450000D01*
X137000000Y-69746446D01*
X137296446Y-69450000D01*
X138003554Y-69450000D01*
X138300000Y-69746446D01*
X138596446Y-69450000D01*
X138300000Y-69153554D01*
X138003554Y-69450000D01*
X137296446Y-69450000D01*
X137000000Y-69153554D01*
X136703554Y-69450000D01*
X136272107Y-69450000D01*
X136286122Y-69422554D01*
X136242688Y-69379120D01*
X136209203Y-69317797D01*
X136214187Y-69248105D01*
X136242688Y-69203758D01*
X136646446Y-68800000D01*
X136613625Y-68767179D01*
X136835000Y-68767179D01*
X136835000Y-68832821D01*
X136860119Y-68893465D01*
X136906535Y-68939881D01*
X136967179Y-68965000D01*
X137032821Y-68965000D01*
X137093465Y-68939881D01*
X137139881Y-68893465D01*
X137165000Y-68832821D01*
X137165000Y-68800000D01*
X137353554Y-68800000D01*
X137400000Y-68846445D01*
X137400000Y-68767179D01*
X138135000Y-68767179D01*
X138135000Y-68832821D01*
X138160119Y-68893465D01*
X138206535Y-68939881D01*
X138267179Y-68965000D01*
X138332821Y-68965000D01*
X138393465Y-68939881D01*
X138439881Y-68893465D01*
X138465000Y-68832821D01*
X138465000Y-68767179D01*
X138439881Y-68706535D01*
X138393465Y-68660119D01*
X138332821Y-68635000D01*
X138267179Y-68635000D01*
X138206535Y-68660119D01*
X138160119Y-68706535D01*
X138135000Y-68767179D01*
X137400000Y-68767179D01*
X137400000Y-68753554D01*
X137353554Y-68800000D01*
X137165000Y-68800000D01*
X137165000Y-68767179D01*
X137139881Y-68706535D01*
X137093465Y-68660119D01*
X137032821Y-68635000D01*
X136967179Y-68635000D01*
X136906535Y-68660119D01*
X136860119Y-68706535D01*
X136835000Y-68767179D01*
X136613625Y-68767179D01*
X136242688Y-68396242D01*
X136209203Y-68334919D01*
X136214187Y-68265227D01*
X136219935Y-68252167D01*
X136272107Y-68150000D01*
X136703554Y-68150000D01*
X137000000Y-68446446D01*
X137296446Y-68150000D01*
X138003554Y-68150000D01*
X138300000Y-68446446D01*
X138596446Y-68150000D01*
X138300000Y-67853554D01*
X138003554Y-68150000D01*
X137296446Y-68150000D01*
X137000000Y-67853554D01*
X136703554Y-68150000D01*
X136272107Y-68150000D01*
X136286122Y-68122554D01*
X136242688Y-68079120D01*
X136209203Y-68017797D01*
X136214187Y-67948105D01*
X136242688Y-67903758D01*
X136679267Y-67467179D01*
X136835000Y-67467179D01*
X136835000Y-67532821D01*
X136860119Y-67593465D01*
X136906535Y-67639881D01*
X136967179Y-67665000D01*
X137032821Y-67665000D01*
X137093465Y-67639881D01*
X137139881Y-67593465D01*
X137165000Y-67532821D01*
X137165000Y-67500000D01*
X137353554Y-67500000D01*
X137400000Y-67546445D01*
X137400000Y-67546444D01*
X137900000Y-67546444D01*
X137946445Y-67500000D01*
X137913624Y-67467179D01*
X138135000Y-67467179D01*
X138135000Y-67532821D01*
X138160119Y-67593465D01*
X138206535Y-67639881D01*
X138267179Y-67665000D01*
X138332821Y-67665000D01*
X138393465Y-67639881D01*
X138439881Y-67593465D01*
X138465000Y-67532821D01*
X138465000Y-67467179D01*
X138439881Y-67406535D01*
X138393465Y-67360119D01*
X138332821Y-67335000D01*
X138267179Y-67335000D01*
X138206535Y-67360119D01*
X138160119Y-67406535D01*
X138135000Y-67467179D01*
X137913624Y-67467179D01*
X137900000Y-67453555D01*
X137900000Y-67546444D01*
X137400000Y-67546444D01*
X137400000Y-67453554D01*
X137353554Y-67500000D01*
X137165000Y-67500000D01*
X137165000Y-67467179D01*
X137139881Y-67406535D01*
X137093465Y-67360119D01*
X137032821Y-67335000D01*
X136967179Y-67335000D01*
X136906535Y-67360119D01*
X136860119Y-67406535D01*
X136835000Y-67467179D01*
X136679267Y-67467179D01*
X136785489Y-67360957D01*
X137399999Y-66746446D01*
X137900000Y-66746446D01*
X139057312Y-67903758D01*
X139090797Y-67965081D01*
X139085813Y-68034773D01*
X139057312Y-68079120D01*
X138986432Y-68150000D01*
X139057311Y-68220879D01*
X139090796Y-68282202D01*
X139085812Y-68351894D01*
X139057311Y-68396241D01*
X138903553Y-68549998D01*
X138903554Y-68550000D01*
X139450000Y-68550000D01*
X139450000Y-67102172D01*
X139449999Y-67102155D01*
X139443598Y-67042627D01*
X139443596Y-67042620D01*
X139393354Y-66907913D01*
X139393350Y-66907906D01*
X139307190Y-66792812D01*
X139307187Y-66792809D01*
X139192093Y-66706649D01*
X139192086Y-66706645D01*
X139057379Y-66656403D01*
X139057372Y-66656401D01*
X138997844Y-66650000D01*
X137900000Y-66650000D01*
X137900000Y-66746446D01*
X137399999Y-66746446D01*
X137400000Y-66746445D01*
X137400000Y-66650000D01*
X136302155Y-66650000D01*
X136242627Y-66656401D01*
X136242617Y-66656403D01*
X136220532Y-66664641D01*
X136150841Y-66669625D01*
X136089518Y-66636139D01*
X136056034Y-66574816D01*
X136053200Y-66548459D01*
X136053200Y-64019528D01*
X136072885Y-63952489D01*
X136089514Y-63931852D01*
X142620798Y-57400567D01*
X142682119Y-57367084D01*
X142751811Y-57372068D01*
X142755921Y-57373686D01*
X142815581Y-57398398D01*
X143068884Y-57466270D01*
X143317188Y-57498960D01*
X143328864Y-57500498D01*
X143328880Y-57500500D01*
X143328887Y-57500500D01*
X143591113Y-57500500D01*
X143591120Y-57500500D01*
X143851116Y-57466270D01*
X144104419Y-57398398D01*
X144346697Y-57298043D01*
X144573803Y-57166924D01*
X144781851Y-57007282D01*
X144781855Y-57007277D01*
X144781860Y-57007274D01*
X144967274Y-56821860D01*
X144967277Y-56821855D01*
X144967282Y-56821851D01*
X145126924Y-56613803D01*
X145258043Y-56386697D01*
X145260429Y-56380938D01*
X145298836Y-56288215D01*
X145358398Y-56144419D01*
X145426270Y-55891116D01*
X145460500Y-55631120D01*
X145460500Y-55368880D01*
X145426270Y-55108884D01*
X145358398Y-54855581D01*
X145259091Y-54615833D01*
X145258046Y-54613309D01*
X145258041Y-54613299D01*
X145126924Y-54386196D01*
X144967281Y-54178148D01*
X144967274Y-54178140D01*
X144781860Y-53992726D01*
X144781851Y-53992718D01*
X144728963Y-53952135D01*
X146539500Y-53952135D01*
X146539500Y-57047870D01*
X146539501Y-57047876D01*
X146545908Y-57107483D01*
X146596202Y-57242328D01*
X146596206Y-57242335D01*
X146682452Y-57357544D01*
X146682455Y-57357547D01*
X146797664Y-57443793D01*
X146797671Y-57443797D01*
X146932517Y-57494091D01*
X146932516Y-57494091D01*
X146939444Y-57494835D01*
X146992127Y-57500500D01*
X147815500Y-57500499D01*
X147882539Y-57520183D01*
X147928294Y-57572987D01*
X147939500Y-57624499D01*
X147939500Y-65746530D01*
X147939499Y-65746548D01*
X147939499Y-65912254D01*
X147939498Y-65912254D01*
X147968365Y-66019983D01*
X147980423Y-66064985D01*
X147990696Y-66082778D01*
X148059477Y-66201912D01*
X148059479Y-66201915D01*
X148059480Y-66201916D01*
X148171284Y-66313720D01*
X148171285Y-66313721D01*
X148583884Y-66726320D01*
X148583885Y-66726321D01*
X148583887Y-66726322D01*
X148622673Y-66748715D01*
X148670888Y-66799281D01*
X148684112Y-66867888D01*
X148671159Y-66912394D01*
X148655951Y-66942241D01*
X148655951Y-66942243D01*
X148585278Y-67159750D01*
X148585278Y-67159753D01*
X148549500Y-67385646D01*
X148549500Y-67614353D01*
X148585278Y-67840246D01*
X148585278Y-67840249D01*
X148655950Y-68057755D01*
X148712063Y-68167882D01*
X148759783Y-68261538D01*
X148894214Y-68446566D01*
X149055934Y-68608286D01*
X149140864Y-68669991D01*
X149183529Y-68725321D01*
X149189508Y-68794935D01*
X149156902Y-68856730D01*
X149140864Y-68870627D01*
X149056257Y-68932097D01*
X148894597Y-69093757D01*
X148760211Y-69278723D01*
X148656417Y-69482429D01*
X148585765Y-69699871D01*
X148571491Y-69790000D01*
X149559252Y-69790000D01*
X149537482Y-69827708D01*
X149500000Y-69967591D01*
X149500000Y-70112409D01*
X149537482Y-70252292D01*
X149559252Y-70290000D01*
X148571491Y-70290000D01*
X148585765Y-70380128D01*
X148656417Y-70597570D01*
X148760211Y-70801276D01*
X148894597Y-70986242D01*
X149056257Y-71147902D01*
X149241223Y-71282288D01*
X149444929Y-71386082D01*
X149662371Y-71456734D01*
X149800000Y-71478532D01*
X149800000Y-70530747D01*
X149837708Y-70552518D01*
X149977591Y-70590000D01*
X150122409Y-70590000D01*
X150262292Y-70552518D01*
X150300000Y-70530747D01*
X150300000Y-71478531D01*
X150437628Y-71456734D01*
X150655070Y-71386082D01*
X150858776Y-71282288D01*
X151043742Y-71147902D01*
X151205402Y-70986242D01*
X151339788Y-70801276D01*
X151443582Y-70597570D01*
X151514234Y-70380128D01*
X151528509Y-70290000D01*
X150540748Y-70290000D01*
X150562518Y-70252292D01*
X150600000Y-70112409D01*
X150600000Y-69967591D01*
X150562518Y-69827708D01*
X150540748Y-69790000D01*
X151528509Y-69790000D01*
X151514234Y-69699871D01*
X151443582Y-69482429D01*
X151339788Y-69278723D01*
X151205402Y-69093757D01*
X151043742Y-68932097D01*
X150959135Y-68870626D01*
X150916470Y-68815296D01*
X150910491Y-68745682D01*
X150943097Y-68683887D01*
X150959125Y-68669999D01*
X151044066Y-68608286D01*
X151205786Y-68446566D01*
X151340217Y-68261538D01*
X151444048Y-68057758D01*
X151457032Y-68017797D01*
X151514721Y-67840249D01*
X151514721Y-67840248D01*
X151514722Y-67840245D01*
X151550500Y-67614354D01*
X151550500Y-67385646D01*
X151514722Y-67159755D01*
X151514721Y-67159751D01*
X151514721Y-67159750D01*
X151444049Y-66942244D01*
X151428840Y-66912394D01*
X151340217Y-66738462D01*
X151207472Y-66555755D01*
X151183994Y-66489953D01*
X151199819Y-66421899D01*
X151249925Y-66373204D01*
X151264455Y-66366692D01*
X151292331Y-66356296D01*
X151407546Y-66270046D01*
X151493796Y-66154831D01*
X151544091Y-66019983D01*
X151550500Y-65960373D01*
X151550499Y-63959635D01*
X157549500Y-63959635D01*
X157549500Y-65960370D01*
X157549501Y-65960376D01*
X157555908Y-66019983D01*
X157606202Y-66154828D01*
X157606206Y-66154835D01*
X157692452Y-66270044D01*
X157692455Y-66270047D01*
X157807664Y-66356293D01*
X157807669Y-66356296D01*
X157835539Y-66366690D01*
X157891473Y-66408561D01*
X157915891Y-66474024D01*
X157901040Y-66542298D01*
X157892525Y-66555759D01*
X157759783Y-66738461D01*
X157655950Y-66942244D01*
X157585278Y-67159750D01*
X157585278Y-67159753D01*
X157549500Y-67385646D01*
X157549500Y-67614353D01*
X157585278Y-67840246D01*
X157585278Y-67840249D01*
X157655950Y-68057755D01*
X157712063Y-68167882D01*
X157759783Y-68261538D01*
X157894214Y-68446566D01*
X158055934Y-68608286D01*
X158140864Y-68669991D01*
X158183529Y-68725321D01*
X158189508Y-68794935D01*
X158156902Y-68856730D01*
X158140864Y-68870627D01*
X158056257Y-68932097D01*
X157894597Y-69093757D01*
X157760211Y-69278723D01*
X157656417Y-69482429D01*
X157585765Y-69699871D01*
X157571491Y-69790000D01*
X158559252Y-69790000D01*
X158537482Y-69827708D01*
X158500000Y-69967591D01*
X158500000Y-70112409D01*
X158537482Y-70252292D01*
X158559252Y-70290000D01*
X157571491Y-70290000D01*
X157585765Y-70380128D01*
X157656417Y-70597570D01*
X157760211Y-70801276D01*
X157894597Y-70986242D01*
X158056257Y-71147902D01*
X158241223Y-71282288D01*
X158444929Y-71386082D01*
X158662371Y-71456734D01*
X158800000Y-71478532D01*
X158800000Y-70530747D01*
X158837708Y-70552518D01*
X158977591Y-70590000D01*
X159122409Y-70590000D01*
X159262292Y-70552518D01*
X159300000Y-70530747D01*
X159300000Y-71478531D01*
X159437628Y-71456734D01*
X159655070Y-71386082D01*
X159858776Y-71282288D01*
X160043742Y-71147902D01*
X160205402Y-70986242D01*
X160339788Y-70801276D01*
X160443582Y-70597570D01*
X160514234Y-70380128D01*
X160528509Y-70290000D01*
X159540748Y-70290000D01*
X159562518Y-70252292D01*
X159600000Y-70112409D01*
X159600000Y-69967591D01*
X159562518Y-69827708D01*
X159540748Y-69790000D01*
X160528509Y-69790000D01*
X160514234Y-69699871D01*
X160443582Y-69482429D01*
X160339788Y-69278723D01*
X160205402Y-69093757D01*
X160043742Y-68932097D01*
X159959135Y-68870626D01*
X159916470Y-68815296D01*
X159910491Y-68745682D01*
X159943097Y-68683887D01*
X159959125Y-68669999D01*
X160044066Y-68608286D01*
X160205786Y-68446566D01*
X160340217Y-68261538D01*
X160444048Y-68057758D01*
X160457032Y-68017797D01*
X160514721Y-67840249D01*
X160514721Y-67840248D01*
X160514722Y-67840245D01*
X160550500Y-67614354D01*
X160550500Y-67385646D01*
X160514722Y-67159755D01*
X160514721Y-67159751D01*
X160514721Y-67159750D01*
X160444049Y-66942244D01*
X160444045Y-66942236D01*
X160428841Y-66912395D01*
X160415945Y-66843726D01*
X160442222Y-66778986D01*
X160457405Y-66763015D01*
X160466652Y-66754876D01*
X160516116Y-66726320D01*
X160627920Y-66614516D01*
X160627921Y-66614513D01*
X164520520Y-62721916D01*
X164599577Y-62584984D01*
X164640501Y-62432257D01*
X164640501Y-62274142D01*
X164640501Y-62266547D01*
X164640500Y-62266529D01*
X164640500Y-57624499D01*
X164660185Y-57557460D01*
X164712989Y-57511705D01*
X164764500Y-57500499D01*
X165587871Y-57500499D01*
X165587872Y-57500499D01*
X165647483Y-57494091D01*
X165782331Y-57443796D01*
X165897546Y-57357546D01*
X165983796Y-57242331D01*
X166034091Y-57107483D01*
X166040500Y-57047873D01*
X166040499Y-54976639D01*
X170474500Y-54976639D01*
X170474500Y-55175360D01*
X170505587Y-55371637D01*
X170566993Y-55560629D01*
X170566994Y-55560632D01*
X170604526Y-55634291D01*
X170657213Y-55737694D01*
X170774019Y-55898464D01*
X170914536Y-56038981D01*
X171075306Y-56155787D01*
X171133684Y-56185532D01*
X171252367Y-56246005D01*
X171252370Y-56246006D01*
X171346866Y-56276709D01*
X171441364Y-56307413D01*
X171637639Y-56338500D01*
X171637640Y-56338500D01*
X171836360Y-56338500D01*
X171836361Y-56338500D01*
X172032636Y-56307413D01*
X172221632Y-56246005D01*
X172398694Y-56155787D01*
X172559464Y-56038981D01*
X172699981Y-55898464D01*
X172816787Y-55737694D01*
X172896515Y-55581218D01*
X172944490Y-55530423D01*
X173012311Y-55513628D01*
X173078446Y-55536165D01*
X173117484Y-55581218D01*
X173197213Y-55737694D01*
X173314019Y-55898464D01*
X173454536Y-56038981D01*
X173615306Y-56155787D01*
X173673684Y-56185532D01*
X173792367Y-56246005D01*
X173792370Y-56246006D01*
X173886866Y-56276709D01*
X173981364Y-56307413D01*
X174177639Y-56338500D01*
X174177640Y-56338500D01*
X174376360Y-56338500D01*
X174376361Y-56338500D01*
X174572636Y-56307413D01*
X174761632Y-56246005D01*
X174938694Y-56155787D01*
X175099464Y-56038981D01*
X175239981Y-55898464D01*
X175356787Y-55737694D01*
X175436515Y-55581218D01*
X175484490Y-55530423D01*
X175552311Y-55513628D01*
X175618446Y-55536165D01*
X175657484Y-55581218D01*
X175737213Y-55737694D01*
X175854019Y-55898464D01*
X175994536Y-56038981D01*
X176155306Y-56155787D01*
X176213684Y-56185532D01*
X176332367Y-56246005D01*
X176332370Y-56246006D01*
X176426866Y-56276709D01*
X176521364Y-56307413D01*
X176717639Y-56338500D01*
X176717640Y-56338500D01*
X176916360Y-56338500D01*
X176916361Y-56338500D01*
X177112636Y-56307413D01*
X177301632Y-56246005D01*
X177478694Y-56155787D01*
X177639464Y-56038981D01*
X177779981Y-55898464D01*
X177896787Y-55737694D01*
X177976515Y-55581218D01*
X178024490Y-55530423D01*
X178092311Y-55513628D01*
X178158446Y-55536165D01*
X178197484Y-55581218D01*
X178277213Y-55737694D01*
X178394019Y-55898464D01*
X178534536Y-56038981D01*
X178695306Y-56155787D01*
X178753684Y-56185532D01*
X178872367Y-56246005D01*
X178872370Y-56246006D01*
X178966866Y-56276709D01*
X179061364Y-56307413D01*
X179257639Y-56338500D01*
X179257640Y-56338500D01*
X179456360Y-56338500D01*
X179456361Y-56338500D01*
X179652636Y-56307413D01*
X179841632Y-56246005D01*
X180018694Y-56155787D01*
X180179464Y-56038981D01*
X180319981Y-55898464D01*
X180436787Y-55737694D01*
X180516515Y-55581218D01*
X180564490Y-55530423D01*
X180632311Y-55513628D01*
X180698446Y-55536165D01*
X180737484Y-55581218D01*
X180817213Y-55737694D01*
X180934019Y-55898464D01*
X181074536Y-56038981D01*
X181235306Y-56155787D01*
X181293684Y-56185532D01*
X181412367Y-56246005D01*
X181412370Y-56246006D01*
X181506866Y-56276709D01*
X181601364Y-56307413D01*
X181797639Y-56338500D01*
X181797640Y-56338500D01*
X181996360Y-56338500D01*
X181996361Y-56338500D01*
X182192636Y-56307413D01*
X182381632Y-56246005D01*
X182558694Y-56155787D01*
X182719464Y-56038981D01*
X182859981Y-55898464D01*
X182976787Y-55737694D01*
X183056515Y-55581218D01*
X183104490Y-55530423D01*
X183172311Y-55513628D01*
X183238446Y-55536165D01*
X183277484Y-55581218D01*
X183357213Y-55737694D01*
X183474019Y-55898464D01*
X183614536Y-56038981D01*
X183775306Y-56155787D01*
X183833684Y-56185532D01*
X183952367Y-56246005D01*
X183952370Y-56246006D01*
X184046866Y-56276709D01*
X184141364Y-56307413D01*
X184337639Y-56338500D01*
X184337640Y-56338500D01*
X184536360Y-56338500D01*
X184536361Y-56338500D01*
X184732636Y-56307413D01*
X184921632Y-56246005D01*
X185098694Y-56155787D01*
X185259464Y-56038981D01*
X185399981Y-55898464D01*
X185516787Y-55737694D01*
X185596515Y-55581218D01*
X185644490Y-55530423D01*
X185712311Y-55513628D01*
X185778446Y-55536165D01*
X185817484Y-55581218D01*
X185897213Y-55737694D01*
X186014019Y-55898464D01*
X186154536Y-56038981D01*
X186315306Y-56155787D01*
X186373684Y-56185532D01*
X186492367Y-56246005D01*
X186492370Y-56246006D01*
X186586866Y-56276709D01*
X186681364Y-56307413D01*
X186877639Y-56338500D01*
X186877640Y-56338500D01*
X187076360Y-56338500D01*
X187076361Y-56338500D01*
X187272636Y-56307413D01*
X187461632Y-56246005D01*
X187631905Y-56159245D01*
X187700574Y-56146350D01*
X187765314Y-56172626D01*
X187805572Y-56229732D01*
X187812200Y-56269731D01*
X187812200Y-79409268D01*
X187792515Y-79476307D01*
X187739711Y-79522062D01*
X187670553Y-79532006D01*
X187631905Y-79519753D01*
X187461632Y-79432995D01*
X187461629Y-79432993D01*
X187272637Y-79371587D01*
X187151463Y-79352395D01*
X187076361Y-79340500D01*
X186877639Y-79340500D01*
X186812214Y-79350862D01*
X186681362Y-79371587D01*
X186492370Y-79432993D01*
X186492367Y-79432994D01*
X186315305Y-79523213D01*
X186154533Y-79640021D01*
X186014021Y-79780533D01*
X185897213Y-79941305D01*
X185817485Y-80097780D01*
X185769510Y-80148576D01*
X185701689Y-80165371D01*
X185635554Y-80142833D01*
X185596515Y-80097780D01*
X185516921Y-79941569D01*
X185516787Y-79941306D01*
X185399981Y-79780536D01*
X185259464Y-79640019D01*
X185098694Y-79523213D01*
X185055945Y-79501431D01*
X184921632Y-79432994D01*
X184921629Y-79432993D01*
X184732637Y-79371587D01*
X184611463Y-79352395D01*
X184536361Y-79340500D01*
X184337639Y-79340500D01*
X184272214Y-79350862D01*
X184141362Y-79371587D01*
X183952370Y-79432993D01*
X183952367Y-79432994D01*
X183775305Y-79523213D01*
X183614533Y-79640021D01*
X183474021Y-79780533D01*
X183357213Y-79941305D01*
X183277485Y-80097780D01*
X183229510Y-80148576D01*
X183161689Y-80165371D01*
X183095554Y-80142833D01*
X183056515Y-80097780D01*
X182976921Y-79941569D01*
X182976787Y-79941306D01*
X182859981Y-79780536D01*
X182719464Y-79640019D01*
X182558694Y-79523213D01*
X182515945Y-79501431D01*
X182381632Y-79432994D01*
X182381629Y-79432993D01*
X182192637Y-79371587D01*
X182071463Y-79352395D01*
X181996361Y-79340500D01*
X181797639Y-79340500D01*
X181732214Y-79350862D01*
X181601362Y-79371587D01*
X181412370Y-79432993D01*
X181412367Y-79432994D01*
X181235305Y-79523213D01*
X181074533Y-79640021D01*
X180934021Y-79780533D01*
X180817213Y-79941305D01*
X180737485Y-80097780D01*
X180689510Y-80148576D01*
X180621689Y-80165371D01*
X180555554Y-80142833D01*
X180516515Y-80097780D01*
X180436921Y-79941569D01*
X180436787Y-79941306D01*
X180319981Y-79780536D01*
X180179464Y-79640019D01*
X180018694Y-79523213D01*
X179975945Y-79501431D01*
X179841632Y-79432994D01*
X179841629Y-79432993D01*
X179652637Y-79371587D01*
X179531463Y-79352395D01*
X179456361Y-79340500D01*
X179257639Y-79340500D01*
X179192214Y-79350862D01*
X179061362Y-79371587D01*
X178872370Y-79432993D01*
X178872367Y-79432994D01*
X178695305Y-79523213D01*
X178534533Y-79640021D01*
X178394021Y-79780533D01*
X178277213Y-79941305D01*
X178197485Y-80097780D01*
X178149510Y-80148576D01*
X178081689Y-80165371D01*
X178015554Y-80142833D01*
X177976515Y-80097780D01*
X177896921Y-79941569D01*
X177896787Y-79941306D01*
X177779981Y-79780536D01*
X177639464Y-79640019D01*
X177478694Y-79523213D01*
X177435945Y-79501431D01*
X177301632Y-79432994D01*
X177301629Y-79432993D01*
X177112637Y-79371587D01*
X176991463Y-79352395D01*
X176916361Y-79340500D01*
X176717639Y-79340500D01*
X176652214Y-79350862D01*
X176521362Y-79371587D01*
X176332370Y-79432993D01*
X176332367Y-79432994D01*
X176155305Y-79523213D01*
X175994533Y-79640021D01*
X175854021Y-79780533D01*
X175737213Y-79941305D01*
X175657485Y-80097780D01*
X175609510Y-80148576D01*
X175541689Y-80165371D01*
X175475554Y-80142833D01*
X175436515Y-80097780D01*
X175356921Y-79941569D01*
X175356787Y-79941306D01*
X175239981Y-79780536D01*
X175099464Y-79640019D01*
X174938694Y-79523213D01*
X174895945Y-79501431D01*
X174761632Y-79432994D01*
X174761629Y-79432993D01*
X174572637Y-79371587D01*
X174451463Y-79352395D01*
X174376361Y-79340500D01*
X174177639Y-79340500D01*
X174112214Y-79350862D01*
X173981362Y-79371587D01*
X173792370Y-79432993D01*
X173792367Y-79432994D01*
X173615305Y-79523213D01*
X173454533Y-79640021D01*
X173314021Y-79780533D01*
X173197213Y-79941305D01*
X173117485Y-80097780D01*
X173069510Y-80148576D01*
X173001689Y-80165371D01*
X172935554Y-80142833D01*
X172896515Y-80097780D01*
X172816921Y-79941569D01*
X172816787Y-79941306D01*
X172699981Y-79780536D01*
X172559464Y-79640019D01*
X172398694Y-79523213D01*
X172355945Y-79501431D01*
X172221632Y-79432994D01*
X172221629Y-79432993D01*
X172032637Y-79371587D01*
X171911463Y-79352395D01*
X171836361Y-79340500D01*
X171637639Y-79340500D01*
X171572214Y-79350862D01*
X171441362Y-79371587D01*
X171252370Y-79432993D01*
X171252367Y-79432994D01*
X171075305Y-79523213D01*
X170914533Y-79640021D01*
X170774021Y-79780533D01*
X170657213Y-79941305D01*
X170566994Y-80118367D01*
X170566993Y-80118370D01*
X170505587Y-80307362D01*
X170474500Y-80503639D01*
X170474500Y-80702360D01*
X170505587Y-80898637D01*
X170566993Y-81087629D01*
X170566994Y-81087632D01*
X170604526Y-81161291D01*
X170657213Y-81264694D01*
X170774019Y-81425464D01*
X170914536Y-81565981D01*
X171075306Y-81682787D01*
X171154010Y-81722889D01*
X171252367Y-81773005D01*
X171252370Y-81773006D01*
X171334583Y-81799718D01*
X171441364Y-81834413D01*
X171637639Y-81865500D01*
X171637640Y-81865500D01*
X171836360Y-81865500D01*
X171836361Y-81865500D01*
X172032636Y-81834413D01*
X172221632Y-81773005D01*
X172398694Y-81682787D01*
X172559464Y-81565981D01*
X172699981Y-81425464D01*
X172816787Y-81264694D01*
X172896515Y-81108218D01*
X172944490Y-81057423D01*
X173012311Y-81040628D01*
X173078446Y-81063165D01*
X173117484Y-81108218D01*
X173197213Y-81264694D01*
X173314019Y-81425464D01*
X173454536Y-81565981D01*
X173615306Y-81682787D01*
X173694010Y-81722889D01*
X173792367Y-81773005D01*
X173792370Y-81773006D01*
X173874583Y-81799718D01*
X173981364Y-81834413D01*
X174177639Y-81865500D01*
X174177640Y-81865500D01*
X174376360Y-81865500D01*
X174376361Y-81865500D01*
X174572636Y-81834413D01*
X174761632Y-81773005D01*
X174938694Y-81682787D01*
X175099464Y-81565981D01*
X175239981Y-81425464D01*
X175356787Y-81264694D01*
X175436515Y-81108218D01*
X175484490Y-81057423D01*
X175552311Y-81040628D01*
X175618446Y-81063165D01*
X175657484Y-81108218D01*
X175737213Y-81264694D01*
X175854019Y-81425464D01*
X175994536Y-81565981D01*
X176155306Y-81682787D01*
X176234010Y-81722889D01*
X176332367Y-81773005D01*
X176332370Y-81773006D01*
X176414583Y-81799718D01*
X176521364Y-81834413D01*
X176717639Y-81865500D01*
X176717640Y-81865500D01*
X176916360Y-81865500D01*
X176916361Y-81865500D01*
X177112636Y-81834413D01*
X177301632Y-81773005D01*
X177478694Y-81682787D01*
X177639464Y-81565981D01*
X177779981Y-81425464D01*
X177896787Y-81264694D01*
X177976515Y-81108218D01*
X178024490Y-81057423D01*
X178092311Y-81040628D01*
X178158446Y-81063165D01*
X178197484Y-81108218D01*
X178277213Y-81264694D01*
X178394019Y-81425464D01*
X178534536Y-81565981D01*
X178695306Y-81682787D01*
X178774010Y-81722889D01*
X178872367Y-81773005D01*
X178872370Y-81773006D01*
X178954583Y-81799718D01*
X179061364Y-81834413D01*
X179257639Y-81865500D01*
X179257640Y-81865500D01*
X179456360Y-81865500D01*
X179456361Y-81865500D01*
X179652636Y-81834413D01*
X179841632Y-81773005D01*
X180018694Y-81682787D01*
X180179464Y-81565981D01*
X180319981Y-81425464D01*
X180436787Y-81264694D01*
X180516515Y-81108218D01*
X180564490Y-81057423D01*
X180632311Y-81040628D01*
X180698446Y-81063165D01*
X180737484Y-81108218D01*
X180817213Y-81264694D01*
X180934019Y-81425464D01*
X181074536Y-81565981D01*
X181235306Y-81682787D01*
X181314010Y-81722889D01*
X181412367Y-81773005D01*
X181412370Y-81773006D01*
X181494583Y-81799718D01*
X181601364Y-81834413D01*
X181797639Y-81865500D01*
X181797640Y-81865500D01*
X181996360Y-81865500D01*
X181996361Y-81865500D01*
X182192636Y-81834413D01*
X182381632Y-81773005D01*
X182558694Y-81682787D01*
X182719464Y-81565981D01*
X182859981Y-81425464D01*
X182976787Y-81264694D01*
X183056515Y-81108218D01*
X183104490Y-81057423D01*
X183172311Y-81040628D01*
X183238446Y-81063165D01*
X183277484Y-81108218D01*
X183357213Y-81264694D01*
X183474019Y-81425464D01*
X183614536Y-81565981D01*
X183775306Y-81682787D01*
X183854010Y-81722889D01*
X183952367Y-81773005D01*
X183952370Y-81773006D01*
X184034583Y-81799718D01*
X184141364Y-81834413D01*
X184337639Y-81865500D01*
X184337640Y-81865500D01*
X184536360Y-81865500D01*
X184536361Y-81865500D01*
X184732636Y-81834413D01*
X184921632Y-81773005D01*
X185098694Y-81682787D01*
X185259464Y-81565981D01*
X185399981Y-81425464D01*
X185516787Y-81264694D01*
X185596515Y-81108218D01*
X185644490Y-81057423D01*
X185712311Y-81040628D01*
X185778446Y-81063165D01*
X185817484Y-81108218D01*
X185897213Y-81264694D01*
X186014019Y-81425464D01*
X186154536Y-81565981D01*
X186315306Y-81682787D01*
X186394010Y-81722889D01*
X186492367Y-81773005D01*
X186492370Y-81773006D01*
X186574583Y-81799718D01*
X186681364Y-81834413D01*
X186877639Y-81865500D01*
X186877640Y-81865500D01*
X187076360Y-81865500D01*
X187076361Y-81865500D01*
X187272636Y-81834413D01*
X187461632Y-81773005D01*
X187631905Y-81686245D01*
X187700574Y-81673350D01*
X187765314Y-81699626D01*
X187805572Y-81756732D01*
X187812200Y-81796731D01*
X187812200Y-104369700D01*
X187792515Y-104436739D01*
X187739711Y-104482494D01*
X187688200Y-104493700D01*
X185992470Y-104493700D01*
X185992454Y-104493699D01*
X185984858Y-104493699D01*
X185826743Y-104493699D01*
X185750379Y-104514161D01*
X185674014Y-104534623D01*
X185674009Y-104534626D01*
X185537090Y-104613675D01*
X185537082Y-104613681D01*
X185187582Y-104963181D01*
X185126259Y-104996666D01*
X185099901Y-104999500D01*
X184901457Y-104999500D01*
X184708170Y-105037947D01*
X184708160Y-105037950D01*
X184526092Y-105113364D01*
X184526079Y-105113371D01*
X184362218Y-105222860D01*
X184362214Y-105222863D01*
X184222863Y-105362214D01*
X184222860Y-105362218D01*
X184113371Y-105526079D01*
X184113364Y-105526092D01*
X184037950Y-105708160D01*
X184037947Y-105708170D01*
X183999500Y-105901456D01*
X183999500Y-105901459D01*
X183999500Y-106098541D01*
X183999500Y-106098543D01*
X183999499Y-106098543D01*
X184037947Y-106291829D01*
X184037950Y-106291839D01*
X184113364Y-106473907D01*
X184113371Y-106473920D01*
X184222860Y-106637781D01*
X184222863Y-106637785D01*
X184362214Y-106777136D01*
X184362218Y-106777139D01*
X184526079Y-106886628D01*
X184526092Y-106886635D01*
X184708160Y-106962049D01*
X184708165Y-106962051D01*
X184708169Y-106962051D01*
X184708170Y-106962052D01*
X184901456Y-107000500D01*
X184901459Y-107000500D01*
X185098543Y-107000500D01*
X185228582Y-106974632D01*
X185291835Y-106962051D01*
X185473914Y-106886632D01*
X185637782Y-106777139D01*
X185777139Y-106637782D01*
X185886632Y-106473914D01*
X185962051Y-106291835D01*
X185997551Y-106113368D01*
X186000500Y-106098543D01*
X186000500Y-105900098D01*
X186009144Y-105870660D01*
X186015668Y-105840670D01*
X186019423Y-105835653D01*
X186020185Y-105833059D01*
X186036819Y-105812416D01*
X186118218Y-105731018D01*
X186179542Y-105697534D01*
X186205899Y-105694700D01*
X187601367Y-105694700D01*
X187668406Y-105714385D01*
X187714161Y-105767189D01*
X187715928Y-105771248D01*
X187734964Y-105817207D01*
X187734971Y-105817220D01*
X187844460Y-105981081D01*
X187844463Y-105981085D01*
X187983814Y-106120436D01*
X187983818Y-106120439D01*
X188147679Y-106229928D01*
X188147692Y-106229935D01*
X188297134Y-106291835D01*
X188329765Y-106305351D01*
X188329769Y-106305351D01*
X188329770Y-106305352D01*
X188523056Y-106343800D01*
X188523059Y-106343800D01*
X188720143Y-106343800D01*
X188850182Y-106317932D01*
X188913435Y-106305351D01*
X189095514Y-106229932D01*
X189259382Y-106120439D01*
X189398739Y-105981082D01*
X189508232Y-105817214D01*
X189583651Y-105635135D01*
X189605341Y-105526092D01*
X189622100Y-105441843D01*
X189622100Y-105244756D01*
X189583652Y-105051471D01*
X189583651Y-105051465D01*
X189526339Y-104913100D01*
X189516900Y-104865648D01*
X189516900Y-85460848D01*
X189536585Y-85393809D01*
X189589389Y-85348054D01*
X189658547Y-85338110D01*
X189722103Y-85367135D01*
X189741218Y-85387963D01*
X189759019Y-85412464D01*
X189899536Y-85552981D01*
X190060306Y-85669787D01*
X190132428Y-85706535D01*
X190237367Y-85760005D01*
X190237370Y-85760006D01*
X190296035Y-85779067D01*
X190426364Y-85821413D01*
X190622639Y-85852500D01*
X190622640Y-85852500D01*
X190821360Y-85852500D01*
X190821361Y-85852500D01*
X191017636Y-85821413D01*
X191147404Y-85779248D01*
X191153769Y-85779067D01*
X191159360Y-85776014D01*
X191188275Y-85778081D01*
X191217244Y-85777254D01*
X191222697Y-85780542D01*
X191229052Y-85780997D01*
X191252256Y-85798366D01*
X191277077Y-85813334D01*
X191279887Y-85819050D01*
X191284986Y-85822867D01*
X191295114Y-85850021D01*
X191307905Y-85876035D01*
X191307178Y-85882363D01*
X191309405Y-85888331D01*
X191303243Y-85916657D01*
X191299940Y-85945449D01*
X191295569Y-85951939D01*
X191294555Y-85956604D01*
X191273404Y-85984859D01*
X191263135Y-85995129D01*
X191253186Y-86005078D01*
X191253184Y-86005080D01*
X191207436Y-86050828D01*
X191141381Y-86116882D01*
X191141380Y-86116884D01*
X191128494Y-86139204D01*
X191062323Y-86253815D01*
X191021399Y-86406543D01*
X191021399Y-86406545D01*
X191021399Y-86574646D01*
X191021400Y-86574659D01*
X191021400Y-97322716D01*
X191001715Y-97389755D01*
X190985081Y-97410397D01*
X190844763Y-97550714D01*
X190844760Y-97550718D01*
X190735271Y-97714579D01*
X190735264Y-97714592D01*
X190659850Y-97896660D01*
X190659847Y-97896670D01*
X190621400Y-98089956D01*
X190621400Y-98089959D01*
X190621400Y-98287041D01*
X190621400Y-98287043D01*
X190621399Y-98287043D01*
X190659847Y-98480329D01*
X190659850Y-98480339D01*
X190735264Y-98662407D01*
X190735271Y-98662420D01*
X190844760Y-98826281D01*
X190844763Y-98826285D01*
X190984114Y-98965636D01*
X190984118Y-98965639D01*
X191147979Y-99075128D01*
X191147992Y-99075135D01*
X191292521Y-99135000D01*
X191330065Y-99150551D01*
X191330069Y-99150551D01*
X191330070Y-99150552D01*
X191523356Y-99189000D01*
X191523359Y-99189000D01*
X191720443Y-99189000D01*
X191865634Y-99160119D01*
X191913735Y-99150551D01*
X192095814Y-99075132D01*
X192259682Y-98965639D01*
X192399039Y-98826282D01*
X192508532Y-98662414D01*
X192583951Y-98480335D01*
X192612710Y-98335756D01*
X192622400Y-98287043D01*
X192622400Y-98089956D01*
X192583952Y-97896670D01*
X192583951Y-97896669D01*
X192583951Y-97896665D01*
X192523201Y-97750000D01*
X192508535Y-97714592D01*
X192508528Y-97714579D01*
X192399039Y-97550718D01*
X192399036Y-97550714D01*
X192258719Y-97410397D01*
X192225234Y-97349074D01*
X192222400Y-97322716D01*
X192222400Y-86785696D01*
X192242085Y-86718657D01*
X192258714Y-86698020D01*
X193742619Y-85214114D01*
X193803942Y-85180630D01*
X193873634Y-85185614D01*
X193929567Y-85227486D01*
X193953984Y-85292950D01*
X193954300Y-85301796D01*
X193954300Y-86855137D01*
X193934615Y-86922176D01*
X193881811Y-86967931D01*
X193812653Y-86977875D01*
X193794311Y-86973799D01*
X193791840Y-86973049D01*
X193598543Y-86934600D01*
X193598541Y-86934600D01*
X193401459Y-86934600D01*
X193401457Y-86934600D01*
X193208170Y-86973047D01*
X193208160Y-86973050D01*
X193026092Y-87048464D01*
X193026079Y-87048471D01*
X192862218Y-87157960D01*
X192862214Y-87157963D01*
X192722863Y-87297314D01*
X192722860Y-87297318D01*
X192613371Y-87461179D01*
X192613364Y-87461192D01*
X192537950Y-87643260D01*
X192537947Y-87643270D01*
X192499500Y-87836556D01*
X192499500Y-87836559D01*
X192499500Y-88033641D01*
X192499500Y-88033643D01*
X192499499Y-88033643D01*
X192537947Y-88226929D01*
X192537950Y-88226939D01*
X192613364Y-88409007D01*
X192613371Y-88409020D01*
X192722860Y-88572881D01*
X192722863Y-88572885D01*
X192863181Y-88713203D01*
X192896666Y-88774526D01*
X192899500Y-88800884D01*
X192899500Y-125778430D01*
X192899499Y-125778448D01*
X192899499Y-125944154D01*
X192899498Y-125944154D01*
X192940423Y-126096885D01*
X192969358Y-126147000D01*
X192969359Y-126147004D01*
X192969360Y-126147004D01*
X193018699Y-126232464D01*
X193019479Y-126233814D01*
X193019481Y-126233817D01*
X193133181Y-126347517D01*
X193166666Y-126408840D01*
X193169500Y-126435198D01*
X193169500Y-127143330D01*
X193169499Y-127143348D01*
X193169499Y-127309054D01*
X193169498Y-127309054D01*
X193210423Y-127461785D01*
X193239358Y-127511900D01*
X193239359Y-127511904D01*
X193239360Y-127511904D01*
X193289479Y-127598714D01*
X193289481Y-127598717D01*
X193408349Y-127717585D01*
X193408355Y-127717590D01*
X197201561Y-131510796D01*
X197235046Y-131572119D01*
X197230062Y-131641811D01*
X197228441Y-131645929D01*
X197141607Y-131855565D01*
X197141602Y-131855581D01*
X197073730Y-132108884D01*
X197069926Y-132137772D01*
X197039500Y-132368872D01*
X197039500Y-132631127D01*
X197051423Y-132721684D01*
X197073730Y-132891116D01*
X197141602Y-133144418D01*
X197141605Y-133144428D01*
X197241953Y-133386690D01*
X197241958Y-133386700D01*
X197373075Y-133613803D01*
X197532718Y-133821851D01*
X197532726Y-133821860D01*
X197718140Y-134007274D01*
X197718148Y-134007281D01*
X197926196Y-134166924D01*
X198153299Y-134298041D01*
X198153309Y-134298046D01*
X198296096Y-134357190D01*
X198395581Y-134398398D01*
X198648884Y-134466270D01*
X198897188Y-134498960D01*
X198905074Y-134499999D01*
X198908880Y-134500500D01*
X198908887Y-134500500D01*
X199171113Y-134500500D01*
X199171120Y-134500500D01*
X199431116Y-134466270D01*
X199684419Y-134398398D01*
X199869198Y-134321860D01*
X199926690Y-134298046D01*
X199926691Y-134298045D01*
X199926697Y-134298043D01*
X200153803Y-134166924D01*
X200361851Y-134007282D01*
X200361855Y-134007277D01*
X200361860Y-134007274D01*
X200547274Y-133821860D01*
X200547277Y-133821855D01*
X200547282Y-133821851D01*
X200706924Y-133613803D01*
X200838043Y-133386697D01*
X200938398Y-133144419D01*
X201006270Y-132891116D01*
X201040500Y-132631120D01*
X201040500Y-132368880D01*
X201006270Y-132108884D01*
X200938398Y-131855581D01*
X200938394Y-131855571D01*
X200838046Y-131613309D01*
X200838041Y-131613299D01*
X200706924Y-131386196D01*
X200565551Y-131201957D01*
X200547282Y-131178149D01*
X200547281Y-131178148D01*
X200547274Y-131178140D01*
X200361860Y-130992726D01*
X200361851Y-130992718D01*
X200153803Y-130833075D01*
X199926700Y-130701958D01*
X199926690Y-130701953D01*
X199684428Y-130601605D01*
X199684421Y-130601603D01*
X199684419Y-130601602D01*
X199431116Y-130533730D01*
X199373339Y-130526123D01*
X199171127Y-130499500D01*
X199171120Y-130499500D01*
X198908880Y-130499500D01*
X198908872Y-130499500D01*
X198677772Y-130529926D01*
X198648884Y-130533730D01*
X198563364Y-130556645D01*
X198395581Y-130601602D01*
X198395565Y-130601607D01*
X198185929Y-130688441D01*
X198116460Y-130695910D01*
X198053981Y-130664635D01*
X198050796Y-130661561D01*
X194406819Y-127017584D01*
X194373334Y-126956261D01*
X194370500Y-126929903D01*
X194370500Y-126435197D01*
X194390185Y-126368158D01*
X194406819Y-126347516D01*
X194707516Y-126046819D01*
X194768839Y-126013334D01*
X194795197Y-126010500D01*
X196591270Y-126010500D01*
X196658309Y-126030185D01*
X196695191Y-126067866D01*
X196695349Y-126067752D01*
X196696127Y-126068823D01*
X196697000Y-126069715D01*
X196698210Y-126071690D01*
X196698213Y-126071694D01*
X196815019Y-126232464D01*
X196955536Y-126372981D01*
X197116306Y-126489787D01*
X197121631Y-126492500D01*
X197293367Y-126580005D01*
X197293370Y-126580006D01*
X197387866Y-126610709D01*
X197482364Y-126641413D01*
X197678639Y-126672500D01*
X197678640Y-126672500D01*
X197877360Y-126672500D01*
X197877361Y-126672500D01*
X198073636Y-126641413D01*
X198262632Y-126580005D01*
X198439694Y-126489787D01*
X198600464Y-126372981D01*
X198740981Y-126232464D01*
X198857787Y-126071694D01*
X198948005Y-125894632D01*
X199009413Y-125705636D01*
X199040500Y-125509361D01*
X199040500Y-125310639D01*
X199016641Y-125159999D01*
X214319865Y-125159999D01*
X214319865Y-125160000D01*
X215174351Y-125160000D01*
X215131910Y-125233508D01*
X215100750Y-125349802D01*
X215100750Y-125470198D01*
X215131910Y-125586492D01*
X215174351Y-125660000D01*
X214319865Y-125660000D01*
X214327074Y-125705517D01*
X214388456Y-125894435D01*
X214478641Y-126071432D01*
X214595403Y-126232139D01*
X214595403Y-126232140D01*
X214735859Y-126372596D01*
X214896567Y-126489358D01*
X215073562Y-126579542D01*
X215262473Y-126640922D01*
X215308000Y-126648133D01*
X215308000Y-125793649D01*
X215381508Y-125836090D01*
X215497802Y-125867250D01*
X215618198Y-125867250D01*
X215734492Y-125836090D01*
X215808000Y-125793649D01*
X215808000Y-126648132D01*
X215853526Y-126640922D01*
X216042437Y-126579542D01*
X216219432Y-126489358D01*
X216380139Y-126372596D01*
X216380140Y-126372596D01*
X216520596Y-126232140D01*
X216520596Y-126232139D01*
X216637358Y-126071432D01*
X216727543Y-125894435D01*
X216788925Y-125705517D01*
X216796134Y-125660000D01*
X215941649Y-125660000D01*
X215984090Y-125586492D01*
X216015250Y-125470198D01*
X216015250Y-125349802D01*
X215984090Y-125233508D01*
X215941649Y-125160000D01*
X216796135Y-125160000D01*
X216796134Y-125159999D01*
X216788925Y-125114482D01*
X216727543Y-124925564D01*
X216637358Y-124748567D01*
X216520596Y-124587860D01*
X216520596Y-124587859D01*
X216380140Y-124447403D01*
X216219432Y-124330641D01*
X216042434Y-124240456D01*
X216042436Y-124240456D01*
X215853517Y-124179074D01*
X215808000Y-124171865D01*
X215808000Y-125026350D01*
X215734492Y-124983910D01*
X215618198Y-124952750D01*
X215497802Y-124952750D01*
X215381508Y-124983910D01*
X215308000Y-125026350D01*
X215308000Y-124171865D01*
X215307999Y-124171865D01*
X215262482Y-124179074D01*
X215073564Y-124240456D01*
X214896567Y-124330641D01*
X214735860Y-124447403D01*
X214735859Y-124447403D01*
X214595403Y-124587859D01*
X214595403Y-124587860D01*
X214478641Y-124748567D01*
X214388456Y-124925564D01*
X214327074Y-125114482D01*
X214319865Y-125159999D01*
X199016641Y-125159999D01*
X199011990Y-125130636D01*
X199009413Y-125114363D01*
X198948006Y-124925370D01*
X198948005Y-124925367D01*
X198870242Y-124772750D01*
X198857787Y-124748306D01*
X198740981Y-124587536D01*
X198600464Y-124447019D01*
X198439694Y-124330213D01*
X198406944Y-124313526D01*
X198262632Y-124239994D01*
X198262629Y-124239993D01*
X198073637Y-124178587D01*
X197975498Y-124163043D01*
X197877361Y-124147500D01*
X197678639Y-124147500D01*
X197613214Y-124157862D01*
X197482362Y-124178587D01*
X197293370Y-124239993D01*
X197293367Y-124239994D01*
X197116305Y-124330213D01*
X196955533Y-124447021D01*
X196815021Y-124587533D01*
X196698210Y-124748309D01*
X196697000Y-124750285D01*
X196696343Y-124750878D01*
X196695349Y-124752248D01*
X196695061Y-124752039D01*
X196645190Y-124797163D01*
X196591270Y-124809500D01*
X194416042Y-124809500D01*
X194256593Y-124852224D01*
X194186743Y-124850561D01*
X194128881Y-124811398D01*
X194101377Y-124747170D01*
X194100500Y-124732449D01*
X194100500Y-98520962D01*
X194120185Y-98453923D01*
X194172989Y-98408168D01*
X194242147Y-98398224D01*
X194260502Y-98402303D01*
X194262958Y-98403048D01*
X194262965Y-98403051D01*
X194262971Y-98403052D01*
X194262974Y-98403053D01*
X194456256Y-98441500D01*
X194456259Y-98441500D01*
X194653343Y-98441500D01*
X194820910Y-98408168D01*
X194846635Y-98403051D01*
X195028714Y-98327632D01*
X195192582Y-98218139D01*
X195331939Y-98078782D01*
X195441432Y-97914914D01*
X195516851Y-97732835D01*
X195555300Y-97539541D01*
X195555300Y-97342459D01*
X195555300Y-97342456D01*
X195516852Y-97149170D01*
X195516851Y-97149169D01*
X195516851Y-97149165D01*
X195477248Y-97053554D01*
X195441435Y-96967092D01*
X195441428Y-96967079D01*
X195331939Y-96803218D01*
X195331936Y-96803214D01*
X195191619Y-96662897D01*
X195158134Y-96601574D01*
X195155300Y-96575216D01*
X195155300Y-85423597D01*
X195174985Y-85356558D01*
X195191619Y-85335916D01*
X195902819Y-84624716D01*
X195964142Y-84591231D01*
X196033834Y-84596215D01*
X196089767Y-84638087D01*
X196114184Y-84703551D01*
X196114500Y-84712397D01*
X196114500Y-103128330D01*
X196114499Y-103128348D01*
X196114499Y-103294054D01*
X196114498Y-103294054D01*
X196155423Y-103446785D01*
X196184358Y-103496900D01*
X196184359Y-103496904D01*
X196184360Y-103496904D01*
X196234479Y-103583714D01*
X196234481Y-103583717D01*
X196353349Y-103702585D01*
X196353355Y-103702590D01*
X199463181Y-106812416D01*
X199496666Y-106873739D01*
X199499500Y-106900097D01*
X199499500Y-106901459D01*
X199499500Y-107098541D01*
X199499500Y-107098543D01*
X199499499Y-107098543D01*
X199537947Y-107291829D01*
X199537950Y-107291839D01*
X199613364Y-107473907D01*
X199613371Y-107473920D01*
X199722860Y-107637781D01*
X199722863Y-107637785D01*
X199862214Y-107777136D01*
X199862218Y-107777139D01*
X200026079Y-107886628D01*
X200026092Y-107886635D01*
X200208160Y-107962049D01*
X200208165Y-107962051D01*
X200208169Y-107962051D01*
X200208170Y-107962052D01*
X200401456Y-108000500D01*
X200401459Y-108000500D01*
X200598543Y-108000500D01*
X200728582Y-107974632D01*
X200791835Y-107962051D01*
X200973914Y-107886632D01*
X201137782Y-107777139D01*
X201277139Y-107637782D01*
X201386632Y-107473914D01*
X201462051Y-107291835D01*
X201500500Y-107098541D01*
X201500500Y-106901459D01*
X201500500Y-106901456D01*
X201462052Y-106708170D01*
X201462051Y-106708169D01*
X201462051Y-106708165D01*
X201432897Y-106637781D01*
X201386635Y-106526092D01*
X201386628Y-106526079D01*
X201277139Y-106362218D01*
X201277136Y-106362214D01*
X201137785Y-106222863D01*
X201137781Y-106222860D01*
X200973920Y-106113371D01*
X200973907Y-106113364D01*
X200791839Y-106037950D01*
X200791829Y-106037947D01*
X200598543Y-105999500D01*
X200598541Y-105999500D01*
X200401459Y-105999500D01*
X200400097Y-105999500D01*
X200333058Y-105979815D01*
X200312416Y-105963181D01*
X197351819Y-103002584D01*
X197318334Y-102941261D01*
X197315500Y-102914903D01*
X197315500Y-86117867D01*
X197335185Y-86050828D01*
X197387989Y-86005073D01*
X197457147Y-85995129D01*
X197477821Y-85999937D01*
X197482363Y-86001413D01*
X197524792Y-86008133D01*
X197678639Y-86032500D01*
X197678640Y-86032500D01*
X197877360Y-86032500D01*
X197877361Y-86032500D01*
X198073636Y-86001413D01*
X198262632Y-85940005D01*
X198439694Y-85849787D01*
X198600464Y-85732981D01*
X198740981Y-85592464D01*
X198857787Y-85431694D01*
X198857789Y-85431689D01*
X198859000Y-85429715D01*
X198859656Y-85429121D01*
X198860651Y-85427752D01*
X198860938Y-85427960D01*
X198910810Y-85382837D01*
X198964730Y-85370500D01*
X213203331Y-85370500D01*
X213203347Y-85370501D01*
X213210943Y-85370501D01*
X213369054Y-85370501D01*
X213369057Y-85370501D01*
X213521785Y-85329577D01*
X213571904Y-85300639D01*
X213658716Y-85250520D01*
X213770520Y-85138716D01*
X213770520Y-85138714D01*
X213780728Y-85128507D01*
X213780730Y-85128504D01*
X214088905Y-84820328D01*
X214150224Y-84786846D01*
X214219915Y-84791830D01*
X214275849Y-84833701D01*
X214299055Y-84888614D01*
X214327075Y-85065520D01*
X214327075Y-85065523D01*
X214388457Y-85254437D01*
X214478641Y-85431432D01*
X214595403Y-85592139D01*
X214595403Y-85592140D01*
X214735859Y-85732596D01*
X214896567Y-85849358D01*
X215073562Y-85939542D01*
X215262473Y-86000922D01*
X215308000Y-86008133D01*
X215308000Y-85153649D01*
X215381508Y-85196090D01*
X215497802Y-85227250D01*
X215618198Y-85227250D01*
X215734492Y-85196090D01*
X215808000Y-85153649D01*
X215808000Y-86008132D01*
X215853526Y-86000922D01*
X216042437Y-85939542D01*
X216219432Y-85849358D01*
X216380139Y-85732596D01*
X216380140Y-85732596D01*
X216520596Y-85592140D01*
X216520596Y-85592139D01*
X216637358Y-85431432D01*
X216727543Y-85254435D01*
X216788925Y-85065517D01*
X216796134Y-85020000D01*
X215941649Y-85020000D01*
X215984090Y-84946492D01*
X216015250Y-84830198D01*
X216015250Y-84709802D01*
X215984090Y-84593508D01*
X215941649Y-84520000D01*
X216796135Y-84520000D01*
X216796134Y-84519999D01*
X216788925Y-84474482D01*
X216727543Y-84285564D01*
X216637358Y-84108567D01*
X216520596Y-83947860D01*
X216520596Y-83947859D01*
X216380140Y-83807403D01*
X216219432Y-83690641D01*
X216042437Y-83600457D01*
X215853521Y-83539075D01*
X215676614Y-83511055D01*
X215613479Y-83481125D01*
X215576548Y-83421814D01*
X215577546Y-83351951D01*
X215608327Y-83300906D01*
X217042473Y-81866760D01*
X217103794Y-81833277D01*
X217156521Y-81833841D01*
X217156552Y-81833651D01*
X217157843Y-81833855D01*
X217159099Y-81833869D01*
X217161352Y-81834409D01*
X217161364Y-81834413D01*
X217357639Y-81865500D01*
X217357640Y-81865500D01*
X217556360Y-81865500D01*
X217556361Y-81865500D01*
X217752636Y-81834413D01*
X217941632Y-81773005D01*
X218118694Y-81682787D01*
X218279464Y-81565981D01*
X218419981Y-81425464D01*
X218536787Y-81264694D01*
X218627005Y-81087632D01*
X218688413Y-80898636D01*
X218719500Y-80702361D01*
X218719500Y-80503639D01*
X218688413Y-80307364D01*
X218627005Y-80118368D01*
X218627005Y-80118367D01*
X218536921Y-79941569D01*
X218536787Y-79941306D01*
X218419981Y-79780536D01*
X218279464Y-79640019D01*
X218118694Y-79523213D01*
X218075945Y-79501431D01*
X217941632Y-79432994D01*
X217941629Y-79432993D01*
X217752637Y-79371587D01*
X217631463Y-79352395D01*
X217556361Y-79340500D01*
X217357639Y-79340500D01*
X217292214Y-79350862D01*
X217161362Y-79371587D01*
X216972370Y-79432993D01*
X216972367Y-79432994D01*
X216795305Y-79523213D01*
X216634533Y-79640021D01*
X216494021Y-79780533D01*
X216377213Y-79941305D01*
X216297485Y-80097780D01*
X216249510Y-80148576D01*
X216181689Y-80165371D01*
X216115554Y-80142833D01*
X216076515Y-80097780D01*
X215996921Y-79941569D01*
X215996787Y-79941306D01*
X215879981Y-79780536D01*
X215739464Y-79640019D01*
X215578694Y-79523213D01*
X215535945Y-79501431D01*
X215401632Y-79432994D01*
X215401629Y-79432993D01*
X215212637Y-79371587D01*
X215091463Y-79352395D01*
X215016361Y-79340500D01*
X214817639Y-79340500D01*
X214752214Y-79350862D01*
X214621362Y-79371587D01*
X214432370Y-79432993D01*
X214432367Y-79432994D01*
X214255305Y-79523213D01*
X214094533Y-79640021D01*
X213954021Y-79780533D01*
X213837213Y-79941305D01*
X213757485Y-80097780D01*
X213709510Y-80148576D01*
X213641689Y-80165371D01*
X213575554Y-80142833D01*
X213536515Y-80097780D01*
X213456921Y-79941569D01*
X213456787Y-79941306D01*
X213339981Y-79780536D01*
X213199464Y-79640019D01*
X213038694Y-79523213D01*
X212995945Y-79501431D01*
X212861632Y-79432994D01*
X212861629Y-79432993D01*
X212672637Y-79371587D01*
X212551463Y-79352395D01*
X212476361Y-79340500D01*
X212277639Y-79340500D01*
X212212214Y-79350862D01*
X212081362Y-79371587D01*
X211892370Y-79432993D01*
X211892367Y-79432994D01*
X211715305Y-79523213D01*
X211554533Y-79640021D01*
X211414021Y-79780533D01*
X211297213Y-79941305D01*
X211217485Y-80097780D01*
X211169510Y-80148576D01*
X211101689Y-80165371D01*
X211035554Y-80142833D01*
X210996515Y-80097780D01*
X210916921Y-79941569D01*
X210916787Y-79941306D01*
X210799981Y-79780536D01*
X210659464Y-79640019D01*
X210498694Y-79523213D01*
X210455945Y-79501431D01*
X210321632Y-79432994D01*
X210321629Y-79432993D01*
X210132637Y-79371587D01*
X210011463Y-79352395D01*
X209936361Y-79340500D01*
X209737639Y-79340500D01*
X209672214Y-79350862D01*
X209541362Y-79371587D01*
X209352370Y-79432993D01*
X209352367Y-79432994D01*
X209175305Y-79523213D01*
X209014533Y-79640021D01*
X208874021Y-79780533D01*
X208757213Y-79941305D01*
X208677485Y-80097780D01*
X208629510Y-80148576D01*
X208561689Y-80165371D01*
X208495554Y-80142833D01*
X208456515Y-80097780D01*
X208376921Y-79941569D01*
X208376787Y-79941306D01*
X208259981Y-79780536D01*
X208119464Y-79640019D01*
X207958694Y-79523213D01*
X207915945Y-79501431D01*
X207781632Y-79432994D01*
X207781629Y-79432993D01*
X207592637Y-79371587D01*
X207471463Y-79352395D01*
X207396361Y-79340500D01*
X207197639Y-79340500D01*
X207132214Y-79350862D01*
X207001362Y-79371587D01*
X206812370Y-79432993D01*
X206812367Y-79432994D01*
X206635305Y-79523213D01*
X206474533Y-79640021D01*
X206334021Y-79780533D01*
X206217213Y-79941305D01*
X206137204Y-80098331D01*
X206089229Y-80149127D01*
X206021408Y-80165922D01*
X205955273Y-80143384D01*
X205916234Y-80098331D01*
X205836358Y-79941567D01*
X205719596Y-79780860D01*
X205719596Y-79780859D01*
X205579140Y-79640403D01*
X205418432Y-79523641D01*
X205241434Y-79433456D01*
X205241436Y-79433456D01*
X205052517Y-79372074D01*
X205007000Y-79364865D01*
X205007000Y-80219350D01*
X204933492Y-80176910D01*
X204817198Y-80145750D01*
X204696802Y-80145750D01*
X204580508Y-80176910D01*
X204507000Y-80219350D01*
X204507000Y-79364865D01*
X204506999Y-79364865D01*
X204461482Y-79372074D01*
X204272564Y-79433456D01*
X204095567Y-79523641D01*
X203934860Y-79640403D01*
X203934859Y-79640403D01*
X203794403Y-79780859D01*
X203794403Y-79780860D01*
X203677639Y-79941569D01*
X203597764Y-80098332D01*
X203549790Y-80149127D01*
X203481969Y-80165922D01*
X203415834Y-80143384D01*
X203376796Y-80098332D01*
X203296787Y-79941306D01*
X203179981Y-79780536D01*
X203039464Y-79640019D01*
X202878694Y-79523213D01*
X202835945Y-79501431D01*
X202701632Y-79432994D01*
X202701629Y-79432993D01*
X202512637Y-79371587D01*
X202391463Y-79352395D01*
X202316361Y-79340500D01*
X202117639Y-79340500D01*
X202052214Y-79350862D01*
X201921362Y-79371587D01*
X201732370Y-79432993D01*
X201732367Y-79432994D01*
X201555305Y-79523213D01*
X201394533Y-79640021D01*
X201254021Y-79780533D01*
X201137213Y-79941305D01*
X201057485Y-80097780D01*
X201009510Y-80148576D01*
X200941689Y-80165371D01*
X200875554Y-80142833D01*
X200836515Y-80097780D01*
X200756921Y-79941569D01*
X200756787Y-79941306D01*
X200639981Y-79780536D01*
X200499464Y-79640019D01*
X200338694Y-79523213D01*
X200295945Y-79501431D01*
X200161632Y-79432994D01*
X200161629Y-79432993D01*
X199972637Y-79371587D01*
X199851463Y-79352395D01*
X199776361Y-79340500D01*
X199577639Y-79340500D01*
X199512214Y-79350862D01*
X199381362Y-79371587D01*
X199192370Y-79432993D01*
X199192356Y-79432999D01*
X199187786Y-79435328D01*
X199119116Y-79448219D01*
X199054377Y-79421937D01*
X199014125Y-79364828D01*
X199007500Y-79324839D01*
X199007500Y-56646096D01*
X199027185Y-56579057D01*
X199043815Y-56558419D01*
X199262472Y-56339761D01*
X199323795Y-56306277D01*
X199376521Y-56306842D01*
X199376552Y-56306651D01*
X199377849Y-56306856D01*
X199379104Y-56306870D01*
X199381358Y-56307411D01*
X199381364Y-56307413D01*
X199577639Y-56338500D01*
X199577640Y-56338500D01*
X199776360Y-56338500D01*
X199776361Y-56338500D01*
X199972636Y-56307413D01*
X200161632Y-56246005D01*
X200338694Y-56155787D01*
X200499464Y-56038981D01*
X200639981Y-55898464D01*
X200756787Y-55737694D01*
X200836515Y-55581218D01*
X200884490Y-55530423D01*
X200952311Y-55513628D01*
X201018446Y-55536165D01*
X201057484Y-55581218D01*
X201137213Y-55737694D01*
X201254019Y-55898464D01*
X201394536Y-56038981D01*
X201555306Y-56155787D01*
X201613684Y-56185532D01*
X201732367Y-56246005D01*
X201732370Y-56246006D01*
X201826866Y-56276709D01*
X201921364Y-56307413D01*
X202117639Y-56338500D01*
X202117640Y-56338500D01*
X202316360Y-56338500D01*
X202316361Y-56338500D01*
X202512636Y-56307413D01*
X202701632Y-56246005D01*
X202878694Y-56155787D01*
X203039464Y-56038981D01*
X203179981Y-55898464D01*
X203296787Y-55737694D01*
X203376515Y-55581218D01*
X203424490Y-55530423D01*
X203492311Y-55513628D01*
X203558446Y-55536165D01*
X203597484Y-55581218D01*
X203677213Y-55737694D01*
X203794019Y-55898464D01*
X203934536Y-56038981D01*
X204095306Y-56155787D01*
X204153684Y-56185532D01*
X204272367Y-56246005D01*
X204272370Y-56246006D01*
X204366866Y-56276709D01*
X204461364Y-56307413D01*
X204657639Y-56338500D01*
X204657640Y-56338500D01*
X204856360Y-56338500D01*
X204856361Y-56338500D01*
X205052636Y-56307413D01*
X205241632Y-56246005D01*
X205418694Y-56155787D01*
X205579464Y-56038981D01*
X205719981Y-55898464D01*
X205836787Y-55737694D01*
X205916515Y-55581218D01*
X205964490Y-55530423D01*
X206032311Y-55513628D01*
X206098446Y-55536165D01*
X206137484Y-55581218D01*
X206217213Y-55737694D01*
X206334019Y-55898464D01*
X206474536Y-56038981D01*
X206635306Y-56155787D01*
X206693684Y-56185532D01*
X206812367Y-56246005D01*
X206812370Y-56246006D01*
X206906866Y-56276709D01*
X207001364Y-56307413D01*
X207197639Y-56338500D01*
X207197640Y-56338500D01*
X207396360Y-56338500D01*
X207396361Y-56338500D01*
X207592636Y-56307413D01*
X207781632Y-56246005D01*
X207958694Y-56155787D01*
X208119464Y-56038981D01*
X208259981Y-55898464D01*
X208376787Y-55737694D01*
X208456515Y-55581218D01*
X208504490Y-55530423D01*
X208572311Y-55513628D01*
X208638446Y-55536165D01*
X208677484Y-55581218D01*
X208757213Y-55737694D01*
X208874019Y-55898464D01*
X209014536Y-56038981D01*
X209175306Y-56155787D01*
X209233684Y-56185532D01*
X209352367Y-56246005D01*
X209352370Y-56246006D01*
X209446866Y-56276709D01*
X209541364Y-56307413D01*
X209737639Y-56338500D01*
X209737640Y-56338500D01*
X209936360Y-56338500D01*
X209936361Y-56338500D01*
X210132636Y-56307413D01*
X210321632Y-56246005D01*
X210498694Y-56155787D01*
X210659464Y-56038981D01*
X210799981Y-55898464D01*
X210916787Y-55737694D01*
X210996515Y-55581218D01*
X211044490Y-55530423D01*
X211112311Y-55513628D01*
X211178446Y-55536165D01*
X211217484Y-55581218D01*
X211297213Y-55737694D01*
X211414019Y-55898464D01*
X211554536Y-56038981D01*
X211715306Y-56155787D01*
X211773684Y-56185532D01*
X211892367Y-56246005D01*
X211892370Y-56246006D01*
X211986866Y-56276709D01*
X212081364Y-56307413D01*
X212277639Y-56338500D01*
X212277640Y-56338500D01*
X212476360Y-56338500D01*
X212476361Y-56338500D01*
X212672636Y-56307413D01*
X212861632Y-56246005D01*
X213038694Y-56155787D01*
X213199464Y-56038981D01*
X213339981Y-55898464D01*
X213456787Y-55737694D01*
X213536515Y-55581218D01*
X213584490Y-55530423D01*
X213652311Y-55513628D01*
X213718446Y-55536165D01*
X213757484Y-55581218D01*
X213837213Y-55737694D01*
X213954019Y-55898464D01*
X214094536Y-56038981D01*
X214255306Y-56155787D01*
X214313684Y-56185532D01*
X214432367Y-56246005D01*
X214432370Y-56246006D01*
X214526866Y-56276709D01*
X214621364Y-56307413D01*
X214817639Y-56338500D01*
X214817640Y-56338500D01*
X215016360Y-56338500D01*
X215016361Y-56338500D01*
X215212636Y-56307413D01*
X215401632Y-56246005D01*
X215578694Y-56155787D01*
X215739464Y-56038981D01*
X215879981Y-55898464D01*
X215996787Y-55737694D01*
X216076515Y-55581218D01*
X216124490Y-55530423D01*
X216192311Y-55513628D01*
X216258446Y-55536165D01*
X216297484Y-55581218D01*
X216377213Y-55737694D01*
X216494019Y-55898464D01*
X216634536Y-56038981D01*
X216795306Y-56155787D01*
X216853684Y-56185532D01*
X216972367Y-56246005D01*
X216972370Y-56246006D01*
X217066866Y-56276709D01*
X217161364Y-56307413D01*
X217357639Y-56338500D01*
X217357640Y-56338500D01*
X217556360Y-56338500D01*
X217556361Y-56338500D01*
X217752636Y-56307413D01*
X217941632Y-56246005D01*
X218118694Y-56155787D01*
X218279464Y-56038981D01*
X218419981Y-55898464D01*
X218536787Y-55737694D01*
X218627005Y-55560632D01*
X218688413Y-55371636D01*
X218719500Y-55175361D01*
X218719500Y-54976639D01*
X218688413Y-54780364D01*
X218627005Y-54591368D01*
X218627005Y-54591367D01*
X218536786Y-54414305D01*
X218419981Y-54253536D01*
X218279464Y-54113019D01*
X218118694Y-53996213D01*
X218111835Y-53992718D01*
X217941632Y-53905994D01*
X217941629Y-53905993D01*
X217752637Y-53844587D01*
X217654498Y-53829043D01*
X217556361Y-53813500D01*
X217357639Y-53813500D01*
X217333988Y-53817246D01*
X217161362Y-53844587D01*
X216972370Y-53905993D01*
X216972367Y-53905994D01*
X216795305Y-53996213D01*
X216634533Y-54113021D01*
X216494021Y-54253533D01*
X216377213Y-54414305D01*
X216297485Y-54570780D01*
X216249510Y-54621576D01*
X216181689Y-54638371D01*
X216115554Y-54615833D01*
X216076515Y-54570780D01*
X215996786Y-54414305D01*
X215879981Y-54253536D01*
X215739464Y-54113019D01*
X215578694Y-53996213D01*
X215571835Y-53992718D01*
X215401632Y-53905994D01*
X215401629Y-53905993D01*
X215212637Y-53844587D01*
X215114498Y-53829043D01*
X215016361Y-53813500D01*
X214817639Y-53813500D01*
X214793988Y-53817246D01*
X214621362Y-53844587D01*
X214432370Y-53905993D01*
X214432367Y-53905994D01*
X214255305Y-53996213D01*
X214094533Y-54113021D01*
X213954021Y-54253533D01*
X213837213Y-54414305D01*
X213757485Y-54570780D01*
X213709510Y-54621576D01*
X213641689Y-54638371D01*
X213575554Y-54615833D01*
X213536515Y-54570780D01*
X213456786Y-54414305D01*
X213339981Y-54253536D01*
X213199464Y-54113019D01*
X213038694Y-53996213D01*
X213031835Y-53992718D01*
X212861632Y-53905994D01*
X212861629Y-53905993D01*
X212672637Y-53844587D01*
X212574498Y-53829043D01*
X212476361Y-53813500D01*
X212277639Y-53813500D01*
X212253988Y-53817246D01*
X212081362Y-53844587D01*
X211892370Y-53905993D01*
X211892367Y-53905994D01*
X211715305Y-53996213D01*
X211554533Y-54113021D01*
X211414021Y-54253533D01*
X211297213Y-54414305D01*
X211217485Y-54570780D01*
X211169510Y-54621576D01*
X211101689Y-54638371D01*
X211035554Y-54615833D01*
X210996515Y-54570780D01*
X210916786Y-54414305D01*
X210799981Y-54253536D01*
X210659464Y-54113019D01*
X210498694Y-53996213D01*
X210491835Y-53992718D01*
X210321632Y-53905994D01*
X210321629Y-53905993D01*
X210132637Y-53844587D01*
X210034498Y-53829043D01*
X209936361Y-53813500D01*
X209737639Y-53813500D01*
X209713988Y-53817246D01*
X209541362Y-53844587D01*
X209352370Y-53905993D01*
X209352367Y-53905994D01*
X209175305Y-53996213D01*
X209014533Y-54113021D01*
X208874021Y-54253533D01*
X208757213Y-54414305D01*
X208677485Y-54570780D01*
X208629510Y-54621576D01*
X208561689Y-54638371D01*
X208495554Y-54615833D01*
X208456515Y-54570780D01*
X208376786Y-54414305D01*
X208259981Y-54253536D01*
X208119464Y-54113019D01*
X207958694Y-53996213D01*
X207951835Y-53992718D01*
X207781632Y-53905994D01*
X207781629Y-53905993D01*
X207592637Y-53844587D01*
X207494498Y-53829043D01*
X207396361Y-53813500D01*
X207197639Y-53813500D01*
X207173988Y-53817246D01*
X207001362Y-53844587D01*
X206812370Y-53905993D01*
X206812367Y-53905994D01*
X206635305Y-53996213D01*
X206474533Y-54113021D01*
X206334021Y-54253533D01*
X206217213Y-54414305D01*
X206137485Y-54570780D01*
X206089510Y-54621576D01*
X206021689Y-54638371D01*
X205955554Y-54615833D01*
X205916515Y-54570780D01*
X205836786Y-54414305D01*
X205719981Y-54253536D01*
X205579464Y-54113019D01*
X205418694Y-53996213D01*
X205411835Y-53992718D01*
X205241632Y-53905994D01*
X205241629Y-53905993D01*
X205052637Y-53844587D01*
X204954498Y-53829043D01*
X204856361Y-53813500D01*
X204657639Y-53813500D01*
X204633988Y-53817246D01*
X204461362Y-53844587D01*
X204272370Y-53905993D01*
X204272367Y-53905994D01*
X204095305Y-53996213D01*
X203934533Y-54113021D01*
X203794021Y-54253533D01*
X203677213Y-54414305D01*
X203597485Y-54570780D01*
X203549510Y-54621576D01*
X203481689Y-54638371D01*
X203415554Y-54615833D01*
X203376515Y-54570780D01*
X203296786Y-54414305D01*
X203179981Y-54253536D01*
X203039464Y-54113019D01*
X202878694Y-53996213D01*
X202871835Y-53992718D01*
X202701632Y-53905994D01*
X202701629Y-53905993D01*
X202512637Y-53844587D01*
X202414498Y-53829043D01*
X202316361Y-53813500D01*
X202117639Y-53813500D01*
X202093988Y-53817246D01*
X201921362Y-53844587D01*
X201732370Y-53905993D01*
X201732367Y-53905994D01*
X201555305Y-53996213D01*
X201394533Y-54113021D01*
X201254021Y-54253533D01*
X201137213Y-54414305D01*
X201057485Y-54570780D01*
X201009510Y-54621576D01*
X200941689Y-54638371D01*
X200875554Y-54615833D01*
X200836515Y-54570780D01*
X200756786Y-54414305D01*
X200639981Y-54253536D01*
X200499464Y-54113019D01*
X200338694Y-53996213D01*
X200331835Y-53992718D01*
X200161632Y-53905994D01*
X200161629Y-53905993D01*
X199972637Y-53844587D01*
X199874498Y-53829043D01*
X199776361Y-53813500D01*
X199577639Y-53813500D01*
X199553988Y-53817246D01*
X199381362Y-53844587D01*
X199192370Y-53905993D01*
X199192367Y-53905994D01*
X199015305Y-53996213D01*
X198854533Y-54113021D01*
X198714021Y-54253533D01*
X198597213Y-54414305D01*
X198517485Y-54570780D01*
X198469510Y-54621576D01*
X198401689Y-54638371D01*
X198335554Y-54615833D01*
X198296515Y-54570780D01*
X198216786Y-54414305D01*
X198099981Y-54253536D01*
X197959464Y-54113019D01*
X197798694Y-53996213D01*
X197791835Y-53992718D01*
X197621632Y-53905994D01*
X197621629Y-53905993D01*
X197432637Y-53844587D01*
X197334498Y-53829043D01*
X197236361Y-53813500D01*
X197037639Y-53813500D01*
X197013988Y-53817246D01*
X196841362Y-53844587D01*
X196652370Y-53905993D01*
X196652367Y-53905994D01*
X196475305Y-53996213D01*
X196314533Y-54113021D01*
X196174021Y-54253533D01*
X196057213Y-54414305D01*
X195977485Y-54570780D01*
X195929510Y-54621576D01*
X195861689Y-54638371D01*
X195795554Y-54615833D01*
X195756515Y-54570780D01*
X195676786Y-54414305D01*
X195559981Y-54253536D01*
X195419464Y-54113019D01*
X195258694Y-53996213D01*
X195251835Y-53992718D01*
X195081632Y-53905994D01*
X195081629Y-53905993D01*
X194892637Y-53844587D01*
X194794498Y-53829043D01*
X194696361Y-53813500D01*
X194497639Y-53813500D01*
X194473988Y-53817246D01*
X194301362Y-53844587D01*
X194112370Y-53905993D01*
X194112367Y-53905994D01*
X193935305Y-53996213D01*
X193774533Y-54113021D01*
X193634021Y-54253533D01*
X193517213Y-54414305D01*
X193437485Y-54570780D01*
X193389510Y-54621576D01*
X193321689Y-54638371D01*
X193255554Y-54615833D01*
X193216515Y-54570780D01*
X193136786Y-54414305D01*
X193019981Y-54253536D01*
X192879464Y-54113019D01*
X192718694Y-53996213D01*
X192711835Y-53992718D01*
X192541632Y-53905994D01*
X192541629Y-53905993D01*
X192352637Y-53844587D01*
X192254498Y-53829043D01*
X192156361Y-53813500D01*
X191957639Y-53813500D01*
X191933988Y-53817246D01*
X191761362Y-53844587D01*
X191572370Y-53905993D01*
X191572367Y-53905994D01*
X191395305Y-53996213D01*
X191234533Y-54113021D01*
X191094021Y-54253533D01*
X190977213Y-54414305D01*
X190897485Y-54570780D01*
X190849510Y-54621576D01*
X190781689Y-54638371D01*
X190715554Y-54615833D01*
X190676515Y-54570780D01*
X190596786Y-54414305D01*
X190479981Y-54253536D01*
X190339464Y-54113019D01*
X190178694Y-53996213D01*
X190171835Y-53992718D01*
X190001632Y-53905994D01*
X190001629Y-53905993D01*
X189812637Y-53844587D01*
X189714498Y-53829043D01*
X189616361Y-53813500D01*
X189417639Y-53813500D01*
X189393988Y-53817246D01*
X189221362Y-53844587D01*
X189032370Y-53905993D01*
X189032367Y-53905994D01*
X188855305Y-53996213D01*
X188694533Y-54113021D01*
X188554021Y-54253533D01*
X188437213Y-54414305D01*
X188357485Y-54570780D01*
X188309510Y-54621576D01*
X188241689Y-54638371D01*
X188175554Y-54615833D01*
X188136515Y-54570780D01*
X188056786Y-54414305D01*
X187939981Y-54253536D01*
X187799464Y-54113019D01*
X187638694Y-53996213D01*
X187631835Y-53992718D01*
X187461632Y-53905994D01*
X187461629Y-53905993D01*
X187272637Y-53844587D01*
X187174498Y-53829043D01*
X187076361Y-53813500D01*
X186877639Y-53813500D01*
X186853988Y-53817246D01*
X186681362Y-53844587D01*
X186492370Y-53905993D01*
X186492367Y-53905994D01*
X186315305Y-53996213D01*
X186154533Y-54113021D01*
X186014021Y-54253533D01*
X185897213Y-54414305D01*
X185817485Y-54570780D01*
X185769510Y-54621576D01*
X185701689Y-54638371D01*
X185635554Y-54615833D01*
X185596515Y-54570780D01*
X185516786Y-54414305D01*
X185399981Y-54253536D01*
X185259464Y-54113019D01*
X185098694Y-53996213D01*
X185091835Y-53992718D01*
X184921632Y-53905994D01*
X184921629Y-53905993D01*
X184732637Y-53844587D01*
X184634498Y-53829043D01*
X184536361Y-53813500D01*
X184337639Y-53813500D01*
X184313988Y-53817246D01*
X184141362Y-53844587D01*
X183952370Y-53905993D01*
X183952367Y-53905994D01*
X183775305Y-53996213D01*
X183614533Y-54113021D01*
X183474021Y-54253533D01*
X183357213Y-54414305D01*
X183277485Y-54570780D01*
X183229510Y-54621576D01*
X183161689Y-54638371D01*
X183095554Y-54615833D01*
X183056515Y-54570780D01*
X182976786Y-54414305D01*
X182859981Y-54253536D01*
X182719464Y-54113019D01*
X182558694Y-53996213D01*
X182551835Y-53992718D01*
X182381632Y-53905994D01*
X182381629Y-53905993D01*
X182192637Y-53844587D01*
X182094498Y-53829043D01*
X181996361Y-53813500D01*
X181797639Y-53813500D01*
X181773988Y-53817246D01*
X181601362Y-53844587D01*
X181412370Y-53905993D01*
X181412367Y-53905994D01*
X181235305Y-53996213D01*
X181074533Y-54113021D01*
X180934021Y-54253533D01*
X180817213Y-54414305D01*
X180737485Y-54570780D01*
X180689510Y-54621576D01*
X180621689Y-54638371D01*
X180555554Y-54615833D01*
X180516515Y-54570780D01*
X180436786Y-54414305D01*
X180319981Y-54253536D01*
X180179464Y-54113019D01*
X180018694Y-53996213D01*
X180011835Y-53992718D01*
X179841632Y-53905994D01*
X179841629Y-53905993D01*
X179652637Y-53844587D01*
X179554498Y-53829043D01*
X179456361Y-53813500D01*
X179257639Y-53813500D01*
X179233988Y-53817246D01*
X179061362Y-53844587D01*
X178872370Y-53905993D01*
X178872367Y-53905994D01*
X178695305Y-53996213D01*
X178534533Y-54113021D01*
X178394021Y-54253533D01*
X178277213Y-54414305D01*
X178197485Y-54570780D01*
X178149510Y-54621576D01*
X178081689Y-54638371D01*
X178015554Y-54615833D01*
X177976515Y-54570780D01*
X177896786Y-54414305D01*
X177779981Y-54253536D01*
X177639464Y-54113019D01*
X177478694Y-53996213D01*
X177471835Y-53992718D01*
X177301632Y-53905994D01*
X177301629Y-53905993D01*
X177112637Y-53844587D01*
X177014498Y-53829043D01*
X176916361Y-53813500D01*
X176717639Y-53813500D01*
X176693988Y-53817246D01*
X176521362Y-53844587D01*
X176332370Y-53905993D01*
X176332367Y-53905994D01*
X176155305Y-53996213D01*
X175994533Y-54113021D01*
X175854021Y-54253533D01*
X175737213Y-54414305D01*
X175657485Y-54570780D01*
X175609510Y-54621576D01*
X175541689Y-54638371D01*
X175475554Y-54615833D01*
X175436515Y-54570780D01*
X175356786Y-54414305D01*
X175239981Y-54253536D01*
X175099464Y-54113019D01*
X174938694Y-53996213D01*
X174931835Y-53992718D01*
X174761632Y-53905994D01*
X174761629Y-53905993D01*
X174572637Y-53844587D01*
X174474498Y-53829043D01*
X174376361Y-53813500D01*
X174177639Y-53813500D01*
X174153988Y-53817246D01*
X173981362Y-53844587D01*
X173792370Y-53905993D01*
X173792367Y-53905994D01*
X173615305Y-53996213D01*
X173454533Y-54113021D01*
X173314021Y-54253533D01*
X173197213Y-54414305D01*
X173117485Y-54570780D01*
X173069510Y-54621576D01*
X173001689Y-54638371D01*
X172935554Y-54615833D01*
X172896515Y-54570780D01*
X172816786Y-54414305D01*
X172699981Y-54253536D01*
X172559464Y-54113019D01*
X172398694Y-53996213D01*
X172391835Y-53992718D01*
X172221632Y-53905994D01*
X172221629Y-53905993D01*
X172032637Y-53844587D01*
X171934498Y-53829043D01*
X171836361Y-53813500D01*
X171637639Y-53813500D01*
X171613988Y-53817246D01*
X171441362Y-53844587D01*
X171252370Y-53905993D01*
X171252367Y-53905994D01*
X171075305Y-53996213D01*
X170914533Y-54113021D01*
X170774021Y-54253533D01*
X170657213Y-54414305D01*
X170566994Y-54591367D01*
X170566993Y-54591370D01*
X170505587Y-54780362D01*
X170474500Y-54976639D01*
X166040499Y-54976639D01*
X166040499Y-53952128D01*
X166034091Y-53892517D01*
X166016214Y-53844587D01*
X165983797Y-53757671D01*
X165983793Y-53757664D01*
X165897547Y-53642455D01*
X165897544Y-53642452D01*
X165782335Y-53556206D01*
X165782328Y-53556202D01*
X165647482Y-53505908D01*
X165647483Y-53505908D01*
X165587883Y-53499501D01*
X165587881Y-53499500D01*
X165587873Y-53499500D01*
X165587864Y-53499500D01*
X162492129Y-53499500D01*
X162492123Y-53499501D01*
X162432516Y-53505908D01*
X162297671Y-53556202D01*
X162297664Y-53556206D01*
X162182455Y-53642452D01*
X162182452Y-53642455D01*
X162096206Y-53757664D01*
X162096202Y-53757671D01*
X162045908Y-53892517D01*
X162039501Y-53952116D01*
X162039501Y-53952123D01*
X162039500Y-53952135D01*
X162039500Y-57047870D01*
X162039501Y-57047876D01*
X162045908Y-57107483D01*
X162096202Y-57242328D01*
X162096206Y-57242335D01*
X162182452Y-57357544D01*
X162182455Y-57357547D01*
X162297664Y-57443793D01*
X162297671Y-57443797D01*
X162432517Y-57494091D01*
X162432516Y-57494091D01*
X162439444Y-57494835D01*
X162492127Y-57500500D01*
X163315500Y-57500499D01*
X163382539Y-57520183D01*
X163428294Y-57572987D01*
X163439500Y-57624499D01*
X163439500Y-62053102D01*
X163419815Y-62120141D01*
X163403181Y-62140783D01*
X160762180Y-64781784D01*
X160700857Y-64815269D01*
X160631165Y-64810285D01*
X160575232Y-64768413D01*
X160550815Y-64702949D01*
X160550499Y-64694103D01*
X160550499Y-63959629D01*
X160550498Y-63959623D01*
X160550497Y-63959616D01*
X160544091Y-63900017D01*
X160541293Y-63892516D01*
X160493797Y-63765171D01*
X160493793Y-63765164D01*
X160407547Y-63649955D01*
X160407544Y-63649952D01*
X160292335Y-63563706D01*
X160292328Y-63563702D01*
X160157482Y-63513408D01*
X160157483Y-63513408D01*
X160097883Y-63507001D01*
X160097881Y-63507000D01*
X160097873Y-63507000D01*
X160097864Y-63507000D01*
X158002129Y-63507000D01*
X158002123Y-63507001D01*
X157942516Y-63513408D01*
X157807671Y-63563702D01*
X157807664Y-63563706D01*
X157692455Y-63649952D01*
X157692452Y-63649955D01*
X157606206Y-63765164D01*
X157606202Y-63765171D01*
X157555908Y-63900017D01*
X157550267Y-63952489D01*
X157549501Y-63959623D01*
X157549500Y-63959635D01*
X151550499Y-63959635D01*
X151550499Y-63959628D01*
X151544091Y-63900017D01*
X151541293Y-63892516D01*
X151493797Y-63765171D01*
X151493793Y-63765164D01*
X151407547Y-63649955D01*
X151407544Y-63649952D01*
X151292335Y-63563706D01*
X151292328Y-63563702D01*
X151157482Y-63513408D01*
X151157483Y-63513408D01*
X151097883Y-63507001D01*
X151097881Y-63507000D01*
X151097873Y-63507000D01*
X151097865Y-63507000D01*
X149264500Y-63507000D01*
X149197461Y-63487315D01*
X149151706Y-63434511D01*
X149140500Y-63383000D01*
X149140500Y-57624499D01*
X149160185Y-57557460D01*
X149212989Y-57511705D01*
X149264500Y-57500499D01*
X150087871Y-57500499D01*
X150087872Y-57500499D01*
X150147483Y-57494091D01*
X150282331Y-57443796D01*
X150397546Y-57357546D01*
X150483796Y-57242331D01*
X150534091Y-57107483D01*
X150540500Y-57047873D01*
X150540499Y-55368872D01*
X156959500Y-55368872D01*
X156959500Y-55631127D01*
X156959917Y-55634291D01*
X156993730Y-55891116D01*
X157033350Y-56038981D01*
X157061602Y-56144418D01*
X157061605Y-56144428D01*
X157161953Y-56386690D01*
X157161958Y-56386700D01*
X157293075Y-56613803D01*
X157452718Y-56821851D01*
X157452726Y-56821860D01*
X157638140Y-57007274D01*
X157638148Y-57007281D01*
X157846196Y-57166924D01*
X158073299Y-57298041D01*
X158073309Y-57298046D01*
X158315564Y-57398391D01*
X158315581Y-57398398D01*
X158568884Y-57466270D01*
X158817188Y-57498960D01*
X158828864Y-57500498D01*
X158828880Y-57500500D01*
X158828887Y-57500500D01*
X159091113Y-57500500D01*
X159091120Y-57500500D01*
X159351116Y-57466270D01*
X159604419Y-57398398D01*
X159846697Y-57298043D01*
X160073803Y-57166924D01*
X160281851Y-57007282D01*
X160281855Y-57007277D01*
X160281860Y-57007274D01*
X160467274Y-56821860D01*
X160467277Y-56821855D01*
X160467282Y-56821851D01*
X160626924Y-56613803D01*
X160758043Y-56386697D01*
X160760429Y-56380938D01*
X160798836Y-56288215D01*
X160858398Y-56144419D01*
X160926270Y-55891116D01*
X160960500Y-55631120D01*
X160960500Y-55368880D01*
X160926270Y-55108884D01*
X160858398Y-54855581D01*
X160759091Y-54615833D01*
X160758046Y-54613309D01*
X160758041Y-54613299D01*
X160626924Y-54386196D01*
X160467281Y-54178148D01*
X160467274Y-54178140D01*
X160281860Y-53992726D01*
X160281851Y-53992718D01*
X160073803Y-53833075D01*
X159846700Y-53701958D01*
X159846690Y-53701953D01*
X159604428Y-53601605D01*
X159604421Y-53601603D01*
X159604419Y-53601602D01*
X159351116Y-53533730D01*
X159293339Y-53526123D01*
X159091127Y-53499500D01*
X159091120Y-53499500D01*
X158828880Y-53499500D01*
X158828872Y-53499500D01*
X158597772Y-53529926D01*
X158568884Y-53533730D01*
X158315581Y-53601602D01*
X158315571Y-53601605D01*
X158073309Y-53701953D01*
X158073299Y-53701958D01*
X157846196Y-53833075D01*
X157638148Y-53992718D01*
X157452718Y-54178148D01*
X157293075Y-54386196D01*
X157161958Y-54613299D01*
X157161953Y-54613309D01*
X157061605Y-54855571D01*
X157061602Y-54855581D01*
X156993730Y-55108885D01*
X156959500Y-55368872D01*
X150540499Y-55368872D01*
X150540499Y-53952128D01*
X150534091Y-53892517D01*
X150516214Y-53844587D01*
X150483797Y-53757671D01*
X150483793Y-53757664D01*
X150397547Y-53642455D01*
X150397544Y-53642452D01*
X150282335Y-53556206D01*
X150282328Y-53556202D01*
X150147482Y-53505908D01*
X150147483Y-53505908D01*
X150087883Y-53499501D01*
X150087881Y-53499500D01*
X150087873Y-53499500D01*
X150087864Y-53499500D01*
X146992129Y-53499500D01*
X146992123Y-53499501D01*
X146932516Y-53505908D01*
X146797671Y-53556202D01*
X146797664Y-53556206D01*
X146682455Y-53642452D01*
X146682452Y-53642455D01*
X146596206Y-53757664D01*
X146596202Y-53757671D01*
X146545908Y-53892517D01*
X146539501Y-53952116D01*
X146539501Y-53952123D01*
X146539500Y-53952135D01*
X144728963Y-53952135D01*
X144573803Y-53833075D01*
X144346700Y-53701958D01*
X144346690Y-53701953D01*
X144104428Y-53601605D01*
X144104421Y-53601603D01*
X144104419Y-53601602D01*
X143851116Y-53533730D01*
X143793339Y-53526123D01*
X143591127Y-53499500D01*
X143591120Y-53499500D01*
X143328880Y-53499500D01*
X143328872Y-53499500D01*
X143097772Y-53529926D01*
X143068884Y-53533730D01*
X142815581Y-53601602D01*
X142815571Y-53601605D01*
X142573309Y-53701953D01*
X142573299Y-53701958D01*
X142346196Y-53833075D01*
X142138148Y-53992718D01*
X141952718Y-54178148D01*
X141793075Y-54386196D01*
X141661958Y-54613299D01*
X141661953Y-54613309D01*
X141561605Y-54855571D01*
X141561602Y-54855581D01*
X141493730Y-55108885D01*
X141459500Y-55368872D01*
X141459500Y-55631127D01*
X141459917Y-55634291D01*
X141493730Y-55891116D01*
X141533350Y-56038981D01*
X141561602Y-56144418D01*
X141561605Y-56144428D01*
X141586309Y-56204068D01*
X141593778Y-56273538D01*
X141562503Y-56336017D01*
X141559429Y-56339202D01*
X134719750Y-63178880D01*
X134719744Y-63178888D01*
X134670512Y-63252568D01*
X134670513Y-63252569D01*
X134637621Y-63301796D01*
X134637614Y-63301808D01*
X134581042Y-63438386D01*
X134581040Y-63438392D01*
X134552200Y-63583379D01*
X134552200Y-81722889D01*
X134532515Y-81789928D01*
X134527463Y-81796870D01*
X134416071Y-81963579D01*
X134416064Y-81963592D01*
X134340650Y-82145660D01*
X134340647Y-82145670D01*
X134302200Y-82338956D01*
X134302200Y-82338959D01*
X134302200Y-82536041D01*
X134302200Y-82536043D01*
X134302199Y-82536043D01*
X134340647Y-82729329D01*
X134340650Y-82729339D01*
X134416064Y-82911407D01*
X134416071Y-82911420D01*
X134525560Y-83075281D01*
X134525563Y-83075285D01*
X134664914Y-83214636D01*
X134664918Y-83214639D01*
X134828779Y-83324128D01*
X134828792Y-83324135D01*
X134911968Y-83358587D01*
X135010865Y-83399551D01*
X135046491Y-83406637D01*
X135108401Y-83439020D01*
X135142976Y-83499735D01*
X135146300Y-83528254D01*
X135146300Y-93285389D01*
X135126615Y-93352428D01*
X135121563Y-93359370D01*
X135010171Y-93526079D01*
X135010164Y-93526092D01*
X134934750Y-93708160D01*
X134934747Y-93708170D01*
X134896300Y-93901456D01*
X134896300Y-93901459D01*
X134896300Y-94098541D01*
X134896300Y-94098543D01*
X134896299Y-94098543D01*
X134934747Y-94291829D01*
X134934750Y-94291839D01*
X135010164Y-94473907D01*
X135010171Y-94473920D01*
X135123045Y-94642847D01*
X135121517Y-94643867D01*
X135145466Y-94700255D01*
X135146300Y-94714610D01*
X135146300Y-118073918D01*
X135146300Y-118073920D01*
X135146299Y-118073920D01*
X135175140Y-118218907D01*
X135175143Y-118218917D01*
X135231714Y-118355492D01*
X135264612Y-118404727D01*
X135264613Y-118404730D01*
X135313846Y-118478414D01*
X135313852Y-118478421D01*
X138713181Y-121877748D01*
X138746666Y-121939071D01*
X138749500Y-121965429D01*
X138749500Y-122625500D01*
X138729815Y-122692539D01*
X138677011Y-122738294D01*
X138625500Y-122749500D01*
X129062026Y-122749500D01*
X128994987Y-122729815D01*
X128949232Y-122677011D01*
X128947465Y-122672952D01*
X128886635Y-122526091D01*
X128886628Y-122526079D01*
X128777139Y-122362218D01*
X128777136Y-122362214D01*
X128637785Y-122222863D01*
X128637781Y-122222860D01*
X128473920Y-122113371D01*
X128473907Y-122113364D01*
X128291839Y-122037950D01*
X128291829Y-122037947D01*
X128098543Y-121999500D01*
X128098541Y-121999500D01*
X127901459Y-121999500D01*
X127901457Y-121999500D01*
X127708170Y-122037947D01*
X127708160Y-122037950D01*
X127526092Y-122113364D01*
X127526079Y-122113371D01*
X127362218Y-122222860D01*
X127362214Y-122222863D01*
X127222863Y-122362214D01*
X127222860Y-122362218D01*
X127113371Y-122526079D01*
X127113364Y-122526092D01*
X127037950Y-122708160D01*
X127037947Y-122708170D01*
X126999500Y-122901456D01*
X126999500Y-122901459D01*
X126999500Y-123098541D01*
X126999500Y-123098543D01*
X126999499Y-123098543D01*
X117500500Y-123098543D01*
X117500500Y-117347844D01*
X127810000Y-117347844D01*
X127816401Y-117407372D01*
X127816403Y-117407379D01*
X127866645Y-117542086D01*
X127866649Y-117542093D01*
X127952809Y-117657187D01*
X127952812Y-117657190D01*
X128067906Y-117743350D01*
X128067913Y-117743354D01*
X128202620Y-117793596D01*
X128202627Y-117793598D01*
X128262155Y-117799999D01*
X128262172Y-117800000D01*
X129710000Y-117800000D01*
X129710000Y-117253554D01*
X129709998Y-117253553D01*
X130210000Y-117253553D01*
X130210000Y-117800000D01*
X131657828Y-117800000D01*
X131657844Y-117799999D01*
X131717372Y-117793598D01*
X131717379Y-117793596D01*
X131852086Y-117743354D01*
X131852093Y-117743350D01*
X131967187Y-117657190D01*
X131967190Y-117657187D01*
X132053350Y-117542093D01*
X132053354Y-117542086D01*
X132103596Y-117407379D01*
X132103598Y-117407372D01*
X132109999Y-117347844D01*
X132110000Y-117347827D01*
X132110000Y-116250000D01*
X132013553Y-116250000D01*
X130856242Y-117407312D01*
X130794919Y-117440797D01*
X130725227Y-117435813D01*
X130680880Y-117407312D01*
X130610000Y-117336432D01*
X130539120Y-117407312D01*
X130477797Y-117440796D01*
X130408105Y-117435812D01*
X130363758Y-117407311D01*
X130210000Y-117253553D01*
X129709998Y-117253553D01*
X129556241Y-117407311D01*
X129494918Y-117440796D01*
X129425226Y-117435812D01*
X129380879Y-117407311D01*
X129310000Y-117336432D01*
X129239120Y-117407312D01*
X129177797Y-117440797D01*
X129108105Y-117435813D01*
X129063758Y-117407312D01*
X128273625Y-116617179D01*
X128495000Y-116617179D01*
X128495000Y-116682821D01*
X128520119Y-116743465D01*
X128566535Y-116789881D01*
X128627179Y-116815000D01*
X128692821Y-116815000D01*
X128753465Y-116789881D01*
X128799881Y-116743465D01*
X128825000Y-116682821D01*
X128825000Y-116650000D01*
X129013554Y-116650000D01*
X129310000Y-116946446D01*
X129606446Y-116650000D01*
X129573625Y-116617179D01*
X129795000Y-116617179D01*
X129795000Y-116682821D01*
X129820119Y-116743465D01*
X129866535Y-116789881D01*
X129927179Y-116815000D01*
X129992821Y-116815000D01*
X130053465Y-116789881D01*
X130099881Y-116743465D01*
X130125000Y-116682821D01*
X130125000Y-116650000D01*
X130313554Y-116650000D01*
X130610000Y-116946446D01*
X130906446Y-116650000D01*
X130873625Y-116617179D01*
X131095000Y-116617179D01*
X131095000Y-116682821D01*
X131120119Y-116743465D01*
X131166535Y-116789881D01*
X131227179Y-116815000D01*
X131292821Y-116815000D01*
X131353465Y-116789881D01*
X131399881Y-116743465D01*
X131425000Y-116682821D01*
X131425000Y-116617179D01*
X131399881Y-116556535D01*
X131353465Y-116510119D01*
X131292821Y-116485000D01*
X131227179Y-116485000D01*
X131166535Y-116510119D01*
X131120119Y-116556535D01*
X131095000Y-116617179D01*
X130873625Y-116617179D01*
X130610000Y-116353554D01*
X130313554Y-116650000D01*
X130125000Y-116650000D01*
X130125000Y-116617179D01*
X130099881Y-116556535D01*
X130053465Y-116510119D01*
X129992821Y-116485000D01*
X129927179Y-116485000D01*
X129866535Y-116510119D01*
X129820119Y-116556535D01*
X129795000Y-116617179D01*
X129573625Y-116617179D01*
X129310000Y-116353554D01*
X129013554Y-116650000D01*
X128825000Y-116650000D01*
X128825000Y-116617179D01*
X128799881Y-116556535D01*
X128753465Y-116510119D01*
X128692821Y-116485000D01*
X128627179Y-116485000D01*
X128566535Y-116510119D01*
X128520119Y-116556535D01*
X128495000Y-116617179D01*
X128273625Y-116617179D01*
X127906446Y-116250000D01*
X128613554Y-116250000D01*
X128660000Y-116296445D01*
X128706446Y-116250000D01*
X131213554Y-116250000D01*
X131260000Y-116296445D01*
X131306446Y-116250000D01*
X131213554Y-116250000D01*
X128706446Y-116250000D01*
X128613554Y-116250000D01*
X127906446Y-116250000D01*
X127810000Y-116250000D01*
X127810000Y-117347844D01*
X117500500Y-117347844D01*
X117500500Y-114652155D01*
X127810000Y-114652155D01*
X127810000Y-115750000D01*
X127906446Y-115750000D01*
X128613554Y-115750000D01*
X128706445Y-115750000D01*
X131213554Y-115750000D01*
X131306445Y-115750000D01*
X131260000Y-115703554D01*
X131213554Y-115750000D01*
X128706445Y-115750000D01*
X128660000Y-115703554D01*
X128613554Y-115750000D01*
X127906446Y-115750000D01*
X127906446Y-115749999D01*
X128023222Y-115633224D01*
X128339267Y-115317179D01*
X128495000Y-115317179D01*
X128495000Y-115382821D01*
X128520119Y-115443465D01*
X128566535Y-115489881D01*
X128627179Y-115515000D01*
X128692821Y-115515000D01*
X128753465Y-115489881D01*
X128799881Y-115443465D01*
X128825000Y-115382821D01*
X128825000Y-115350000D01*
X129013554Y-115350000D01*
X129310000Y-115646446D01*
X129606446Y-115350000D01*
X129573625Y-115317179D01*
X129795000Y-115317179D01*
X129795000Y-115382821D01*
X129820119Y-115443465D01*
X129866535Y-115489881D01*
X129927179Y-115515000D01*
X129992821Y-115515000D01*
X130053465Y-115489881D01*
X130099881Y-115443465D01*
X130125000Y-115382821D01*
X130125000Y-115350000D01*
X130313554Y-115350000D01*
X130610000Y-115646446D01*
X130906446Y-115350000D01*
X130873625Y-115317179D01*
X131095000Y-115317179D01*
X131095000Y-115382821D01*
X131120119Y-115443465D01*
X131166535Y-115489881D01*
X131227179Y-115515000D01*
X131292821Y-115515000D01*
X131353465Y-115489881D01*
X131399881Y-115443465D01*
X131425000Y-115382821D01*
X131425000Y-115317179D01*
X131399881Y-115256535D01*
X131353465Y-115210119D01*
X131292821Y-115185000D01*
X131227179Y-115185000D01*
X131166535Y-115210119D01*
X131120119Y-115256535D01*
X131095000Y-115317179D01*
X130873625Y-115317179D01*
X130610000Y-115053554D01*
X130313554Y-115350000D01*
X130125000Y-115350000D01*
X130125000Y-115317179D01*
X130099881Y-115256535D01*
X130053465Y-115210119D01*
X129992821Y-115185000D01*
X129927179Y-115185000D01*
X129866535Y-115210119D01*
X129820119Y-115256535D01*
X129795000Y-115317179D01*
X129573625Y-115317179D01*
X129310000Y-115053554D01*
X129013554Y-115350000D01*
X128825000Y-115350000D01*
X128825000Y-115317179D01*
X128799881Y-115256535D01*
X128753465Y-115210119D01*
X128692821Y-115185000D01*
X128627179Y-115185000D01*
X128566535Y-115210119D01*
X128520119Y-115256535D01*
X128495000Y-115317179D01*
X128339267Y-115317179D01*
X129063758Y-114592688D01*
X129125081Y-114559203D01*
X129194773Y-114564187D01*
X129239120Y-114592688D01*
X129309999Y-114663567D01*
X129380878Y-114592688D01*
X129442201Y-114559203D01*
X129511893Y-114564187D01*
X129556241Y-114592688D01*
X129709999Y-114746446D01*
X130210000Y-114746446D01*
X130363758Y-114592688D01*
X130425081Y-114559203D01*
X130494772Y-114564187D01*
X130539120Y-114592688D01*
X130610000Y-114663568D01*
X130680880Y-114592688D01*
X130742203Y-114559203D01*
X130811895Y-114564187D01*
X130856242Y-114592688D01*
X132013554Y-115750000D01*
X132110000Y-115750000D01*
X132110000Y-114652172D01*
X132109999Y-114652155D01*
X132103598Y-114592627D01*
X132103596Y-114592620D01*
X132053354Y-114457913D01*
X132053350Y-114457906D01*
X131967190Y-114342812D01*
X131967187Y-114342809D01*
X131852093Y-114256649D01*
X131852086Y-114256645D01*
X131717379Y-114206403D01*
X131717372Y-114206401D01*
X131657844Y-114200000D01*
X130210000Y-114200000D01*
X130210000Y-114746446D01*
X129709999Y-114746446D01*
X129710000Y-114746445D01*
X129710000Y-114200000D01*
X128262155Y-114200000D01*
X128202627Y-114206401D01*
X128202620Y-114206403D01*
X128067913Y-114256645D01*
X128067906Y-114256649D01*
X127952812Y-114342809D01*
X127952809Y-114342812D01*
X127866649Y-114457906D01*
X127866645Y-114457913D01*
X127816403Y-114592620D01*
X127816401Y-114592627D01*
X127810000Y-114652155D01*
X117500500Y-114652155D01*
X117500500Y-101948872D01*
X122999500Y-101948872D01*
X122999500Y-102211127D01*
X123026123Y-102413339D01*
X123033730Y-102471116D01*
X123101602Y-102724418D01*
X123101605Y-102724428D01*
X123201953Y-102966690D01*
X123201958Y-102966700D01*
X123333075Y-103193803D01*
X123492718Y-103401851D01*
X123492726Y-103401860D01*
X123678140Y-103587274D01*
X123678148Y-103587281D01*
X123886196Y-103746924D01*
X124113299Y-103878041D01*
X124113309Y-103878046D01*
X124355571Y-103978394D01*
X124355581Y-103978398D01*
X124608884Y-104046270D01*
X124868880Y-104080500D01*
X124868887Y-104080500D01*
X125131113Y-104080500D01*
X125131120Y-104080500D01*
X125391116Y-104046270D01*
X125644419Y-103978398D01*
X125886697Y-103878043D01*
X126113803Y-103746924D01*
X126321851Y-103587282D01*
X126321855Y-103587277D01*
X126321860Y-103587274D01*
X126507274Y-103401860D01*
X126507277Y-103401855D01*
X126507282Y-103401851D01*
X126666924Y-103193803D01*
X126798043Y-102966697D01*
X126898398Y-102724419D01*
X126966270Y-102471116D01*
X127000500Y-102211120D01*
X127000500Y-101948880D01*
X126966270Y-101688884D01*
X126898398Y-101435581D01*
X126898394Y-101435571D01*
X126798046Y-101193309D01*
X126798041Y-101193299D01*
X126666924Y-100966196D01*
X126507281Y-100758148D01*
X126507274Y-100758140D01*
X126321860Y-100572726D01*
X126321851Y-100572718D01*
X126113803Y-100413075D01*
X125886700Y-100281958D01*
X125886690Y-100281953D01*
X125644428Y-100181605D01*
X125644421Y-100181603D01*
X125644419Y-100181602D01*
X125391116Y-100113730D01*
X125333339Y-100106123D01*
X125131127Y-100079500D01*
X125131120Y-100079500D01*
X124868880Y-100079500D01*
X124868872Y-100079500D01*
X124637772Y-100109926D01*
X124608884Y-100113730D01*
X124497415Y-100143598D01*
X124355581Y-100181602D01*
X124355571Y-100181605D01*
X124113309Y-100281953D01*
X124113299Y-100281958D01*
X123886196Y-100413075D01*
X123678148Y-100572718D01*
X123492718Y-100758148D01*
X123333075Y-100966196D01*
X123201958Y-101193299D01*
X123201953Y-101193309D01*
X123101605Y-101435571D01*
X123101602Y-101435581D01*
X123033730Y-101688885D01*
X122999500Y-101948872D01*
X117500500Y-101948872D01*
X117500500Y-95452135D01*
X122999500Y-95452135D01*
X122999500Y-98547870D01*
X122999501Y-98547876D01*
X123005908Y-98607483D01*
X123056202Y-98742328D01*
X123056206Y-98742335D01*
X123142452Y-98857544D01*
X123142455Y-98857547D01*
X123257664Y-98943793D01*
X123257671Y-98943797D01*
X123392517Y-98994091D01*
X123392516Y-98994091D01*
X123399444Y-98994835D01*
X123452127Y-99000500D01*
X126547872Y-99000499D01*
X126607483Y-98994091D01*
X126742331Y-98943796D01*
X126857546Y-98857546D01*
X126943796Y-98742331D01*
X126994091Y-98607483D01*
X127000500Y-98547873D01*
X127000499Y-95452128D01*
X126994091Y-95392517D01*
X126943796Y-95257669D01*
X126943795Y-95257668D01*
X126943793Y-95257664D01*
X126857547Y-95142455D01*
X126857544Y-95142452D01*
X126742335Y-95056206D01*
X126742328Y-95056202D01*
X126607482Y-95005908D01*
X126607483Y-95005908D01*
X126547883Y-94999501D01*
X126547881Y-94999500D01*
X126547873Y-94999500D01*
X126547864Y-94999500D01*
X123452129Y-94999500D01*
X123452123Y-94999501D01*
X123392516Y-95005908D01*
X123257671Y-95056202D01*
X123257664Y-95056206D01*
X123142455Y-95142452D01*
X123142452Y-95142455D01*
X123056206Y-95257664D01*
X123056202Y-95257671D01*
X123005908Y-95392517D01*
X122999501Y-95452116D01*
X122999501Y-95452123D01*
X122999500Y-95452135D01*
X117500500Y-95452135D01*
X117500500Y-85908872D01*
X122999500Y-85908872D01*
X122999500Y-86171127D01*
X123026123Y-86373339D01*
X123033730Y-86431116D01*
X123092380Y-86650000D01*
X123101602Y-86684418D01*
X123101605Y-86684428D01*
X123201953Y-86926690D01*
X123201958Y-86926700D01*
X123333075Y-87153803D01*
X123492718Y-87361851D01*
X123492726Y-87361860D01*
X123678140Y-87547274D01*
X123678148Y-87547281D01*
X123886196Y-87706924D01*
X124113299Y-87838041D01*
X124113309Y-87838046D01*
X124355571Y-87938394D01*
X124355581Y-87938398D01*
X124608884Y-88006270D01*
X124868880Y-88040500D01*
X124868887Y-88040500D01*
X125131113Y-88040500D01*
X125131120Y-88040500D01*
X125391116Y-88006270D01*
X125644419Y-87938398D01*
X125886697Y-87838043D01*
X126113803Y-87706924D01*
X126321851Y-87547282D01*
X126321855Y-87547277D01*
X126321860Y-87547274D01*
X126507274Y-87361860D01*
X126507277Y-87361855D01*
X126507282Y-87361851D01*
X126666924Y-87153803D01*
X126798043Y-86926697D01*
X126898398Y-86684419D01*
X126966270Y-86431116D01*
X127000500Y-86171120D01*
X127000500Y-85908880D01*
X126966270Y-85648884D01*
X126898398Y-85395581D01*
X126855887Y-85292950D01*
X126798046Y-85153309D01*
X126798041Y-85153299D01*
X126666924Y-84926196D01*
X126507281Y-84718148D01*
X126507274Y-84718140D01*
X126321860Y-84532726D01*
X126321851Y-84532718D01*
X126113803Y-84373075D01*
X125886700Y-84241958D01*
X125886690Y-84241953D01*
X125644428Y-84141605D01*
X125644421Y-84141603D01*
X125644419Y-84141602D01*
X125391116Y-84073730D01*
X125333339Y-84066123D01*
X125131127Y-84039500D01*
X125131120Y-84039500D01*
X124868880Y-84039500D01*
X124868872Y-84039500D01*
X124637772Y-84069926D01*
X124608884Y-84073730D01*
X124388617Y-84132750D01*
X124355581Y-84141602D01*
X124355571Y-84141605D01*
X124113309Y-84241953D01*
X124113299Y-84241958D01*
X123886196Y-84373075D01*
X123678148Y-84532718D01*
X123492718Y-84718148D01*
X123333075Y-84926196D01*
X123201958Y-85153299D01*
X123201953Y-85153309D01*
X123101605Y-85395571D01*
X123101602Y-85395581D01*
X123033730Y-85648884D01*
X123030978Y-85669786D01*
X122999500Y-85908872D01*
X117500500Y-85908872D01*
X117500500Y-79412135D01*
X122999500Y-79412135D01*
X122999500Y-82507870D01*
X122999501Y-82507876D01*
X123005908Y-82567483D01*
X123056202Y-82702328D01*
X123056206Y-82702335D01*
X123142452Y-82817544D01*
X123142455Y-82817547D01*
X123257664Y-82903793D01*
X123257671Y-82903797D01*
X123392517Y-82954091D01*
X123392516Y-82954091D01*
X123399444Y-82954835D01*
X123452127Y-82960500D01*
X126547872Y-82960499D01*
X126607483Y-82954091D01*
X126742331Y-82903796D01*
X126857546Y-82817546D01*
X126943796Y-82702331D01*
X126994091Y-82567483D01*
X127000500Y-82507873D01*
X127000499Y-79412128D01*
X126994091Y-79352517D01*
X126994045Y-79352395D01*
X126943797Y-79217671D01*
X126943793Y-79217664D01*
X126857547Y-79102455D01*
X126857544Y-79102452D01*
X126742335Y-79016206D01*
X126742328Y-79016202D01*
X126607482Y-78965908D01*
X126607483Y-78965908D01*
X126547883Y-78959501D01*
X126547881Y-78959500D01*
X126547873Y-78959500D01*
X126547864Y-78959500D01*
X123452129Y-78959500D01*
X123452123Y-78959501D01*
X123392516Y-78965908D01*
X123257671Y-79016202D01*
X123257664Y-79016206D01*
X123142455Y-79102452D01*
X123142452Y-79102455D01*
X123056206Y-79217664D01*
X123056202Y-79217671D01*
X123005908Y-79352517D01*
X122999807Y-79409268D01*
X122999501Y-79412123D01*
X122999500Y-79412135D01*
X117500500Y-79412135D01*
X117500500Y-70448872D01*
X122999500Y-70448872D01*
X122999500Y-70711127D01*
X123012148Y-70807190D01*
X123033730Y-70971116D01*
X123101602Y-71224418D01*
X123101605Y-71224428D01*
X123201953Y-71466690D01*
X123201958Y-71466700D01*
X123333075Y-71693803D01*
X123492718Y-71901851D01*
X123492726Y-71901860D01*
X123678140Y-72087274D01*
X123678148Y-72087281D01*
X123886196Y-72246924D01*
X124113299Y-72378041D01*
X124113309Y-72378046D01*
X124355571Y-72478394D01*
X124355581Y-72478398D01*
X124608884Y-72546270D01*
X124868880Y-72580500D01*
X124868887Y-72580500D01*
X125131113Y-72580500D01*
X125131120Y-72580500D01*
X125391116Y-72546270D01*
X125644419Y-72478398D01*
X125886697Y-72378043D01*
X126113803Y-72246924D01*
X126321851Y-72087282D01*
X126321855Y-72087277D01*
X126321860Y-72087274D01*
X126507274Y-71901860D01*
X126507277Y-71901855D01*
X126507282Y-71901851D01*
X126666924Y-71693803D01*
X126798043Y-71466697D01*
X126898398Y-71224419D01*
X126966270Y-70971116D01*
X127000500Y-70711120D01*
X127000500Y-70448880D01*
X126966270Y-70188884D01*
X126898398Y-69935581D01*
X126898157Y-69935000D01*
X126798046Y-69693309D01*
X126798041Y-69693299D01*
X126666924Y-69466196D01*
X126507281Y-69258148D01*
X126507274Y-69258140D01*
X126321860Y-69072726D01*
X126321851Y-69072718D01*
X126113803Y-68913075D01*
X125886700Y-68781958D01*
X125886690Y-68781953D01*
X125644428Y-68681605D01*
X125644421Y-68681603D01*
X125644419Y-68681602D01*
X125391116Y-68613730D01*
X125333339Y-68606123D01*
X125131127Y-68579500D01*
X125131120Y-68579500D01*
X124868880Y-68579500D01*
X124868872Y-68579500D01*
X124650257Y-68608283D01*
X124608884Y-68613730D01*
X124435757Y-68660119D01*
X124355581Y-68681602D01*
X124355571Y-68681605D01*
X124113309Y-68781953D01*
X124113299Y-68781958D01*
X123886196Y-68913075D01*
X123678148Y-69072718D01*
X123492718Y-69258148D01*
X123333075Y-69466196D01*
X123201958Y-69693299D01*
X123201953Y-69693309D01*
X123101605Y-69935571D01*
X123101602Y-69935581D01*
X123045102Y-70146445D01*
X123033730Y-70188885D01*
X122999500Y-70448872D01*
X117500500Y-70448872D01*
X117500500Y-63952135D01*
X122999500Y-63952135D01*
X122999500Y-67047870D01*
X122999501Y-67047876D01*
X123005908Y-67107483D01*
X123056202Y-67242328D01*
X123056206Y-67242335D01*
X123142452Y-67357544D01*
X123142455Y-67357547D01*
X123257664Y-67443793D01*
X123257671Y-67443797D01*
X123392517Y-67494091D01*
X123392516Y-67494091D01*
X123399444Y-67494835D01*
X123452127Y-67500500D01*
X126547872Y-67500499D01*
X126607483Y-67494091D01*
X126742331Y-67443796D01*
X126857546Y-67357546D01*
X126943796Y-67242331D01*
X126994091Y-67107483D01*
X127000500Y-67047873D01*
X127000499Y-63952128D01*
X126994091Y-63892517D01*
X126946593Y-63765169D01*
X126943797Y-63757671D01*
X126943793Y-63757664D01*
X126857547Y-63642455D01*
X126857544Y-63642452D01*
X126742335Y-63556206D01*
X126742328Y-63556202D01*
X126607482Y-63505908D01*
X126607483Y-63505908D01*
X126547883Y-63499501D01*
X126547881Y-63499500D01*
X126547873Y-63499500D01*
X126547864Y-63499500D01*
X123452129Y-63499500D01*
X123452123Y-63499501D01*
X123392516Y-63505908D01*
X123257671Y-63556202D01*
X123257664Y-63556206D01*
X123142455Y-63642452D01*
X123142452Y-63642455D01*
X123056206Y-63757664D01*
X123056202Y-63757671D01*
X123005908Y-63892517D01*
X123001680Y-63931847D01*
X122999501Y-63952123D01*
X122999500Y-63952135D01*
X117500500Y-63952135D01*
X117500500Y-52393713D01*
X119149500Y-52393713D01*
X119149500Y-52606286D01*
X119182753Y-52816239D01*
X119248444Y-53018414D01*
X119344951Y-53207820D01*
X119469890Y-53379786D01*
X119620213Y-53530109D01*
X119792179Y-53655048D01*
X119792181Y-53655049D01*
X119792184Y-53655051D01*
X119981588Y-53751557D01*
X120183757Y-53817246D01*
X120393713Y-53850500D01*
X120393714Y-53850500D01*
X120606286Y-53850500D01*
X120606287Y-53850500D01*
X120816243Y-53817246D01*
X121018412Y-53751557D01*
X121207816Y-53655051D01*
X121281383Y-53601602D01*
X121379786Y-53530109D01*
X121379788Y-53530106D01*
X121379792Y-53530104D01*
X121530104Y-53379792D01*
X121530106Y-53379788D01*
X121530109Y-53379786D01*
X121655048Y-53207820D01*
X121655047Y-53207820D01*
X121655051Y-53207816D01*
X121751557Y-53018412D01*
X121817246Y-52816243D01*
X121850500Y-52606287D01*
X121850500Y-52393713D01*
X220149500Y-52393713D01*
X220149500Y-52606286D01*
X220182753Y-52816239D01*
X220248444Y-53018414D01*
X220344951Y-53207820D01*
X220469890Y-53379786D01*
X220620213Y-53530109D01*
X220792179Y-53655048D01*
X220792181Y-53655049D01*
X220792184Y-53655051D01*
X220981588Y-53751557D01*
X221183757Y-53817246D01*
X221393713Y-53850500D01*
X221393714Y-53850500D01*
X221606286Y-53850500D01*
X221606287Y-53850500D01*
X221816243Y-53817246D01*
X222018412Y-53751557D01*
X222207816Y-53655051D01*
X222281383Y-53601602D01*
X222379786Y-53530109D01*
X222379788Y-53530106D01*
X222379792Y-53530104D01*
X222530104Y-53379792D01*
X222530106Y-53379788D01*
X222530109Y-53379786D01*
X222655048Y-53207820D01*
X222655047Y-53207820D01*
X222655051Y-53207816D01*
X222751557Y-53018412D01*
X222817246Y-52816243D01*
X222850500Y-52606287D01*
X222850500Y-52393713D01*
X222817246Y-52183757D01*
X222751557Y-51981588D01*
X222655051Y-51792184D01*
X222655049Y-51792181D01*
X222655048Y-51792179D01*
X222530109Y-51620213D01*
X222379786Y-51469890D01*
X222207820Y-51344951D01*
X222018414Y-51248444D01*
X222018413Y-51248443D01*
X222018412Y-51248443D01*
X221816243Y-51182754D01*
X221816241Y-51182753D01*
X221816240Y-51182753D01*
X221654957Y-51157208D01*
X221606287Y-51149500D01*
X221393713Y-51149500D01*
X221345042Y-51157208D01*
X221183760Y-51182753D01*
X220981585Y-51248444D01*
X220792179Y-51344951D01*
X220620213Y-51469890D01*
X220469890Y-51620213D01*
X220344951Y-51792179D01*
X220248444Y-51981585D01*
X220182753Y-52183760D01*
X220149500Y-52393713D01*
X121850500Y-52393713D01*
X121817246Y-52183757D01*
X121751557Y-51981588D01*
X121655051Y-51792184D01*
X121655049Y-51792181D01*
X121655048Y-51792179D01*
X121530109Y-51620213D01*
X121379786Y-51469890D01*
X121207820Y-51344951D01*
X121018414Y-51248444D01*
X121018413Y-51248443D01*
X121018412Y-51248443D01*
X120816243Y-51182754D01*
X120816241Y-51182753D01*
X120816240Y-51182753D01*
X120654957Y-51157208D01*
X120606287Y-51149500D01*
X120393713Y-51149500D01*
X120345042Y-51157208D01*
X120183760Y-51182753D01*
X119981585Y-51248444D01*
X119792179Y-51344951D01*
X119620213Y-51469890D01*
X119469890Y-51620213D01*
X119344951Y-51792179D01*
X119248444Y-51981585D01*
X119182753Y-52183760D01*
X119149500Y-52393713D01*
X117500500Y-52393713D01*
X117500500Y-49624500D01*
X117520185Y-49557461D01*
X117572989Y-49511706D01*
X117624500Y-49500500D01*
X224625500Y-49500500D01*
X224692539Y-49520185D01*
G37*
%TD.AperFunction*%
%TD*%
M02*
