M48
; DRILL file {KiCad 9.0.7} date 2026-02-23T13:16:06-0800
; FORMAT={-:-/ absolute / metric / decimal}
; #@! TF.CreationDate,2026-02-23T13:16:06-08:00
; #@! TF.GenerationSoftware,Kicad,Pcbnew,9.0.7
; #@! TF.FileFunction,Plated,1,2,PTH
FMAT,2
METRIC
; #@! TA.AperFunction,Plated,PTH,ComponentDrill
T1C0.330
; #@! TA.AperFunction,Plated,PTH,ViaDrill
T2C0.600
; #@! TA.AperFunction,Plated,PTH,ComponentDrill
T3C0.914
; #@! TA.AperFunction,Plated,PTH,ComponentDrill
T4C1.100
; #@! TA.AperFunction,Plated,PTH,ComponentDrill
T5C1.520
%
G90
G05
T1
X128.66Y-115.35
X128.66Y-116.65
X129.96Y-115.35
X129.96Y-116.65
X131.26Y-115.35
X131.26Y-116.65
X137.0Y-67.5
X137.0Y-68.8
X137.0Y-70.1
X138.3Y-67.5
X138.3Y-68.8
X138.3Y-70.1
X139.2Y-96.7
X139.2Y-98.0
X139.2Y-99.3
X139.5Y-83.2
X139.5Y-84.5
X139.5Y-85.8
X140.5Y-96.7
X140.5Y-98.0
X140.5Y-99.3
X140.8Y-83.2
X140.8Y-84.5
X140.8Y-85.8
X144.46Y-115.475
X144.46Y-116.775
X145.76Y-115.475
X145.76Y-116.775
X147.06Y-115.475
X147.06Y-116.775
X158.66Y-115.35
X158.66Y-116.65
X159.96Y-115.35
X159.96Y-116.65
X161.26Y-115.35
X161.26Y-116.65
T2
X128.0Y-123.0
X135.303Y-82.438
X135.897Y-94.0
X142.0Y-122.0
X144.861Y-69.238
X145.231Y-60.5
X158.0Y-122.0
X178.5Y-76.0
X185.0Y-106.0
X188.622Y-105.343
X191.622Y-98.188
X193.5Y-87.935
X194.555Y-97.441
X200.5Y-107.0
T3
X171.737Y-55.076
X171.737Y-80.603
X172.942Y-84.59
X172.942Y-125.23
X174.277Y-55.076
X174.277Y-80.603
X176.817Y-55.076
X176.817Y-80.603
X179.357Y-55.076
X179.357Y-80.603
X181.897Y-55.076
X181.897Y-80.603
X184.437Y-55.076
X184.437Y-80.603
X186.977Y-55.076
X186.977Y-80.603
X189.517Y-55.076
X189.517Y-80.603
X190.722Y-84.59
X190.722Y-125.23
X192.057Y-55.076
X192.057Y-80.603
X194.597Y-55.076
X194.597Y-80.603
X197.137Y-55.076
X197.137Y-80.603
X197.778Y-84.77
X197.778Y-125.41
X199.677Y-55.076
X199.677Y-80.603
X202.217Y-55.076
X202.217Y-80.603
X204.757Y-55.076
X204.757Y-80.603
X207.297Y-55.076
X207.297Y-80.603
X209.837Y-55.076
X209.837Y-80.603
X212.377Y-55.076
X212.377Y-80.603
X214.917Y-55.076
X214.917Y-80.603
X215.558Y-84.77
X215.558Y-125.41
X217.457Y-55.076
X217.457Y-80.603
T4
X150.05Y-64.96
X150.05Y-67.5
X150.05Y-70.04
X159.05Y-64.96
X159.05Y-67.5
X159.05Y-70.04
T5
X125.0Y-65.5
X125.0Y-70.58
X125.0Y-80.96
X125.0Y-86.04
X125.0Y-97.0
X125.0Y-102.08
X127.42Y-133.0
X132.5Y-133.0
X142.46Y-133.0
X143.46Y-55.5
X147.54Y-133.0
X148.54Y-55.5
X157.42Y-133.0
X158.96Y-55.5
X162.5Y-133.0
X164.04Y-55.5
X193.96Y-132.5
X199.04Y-132.5
M30
